/* XPM */
static char *_a64bacaa3d84e1cfde973528ca6f778_19[] = {
/* columns rows colors chars-per-pixel */
"179 40 256 2 ",
"   c #FE0009",
".  c #E40B12",
"X  c #991314",
"o  c #CD1213",
"O  c #DD1012",
"+  c #B80509",
"@  c #CA1721",
"#  c #C80B11",
"$  c black",
"%  c #D4131A",
"&  c #C70509",
"*  c #B60B10",
"=  c #ED040A",
"-  c #CD1319",
";  c #C4181A",
":  c #EC0912",
">  c #C51112",
",  c #A90B11",
"<  c #730000",
"1  c #1A0000",
"2  c #0A0000",
"3  c #BD0F12",
"4  c #220000",
"5  c #320000",
"6  c #2A0000",
"7  c #120000",
"8  c #3A0000",
"9  c #C51317",
"0  c #D40B12",
"q  c #430000",
"w  c #630000",
"e  c #530000",
"r  c #5B0000",
"t  c #4B0000",
"y  c #F4080A",
"u  c #A21112",
"i  c #DC100C",
"p  c #B41111",
"a  c #9A0B11",
"s  c #AC1212",
"d  c #AC0A0B",
"f  c #940A0B",
"g  c #BC1318",
"h  c #AC191B",
"j  c #9C090A",
"k  c #8C090A",
"l  c #EE0303",
"z  c #E6040A",
"x  c #B41417",
"c  c #ED0411",
"v  c #830A0A",
"b  c #890C0F",
"n  c #A31A1C",
"m  c #BB0E0B",
"M  c #A41417",
"N  c #97100E",
"B  c #A6100B",
"V  c #940407",
"C  c #7B0909",
"Z  c #8C0307",
"A  c #840307",
"S  c #AF0101",
"D  c #BD1814",
"F  c #921F1F",
"G  c #780B10",
"H  c #E5100B",
"J  c #CC1814",
"K  c #7B0307",
"L  c #FC080C",
"P  c #73090A",
"I  c #730306",
"U  c #DE040F",
"Y  c #D10202",
"T  c #840903",
"R  c #C11E22",
"E  c #670B11",
"W  c #D20411",
"Q  c #740803",
"!  c #6B090A",
"~  c #6B0307",
"^  c #640307",
"/  c #68100E",
"(  c #580B11",
")  c #FC0803",
"_  c #5B0306",
"`  c #6C0501",
"'  c #C61D1B",
"]  c #530307",
"[  c #040000",
"{  c #470B11",
"}  c #E70415",
"|  c #5C0903",
" . c #DE0419",
".. c #4B0406",
"X. c #DC1813",
"o. c #3B090A",
"O. c #D50416",
"+. c #000004",
"@. c #230602",
"#. c #000400",
"$. c #310802",
"%. c #EB080C",
"&. c #F70407",
"*. c #EF080D",
"=. c #E30C0C",
"-. c #D71015",
";. c #E70C0E",
":. c #D31014",
">. c #E7080E",
",. c #F3040D",
"<. c #D71010",
"1. c #FB0406",
"2. c #D31414",
"3. c #040004",
"4. c #D81416",
"5. c #F90400",
"6. c #EB0C0E",
"7. c #E20C08",
"8. c #F00C0E",
"9. c #F2000D",
"0. c #D8140F",
"q. c #F00C08",
"w. c #E50410",
"e. c #AC1319",
"r. c #9C0408",
"t. c #FA0000",
"y. c #F8040C",
"u. c None",
"i. c #630803",
"p. c #FF0406",
"a. c #000404",
"s. c #EF0808",
"d. c #E41014",
"f. c #F20007",
"g. c #E20808",
"h. c #F30407",
"j. c #DC0309",
"k. c #D40A0B",
"l. c #C80F0A",
"z. c #DC171C",
"x. c #891416",
"c. c #F40804",
"v. c #AA2325",
"b. c #840001",
"n. c #D3030A",
"m. c #DD0B0C",
"M. c #7B0000",
"N. c #BC191B",
"B. c #B4191A",
"V. c #CD181A",
"C. c #630A0A",
"Z. c #050400",
"A. c #E50B18",
"S. c #F70512",
"D. c #DD1119",
"F. c #B4201F",
"G. c #A4090B",
"H. c #FB0004",
"J. c #7B0804",
"K. c #530909",
"L. c #C51814",
"P. c #EE0A19",
"I. c #E50303",
"U. c #8C0001",
"Y. c #430306",
"T. c #E70808",
"R. c #A31813",
"E. c #E70C08",
"W. c #EB0C08",
"Q. c #D41813",
"!. c #A40408",
"~. c #59100D",
"^. c #E3080C",
"/. c #DD0B11",
"(. c #78100D",
"). c #AC0309",
"_. c #080005",
"`. c #7D1E1E",
"'. c #D4181A",
"]. c #791416",
"[. c #E70D1E",
"{. c #3A0306",
"}. c #4B090A",
"|. c #94191E",
" X c #681516",
".X c #5B090A",
"XX c #E60804",
"oX c #89100E",
"OX c #95282A",
"+X c #320306",
"@X c #360C0F",
"#X c #EF0419",
"$X c #270C0E",
"%X c #EB0808",
"&X c #FF0004",
"*X c #8C0804",
"=X c #B51B22",
"-X c red",
";X c #D3100F",
":X c #ED0804",
">X c #43090A",
",X c #F70005",
"<X c #AC0903",
"1X c #9C0001",
"2X c #9C0803",
"3X c #000008",
"4X c #120504",
"5X c #220405",
"6X c #940101",
"7X c #FF0400",
"8X c #F30D15",
"9X c #551B1F",
"0X c #711B1F",
"qX c #DD0203",
"wX c #2A0406",
"eX c #1A0406",
"rX c #F8000D",
"tX c #591417",
"yX c #A40101",
"uX c #530903",
"iX c #31090A",
"pX c #D3140F",
"aX c #F30300",
"sX c #B41814",
"dX c #AC1813",
"fX c #940903",
"gX c #DD0803",
"hX c #A40904",
"jX c #D30903",
"kX c #471617",
"lX c #430802",
"zX c #381415",
"xX c #D30B19",
"cX c #DD0C19",
"vX c #2A0A0A",
"bX c #4E1F1F",
"nX c #33110E",
"mX c #220908",
"MX c #5A2427",
"NX c #772B2E",
"BX c #47100E",
"VX c #2B1112",
"CX c #1B0A09",
"ZX c #050404",
"AX c #3A0803",
"SX c #1A0803",
"DX c #2A0803",
"FX c #4B0903",
"GX c #0C0709",
"HX c #26100C",
"JX c #11090B",
"KX c #F0100C",
"LX c #412422",
"PX c #000800",
"IX c #000808",
"UX c black",
/* pixels */
"$ $ $ $ $ $ [ [ [ $ $ $ $ [ [ $ #.$ $ $ #.$ $ $ $ $ $ $ $ $ $ $ $ $ $ $ $ $ $ $ $ $ $ $ $ $ $ $ $ $ $ $ $ $ $ $ $ $ $ $ $ $ $ [ $ $ $ $ $ $ $ $ $ $ $ $ $ $ $ #.$ $ $ [ $ $ [ [ $ $ $ $ $ $ $ $ #.#.$ $ #.a.$ $ $ $ $ $ $ [ [ $ $ $ $ $ $ $ $ $ $ $ $ $ $ $ $ [ $ $ $ $ [ [ $ $ #.#.$ $ $ #.#.#.#.$ $ $ $ $ $ $ $ +.$ $ $ $ $ #.#.$ $ $ $ $ $ 3.$ $ $ $ $ $ $ $ $ $ $ ",
"$ $ $ [ $ $ $ $ #.$ #.$ +.3.3.$ $ $ $ $ 3.[ #.$ $ [ $ $ $ $ $ $ $ $ $ $ $ $ $ $ $ $ $ $ $ $ $ $ #.$ $ $ $ $ $ $ $ $ $ $ $ $ $ $ $ $ $ $ $ $ $ [ $ $ $ $ $ $ $ $ $ $ $ $ $ [ $ $ $ $ $ $ $ $ $ $ $ $ $ #.$ $ $ $ $ $ $ $ [ [ $ $ $ $ $ $ [ $ $ $ $ $ $ $ $ $ #.$ $ $ $ $ $ $ $ $ $ $ $ $ +.+.$ $ $ $ $ $ $ $ $ $ $ $ $ $ $ $ $ $ $ +.$ $ $ +.+.+.$ $ $ $ $ $ $ $ $ $ $ ",
"$ [ [ [ [ $ $ #.$ $ #.$ $ $ $ #.#.$ $ #.$ $ $ $ [ $ $ $ #.#.#.$ $ $ $ $ $ $ [ $ $ $.w v b b E o.2 $ $ [ $ [ $ $ $ $ $ $ $ $ $ $ $ $ $ $ #.$ #.$ $ $ $ $ $ $ $ $ $ $ $ $ $ +.$ #.#.$ $ $ [ $ $ $ 1 $.8 q t e e e e 8 7 $ $ $ $ $ $ [ [ $ $ $ $ #.#.#.#.$ #.#.#.#.#.#.#.$ $ #.$ $ $ $ $ $ $ #.$ $ $ $ $ $ $ $ +.+.+.$ $ 7 +X8 ..e r | ( t 6 $ $ $ $ $ $ $ [ $ +.$ $ $ $ ",
"$ [ [ 3.$ $ $ $ 1 ..v N V v J.b a a N i.7 $ $ [ 7 +XG j V A Z r.X / 4 2 [ [ $ q X J 6.t.t.t.6.O.u ] 2 $ $ $ $ $ $ 1 ( x.j N Z b V j j N C.7 [ [ $ [ 1 ! j j N a a f C o.1 [ $ $ $ $ $ $ 7 8 C u & O.U ^.%Xl q.l 6.U + b t $ $ $ $ $ [ $ +.[ [ 5 b u u r.N V r.r.b ^ 8 q ].M * p S S S S ).S p + m m * B P 1 2 7 q k + o j.g.%.: 9.,.8.6.O.+ A { [ $ #.$ $ $ $ $ +.$ $ ",
"$ $ $ $ [ [ $ $ 1 _ B D.8Xy y &.S.} xXA 1 [ [ [ 1 { e.6.&.y.1.1.=.N 5 7 $ 1 I S D.i 3 , , m 0.5.;.J k 6 $ [ $ $ $ 6 C @ 8.t.rXt.L t.8.z.k 1 [ [ [ [ 6 j u.S.L   t.A.F.( 1 [ $ $ $ $ $ [ 1 ^ D d.  &X&XL 8X0.> 3 W 6.8Xy Y j e 2 $ [ $ +.+.[ $ q S 7.y L ) ) L S.O.f e | B z.S.  p.&Xp.L 5.&.y.5.  p.p.S.p 8 1 1 ` @ y.p.-X-X&X= Y 3 ; o >.5.} Y k 5 $ $ $ $ [ 3.+.+.$ ",
"$ $ $ $ $ $ $ +.[ [ 8 v ; c ) q.k.Z ] 6 2 3.[ [ 2 1 t K * l 6.& Z q 7 2 $ P o V.N ( [ $ $ $ | p O S.i f 5 7 $ $ $ 2 $.| Z J ,.  9.i B I 8 [ $ $ $ [ 7 ] k > q.: Y u C.1 2 [ [ $ $ $ $ $ 2 5 E b * 7.&.=.S ( $ $ 4 i.G.g.*.#X9 ! 7 2 $ $ [ [ $ 7 8 I p H f.&.W r.I q 4 1 q ` , i 1.c.w.* b K v b 1X3 m.9.p 8 7 7 {.P Z ; ,.9.: , 6 $ $ 4 I p  .&.U * ` 2 $ [ +.$ $ $ $ ",
"$ $ $ $ $ $ $ [ [ [ [ $ E - y 7.3 t $ #.+.+.$ [ $ $ $ $ G 4.9 | $ $ 2 @.i.S -.V 6 $ $ $ $ $ $ 8 N z *.z.G.5 $ [ [ $ $ $ $ Q 4.,.2.N 6 $ $ $ $ $ $ $ $ $ $ | > N.| $ $ $ #.$ $ +.$ $ $ #.$ $ $ $ ..+ ,.-.v 1 2 $ $ $ 4 J.R l 6.& v 4 $ $ $ $ $ $ #.$ ^ R 7.6.f $ $ $ $ $ $ $ 5 S 9.i , t $ $ $ $ $ 7 T 4.B 5 [ [ $ $ $ ` -. .-.b 7 $ #.$ $ 1 C o A.#X# | 2 2 +.$ $ $ $ ",
"$ $ $ $ $ $ $ $ [ $ [ $ 5 , z =.O.Q 2 $ $ #.$ $ $ $ 7 8 |.V.r.4 $ $ $ e S N.f q 2 $ $ $ $ $ $ $ q p U *. .G 7 2 [ $ $ 2 $ i.- : R Q 4 [ $ $ $ $ $ $ [ [ $ q x B u.[ 2 +.$ $ $ $ $ [ [ $ $ $ [ 7 8 e.8.2.C 7 2 #.#.[ [ $ w R . c W / [ 2 $ $ +.+.a.7 e S 4.A.b $ [ $ $ $ [ 2 @.G.l W k 5 2 $ $ $ $ $ e + |.5 2 [ $ $ [ w ; -.W v 7 $ 3.$ $ $ 1 / m 8.;.x w 1 $ $ $ $ $ ",
"[ $ $ +.+.+.+.$ $ $ #.$ 7 Q J 7.6.j 4 [ [ $ $ $ $ $ 4 / M h w 7 $ $ 7 k  .S q 1 2 3.+.$ $ [ [ $ 4 ~ D c *.* r 4 #.$ +.2 $ ] @ 6.N.^ 4 [ $ $ $ $ $ $ $ [ $ q e.j {.2 [ #.$ $ $ $ $ $ $ $ $ +.[ 7 8 s 9.-.P 7 2 $ $ $ $ $ 1 ^ * c 6.B t 1 [ $ +.+.a.7 t e.4.} A $ [ [ $ #.[ [ 4 j 6.J T 5 7 +.+.3.[ [ 8 |.v 6 2 [ $ [ 2 w 3 2.Y M.7 $ [ $ $ [ [ $ ` 0 ;.7.p 8 $ $ #.$ $ ",
"$ $ $ $ $ [ $ #.#.#.$ $ 2 q u z.y R ( 7 2 $ $ $ $ $ q u h Q 6 2 [ 7 ..B.7.f 7 [ [ $ $ $ $ $ $ $ 7 4 x.7.c.-.j 8 [ [ $ [ $ ] @ 6.N.^ 4 [ $ $ $ $ $ $ $ [ $ q M X $.[ [ $ $ $ $ $ $ $ $ $ $ $ [ 7 5 B P.-.C 7 2 $ $ $ $ $ [ [ Q -.*.O.j 5 $ $ 3.$ $ 7 t M O.7.A $ [ $ $ $ [ [ 1 j 6.- k 5 2 $ $ $ $ 2 4 / 0XwX2 [ [ $ [ r + Y o v 7 $ $ $ $ $ $ #.$.f W *.7.C 2 2 $ $ $ ",
"$ $ $ $ $ $ $ $ $ $ $ $ 2 4 ` J y '.F 5 2 $ $ $ [ $ ~ @ n 8 2 [ 2 6 v R 0 Q [ [ $ $ $ $ $ $ $ $ 2 2 i.Y 9.. # w [ [ 3.2 $ ] @ } + i.4 [ $ $ $ $ $ $ $ [ $ q , X 5 $ [ $ $ $ $ $ $ $ $ $ $ $ [ 7 $.u : '.`.1 2 $ $ $ $ $ [ $ q + H 7.# w $ [ $ $ $ 7 t M % 7.A $ [ $ $ $ [ [ 4 j 6.J k 5 2 $ $ $ $ [ 7 @Xu.7 [ [ [ $ [ e + '.0 b.1 $ [ [ $ #.$ #.1 e dX;.;.B q 1 [ $ $ ",
"$ $ $ $ $ $ $ [ [ $ $ $ [ [ 5 B ;.U R ` 7 [ [ [ 2 1 x.@ K 7 $ [ 7 e B ; g e [ $ $ $ $ $ $ [ [ $ [ $ 8 S ;.= ;.k 1 2 [ [ $ ( J } * | 1 [ $ $ $ $ $ $ $ [ $ q M X 5 $ [ $ $ $ $ $ $ $ $ $ $ $ [ 2 6 u 6.% v 4 2 $ $ $ $ $ $ $ 1 Z 2.w.7.b 1 [ [ $ $ 7 t B O.7.A $ [ [ $ $ [ [ 4 u %.J k 5 2 $ $ $ $ [ [ $ $ #.$ #.#.$ 2 e * Q.-.b 1 $ [ [ $ $ $ $ 7 1 v  .= @ v @.$ $ $ ",
"$ $ $ $ $ $ $ +.$ [ [ $ $ $ 2 G ;XU =.u 6 $ [ 2 1 ( OXR.t [ #.$ 7 M.# R j q [ $ $ #.$ [ [ [ $ +.$ $ 4 k O.l *.B 5 7 [ [ $ ( @ 6.* | 1 [ $ $ $ $ $ $ [ [ $ q B X +X[ [ $ $ $ $ $ $ $ $ [ [ $ [ 2 6 u 6.O.v 6 7 $ $ $ $ $ $ $ 7 r x 7.: , 8 7 [ $ $ 7 t M -.7.v $ [ [ $ $ [ [ 4 u %.J k 5 2 $ $ $ $ +.#.$ $ #.$ #.$ $ 2 e + 2.-.b 1 $ [ $ $ $ $ +.2 $ | W 8.X.S 8 $ $ $ ",
"$ $ $ $ $ $ $ $ $ $ $ $ $ $ 2 t p 4.l R e [ 2 7 8 F OX/ 4 [ #.$ 1 a i ; b 5 2 +.$ $ $ $ $ $ $ +.$ $ 1 ` R 6.f.D ( 1 [ 2 $ ( # } * | 1 [ $ [ $ $ $ $ $ $ $ q B X +X[ [ $ $ $ $ $ $ $ $ $ [ $ [ 2 6 u 6.% oX6 7 $ $ $ $ $ $ +.7 $.k X.9.D _ 1 [ $ +.7 t M -.7.v $ [ [ $ $ [ [ 4 u 6.J k 5 2 $ $ $ [ 2 ZX[ [ $ $ $ $ $ 2 e m 2.-.b 1 $ [ $ $ $ $ +.[ $ 8 * ;.. @ r $ $ $ ",
"$ $ $ $ $ $ $ $ $ $ $ $ $ $ 2 4 Q ' h.4.k 6 7 2 ` D k 6 7 Z.#.$ 5 S z ; C 6 2 $ $ $ $ $ $ [ $ $ $ $ 7 t e.H c.J Q 4 [ [ $ ( @ } * i.1 [ $ [ [ $ $ $ +.$ $ q B X 8 [ 2 $ $ $ $ [ $ $ $ $ $ $ [ 2 6 u 6.% T 6 7 +.+.+.$ $ $ +.2 2 P W y J C 6 [ $ +.7 t M O. .v [ [ [ $ $ [ [ 4 j 6.J k 5 2 $ $ [ 1 BX9X1 2 [ $ $ [ $ 2 e m O.-.b 1 $ [ [ $ $ $ +.$ $ 4 V 4.z 0.I $ [ $ ",
"$ $ $ $ $ $ $ $ $ $ $ $ $ $ [ 7 8 , l . + ^ 1 1 F ' ~ $ [ [ 2 [ { 3 %.R I 4 [ $ $ $ $ $ $ $ $ $ $ $ 7 $.f U &.Y k 6 [ 2 $ _ J } * i.4 [ $ [ $ $ $ $ $ [ $ q , j {.[ 2 $ $ $ $ [ $ $ $ $ $ $ [ 2 6 j 6.% v 6 7 +.$ $ $ [ $ +.2 $ _ @ q.W f 5 2 $ $ 7 e B O.i K $ [ [ $ $ [ $ 4 j 6.Y k 8 7 $ #.2 4  XNX6 7 2 $ $ $ $ 2 e p W O.b 7 $ $ $ $ $ $ $ $ $ 1 A Y z d.v $ 2 [ ",
"$ $ $ $ $ $ $ $ $ $ $ $ $ $ [ [ $ G 4.d.4.!.q }.X j 5 $ $ [ 2 [ ] # q.; ` 4 [ $ $ $ $ $ $ $ $ $ $ +.2 1 C 4.t.D.G.8 3.2 [ _ o : m | 4 [ $ $ $ $ $ $ $ $ $ q , j {.[ 2 $ $ $ $ [ $ $ $ $ $ $ [ 2 6 j 6.% oX6 7 +.$ $ $ [ $ $ [ $ { R q.4.G.q 2 $ $ 7 e , O.i K $ $ $ $ $ [ [ 1 j c 2.f 8 7 $ $ $ 5 T NX6 7 2 $ $ $ $ 2 q , @ % v 7 $ $ $ $ $ $ $ $ $ 1 I ; z 6.f 7 2 [ ",
"$ $ $ $ $ $ $ $ $ $ $ #.$ $ $ $ $ t m 7.*.m.U.|.OX.X1 [ $ $ 2 2 i.J q.R P 4 [ $ $ $ $ $ $ #.$ [ $ +.2 7 ` O.t.d.S q [ [ [ _ o c N.w 1 [ $ $ $ $ $ $ $ $ $ q e.j {.2 2 $ $ $ $ [ $ $ $ $ $ $ [ 2 6 j 6.% T 4 7 +.$ $ $ $ #.$ [ $ 8 + *.X.S t [ $ $ 7 e s 2.i K $ $ $ $ $ [ [ 1 j c 2.f 6 $ $ $ $ E =Xk 6 7 [ $ $ $ $ [ q s @ Y v 7 $ $ $ $ [ $ $ $ $ 1 w g H c j 4 2 [ ",
"$ $ $ $ $ $ $ $ $ $ $ $ $ $ $ $ #.6 v @ f.1.g.o `.7 2 [ $ $ 2 7 ~ W c.' I 4 [ $ $ $ $ $ $ [ $ $ $ $ 2 $ i.- y. .S q [ [ [ _ o 6.+ | 4 [ $ $ $ $ $ $ $ [ [ q e.j o.2 2 $ $ $ $ $ $ $ $ $ $ $ [ 2 6 j 6.2.(.4 7 $ $ $ $ #.$ $ [ $ 5 S : O g e $ $ $ 7 e s '.i K $ $ $ $ #.$ $ 7 j : ;.jXp !.u ).m O.z u 6 7 [ $ [ [ $ [ t s @ - v 7 $ $ $ $ $ $ [ $ $ 7 | * 7.: u 6 2 [ ",
"$ $ $ $ $ $ $ $ $ $ $ $ $ $ $ $ $ 1 t , 6.5.l @ | $ [ $ $ $ 2 7 ` O.c.J C 6 [ $ $ $ $ $ $ 3.$ $ $ $ 2 2 ] # y.D.S q [ 2 $ | o 6.+ i.4 [ $ $ $ $ $ $ $ [ 2 q , j o.2 2 $ $ $ $ $ $ $ $ $ $ $ [ 2 6 j 6.W ].1 2 $ $ $ $ #.$ $ [ $ 5 S %.O 3 e $ $ $ 7 ( S '.0.K $ [ [ [ [ [ [ 7 j y ) 1.y *.= l y ) &.B 6 2 [ $ $ $ $ [ t s @ J v 2 $ $ $ $ $ $ [ $ $ 7 | =X=.c u 6 2 [ ",
"$ $ $ $ $ $ $ $ $ $ $ $ $ $ $ $ $ 2 1 v 7.s. .B 5 $ $ $ $ $ 2 2 P O.c.W b 5 2 $ $ $ $ $ $ +.$ $ $ $ 2 $ t > &. .S q [ [ $ | J 6.+ i.4 [ $ $ $ $ $ $ $ [ [ q , j o.2 2 $ $ $ $ $ $ $ $ $ $ $ [ 2 6 j 6.2.C 1 2 $ $ $ $ $ $ $ [ $ 5 S 6.U R e $ $ $ 7 r S '.4.C $ [ [ $ $ $ [ 7 j *.U + v E | w G S z.N 6 2 [ $ $ [ [ 2 t p W :.A 7 $ $ $ $ $ $ $ $ $ 7 e x =.: B 5 2 [ ",
"$ $ $ $ $ $ $ $ $ $ $ $ $ $ $ $ $ [ $ w :.;.- b 6 #.$ $ $ +.2 7 P 2.y -.N 5 2 $ $ $ $ $ $ +.$ $ $ $ 2 $ t > &.O S { [ [ $ _ J 6.+ | 4 [ $ $ $ $ $ $ $ [ 2 q B a o.2 2 $ $ $ $ $ $ $ $ $ $ $ [ 2 6 j 6.2.C 1 2 $ $ $ $ $ $ $ [ $ 5 S *.U ; r $ $ $ 7 r S O.i C $ $ [ $ $ [ 2 1 a ;.# oX6 $ $ $ $ t M `.4 2 [ $ $ $ $ 2 t * '.:.A 7 $ $ $ $ $ $ $ $ #.7 r x A.l e.8 7 [ ",
"$ $ $ $ $ $ $ $ $ $ $ $ $ $ $ $ $ [ $ e # 7.R G 4 $ $ $ $ $ 2 [ E Y y.D.B q [ $ $ $ $ $ $ $ $ [ $ $ 2 $ q ; y 4.G.q [ [ $ | J 6.+ | 4 [ $ $ $ $ $ $ $ [ [ q M a o.2 2 $ $ $ $ $ $ $ $ $ $ $ [ 2 6 j ;.W C 1 7 $ $ $ $ $ $ $ 2 $ 8 p l U m e [ $ $ 7 r S O.i C $ $ $ $ $ [ 2 1 a z @ k 5 2 $ $ 2 5 v NX6 2 [ $ $ $ $ 2 t p '.4.b.7 $ $ $ $ $ $ $ $ $ 7 | + w.*.S 8 7 [ ",
"$ $ $ $ $ $ $ $ $ $ $ $ $ $ $ $ $ [ $ t &  .D I 4 $ $ $ $ $ 2 [ | @ &.7.m e $ $ $ $ $ $ $ $ $ $ $ $ 2 $ q R ,.% f 5 2 [ $ | @ ;.+ w 4 [ $ $ $ $ $ $ +.[ $ q , j o.[ 2 $ $ $ $ $ $ $ $ $ $ $ [ 2 6 j z Y C 1 2 $ $ $ $ $ $ $ 2 $ q 3 *.i S t [ $ $ 7 r x -.i K $ $ $ $ $ [ [ 1 a 6.- k 8 2 $ $ [ 6 0XNX6 7 [ $ $ [ $ 2 t p 2.4.b.1 $ $ $ $ [ $ $ $ $ 7 ` R . = M 5 7 [ ",
"$ $ $ $ $ $ $ $ $ $ $ $ $ $ $ $ $ [ $ t &  .D I 4 $ $ $ $ $ 2 $ ] ; s.d.J ^ $ $ [ $ $ $ $ $ $ $ $ [ 2 2 t > ,.@ v 6 2 2 [ i.J ;.+ | 4 [ $ $ $ $ $ $ $ $ [ q e.j o.[ 2 $ $ $ $ $ $ $ $ $ $ $ [ 2 6 j z V.].1 2 $ $ $ $ $ $ $ 2 2 ] # ,.-.u 8 [ $ $ 7 r x -.i K $ $ $ $ $ [ [ 1 j 6.V.k 8 2 $ $ [ 1 9XMX@.7 [ $ $ $ $ 2 t p W % b.7 $ $ $ $ $ $ $ [ $ 1 K o H z k 1 2 [ ",
"$ $ $ $ $ $ $ $ $ $ $ $ $ $ $ $ $ [ $ t & U g Q 4 $ $ $ $ $ [ $ q * W.;.i G [ [ [ $ $ $ $ $ $ $ $ $ 2 2 | J 8.R / 1 [ 2 [ i.o ;.+ i.1 [ $ [ $ $ $ $ $ $ [ q x u {.$ [ $ $ $ $ $ $ $ $ $ $ $ [ 2 6 u z - G 1 7 $ $ $ $ $ $ $ 2 1 P 2.,.V.T 6 2 #.$ 7 r S O.i K $ $ $ $ $ [ [ 1 a 6.V.k 5 2 $ $ [ 2 5XVX7 2 [ $ $ $ $ 2 e * 2.W v 7 $ $ $ $ $ $ 3.[ $ 6 N i ;.U C $ 2 $ ",
"$ $ $ $ $ $ $ $ $ $ $ $ $ $ $ $ $ [ $ t ; U g Q 4 $ $ $ $ $ [ [ 5 B XXE.=.k 7 [ [ $ $ $ $ [ $ $ $ [ 7 7 ^ V.: =Xe 1 2 2 [ i.o ;.+ E 4 3.$ [ $ $ $ $ $ [ $ t * j {.$ [ $ $ [ $ $ $ $ $ $ $ $ [ 7 6 j z - G 1 2 $ $ $ $ $ $ $ 7 6 x.4.y L.` 4 [ $ $ 7 ( e.'.i C $ [ $ $ $ [ [ 1 a 6.W F 5 2 $ $ $ $ $ $ #.$ $ $ +.+.$ 2 e * 2.Y v 7 $ $ +.$ $ $ [ [ $ 8 p w.;.;X^ $ [ $ ",
"$ $ $ $ $ $ $ $ $ $ $ $ $ $ $ $ $ [ $ t ; U D I 4 $ $ [ $ $ [ $ 4 Z U %.: B 6 [ [ $ $ $ $ +.$ $ $ $ 7 1 (.V.H u 5 7 [ 2 [ ^ o : R I 4 $ $ $ $ $ $ $ $ [ $ _ R u 5 $ [ $ $ [ $ $ $ $ $ $ $ $ [ 7 6 j H J G 1 2 $ $ $ $ $ #.#.7 e S 7.P.e.q 7 3.+.$ 1 ( S '.i C $ [ [ $ $ [ [ 1 X 6.W f 5 2 $ $ $ $ +.$ $ $ +.+.$ $ $ [ r 3 W o v 1 $ [ +.$ $ $ $ [ $ e Y 9. .S q $ $ $ ",
"$ $ $ $ $ $ $ $ $ $ $ $ $ $ $ $ $ [ $ t ; O N.I 4 $ $ [ $ $ $ $ 7 < # z y m ] 2 [ $ $ $ $ $ $ $ $ $ 7 6 k 2.U v 7 2 $ 2 $ i.o c @ b 6 $ $ [ $ $ $ $ #.[ $ / # j @.[ [ $ $ $ $ $ $ $ $ $ $ $ [ 7 5 u z - C 4 2 $ $ $ $ $ $ $ 1 v - A.. b 7 [ +.$ $ 1 r S % 4.C $ [ [ $ $ [ [ 1 a ;.W f 5 2 $ $ $ $ [ $ $ [ 2 $ [ [ $ $ r 3 '.W v 1 $ $ $ $ $ $ [ 7 1 C  .*.# v @.[ $ $ ",
"$ $ $ $ $ $ $ $ $ $ $ $ $ $ $ $ $ [ $ t > O D Q 4 [ $ $ $ $ $ $ 7 q R.X.&.Y A $.2 +.$ $ $ $ $ $ $ $ 7 t R.V.R e $ $ $ 2 $ ( 9 6.W a 5 $ $ $ $ $ $ $ [ 2 2 G Y j 1 $ [ $ $ $ $ [ $ $ $ $ $ $ [ 7 5 M ;.- C 4 7 $ $ $ $ $ [ $ 8 p H 7.& r $ $ $ $ $ 7 r x % i C $ [ [ $ $ [ [ 1 a 6.W F 5 2 $ $ $ $ [ $ [ 7 6 9XzX2 [ [ w R -.W v 1 $ [ [ [ [ [ $ 1 t , A.z B q 7 $ #.$ ",
"$ $ $ $ $ $ $ $ $ $ $ $ $ $ $ $ $ [ $ t &  .D G 4 $ $ +.$ $ $ $ 2 4 C - 5.d.x r 7 +.+.$ $ [ $ $ $ $ 7 G D D k 5 $ $ $ 2 $ t R 6.4.S q $ $ $ $ $ $ +.3.2 4 x.V.Z 7 $ [ [ $ $ $ $ $ $ $ $ [ $ [ 7 8 B 6.2.C 4 7 $ $ $ $ #.2 $ ` O.: J k 5 [ $ $ $ $ 7 ( S '.i C $ [ [ $ $ [ [ 7 a 6.Y F 5 2 $ $ $ $ $ $ $ 1 ( x.bX7 2 2 ^ ; -.0 A 1 $ [ $ $ [ $ $ 6 Z @ ;.O.Q 7 2 $ $ $ ",
"#.$ $ $ $ $ $ $ $ $ $ $ $ $ $ $ $ [ $ e o } ; G 6 $ $ $ $ $ [ $ 2 7 q p 8.:  .Z 4 3.[ $ $ [ [ [ [ $ 5 , W n t 1 [ [ $ 2 $ 8 p A.U @ ^ $ [ [ $ #.$ #.3.7 { u D < 7 $ [ [ $ [ $ $ #.#.$ $ $ [ [ 7 8 s : -.v 6 7 $ $ +.#.#.1 e s H ;.B t 1 [ [ $ [ $ 7 r B.Y O.C $ [ 3.+.+.[ [ 1 j 6.Y F 8 2 $ $ #.#.$ $ $ 4 T X { 2 2 2 w & 4.4.Z 7 $ [ [ $ $ [ $ | # 7.i <Xq $ [ $ $ $ ",
"$ $ $ $ $ $ $ $ $ $ $ $ $ $ $ $ $ [ $ r 0 : @ v 6 $ $ $ $ $ $ $ [ $ 2 G <.%.S.; ( $ 2 $ $ #.[ [ 2 $ i.J % ` 7 7 3.3.[ [ $ 4 N D.. . F 7 [ [ $ #.#.$ $ 5 k h a t 2 $ $ $ $ #.$ $ $ $ $ [ $ $ [ 7 q S 9.7.X 8 7 #.$ $ $ $ t * O . # _ $ 2 $ $ $ $ $ 7 r S '.i J.$ [ [ $ $ [ 2 @.M 6.O.u q 7 $ $ $ $ [ [ $ q s , 8 [ 2 2 E o 7.=.j 4 $ [ $ $ $ 7 e s : d.B e 7 $ $ [ [ $ ",
"$ $ $ $ $ [ $ $ $ $ $ $ $ $ $ $ $ $ $ _ O.6.Y Z 1 $ $ $ $ $ $ $ $ $ [ q u X.&. .u t [ $ #.$ $ +.7 e j @ u 5 $ [ +.+.$ [ $ 1 w m U 8.D ^ 7 $ $ +.$ $ $ G W N.P 6 2 $ $ $ $ $ $ [ $ $ $ $ [ $ [ 2 ] g y ;.+ | [ $ #.$ $ t B : 6.3 I 4 $ [ [ [ [ $ $ $ | m X.. T $ $ #.#.$ $ $ q * c D.x e $ $ $ $ #.$ $ $ ` @ s 5 $ $ $ ` ;X;.8.p 8 $ $ $ $ $ w ;  .6.+ e $ [ $ $ [ $ $ ",
"$ $ $ $ $ $ $ $ $ $ $ $ $ $ $ $ $ 6 r B ;.&.;.> G q 4 Z.$ [ [ [ [ $ [ 1 q s c 8.=.S e $ $ $ $ [ ^ 3 ' F q 7 $ $ $ $ $ $ $ 7 6 v W 5.: W V e 6 1 6 | Z @ u.M 5 2 [ $ [ [ [ +.$ $ $ $ $ $ [ $ 7 ( B i 5.y  .!.q 7 6 t Z J 7.>.g _ $ [ $ $ $ $ $ [ 7 e , 7.q.,.R ` 5 $ Z.$ 1 w G.i y.s.j.u.< e q q 8 q w U.g  ., 6 [ 6 r S 8.y.L <.*Xq 4 6 | V @ y -.u e 2 $ [ [ $ $ $ $ ",
"$ $ $ $ $ [ $ $ $ $ $ $ $ $ [ 4 ` * . &.p.p.p.L %.W f 6 2 [ $ $ $ [ 3.[ $ ( *  .y = J u M.< U.p @ % j 5 $ [ $ $ $ $ $ $ +.[ [ 8 u ;.5.&Xy m.Y & o T.,.7.3 w 2 $ [ $ $ $ $ $ $ $ $ [ $ #.2 8 b @ y &X&X&X  f.<.Y <.U 6.%.; A 8 $ +.[ [ $ $ [ $ 8 u Y l ) &Xp.t.w.+ P 8 e X O.5.&X&X-X&Xt.l >.z w.. >.s.y.9.A.u 6 8 j <.,.p.&X  &.>.n.J Y g.6.O 3 G 4 $ $ $ +.3.$ #.$ $ ",
"#.#.$ $ $ [ $ $ $ $ $ $ $ $ [ 6 ].h # > 3 m ; & @ 9 x.$.7 2 [ $ $ $ $ $ $ 2 8 T # %.y 1.y.&.y %.3 I 6 [ $ $ #.$ $ $ +.3.3.[ [ [ 8 b # 8X  p.p.p.1.6.Y N q 7 [ #.$ $ $ #.$ $ $ $ $ $ $ $ 7 t X m # & 3 R & o 0.j.0 # B G q $ $ [ $ $ $ +.$ [ $ q , @ & R m + > o * v q w u R J # & l.# > > # J @ o o # ; p B I 4 { M J > ; 3 + m > o W o + j ` 5 $ $ $ $ [ [ 3.[ $ $ $ ",
"$ $ $ $ $ $ $ $ $ $ $ $ $ $ $ 2 1 @.4 7 $ $ #.2 4 wX1 [ [ $ $ $ $ $ $ $ +.$ $ $ t K d ; J # , C q $ $ $ +.$ [ $ $ $ $ $ $ $ $ [ $ $ ] k , + m * u Q q [ $ $ #.$ $ $ $ $ $ [ $ $ $ $ $ $ [ 7 5X5X7 $ #.#.#.7 6 $.6 1 $ $ $ $ $ $ $ $ $ $ $ $ $ 2 @.$.@.7 #.#.[ 4 5X1 7 7 5X1 1 #.#.#.a.#.#.#.#.a.7 1 7 2 $ $ #.Z.2 SX5X2 #.$ $ #.4 6 wX5X#.$ $ #.$ $ [ 3.3.$ $ $ $ $ $ ",
"$ $ $ $ $ $ $ [ $ $ $ $ $ $ [ #.$ #.#.#.#.$ $ #.#.#.$ [ $ $ $ $ $ [ [ $ $ $ $ $ $ $ $ $ 2 $ $ $ $ $ $ [ [ $ $ $ $ $ $ $ $ $ $ [ $ $ $ $ $ $ $ $ $ $ $ $ $ $ $ $ $ +.$ $ $ $ $ $ $ [ $ $ $ $ $ $ $ $ $ $ $ $ $ $ $ $ $ $ $ $ $ $ [ [ [ $ #.$ $ $ $ #.#.#.#.$ $ $ $ $ $ +.+.$ $ $ $ $ #.#.#.#.#.$ $ $ $ a.$ +.#.$ $ #.#.#.$ $ $ $ $ $ a.$ $ #.$ #.$ [ [ [ $ $ $ $ $ $ $ ",
"$ $ $ $ $ [ $ $ $ [ [ $ $ [ [ $ $ $ $ $ $ [ [ $ $ $ $ [ $ $ $ $ $ $ $ $ $ #.#.$ $ $ $ $ $ $ $ $ $ $ $ #.$ $ $ $ $ [ [ [ [ $ $ #.$ +.+.+.+.+.+.+.+.$ $ #.$ $ $ #.$ $ $ $ $ $ $ $ $ $ $ $ [ $ $ $ $ #.$ $ $ $ $ $ +.$ $ [ [ [ $ $ $ $ $ $ $ $ [ [ [ [ [ $ $ $ $ $ $ $ $ $ $ $ $ $ $ $ $ $ $ $ $ $ $ $ $ #.+.$ $ $ [ $ $ $ $ $ $ $ $ $ $ $ $ $ $ $ $ $ $ $ $ $ $ $ $ $ $ "
};
