/* XPM */
static char *_a64bacaa3d84e1cfde973528ca6f778_8[] = {
/* columns rows colors chars-per-pixel */
"178 41 256 2 ",
"   c #FE0009",
".  c #E40B12",
"X  c #991314",
"o  c #CD1213",
"O  c #DD1012",
"+  c #B80509",
"@  c #CA1721",
"#  c #C80B11",
"$  c black",
"%  c #D4131A",
"&  c #C70509",
"*  c #B60B10",
"=  c #ED040A",
"-  c #CD1319",
";  c #C4181A",
":  c #EC0912",
">  c #C51112",
",  c #A90B11",
"<  c #730000",
"1  c #1A0000",
"2  c #0A0000",
"3  c #BD0F12",
"4  c #220000",
"5  c #320000",
"6  c #2A0000",
"7  c #120000",
"8  c #3A0000",
"9  c #C51317",
"0  c #D40B12",
"q  c #430000",
"w  c #630000",
"e  c #530000",
"r  c #5B0000",
"t  c #4B0000",
"y  c #F4080A",
"u  c #A21112",
"i  c #DC100C",
"p  c #B41111",
"a  c #9A0B11",
"s  c #AC1212",
"d  c #AC0A0B",
"f  c #940A0B",
"g  c #BC1318",
"h  c #AC191B",
"j  c #9C090A",
"k  c #8C090A",
"l  c #EE0303",
"z  c #E6040A",
"x  c #B41417",
"c  c #ED0411",
"v  c #830A0A",
"b  c #890C0F",
"n  c #A31A1C",
"m  c #BB0E0B",
"M  c #A41417",
"N  c #97100E",
"B  c #A6100B",
"V  c #940407",
"C  c #7B0909",
"Z  c #8C0307",
"A  c #840307",
"S  c #AF0101",
"D  c #BD1814",
"F  c #921F1F",
"G  c #780B10",
"H  c #E5100B",
"J  c #CC1814",
"K  c #7B0307",
"L  c #FC080C",
"P  c #73090A",
"I  c #730306",
"U  c #DE040F",
"Y  c #D10202",
"T  c #840903",
"R  c #C11E22",
"E  c #670B11",
"W  c #D20411",
"Q  c #740803",
"!  c #6B090A",
"~  c #6B0307",
"^  c #640307",
"/  c #68100E",
"(  c #580B11",
")  c #FC0803",
"_  c #5B0306",
"`  c #6C0501",
"'  c #C61D1B",
"]  c #530307",
"[  c #040000",
"{  c #470B11",
"}  c #E70415",
"|  c #5C0903",
" . c #DE0419",
".. c #4B0406",
"X. c #DC1813",
"o. c #3B090A",
"O. c #D50416",
"+. c #000004",
"@. c #230602",
"#. c #000400",
"$. c #310802",
"%. c #EB080C",
"&. c #F70407",
"*. c #EF080D",
"=. c #E30C0C",
"-. c #D71015",
";. c #E70C0E",
":. c #D31014",
">. c #E7080E",
",. c #F3040D",
"<. c #D71010",
"1. c #FB0406",
"2. c #D31414",
"3. c #040004",
"4. c #D81416",
"5. c #F90400",
"6. c #EB0C0E",
"7. c #E20C08",
"8. c #F00C0E",
"9. c #F2000D",
"0. c #D8140F",
"q. c #F00C08",
"w. c #E50410",
"e. c #AC1319",
"r. c #9C0408",
"t. c #FA0000",
"y. c #F8040C",
"u. c #6B0000",
"i. c #630803",
"p. c #FF0406",
"a. c #000404",
"s. c #EF0808",
"d. c #E41014",
"f. c #F20007",
"g. c #E20808",
"h. c #F30407",
"j. c #DC0309",
"k. c #D40A0B",
"l. c #C80F0A",
"z. c #DC171C",
"x. c #891416",
"c. c #F40804",
"v. c #AA2325",
"b. c #840001",
"n. c #D3030A",
"m. c #DD0B0C",
"M. c #7B0000",
"N. c #BC191B",
"B. c #B4191A",
"V. c #CD181A",
"C. c #630A0A",
"Z. c #050400",
"A. c #E50B18",
"S. c #F70512",
"D. c #DD1119",
"F. c #B4201F",
"G. c #A4090B",
"H. c #FB0004",
"J. c #7B0804",
"K. c #530909",
"L. c #C51814",
"P. c #EE0A19",
"I. c #E50303",
"U. c #8C0001",
"Y. c #430306",
"T. c None",
"R. c #A31813",
"E. c #E70C08",
"W. c #EB0C08",
"Q. c #D41813",
"!. c #A40408",
"~. c #59100D",
"^. c #E3080C",
"/. c #DD0B11",
"(. c #78100D",
"). c #AC0309",
"_. c #080005",
"`. c #7D1E1E",
"'. c #D4181A",
"]. c #791416",
"[. c #E70D1E",
"{. c #3A0306",
"}. c #4B090A",
"|. c #94191E",
" X c #681516",
".X c #5B090A",
"XX c #E60804",
"oX c #89100E",
"OX c #95282A",
"+X c #320306",
"@X c #360C0F",
"#X c #EF0419",
"$X c #270C0E",
"%X c #EB0808",
"&X c #FF0004",
"*X c #8C0804",
"=X c #B51B22",
"-X c red",
";X c #D3100F",
":X c #ED0804",
">X c #43090A",
",X c #F70005",
"<X c #AC0903",
"1X c #9C0001",
"2X c #9C0803",
"3X c #000008",
"4X c #120504",
"5X c #220405",
"6X c #940101",
"7X c #FF0400",
"8X c #F30D15",
"9X c #551B1F",
"0X c #711B1F",
"qX c #DD0203",
"wX c #2A0406",
"eX c #1A0406",
"rX c #F8000D",
"tX c #591417",
"yX c #A40101",
"uX c #530903",
"iX c #31090A",
"pX c #D3140F",
"aX c #F30300",
"sX c #B41814",
"dX c #AC1813",
"fX c #940903",
"gX c #DD0803",
"hX c #A40904",
"jX c #D30903",
"kX c #471617",
"lX c #430802",
"zX c #381415",
"xX c #D30B19",
"cX c #DD0C19",
"vX c #2A0A0A",
"bX c #4E1F1F",
"nX c #33110E",
"mX c #220908",
"MX c #5A2427",
"NX c #772B2E",
"BX c #47100E",
"VX c #2B1112",
"CX c #1B0A09",
"ZX c #050404",
"AX c #3A0803",
"SX c #1A0803",
"DX c #2A0803",
"FX c #4B0903",
"GX c #0C0709",
"HX c #26100C",
"JX c #11090B",
"KX c #F0100C",
"LX c #412422",
"PX c #000800",
"IX c #000808",
"UX c black",
/* pixels */
"#.$ $ $ $ $ $ $ $ $ $ $ $ $ $ $ $ $ $ $ $ $ $ $ [ [ [ $ $ $ $ $ $ $ $ $ $ $ $ $ $ $ $ $ $ $ $ +.+.+.$ $ $ $ #.$ +.$ $ $ $ $ $ $ $ $ $ $ $ $ $ $ $ $ $ $ $ $ $ $ $ $ #.$ $ $ $ $ $ $ $ $ $ $ $ $ $ $ $ $ $ $ $ $ $ $ $ $ $ $ $ $ $ $ $ $ $ $ $ $ $ $ $ $ $ $ $ $ $ $ $ $ $ $ $ $ $ [ $ $ $ $ $ $ #.$ #.$ $ $ $ $ $ $ [ [ $ $ $ $ $ $ $ $ $ $ $ $ $ $ $ $ $ $ $ $ $ $ ",
"$ $ $ $ $ $ $ $ $ $ $ $ $ $ $ $ $ $ $ $ $ $ $ $ +.$ $ $ $ $ $ $ [ $ $ $ [ $ $ $ $ $ $ $ $ #.$ $ $ $ [ [ $ $ $ $ +.$ $ $ [ [ [ [ $ $ $ +.$ $ $ $ $ $ $ $ $ $ $ $ $ $ [ $ $ $ $ $ $ $ [ [ [ [ $ $ $ $ [ $ $ $ $ $ $ [ $ $ $ $ $ $ $ $ $ $ $ $ $ $ $ $ $ $ [ [ [ $ $ $ $ $ $ $ $ $ $ $ [ $ $ $ $ $ $ $ $ $ $ $ $ $ $ #.$ $ $ $ 3.3.$ $ $ $ $ $ $ $ $ $ $ $ $ $ $ $ $ $ ",
"$ $ $ $ $ $ $ $ $ $ $ $ $ $ $ $ $ $ $ #.$ $ $ $ $ $ $ $ $ $ $ $ $ $ $ $ $ #.$ [ $ $ $ #.$ $ #.#.$ $ #.$ $ $ $ $ $ $ $ $ $ $ $ $ 3._.3.3.3.3.[ $ [ [ [ $ $ $ #.#.$ $ #.$ $ $ $ [ [ $ [ [ $ $ #.$ $ #.$ $ $ $ $ $ $ $ $ $ $ $ $ $ $ $ $ $ $ $ $ $ $ $ $ #.#.#.#.$ $ $ $ $ $ $ $ $ $ $ +.+.3.+.3.3.+.+.$ $ $ $ $ $ $ $ $ $ $ $ $ $ $ $ $ $ $ $ $ $ $ $ $ [ $ $ $ $ $ $ ",
"$ $ $ $ $ $ $ $ $ $ $ $ $ $ $ $ $ $ $ $ $ $ $ $ $ $ $ $ $ $ $ $ $ $ $ $ $ $ [ [ $ $ $ $ [ 8 ] ^ ~.Y.2 $ $ #.#.$ $ $ $ $ $ $ $ #.+.+.+.+.$ $ $ $ $ $ $ $ $ $ $ $ $ $ $ $ $ $ $ [ $ $ $ [ [ $ #.$ $ #.2 7 @.6 6 @.[ $ $ $ $ $ $ $ $ $ $ $ $ $ $ $ $ $ $ #.$ $ $ $ $ $ $ $ +.$ $ $ $ $ $ $ $ +.+.+.$ $ $ #.$ #.$ $ $ $ 7 @.$.5 5 4 $ $ $ #.$ [ $ $ $ $ $ $ $ $ $ $ $ $ ",
"$ $ $ $ $ $ $ $ $ $ $ $ [ 7 8 G N A u.< M.b b Q 6 [ [ $ 2 8 / C M.Q Q C v ..2 [ $ $ 1 ~ S /.>.l } U + Q 5 $ #.#.$ [ [ 7 q P v M.G < M.v C ^ 5 [ $ $ [ 4 ( ].A v K K C ^ 4 [ $ $ $ $ $ $ 2 5 ` N + > Y <.j.U ^.U o p v q $ $ $ $ $ $ $ $ $ 1 ~.v f U.M.M.v A P K.5 q P f u r.N 6X6X6XN a 1Xu u r.v ..4 2 6 ^ k B m J O.j.g.g.^.O.3 6Xr 1 $ $ $ $ $ $ $ $ $ $ $ $ $ $ ",
"$ #.$ $ $ $ $ #.#.$ $ $ 2 7 { , 6.y f.c.t.y z.S { $ $ $ 1 e B D.9.y h.6.o G 7 2 $ q u O.% J p , & %X*.7.* _ $ [ [ $ $ 1 I R } rXc.f.c.&. .e.r 2 #.$ 2 5 f 2.y H.t.P.z.B 8 +.$ $ $ $ #.$ 2 w + 7.L &X7Xt.>.Y R l.g.9.z W f q $ [ $ $ [ $ $ 6 C ; P.1.y.y.&.: # k e / B.: p.&X    1.&.h.&.y.) p.t.-.N 5 [ t * d.&.-X-X&X*.<.> & j.9.9.<.d i.[ $ $ #.$ $ $ $ $ [ $ $ $ ",
"$ $ $ $ $ [ $ $ $ $ $ $ $ [ 2 q Z o 5.5.*.R I Y.1 $ $ 3.2 7 ..A 3 d.6.p I 8 2 1 e X ; * ^ 7 $ $ 6 ` * l 8.m ` 4 $ $ $ 2 $.E a o l   8.W a _ @.[ #.$ [ 1 ] f o A.6.l.f e 1 $ $ $ $ $ $ #.[ 8 ` Z 3 7.5.i k 8 $ [ ( V J y 7.+ I 4 $ [ $ $ #.2 6 | r.0 9.y.<.!.Q q @.4 e Z & = 1.: > 6XM.v U.u R 0.@ j 5 2 6 E Z S /.8.= , 8 $ $ t b R *.S.J k 8 $ $ $ $ [ [ $ $ $ $ $ ",
"$ $ $ $ $ $ $ [ $ $ $ $ $ $ $ $ $ C U 6.z.N 7 #.#.#.$ +.3.+.[ 1 `.D m t $ $ [ q S @ x.8 $ +.$ $ $ $ t + } A.o u.$ [ $ $ $ $ 1 v W ,.' ~ 2 $ $ $ $ $ $ $ $ 2 | u M w $ $ $ [ $ $ $ $ $ $ $ $ $ $ i.D l J _ $ $ $ $ $ w m  .: @ ` 7 2 $ $ [ $ $ $ $.X 7.;.N 1 $ $ $ #.$ $ ` Y *.; ` [ $ $ $ $ 5 C v.N 5 $ #.$ $ q B z.z b $ [ $ $ $ 8 r.0.z =.N $.2 [ $ $ $ $ $ $ $ $ ",
"[ $ $ $ $ $ $ [ $ $ $ [ [ $ $ $ $ t m X.=.* 8 $ [ $ $ +.3.+.1 ( u v.J.4 $ 7 4 C Y + q $ [ $ $ $ $ +.7 w + ;.9.s q 1 2 [ $ 2 7 C.; : S q 7 [ #.$ $ $ $ $ $ 1 q x.k t 1 $ $ $ $ $ $ $ $ #.#.#.[ 7 t S ;.R ] [ 2 #.$ $ [ o.j =.. m < 4 $ [ $ $ [ 7 1 T 4.7.k 7 2 $ #.#.2 2 _ & 6.S t 1 +.$ a.[ 7 >XOXF 6 #.$ +.7 8 N -.d.v [ 2 3.[ $ [ 6 C J s.J b 8 2 $ $ $ $ $ $ $ $ ",
"$ $ $ $ $ $ $ $ $ $ $ $ [ [ $ [ [ @.C ' 6.0 ~ 2 2 $ $ $ $ +.4 b N.x.8 7 $ 4 / v.R v 4 $ $ +.$ $ $ $ 2 1 G W 9.V.b $.2 $ $ 2 2 ( ; c e.8 1 2 +.$ $ $ $ $ [ 1 5 v k { 7 $ $ $ $ $ $ $ $ $ $ $ [ 7 ..B.: ; ..$ 2 $ $ [ $ $ t m 7.z m t $ [ $ $ [ 7 1 C '. .v 2 2 $ #.$ 2 [ ( & ;.B 8 7 3.+.a.[ 2 6 `.x.6 [ $ +.7 5 |.O.=.C $ [ $ $ $ $ $ 4 N 7.U o Q 7 $ $ $ $ $ $ $ $ ",
"$ $ $ $ $ $ $ $ $ $ $ $ $ $ $ $ [ 1 q , 6.7.a 8 7 $ $ $ [ $ 5 S R C.2 2 $ 8 u N.n e 7 $ [ 3.$ $ $ $ [ $ q p ;.U > w [ $ $ 2 7 _ ; 6., 8 7 _.3.$ $ $ $ $ [ 7 8 `.x.q 7 $ $ +.$ [ $ $ $ $ $ $ [ 1 { S c & ] $ 2 +.$ +.$ $ 4 G R 6.U C 1 2 [ $ $ 7 1 v -.7.T 2 2 $ $ $ 2 2 ( # ;.B 8 7 3.+.+.[ [ 1  X(.6 $ $ +.7 5 k 2.d.v $ [ $ $ $ $ $ 2 ( * 4.H , 5 [ [ $ $ $ [ [ [ ",
"$ $ $ $ $ $ $ $ $ $ $ $ $ $ $ $ [ 7 7 C i w.R Q 4 $ $ [ 2 2 | + B 5 $ [ $ | J ; `.6 7 [ [ 3.$ $ $ $ [ $ 1 *Xi ;.6.N 1 [ [ 2 2 ( R 6., 5 7 [ +.$ $ $ $ $ [ 7 +Xv x.q 7 $ $ +.$ [ $ $ $ $ $ $ [ 7 q e.c @ ( $ 2 +.$ $ $ $ 7 4 k d.: dXt 1 [ $ $ 7 1 v 4.U b 2 2 $ $ $ 2 [ _ # ;., 8 7 3.+.+.#.[ [ wXiX7 $ $ +.7 6 k Y 7.A $ 2 [ $ [ $ $ [ 1 G ' c @ ` 1 2 $ [ [ [ [ $ ",
"$ $ $ $ $ $ $ $ $ $ $ $ $ $ $ $ $ [ $ t 3 U 4.S q $ $ $ 7 q x.n ` 1 #.[ [ A =.' C.[ 2 $ [ 3.$ $ $ [ [ $ 2 ^ R 7.q.S 8 7 [ 2 2 e D 6.s 5 7 [ $ $ $ $ $ $ [ 7 8 `.x.q 7 $ $ +.$ [ $ $ $ $ $ $ [ 7 8 B 6.@ _ [ 2 +.$ $ $ $ 2 $ i.;X: # v 6 [ [ +.7 4 v -.7.b 7 2 [ $ $ 2 2 _ & 6., 8 7 [ $ +.$ #.#.$ $ $ $ $ +.7 $.k 2.7.v $ [ [ [ $ #.$ [ 7 o.e.6.-.a 8 7 $ [ $ $ $ $ ",
"$ $ $ $ $ $ $ $ $ $ $ $ $ $ $ $ $ $ $ 4 k Y A.-.` $ [ $ 4 Q j `.5 7 [ 7 6 u z R ..$ [ $ $ [ $ $ $ $ $ $ 2 q u 4.h.R i.1 _.[ [ ] R l s 8 7 [ $ $ $ $ $ $ $ 7 @X`.x.{ 7 $ $ $ $ $ $ $ $ $ $ $ [ 7 5 B 6.# _ [ 2 +.$ $ $ $ [ $ q 3 H <.d q $ $ +.7 1 T -.7.b 2 2 [ $ $ 2 [ _ # : , 8 7 3.+.$ $ $ #.$ $ $ [ $ +.7 5 k O.z A $ [ [ $ $ $ $ [ 2 7 k .  .g w 2 $ $ $ $ $ $ ",
"$ $ $ $ $ $ $ $ $ $ $ $ $ $ $ $ $ $ $ 7 t e.d.6.X 6 2 $ 8 u M Y.[ 2 [ 1 { h A.m q $ [ $ $ [ $ +.$ $ $ $ 2 6 C - y Y v 6 2 [ [ ] ; 8.e.8 2 [ $ $ $ $ +.$ $ 7 8 `.x.t 7 $ $ $ $ $ $ $ $ $ $ $ [ 7 5 B 6.# _ $ 2 +.$ $ $ $ $ $ 6 u U O & e $ $ $ 7 1 v 4.=.oX2 2 [ $ $ 2 [ _ # 6., 8 7 3.$ $ 2 $.o.7 +.+.$ $ +.7 5 k 4.A.A $ [ [ $ $ $ $ $ [ $ G i 7.Y v 7 $ $ +.$ $ $ ",
"$ $ $ $ $ $ $ $ $ $ $ $ $ $ $ $ $ $ $ 2 1 C 4.*.R ` 6 2 .X=Xk 1 $ $ 2 1 i.+ z p 8 $ [ $ $ $ $ +.$ $ $ $ 2 1 ^ ' h.-.N 8 7 2 7 e ; l e.8 2 [ $ $ $ $ $ $ $ 7 8 `.x.{ 7 $ $ $ $ $ $ $ $ $ $ $ [ 7 8 B ;.& ( [ 2 +.$ $ $ $ $ $ 1 A W U <.` $ [ +.7 1 v 4.7.b 7 2 [ $ $ 2 [ ( ' 6., q 7 [ $ $ 2 ! `.6 3.[ $ $ $ 7 $.k O.. A [ [ $ $ $ $ $ [ [ $ | & z.D.j 4 $ $ $ $ $ $ ",
"$ $ $ $ $ $ $ $ $ $ $ $ $ $ $ $ $ $ $ [ $ t 3 6.-.d ( 8 `.a r 7 $ $ [ 6 G ; . S 8 $ [ $ $ $ $ 3.$ $ $ $ 2 7 t m h. .s t 7 2 7 _ R :X, 5 2 [ $ $ $ $ $ $ $ 7 {.v x.q 7 $ $ $ $ $ $ $ $ $ $ $ [ 7 5 B ;.> ( [ 2 +.$ $ $ $ $ $ 1 < R 7.=.A 2 [ $ 7 4 oX4.=.v 7 2 [ $ $ 2 [ ] R =.B q 7 [ #.$ 7 v F 6 $ [ $ $ $ 7 6 k Y 7.b 2 2 $ $ $ $ $ [ $ $ t p -.d.d $.$ [ $ $ $ $ ",
"$ $ $ $ $ $ $ $ $ $ $ $ $ $ $ $ $ $ $ $ $ 4 V 4.U i N C OX! 6 2 +.$ 2 5 b @ ;.S 5 $ [ $ $ $ $ 3.$ $ $ $ [ 7 8 p f.7.+ r 7 [ 7 _ R :X, 5 2 [ $ $ $ $ +.$ $ 7 8 `.x.q 2 $ $ $ $ $ $ $ $ $ $ $ [ 7 5 B ;.9 ( [ 2 $ $ $ $ +.$ $ 7 | + 7.A.k 2 2 #.7 4 x.z.. v 7 7 3.$ $ 2 [ ] R =., q $ $ $ $ 5 X f 6 $ $ $ $ $ 7 $.x.W  .T 2 2 [ $ $ $ $ $ $ [ q d O.6.+ 5 $ [ $ $ $ $ ",
"$ $ $ $ $ $ $ $ $ $ $ $ $ $ $ $ $ #.#.#.$ 7 | * U c.j.J M 5 2 [ $ $ 2 5 f V.H S 5 $ [ +.$ $ $ $ $ $ $ $ [ [ 4 B *.=.3 w 7 2 7 _ ; c s 8 7 [ $ $ $ $ $ $ [ 1 5 `.k t 7 #.$ [ $ $ $ $ $ $ $ $ [ 7 8 , 6.> ( 2 2 +.$ $ $ $ $ $ 1 e s  .6.N 1 2 [ 7 @.x.4.7.C 2 2 $ $ #.[ $ ] > *.o a v Q v a p R N 6 $ $ $ $ $ 7 5 k Y 7.v 2 2 $ $ $ $ $ $ $ $ 8 u 2.6.3 8 $ [ $ $ $ $ ",
"$ $ $ $ $ $ $ $ $ $ $ $ $ $ $ $ $ $ #.#.$ 7 6 T 2.y.l 0.A 1 [ [ $ +.2 8 X W >.S 8 $ [ +.$ $ $ $ $ $ $ $ [ [ 4 j c 7.3 | 2 2 1 | ; c s 8 7 [ $ $ $ $ $ $ $ 7 5 `.F t 7 $ $ 3.$ $ $ $ $ $ $ $ [ 7 8 , 6.> ( 2 2 +.$ $ $ $ $ $ 7 e ,  .6.N 1 2 #.7 @.oX-.U v 2 2 [ $ $ 2 $ ] L.y.5.y s.%Xl 5.y i j 5 $ $ $ $ $ 7 6 k % 7.b 2 2 $ $ $ $ $ $ $ $ 8 j W 6.3 8 $ [ $ $ $ $ ",
"$ $ $ $ $ $ $ $ $ $ $ $ $ $ $ $ $ $ $ $ $ [ 2 t m = X.p e 2 $ $ $ +._.8 j '.c + q $ [ $ $ $ $ $ $ $ $ $ [ [ 1 a 6.z.m | 2 [ 7 i.; : s 8 7 [ $ $ $ $ $ $ [ 1 5 `.F t 7 #.$ 3.$ $ $ $ $ $ $ $ [ 7 q , >.& _ 2 2 +.$ $ $ $ $ $ 7 e ,  .6.N 1 2 [ 7 @.x.-.U C [ 2 [ $ $ [ $ ] R l 2.!.b M.M.6XS ' j 5 $ $ $ $ $ 7 5 k O.7.k 2 2 [ $ $ $ $ $ $ $ 5 j Y ;.m q $ [ $ $ $ $ ",
"$ $ $ $ $ $ $ $ $ $ $ $ $ $ $ $ $ $ $ $ $ [ [ 6 , ;.Y f 8 7 $ $ $ #.3.8 j 4.y ; t [ 2 [ $ $ $ $ $ +.$ $ [ [ 1 N >.z.x r 2 [ 7 E 9 : , 5 2 [ $ $ $ $ +.$ [ 1 5 `.F e 7 #.$ 3.$ $ $ $ $ $ $ $ 2 7 q , ;.# | 2 2 +.+.+.$ $ $ $ 1 e s O } N 1 2 [ 2 6 x.-.U C $ 2 $ $ $ [ $ ..; ;.e.q $ $ $ $ 5 u a 6 $ $ $ $ $ 7 6 k % =.b 2 2 [ $ $ $ $ $ $ $ 5 j W z m q $ [ +.$ $ $ ",
"$ $ $ $ $ $ $ $ $ $ $ $ $ $ $ $ $ $ $ $ $ [ $ 1 a  .; v 6 2 $ $ $ $ 2 8 N -.S.- ~.$ 2 [ $ $ $ $ $ $ $ $ [ 2 1 V A.4.x r 7 [ 1 / # :X, 5 2 [ $ $ $ $ $ $ [ 1 5 `.F e 7 $ $ $ $ $ $ $ $ $ $ $ [ 7 q , ;.# | 2 2 $ $ $ $ $ $ $ 1 r x  .;.f 7 [ #.2 6 x.-.U C [ 2 $ $ $ 2 $ ..; 6.e.{ 7 [ $ $ 1 x.F 6 $ $ $ $ $ 7 $.oXY 7.b 2 2 [ $ $ $ $ [ $ $ 8 B -.6.3 q $ [ $ $ $ $ ",
"$ $ $ $ $ $ $ $ $ $ $ $ $ $ $ $ $ $ $ $ $ [ $ 1 V i R C 6 2 $ $ $ $ 2 5 k 2.&.2.` 2 2 3.$ $ $ $ $ $ $ $ [ [ 1 V ;.-., e 7 2 1 ! ' : , 5 2 [ $ $ $ $ [ $ [ 1 5 `.F e 7 $ $ $ $ [ $ $ $ $ $ $ [ 7 q , ;.# | 2 2 $ $ $ $ $ $ $ 1 ` D 7.. b 2 [ $ 7 6 k -.U C 2 2 $ $ $ 2 $ ] > ;.S { 7 [ $ $ 7 `.k 6 $ $ $ $ $ 7 6 oXY 7.A 7 2 [ $ $ $ $ [ $ [ q p 4.6.+ 8 $ [ $ $ $ $ ",
"$ $ $ $ $ $ $ $ $ $ $ $ $ $ $ $ $ $ $ $ $ [ $ 1 V i R C 6 2 $ $ $ $ 2 6 J.J y 4.v 4 7 $ $ [ [ [ [ [ $ $ [ [ 1 N ;.'.a q 7 2 1 / # = , 5 7 [ $ $ $ $ $ $ [ 1 8 `.F t 7 $ $ $ $ [ $ $ $ $ $ $ [ 7 q , ;.& _ 2 2 $ $ $ $ $ [ $ 1 v J 7.i C $ [ $ 7 6 x.-.i v 7 2 [ $ $ 2 $ ..> ;.S { 7 3.+.$ 2 (  X4 $ $ $ $ $ 7 6 k Y U A [ 2 [ $ $ $ $ [ $ $ e ; X.7.B 6 $ [ $ $ $ $ ",
"$ $ $ $ $ $ $ $ $ $ $ $ $ $ $ $ $ $ $ $ $ [ $ 1 f i R C 6 2 $ $ $ $ 2 4 i.R y  .a 5 7 $ $ $ $ +.$ $ $ $ [ [ 1 j 6.@ v 6 2 2 1 ` # = S 8 7 [ $ $ $ $ $ $ $ 1 o.x.v q 7 $ $ $ $ [ $ $ $ $ $ $ [ 7 q , >.> ] [ 2 $ $ $ $ $ [ $ 6 u  .U Y ^ $ [ +.2 6 x.-.U v 2 2 $ $ $ 2 $ ..> 6.S q 7 3.+.$ [ 7 T.[ +.$ [ [ $ 7 $.oXW 7.v $ 2 +.$ $ $ $ [ [ $ ` 0  .4.V 7 $ $ $ $ $ $ ",
"$ $ $ $ $ $ $ $ $ $ $ $ $ $ $ $ $ $ $ $ $ [ $ 1 f i R C 6 2 $ $ $ $ 2 1 t x 9.7.S e 1 $ $ $ $ +.$ $ $ $ [ [ 4 M : D w 4 2 2 1 ! @ 9.x q 7 [ $ $ $ $ $ $ $ 1 { x.x.o.7 $ $ $ $ [ $ $ $ $ $ $ [ 7 q dX;.> ( [ 2 $ $ $ $ $ [ $ 8 + ;.U 3 e [ [ +.2 6 k -.U v 2 2 [ $ $ 2 $ ..> 6.S q 7 3.+.$ $ $ $ $ +.[ [ [ [ 7 6 k 2.=.v $ [ [ $ $ $ $ [ [ [ T U 7.J G 7 $ $ $ $ $ $ ",
"$ $ $ $ $ $ $ $ $ $ $ $ $ $ $ $ $ $ $ $ $ [ $ 1 N U R C 6 2 $ #.$ $ [ 2 6 j 6.;.o M.1 $ $ $ $ $ $ $ $ $ 2 2 8 e.6.e.8 2 $ 2 1 ~ J 8.* { 7 [ $ $ $ $ $ $ $ 4 E OXv 8 7 $ $ [ $ $ $ $ $ $ $ $ [ 7 t h ;.R ] $ 2 $ $ [ $ $ 2 $ ( Y c Y f 5 $ $ +.7 @.x.-.U C 2 2 $ $ $ 2 $ ..> 6.B.q 7 _.+.$ $ #.#.$ $ $ $ [ [ 7 6 k % 7.v $ [ $ $ $ $ $ 2 2 6 u 6.X., t 7 $ $ $ $ [ $ ",
"$ $ $ $ $ $ $ $ $ $ $ $ $ $ $ $ $ $ $ $ $ [ $ 4 N U ; C 6 2 $ $ $ $ [ 2 2 v U >. .r.4 $ [ [ $ $ $ $ $ [ 2 7 .X=XD.k 7 [ $ 2 7 i.# 9.D ( 1 2 $ $ $ $ $ $ [ 6 K n P 6 7 $ $ [ $ $ $ $ $ $ $ $ 2 7 ..dX;.R uX$ 2 $ $ [ $ $ 2 7 v  .c + | 4 [ $ +.7 6 x.O.i C 2 2 [ $ $ 2 $ ..9 6.B.q 7 3.+.$ $ $ $ [ [ 1 iX1 [ 7 $.k -.=.v $ [ [ $ $ $ $ 2 1 | D ,.2.C 4 7 $ $ $ $ [ $ ",
"$ $ $ $ $ $ $ $ $ $ $ $ $ $ $ $ $ $ $ $ $ [ $ 4 N 7.' v 6 2 $ $ $ $ $ [ $ | ; U 6.3 q $ [ $ $ $ $ $ [ $ 7 5 T D 9 w $ $ $ 2 2 e ; ,.# P 4 2 $ $ $ $ [ [ [ 8 N M C.1 2 $ $ [ $ $ $ $ $ $ $ $ 2 1 ..S ;.; ] $ 2 $ $ [ $ $ 1 ( S }  .k 4 7 $ $ +.2 6 x.4.7.v [ 2 [ $ $ 2 [ ] ; 6.S t 7 [ $ $ $ $ $ [ [ }.v 8 $ 2 5 k 2.7.v [ 2 [ $ $ $ $ 7 q u -.P.p q [ 2 $ $ $ $ $ $ ",
"$ $ $ $ $ $ $ $ $ $ $ $ $ $ $ $ $ $ $ $ $ [ $ 4 j w.' T $.2 $ $ $ $ $ $ 3.8 a :.*.4.(.7 2 $ $ $ $ $ $ $ 7 e , =Xk 5 [ $ $ [ [ o.g ,.2.N 8 2 $ Z.[ [ 3.[ $ t p h K.2 2 $ $ [ $ $ $ $ $ $ $ $ 2 1 ..S ;.; ] [ 2 $ [ [ $ $ $.r.% 7.R e $ [ $ $ $ 7 6 x.4.7.v 7 2 3.$ $ 2 [ ] ; 6.e.{ 1 3.#.$ $ $ [ 2 7 T.j { [ 2 5 |.-.=.v 2 2 +.$ +.[ $ 7 G Y  .-.K 2 $ $ $ $ $ $ $ $ ",
"$ $ $ $ $ $ $ $ $ $ $ $ $ $ $ $ $ $ $ $ $ [ $ 4 j 7.' v $.2 $ $ $ $ $ $ $ 4 ^ g >.H S ( 1 $ $ [ $ $ $ $ 7 b.# n t 1 2 $ $ [ [ 6 , : U R w 2 $ #.$ 3.3.2 $ / 9 B 8 $ [ +.$ [ $ $ #.#.#.$ $ $ 2 1 ] + l # | [ 2 $ $ [ $ $ I O.7.R v 4 $ #.$ $ $ 7 6 k X.H v 2 2 [ $ $ 2 2 ] 9 6.S t 7 [ $ $ #.#.[ 1 o.x.k q 7 7 8 N z.P.f 7 [ [ $ $ [ 7 e p . - a q 7 $ $ $ $ $ $ $ $ ",
"$ $ $ $ $ $ $ $ $ $ $ $ $ $ $ $ $ $ $ #.#.$ $ @.u =.J f 5 [ $ $ $ $ $ $ $ 7 6 A 0.%X4.B 8 $ $ $ $ $ [ $ ..S # P 2 2 [ $ $ $ $ 7 A i } z a 1 $ $ $ $ $ $ 8 N W f 1 $ [ $ $ $ $ $ $ $ $ [ [ $ [ 7 | D q.2.C 1 [ $ #.$ 4 J.D ;.o C 6 2 $ $ $ $ $ 7 6 f U ;.k 2 2 [ $ a.[ 7 P - P.N.| 2 $ #.$ $ $ $ 6 (.X ].5 2 1 q ,  .c u 5 2 $ $ $ [ E p 4.z j 5 2 [ $ $ $ $ $ $ +.$ ",
"$ $ $ $ $ $ $ $ $ $ $ $ $ $ $ $ $ $ $ $ $ $ 2 | R 9.7.3 / 2 $ $ $ $ $ $ +.[ $ q S . *.7.f 5 $ $ $ $ $ / B F.V 8 $ $ $ $ $ $ $ 7 e S X.&.0 k q $ $ $ 2 | , R x w 7 $ $ $ $ $ $ $ $ $ #.$ [ $ $ q N % ,.7.x | $ $ 2 t j U U > v 4 $ [ [ $ $ $ $ 4 Q ; 8.,.S e 1 $ $ $ 7 w S 7.y 4.r.r 6 2 $ $ 2 5 v R F.` 4 $ 1 K & z f.' G 6 $ $ 8 v # A.- j q $ $ $ $ $ $ $ $ $ #.$ ",
"$ $ $ $ $ $ $ $ $ $ $ $ $ $ $ $ $ #.#.2 4 P p U S.&Xp.t.m.3 k 5 [ [ $ $ $ $ a.7 t j 7.5.. ; v e r ` V J @ G @.2 +.+.[ [ [ [ $ 2 4 | + #Xy c 0.+ ).p ; m.#X; P 4 2 $ $ $ $ [ [ $ $ $ $ $ 2 5 I + %.1.p.  &.j.+ S & m.7./., ] 7 $ #.#.#.$ $ 4 ^ G.m.1.  ) 8.<.j _ 8 e f Y &.&X-Xp.&.I.<.o l.l.o j.q.&.; | 8 i.u 0.1.&X&X5.g.R ).3 U 6.. > P 2 $ [ $ $ $ $ $ $ [ $ $ $ ",
"$ $ $ $ $ $ $ $ $ $ $ $ $ $ $ $ $ #.#.7 8 a Y U Y J n.0.U  .S q $ [ $ [ [ $ +.$ $ 6 f o ;.t.y = l *.U + K 4 $ $ $ $ $ $ 3.+.$ $ [ [ ` R ;.1.&X&Xp.p.5.H 3 I 7 $ $ $ $ #.$ [ $ $ $ $ $ +.7 q a ; 0.<.Y k.j.g.>.>.j.# a ^ 6 $ $ $ $ $ $ $ $ 6 A R i U k.k.U g.D C t C =Xo j.O.k.O.n.0.qXm.0.<.<.O.j.n.j q q f ; O.0.Y o W <.g.z g.0 S G 8 $ $ $ $ $ $ $ $ $ $ [ $ $ $ ",
"$ $ $ $ $ $ $ $ $ $ $ $ $ $ $ $ $ $ $ [ 7 wX@X5 1 [ 2 4 6 o.$.7 [ $ $ $ $ $ $ $ $ $ 2 t b p # O.# S v 5 $ $ #.$ [ $ $ $ $ $ $ $ $ $ 2 5 Q G.m > ; p a ! 6 $ $ $ $ $ $ #.$ $ $ $ $ $ $ $ [ 7 wXwX6 1 1 1 4 $.o.o.$.1 $ $ $ $ $ $ $ $ $ $ $ 2 4 @X{.5 1 4 6 5 +X4 1 @.$.6 4 4 4 @.6 6 6 6 1 1 1 1 1 1 2 2 7 5 {.$.4 7 2 7 4 @Xo.+X7 $ $ $ $ $ $ $ $ $ $ $ $ $ $ $ $ $ ",
"$ $ $ $ $ $ $ $ $ $ $ $ $ $ $ $ $ $ +.+.+.+.$ #.#.$ #.#.#.$ $ $ $ [ [ [ $ $ $ $ $ #.#.$ $ #.1 4 2 $ $ $ $ $ $ $ $ $ $ $ $ $ $ $ $ $ $ $ $ $ #.Z.#.$ $ $ $ $ $ $ $ $ $ $ $ [ $ $ $ $ $ $ $ $ $ $ $ $ $ +.+.+.+.+.$ $ $ $ $ $ $ $ $ $ $ $ [ $ $ $ #.#.$ #.#.#.#.$ $ $ a.+.+.+.$ #.$ #.#.#.a.+.+.a.$ $ $ [ $ $ $ $ $ $ $ $ $ $ $ +.+.+.+.+.$ $ $ $ $ $ $ $ $ $ $ $ $ $ ",
"$ $ $ $ $ $ $ $ $ $ $ $ $ $ $ $ $ $ +.$ +.$ $ $ #.#.#.#.$ $ $ +.$ +.+.[ [ $ $ $ $ #.Z.#.#.#.$ $ $ $ $ $ $ $ [ $ $ $ $ $ $ [ $ $ $ $ $ [ $ $ $ #.$ $ $ $ $ $ $ $ $ $ $ $ $ $ $ +.$ $ $ $ $ $ $ $ $ $ $ [ [ [ [ [ $ $ $ $ $ $ $ $ $ $ $ $ $ $ $ $ $ $ $ $ $ $ $ $ $ +.+.+.+.+.$ $ $ $ $ $ #.$ $ $ $ $ $ #.$ $ $ $ $ $ +.$ $ $ $ $ +.+.+.$ $ $ $ $ $ $ $ $ $ $ $ $ $ $ ",
"$ $ $ $ $ $ $ $ $ $ $ $ $ $ $ $ $ $ $ $ $ $ $ #.$ $ $ $ $ $ $ $ $ $ $ $ $ $ $ $ [ [ $ $ $ [ [ [ $ #.#.$ $ $ [ $ $ $ $ $ $ $ $ $ $ $ $ $ $ $ $ $ $ $ $ $ [ $ $ +.$ $ $ $ $ $ $ [ $ $ $ $ $ $ $ $ $ $ [ [ [ $ $ $ $ $ $ $ $ $ $ $ $ $ $ $ $ $ [ [ $ $ $ $ $ $ $ $ $ $ $ $ $ $ $ $ [ $ $ $ #.$ $ $ $ #.$ $ $ $ $ $ $ $ [ $ [ $ #.#.$ $ $ $ $ $ $ $ $ $ $ $ $ $ $ $ $ $ ",
"$ $ $ $ $ $ $ $ $ $ $ $ $ $ $ $ $ $ $ $ $ $ $ $ $ $ $ $ $ $ $ $ $ $ $ $ $ $ $ $ $ $ $ $ $ $ $ [ $ [ $ $ $ $ $ $ $ $ $ $ $ $ $ $ $ $ $ $ $ $ $ $ $ $ $ $ $ $ $ $ $ $ $ $ $ $ $ $ $ $ $ $ $ $ $ $ $ $ $ $ $ $ $ $ $ $ $ $ $ $ $ $ $ $ $ $ $ $ $ $ $ $ $ $ $ $ $ $ $ $ $ $ $ $ $ $ $ $ $ $ $ $ $ $ $ $ $ $ $ $ $ $ $ $ $ $ $ $ $ $ $ $ $ $ $ $ $ $ $ $ $ $ $ $ $ $ $ $ "
};
