/* XPM */
static char *_a64bacaa3d84e1cfde973528ca6f778_7[] = {
/* columns rows colors chars-per-pixel */
"178 41 256 2 ",
"   c #FE0009",
".  c #E40B12",
"X  c #991314",
"o  c #CD1213",
"O  c #DD1012",
"+  c #B80509",
"@  c #CA1721",
"#  c #C80B11",
"$  c black",
"%  c #D4131A",
"&  c #C70509",
"*  c #B60B10",
"=  c #ED040A",
"-  c #CD1319",
";  c #C4181A",
":  c #EC0912",
">  c #C51112",
",  c #A90B11",
"<  c #730000",
"1  c #1A0000",
"2  c #0A0000",
"3  c #BD0F12",
"4  c #220000",
"5  c #320000",
"6  c #2A0000",
"7  c #120000",
"8  c #3A0000",
"9  c #C51317",
"0  c #D40B12",
"q  c #430000",
"w  c #630000",
"e  c #530000",
"r  c #5B0000",
"t  c #4B0000",
"y  c #F4080A",
"u  c #A21112",
"i  c #DC100C",
"p  c #B41111",
"a  c #9A0B11",
"s  c #AC1212",
"d  c #AC0A0B",
"f  c #940A0B",
"g  c #BC1318",
"h  c #AC191B",
"j  c #9C090A",
"k  c #8C090A",
"l  c #EE0303",
"z  c #E6040A",
"x  c #B41417",
"c  c #ED0411",
"v  c #830A0A",
"b  c #890C0F",
"n  c #A31A1C",
"m  c #BB0E0B",
"M  c #A41417",
"N  c #97100E",
"B  c #A6100B",
"V  c #940407",
"C  c #7B0909",
"Z  c #8C0307",
"A  c #840307",
"S  c #AF0101",
"D  c #BD1814",
"F  c #921F1F",
"G  c #780B10",
"H  c #E5100B",
"J  c #CC1814",
"K  c #7B0307",
"L  c #FC080C",
"P  c #73090A",
"I  c #730306",
"U  c #DE040F",
"Y  c #D10202",
"T  c #840903",
"R  c #C11E22",
"E  c #670B11",
"W  c #D20411",
"Q  c #740803",
"!  c #6B090A",
"~  c #6B0307",
"^  c #640307",
"/  c #68100E",
"(  c #580B11",
")  c #FC0803",
"_  c #5B0306",
"`  c #6C0501",
"'  c #C61D1B",
"]  c #530307",
"[  c #040000",
"{  c #470B11",
"}  c #E70415",
"|  c #5C0903",
" . c #DE0419",
".. c #4B0406",
"X. c #DC1813",
"o. c #3B090A",
"O. c #D50416",
"+. c #000004",
"@. c #230602",
"#. c #000400",
"$. c #310802",
"%. c #EB080C",
"&. c #F70407",
"*. c #EF080D",
"=. c #E30C0C",
"-. c #D71015",
";. c #E70C0E",
":. c #D31014",
">. c #E7080E",
",. c #F3040D",
"<. c #D71010",
"1. c #FB0406",
"2. c #D31414",
"3. c #040004",
"4. c #D81416",
"5. c #F90400",
"6. c #EB0C0E",
"7. c #E20C08",
"8. c #F00C0E",
"9. c #F2000D",
"0. c #D8140F",
"q. c #F00C08",
"w. c #E50410",
"e. c #AC1319",
"r. c #9C0408",
"t. c None",
"y. c #F8040C",
"u. c #6B0000",
"i. c #630803",
"p. c #FF0406",
"a. c #000404",
"s. c #EF0808",
"d. c #E41014",
"f. c #F20007",
"g. c #E20808",
"h. c #F30407",
"j. c #DC0309",
"k. c #D40A0B",
"l. c #C80F0A",
"z. c #DC171C",
"x. c #891416",
"c. c #F40804",
"v. c #AA2325",
"b. c #840001",
"n. c #D3030A",
"m. c #DD0B0C",
"M. c #7B0000",
"N. c #BC191B",
"B. c #B4191A",
"V. c #CD181A",
"C. c #630A0A",
"Z. c #050400",
"A. c #E50B18",
"S. c #F70512",
"D. c #DD1119",
"F. c #B4201F",
"G. c #A4090B",
"H. c #FB0004",
"J. c #7B0804",
"K. c #530909",
"L. c #C51814",
"P. c #EE0A19",
"I. c #E50303",
"U. c #8C0001",
"Y. c #430306",
"T. c #E70808",
"R. c #A31813",
"E. c #E70C08",
"W. c #EB0C08",
"Q. c #D41813",
"!. c #A40408",
"~. c #59100D",
"^. c #E3080C",
"/. c #DD0B11",
"(. c #78100D",
"). c #AC0309",
"_. c #080005",
"`. c #7D1E1E",
"'. c #D4181A",
"]. c #791416",
"[. c #E70D1E",
"{. c #3A0306",
"}. c #4B090A",
"|. c #94191E",
" X c #681516",
".X c #5B090A",
"XX c #E60804",
"oX c #89100E",
"OX c #95282A",
"+X c #320306",
"@X c #360C0F",
"#X c #EF0419",
"$X c #270C0E",
"%X c #EB0808",
"&X c #FF0004",
"*X c #8C0804",
"=X c #B51B22",
"-X c red",
";X c #D3100F",
":X c #ED0804",
">X c #43090A",
",X c #F70005",
"<X c #AC0903",
"1X c #9C0001",
"2X c #9C0803",
"3X c #000008",
"4X c #120504",
"5X c #220405",
"6X c #940101",
"7X c #FF0400",
"8X c #F30D15",
"9X c #551B1F",
"0X c #711B1F",
"qX c #DD0203",
"wX c #2A0406",
"eX c #1A0406",
"rX c #F8000D",
"tX c #591417",
"yX c #A40101",
"uX c #530903",
"iX c #31090A",
"pX c #D3140F",
"aX c #F30300",
"sX c #B41814",
"dX c #AC1813",
"fX c #940903",
"gX c #DD0803",
"hX c #A40904",
"jX c #D30903",
"kX c #471617",
"lX c #430802",
"zX c #381415",
"xX c #D30B19",
"cX c #DD0C19",
"vX c #2A0A0A",
"bX c #4E1F1F",
"nX c #33110E",
"mX c #220908",
"MX c #5A2427",
"NX c #772B2E",
"BX c #47100E",
"VX c #2B1112",
"CX c #1B0A09",
"ZX c #050404",
"AX c #3A0803",
"SX c #1A0803",
"DX c #2A0803",
"FX c #4B0903",
"GX c #0C0709",
"HX c #26100C",
"JX c #11090B",
"KX c #F0100C",
"LX c #412422",
"PX c #000800",
"IX c #000808",
"UX c black",
/* pixels */
"#.#.#.$ $ $ $ $ $ $ $ $ $ $ $ $ $ $ $ $ $ $ $ $ $ [ [ [ $ $ $ #.$ $ $ $ #.#.$ $ $ $ $ [ [ [ $ $ $ +.$ +.+.$ $ #.#.$ $ $ $ $ $ $ $ $ $ $ $ $ $ $ $ $ $ $ $ $ $ $ $ $ $ $ $ $ $ $ $ $ $ $ $ $ [ $ $ $ $ $ $ $ $ $ $ $ [ $ $ $ $ $ $ $ $ $ $ $ $ $ $ $ $ $ $ $ #.$ $ [ $ $ $ $ $ $ $ $ $ $ $ $ $ #.#.#.#.$ $ $ $ $ $ $ $ $ $ $ $ [ $ $ $ $ $ $ [ $ $ $ $ $ $ $ $ $ $ $ ",
"$ $ $ $ $ $ $ $ $ $ $ $ $ $ $ $ $ $ $ $ $ $ $ $ $ $ $ $ $ $ $ $ [ $ $ $ $ #.$ $ $ $ $ $ a.#.$ #.$ [ [ $ [ $ [ $ $ $ $ $ $ $ $ [ $ $ 3.$ +.$ $ $ $ $ $ $ $ $ $ $ $ $ $ [ $ $ $ $ $ $ [ [ [ [ [ [ $ $ $ [ [ [ $ $ $ [ [ [ $ $ $ 3.3.$ $ $ $ $ $ $ [ $ $ $ $ $ $ $ $ $ $ $ $ $ $ $ $ $ $ $ $ $ $ $ $ $ $ $ $ $ $ $ $ $ $ $ $ $ $ $ $ $ $ $ $ $ $ $ $ $ $ $ $ $ $ $ $ $ ",
"$ $ $ $ $ $ $ $ $ $ $ [ [ $ $ $ #.$ #.#.#.$ $ $ $ $ #.$ $ $ $ $ $ #.$ $ $ $ $ [ [ [ [ $ +.+.$ #.$ $ $ $ $ $ $ $ $ $ $ $ $ $ $ $ $ +.3.3.3.3.3.[ $ $ $ $ $ $ $ $ $ +.$ #.$ $ $ $ $ $ [ [ [ [ $ #.$ $ #.$ #.#.$ #.#.#.#.#.$ $ $ $ $ $ [ [ $ $ $ $ $ $ #.$ #.#.$ $ [ $ $ $ $ #.#.$ $ $ $ $ $ $ +.3.3.$ $ $ $ $ $ #.$ $ $ $ +.$ $ $ $ #.#.$ $ $ [ $ $ $ $ $ [ [ $ $ $ $ ",
"$ $ $ $ $ $ $ $ $ $ $ $ $ $ $ $ $ $ $ #.$ $ $ $ $ $ #.#.$ $ $ $ $ $ $ $ $ $ $ [ [ #.a.+.$ $ $.] | ] {.$ $ $ $ $ $ $ $ $ [ $ $ $ $ $ +.$ $ #.$ $ $ $ $ $ $ $ $ #.$ $ $ $ $ $ $ $ $ $ $ $ $ $ $ $ $ $ $ $ [ 7 1 1 7 #.$ $ $ $ $ $ $ $ $ $ $ $ $ $ $ $ #.$ $ #.$ $ $ $ $ $ $ $ $ $ $ $ $ #.$ $ +.+.$ $ $ $ [ $ $ $ $ $ $ 2 1 4 4 1 $ #.$ $ $ $ [ $ $ $ $ $ +.$ $ $ $ $ ",
"$ $ $ $ $ [ [ $ $ $ $ $ $ [ 7 5 P k v u.< M.v v / $.[ [ $ 2 6 .XQ G < I Q P ..7 2 $ $ 4 C.N 3 -.z 7.Y S Q 8 $ $ $ $ [ $ 7 q / G M.G Q G G P C.5 2 $ $ 2 1 }.P K K K K G | 4 [ [ $ $ +.$ [ 2 5 E b G.p 3 # @ o J & m yXJ.o.$ $ $ $ $ $ $ [ [ 1 ] (.A b.M.M.M.J.` ] 5 q ` b V V Z b U.U.U.Z 6X6XV b Q ] 4 7 6 i.A r.).3 & o o # # p 2Xv e 4 $ $ [ [ [ [ $ $ $ $ $ $ $ ",
"#.#.#.#.$ $ $ #.#.#.$ $ $ 2 7 8 k W =.%Xs.h.*. .g ^ 7 2 [ 1 8 F V.} >.%.U o x.6 1 7 8 A 3 - <.l.3 Y w.6.4.p i.[ 2 [ [ [ 1 i.S 4.q.s.f.h.,.D.+ ` 7 $ [ 7 5 b V.#X&.&.: 4.M 8 $ [ $ [ [ [ [ 7 w m  .S.) &XL l j.o O.>.9.7.; A 8 [ 2 3.[ $ [ [ 5 k 9 z y f.y 9.>.; A r C D ;.L     L 1.&.y y &.5.  q.# v 8 1 w R d.&.  &X) : 0.Y 0.g.= d.R Z ] 7 [ 3.[ $ $ $ $ $ $ $ $ ",
"$ $ $ $ [ [ [ [ [ [ [ [ $ [ [ 7 8 G m P.8.: J b e @.[ [ [ 2 1 e v S i 6.R A q 1 4 q v N.D Q 6 $ $ 6 u.d 7.;.3 K $.$ $ $ 7 6 ^ V J 6.&.6.<.B E 5 7 [ [ 2 4 e a Y } 6.:.j _ @.[ [ [ $ [ [ [ 2 8 P V R O :XQ.k q 4 @.w j J %.-.s ^ 4 $ [ $ $ [ 7 5 ` d <.l ,.Y !.G q 6 5 | N o 6.&.H 3 1XU.U.V , o i D v 8 1 8 I N > =.z /.j q 4 4 ( !.Y } [.x ` 5 [ $ $ $ [ $ $ $ $ +.",
"$ $ $ $ $ $ $ $ $ $ +.$ $ $ $ [ $ $ ~ & z.O., o.$ [ a.$ $ #.#.$ 2 E =XR ^ [ 2 2 8 f =XX e 4 [ $ +.$ $ t , X.i o Q 7 7 $ [ $ [ 4 G ' z ; C @.$ $ $ $ $ $ $ $ 7 _ X j w 1 $ [ $ $ $ $ $ $ $ [ $ $ 7 E + 7.R ( [ [ $ $ 7 ` R 4.7.3 ^ 1 2 $ $ [ $ $ 7 t u 2.4.b 1 $ $ $ $ [ 6 v @  .=X| 1 $ $ $ $ e F v.v 6 2 [ $ [ w B.Y o P [ 2 [ $ 1 e S  .4.# K 4 7 [ $ [ [ $ $ $ +.",
"$ $ $ $ $ $ $ $ [ $ $ $ $ [ $ $ [ [ 8 j @ 4.g | 7 2 $ $ [ [ [ 7 8 `.v.F 8 [ 7 4 ! N.=X_ 7 2 [ [ [ [ [ 7 e , X.6.s ] 4 7 [ [ 2 7 ( + D.S ] 1 2 #.#.$ $ $ $ [ 1 5 `.F t 7 [ [ +.$ $ #.#.#.#.$ $ [ 7 ] h 4.+ ..2 2 $ $ $ 1 e u O 4.B.^ 1 2 [ #.$ [ 1 5 F J 2.C 7 2 [ $ [ 7 4 / R 4.j 8 1 $ $ $ 2 6 E F P 6 [ [ $ 7 e M @ ; ` 7 2 [ [ [ 1 t X Y 7.* E 6 2 [ [ $ $ $ $ $ ",
"$ $ $ $ $ $ $ $ $ $ $ $ $ [ [ $ [ 2 4 _ h  .% v 6 7 [ $ $ $ [ 1 u.n F _ 4 [ 1 e X N.f $.$ [ $ $ [ [ [ 7 7 E R =.J X 8 7 [ $ 2 7 ..B.D.h t 1 2 $ $ $ $ $ [ [ 1 5 0Xx.q 7 [ [ $ $ [ $ $ $ $ [ [ 2 1 ] h 4.* ..2 2 $ $ [ [ $ ( * % -.S t 7 [ $ $ [ 1 5 x.@ - Q 2 2 [ $ $ 7 1 E D % |.6 7 [ $ #.2 1 >X`. X4 [ [ [ 1 e u ' > ^ [ [ [ #.Z.2 7 t M X.Y p | 7 [ [ [ [ [ $ $ ",
"$ $ $ $ $ $ $ $ $ $ $ $ $ $ $ [ [ 2 1 5 F z.i , _ 4 [ [ $ [ [ 6 f F.0X$.7 [ 6 A v.v.u.4 [ _.[ $ $ #.a.2 2 8 B X.-.; / 7 [ 2 2 7 ] B. .h q 1 2 $ $ #.$ $ [ [ 1 8 NXv q 7 [ $ $ $ [ $ $ $ $ [ [ 2 7 ..h X.m ] 2 2 $ [ [ [ [ 6 K D  .Y G 1 7 $ [ [ 1 6 T @ - G 2 2 [ $ $ 2 1 / D -.N 5 7 [ #.#.[ 7 wX XC.4 [ [ [ 1 t j @ @ ~ [ 2 [ $ #.$ $ 1 P R W W k 6 [ [ $ $ [ [ $ ",
"$ $ $ $ $ $ $ $ $ $ $ $ $ $ $ $ $ $ 2 7 i.9 4.9 f 8 2 [ $ 2 2 ] M u Y.7 7 [ e , =Xk q 1 [ [ [ $ $ $ [ 2 [ 1 K - X. .X 6 7 2 2 7 t S X.h q 1 2 $ $ #.$ $ [ [ 1 5 ].`.q 7 [ $ $ $ [ $ $ $ $ $ [ 2 1 q M D.N.] 2 2 $ $ $ [ 2 1 8 f 4.i R.t 1 2 [ [ 7 6 x.J - G 7 2 [ [ [ 7 4 ` R 4.N 5 7 [ $ $ $ 2 7 nXwX7 [ [ [ 1 t j ' 9 ` 7 2 [ $ $ [ [ 7 q N ' z.S ( 7 2 $ [ [ [ $ ",
"$ $ $ $ $ $ $ $ $ $ $ $ $ $ $ $ $ $ [ 2 8 j J -.R w 7 2 2 7 6 0Xn C 6 [ 2 [ / ; N.(.6 7 [ $ $ $ $ $ [ [ [ 1 r S -.;.x t 1 7 2 7 ..B.X., q 1 2 $ $ $ $ $ [ [ 7 5 NXv q 7 [ $ $ $ [ [ [ [ $ $ [ 2 1 q u X.D ] 7 2 $ $ $ $ [ 7 7 ~ o 7.D K 6 2 [ $ 7 $.k J - C 7 2 [ [ [ 7 4 P ; 4.X 5 7 [ $ $ $ #.$ $ $ $ $ [ [ 1 t N ; ' ` 2 2 [ $ $ $ $ 2 6 / * O R (.6 2 [ [ $ $ $ ",
"$ $ $ $ $ $ $ $ $ $ $ $ $ $ $ $ $ $ [ [ 4 I m X.-.oX4 7 2 4 r F x.t 1 [ 7 4 T Y D E 1 7 [ [ $ $ $ $ $ $ $ 7 8 F Y ;.; ` 6 7 2 7 t x O h t 1 2 $ $ #.$ $ [ [ 1 8 NXv q 7 [ $ $ $ $ $ $ $ $ $ [ 2 1 q u X.+ ] 7 2 $ $ $ $ $ 2 $ t g U - G.o.2 [ [ 1 5 x.V.Y C 7 2 [ [ [ 7 1 / R 4.X 5 7 [ $ $ [ $ $ $ $ $ [ [ [ 1 t X ' # ` [ 2 [ $ #.$ [ 2 1 q j 4.@ X t 7 [ $ $ $ $ ",
"$ $ $ $ $ $ $ $ $ $ $ $ $ $ $ $ $ $ $ $ 7 o.F % U , e 4 2 5 T X C.4 7 2 7 q j 4.m ( 1 7 [ [ [ $ $ $ $ $ $ 2 4 ` R z @ k 8 7 2 7 t x 7.S t 1 2 $ $ #.$ [ [ [ 1 5 ].x.q 7 $ $ $ $ $ $ $ $ $ $ [ 2 1 q u 4.+ ] 2 2 $ $ +.$ $ [ [ 5 G.Q.2.+ t [ [ [ 7 6 x.Y 0 (.2 2 [ [ [ 7 1 / R -.N 8 7 $ [ [ 2 wX@X2 3.[ [ [ [ 4 t j ' # ` 2 2 [ $ #.$ $ 2 2 4 A 4.'.x E 1 $ [ 3.$ $ ",
"$ $ $ $ $ $ $ $ $ $ $ $ $ $ $ $ $ $ $ [ 2 1 i.; 7.; f 8 1 ] u x.5 2 2 2 1 ] h 4.* ] 7 2 [ [ [ $ $ $ $ $ $ 2 4 ( + H Y j { 7 2 1 ..* U h q 1 2 $ $ #.$ [ [ [ 1 5 `.x.q 7 [ $ $ $ $ $ $ $ $ $ [ 2 1 8 u 4.+ ] 2 2 $ $ +.$ $ [ [ 6 Z J % > ^ [ 2 [ 7 6 k V.:.G 7 2 [ [ [ 7 1 E R O.a 5 7 [ [ [ 1  X! 1 [ [ [ [ 2 1 t j ' # ` 7 2 [ $ $ $ $ [ 2 7 Q - '.R K 4 [ [ [ $ $ ",
"$ $ $ $ $ $ $ $ $ $ $ $ $ $ $ $ $ $ $ #.[ $ 8 u -.W m ` 8 (.n ~ 4 [ [ 2 4 i.S 4.p t 7 2 [ $ [ $ +.$ $ $ $ 2 7 8 , =.-.x | 1 7 1 ..sXO h q 1 2 $ $ #.$ $ [ [ 1 5 `.x.{ 2 [ $ $ $ $ $ $ $ $ $ [ 2 1 8 u 4.+ ] 2 2 $ $ $ $ [ [ [ 1 G R O.Y Q 7 2 [ 7 8 k V.Y G 1 2 [ $ $ 7 7 C.N.% X 5 7 [ [ [ 6 `.(.4 2 [ $ $ [ 7 t N ' # P 7 2 $ $ $ [ $ [ [ 2 w R 2.J k 6 [ [ $ $ $ ",
"$ $ $ $ $ $ $ $ $ $ $ $ $ $ $ $ $ $ $ $ [ [ 4 G R 4.U !.< F v 8 7 $ [ 2 6 P + X.x t [ 2 $ $ [ $ $ $ $ $ $ [ 7 5 R.=.4.g u.4 7 1 ] B.O , q 1 2 $ $ #.$ $ [ [ 1 5 0Xx.t 7 [ $ $ $ $ $ $ $ $ $ [ 2 1 q u X.+ ] 2 2 $ $ $ 3.[ [ [ 1 E * Q.-.v 7 7 [ 7 8 k V.Y I 1 2 [ $ [ 7 1 ^ D O.a 5 $ $ $ $ >Xx.Q 6 2 [ $ [ [ 1 q X ' # ` 2 2 [ $ $ $ [ [ [ [ ( m V.% X 6 [ [ $ $ $ ",
"$ $ $ $ $ $ $ $ $ $ $ $ $ $ $ $ $ $ $ $ #.[ 7 q N Y s.0.> h ( 1 2 [ [ 2 6 Q N.i x t 2 2 $ $ $ $ [ $ $ $ $ [ [ 4 f  .4.; < 1 7 1 e * O , q 1 2 $ #.#.$ $ [ [ 1 5 `.F t 7 [ [ $ $ $ $ $ $ $ [ [ 2 1 q u 4.m ] 2 2 $ $ $ $ $ $ [ 4 r e.2.4.k 1 7 [ 1 8 k V.o ` 7 2 [ $ #.2 2 i.; =.& V M.M.b u x F.v 6 [ $ $ [ [ 1 { X ; # P 2 [ $ #.$ $ [ [ [ 2 e * V.% u 8 [ [ $ $ $ ",
"$ $ $ $ $ $ $ $ $ $ $ $ $ $ $ $ $ $ $ #.#.[ 7 4 ` R >.;.0.N 5 2 2 [ [ 2 5 v R U * t 2 2 $ $ $ $ $ $ $ [ $ [ 2 4 k cX-.R ` 1 7 4 ( *  ., q 1 2 $ #.#.$ $ [ [ 1 5 NXx.t 1 [ [ +.$ $ $ $ $ $ [ [ 2 1 q u 4.m ] 7 2 $ $ $ $ $ [ [ 1 ( e.O.z.F 1 7 2 7 8 F J J ` 7 2 [ [ [ 2 2 C.' ,.,.l : : f.1.9.J v 6 [ [ [ [ [ 1 t N ' J P 7 2 [ $ $ $ $ $ $ 2 e p V.% u 5 [ [ +.$ $ ",
"$ $ $ $ $ $ $ $ $ $ $ $ $ $ $ $ $ $ [ [ [ [ 2 7 q B i 4.; I 1 [ [ $ [ 2 5 v ; d.D _ 7 2 $ $ $ $ $ $ $ $ $ [ 2 1 b 4.-.D ` 1 2 4 | * O h t 1 2 $ $ $ $ $ $ [ 1 5 ].F t 1 [ [ 3.$ $ $ $ $ $ [ [ 2 1 q u X.m ] 2 2 $ $ $ $ $ $ [ 1 e e.-.z.k 1 7 2 7 8 F J J P 2 2 [ [ $ 2 7 | D 7.@ a b.M.b.N S F.A 6 2 2 [ [ [ 1 t a # - P 7 2 [ $ $ $ $ [ [ 2 t S V.% u 8 [ [ +.$ $ ",
"$ $ $ $ $ $ $ $ $ $ $ $ $ $ $ $ $ $ $ #.[ [ 2 2 6 k - # s ( 1 [ $ $ $ 2 5 b # ;.; C.1 2 [ [ $ $ +.+.[ [ $ [ 2 1 v 4.O.D ` 1 7 1 | N. .h ..1 2 $ $ $ $ +.$ [ 1 8 ].F e 1 [ [ +.$ $ $ $ $ $ [ [ 2 1 q M 4.N.] 7 2 $ $ $ $ $ $ [ 1 r e.% X.k 1 7 [ 1 q |.J - Q 7 2 [ $ [ 7 1 i.D -.a 8 $ $ $ $ }.OXoX6 [ [ [ [ [ 1 t a # # P 7 2 [ $ $ $ $ [ [ 2 t S V.2.u 8 [ [ +.$ $ ",
"$ $ $ $ $ $ $ $ $ $ $ $ $ $ $ $ $ $ $ $ $ $ [ 2 1 K 9 D j t 7 [ [ $ [ 2 $.v # } J Q 1 7 [ [ $ $ $ $ $ $ $ [ 2 1 v -.Y + u.1 7 1 | N.U h ..1 2 $ $ $ $ [ [ [ 1 5 ].x...1 [ $ $ $ [ $ $ $ $ $ [ 2 1 q M 4.+ ( 2 2 $ $ $ $ $ [ $ 1 w x O.4.b 1 2 [ 7 8 |.J o P 2 2 $ $ [ 7 7 | R X.u 8 1 [ [ [ +Xv C @.2 [ $ $ $ 1 q N ' # P 7 2 [ $ $ #.$ [ [ [ ( * W -.u 5 [ 2 [ $ $ ",
"$ $ $ $ $ $ $ $ $ $ $ $ $ $ $ $ $ $ $ $ $ $ [ 2 1 Q N.N.a t 7 [ $ $ [ 2 6 P R ;.W oX$.1 [ $ $ $ $ $ $ $ $ [ 2 1 v -.- S r 7 7 1 | + U h ..1 2 $ $ $ $ [ [ 2 1 5 ].F ..7 [ $ $ $ [ $ $ $ $ $ [ 2 1 { M O.+ ( 7 2 $ $ $ $ $ [ [ 1 G R -.0 C 7 2 [ 7 8 F J o I 7 2 [ $ [ 7 7 .XN.4.u 8 7 [ [ $ 4 0X].4 2 [ $ $ [ 1 t N ; # ` 2 2 [ $ $ $ $ [ [ 2 ^ ; % Y N 5 [ [ $ $ $ ",
"$ $ $ $ $ $ $ $ $ $ $ $ $ $ $ $ $ $ $ $ $ $ [ [ 1 Q R N.a t 7 [ $ $ [ 2 4 ^ * H 2.N o.1 [ [ $ $ $ $ $ $ $ [ 2 1 A 0 @ n t 7 7 4 | + O h t 1 2 [ $ $ $ $ [ 2 1 5 NXx.t 1 [ $ $ $ $ $ $ $ $ $ [ 2 1 { B -.+ ] 7 2 $ $ $ $ $ [ 2 4 b @ -.- P 2 2 [ 1 8 F @ J P 7 2 [ $ $ 2 1 C.D z.u 8 7 [ [ [ 7 tXtX1 [ [ $ $ [ 1 q N ' # ` 7 2 [ $ $ $ $ [ 2 7 I @ 2.# A 4 [ [ [ [ $ ",
"$ $ $ $ $ $ $ $ $ $ $ $ $ $ $ $ $ $ $ [ $ $ [ [ 4 G D N.N t 2 [ $ $ [ 2 1 e e.=.4., e 7 $ $ $ $ $ $ $ $ $ [ 2 1 b W R k 8 7 2 1 | + O e.t 4 2 [ $ $ $ $ [ [ 1 8 NXx.q 7 [ [ [ $ $ $ $ $ $ $ [ 2 1 q B 0 + ] 2 2 $ $ $ $ $ [ [ 5 u % -.; | 2 2 [ 7 o.|.@ J Q 7 7 [ $ $ 2 1 C.R D.j 8 7 2 3.[ [ 2 4X[ [ $ $ [ $ 1 t X ' 9 / 2 2 [ $ $ $ $ [ 2 1 v 2.2.N.I 4 [ [ $ $ $ ",
"$ $ $ $ $ $ $ $ $ $ $ $ $ $ $ $ $ $ $ [ $ $ [ [ 1 G R N.N q 7 [ $ $ [ 2 1 8 u d.X.* / 1 $ $ $ $ $ $ $ $ $ [ 2 4 F '.+ ` 6 2 2 4 | g U B.e 4 2 [ $ $ $ $ [ 2 1 Y.`.x.q 7 $ [ [ $ $ $ $ $ $ $ [ 2 1 q B -.+ ] 7 2 $ $ $ $ $ [ [ q * D.% p t 7 2 [ 1 q |.@ J P 7 7 3.$ [ 7 1 ^ R z.j 8 1 _.$ [ [ [ $ $ $ #.$ [ [ 7 t N # # ~ [ 2 [ $ $ $ $ [ 2 6 f z.2.s r 1 [ [ $ $ $ ",
"$ $ $ $ $ $ $ $ $ $ $ $ $ $ $ $ $ $ $ $ $ $ [ $ 1 G ; N.N q 7 [ $ $ $ [ 2 1 k O 7.- b 6 $ [ [ $ $ $ $ $ [ 2 7 5 u 4.h t 1 2 2 1 | g 7.B._ 4 2 $ $ $ $ $ [ 2 4 ( OX`.8 7 $ [ $ $ $ $ $ $ $ [ [ 2 1 { B 4.* e 7 2 $ $ $ $ $ 2 2 i.& 7.9 A 6 2 [ 3.1 8 F @ # ` 7 7 [ [ [ 7 1 C.R z.j 8 7 [ $ $ $ #.#.$ [ $ $ [ [ 1 t X @ @ ~ $ 2 $ #.$ $ $ 2 4 _ S . # T 8 7 $ $ [ $ $ ",
"$ $ $ $ $ $ $ $ $ $ $ $ $ $ $ $ $ $ $ $ $ $ [ [ 1 K ; D X q 7 [ $ #.$ [ 2 7 I o O 4.B o.$ 2 [ [ $ $ $ [ $ 2 1 ..v.Y f 6 2 [ 2 1 ( g =.N./ 4 7 [ $ $ $ $ [ 2 6 E OX(.$.7 [ $ $ $ $ $ $ $ $ [ [ 2 1 e , -.* ] 2 2 $ $ $ $ [ 1 6 oX% D.h ( 4 [ [ [ 1 8 |.@ J P 2 7 [ [ $ 7 1 ^ D 4.u 8 7 [ $ $ $ #.#.[ 2 mXiX7 2 1 t X # ' / [ 2 [ $ $ $ $ 7 5 v R 7.m ^ 4 2 $ [ [ [ +.",
"$ $ $ $ $ $ $ $ $ $ $ $ $ $ $ $ $ $ $ $ $ $ [ [ 4 G ' R j t 7 [ [ $ $ $ [ [ t S 2.=.9 i.7 2 $ [ [ $ $ [ [ 7 6 ` h R ` 7 [ [ 2 7 t x 7.' v 5 7 [ [ $ $ 3.2 2 5 T X  X4 7 [ [ $ $ $ $ $ $ [ [ [ 2 1 .., 4.+ ] 2 2 $ [ [ [ [ 4 ^ S 4.- v @.7 [ $ [ 1 8 F V.o P 7 7 [ [ [ 7 1 ^ D 4.j 8 7 [ $ $ $ $ [ 2 1 bX X6 2 1 e u @ @ ~ 7 2 [ [ [ [ 2 1 w S V.% X 5 2 [ $ $ $ $ $ ",
"$ $ $ $ $ $ $ $ $ $ $ $ $ $ $ $ $ $ $ $ $ $ [ 2 4 K # R u t 7 [ [ $ $ $ $ [ 6 C D 7.4.k 8 7 #.[ 2 [ [ [ $ 7 q |.h N q 7 [ [ 2 2 8 , d.Y u q 7 $ [ [ [ 3.2 2 8 j n K.1 2 [ [ [ $ $ $ $ $ [ [ [ 2 1 ] h 4.+ ( 2 2 [ [ [ [ $ 5 u V.-.p t 2 2 $ $ $ 1 8 F V.W Q 7 7 [ [ [ 7 1 ^ R 4.j 8 7 3.$ $ $ [ 2 7 6 0X`.5 2 1 e M @ @ I 7 2 [ $ +.[ 2 5 f O.W + E 7 [ $ #.$ $ $ $ ",
"$ $ $ $ $ $ $ $ $ $ $ $ $ $ $ $ $ $ #.$ #.#.[ [ 4 v 9 R j t 7 [ [ $ #.#.#.[ 1 t M <.i m I 6 [ [ #.$ $ [ $ 7 I S j i.4 7 [ 3.2 2 6 N X.-.3 u.7 $ [ $ #.[ 2 $ i.=XX 8 2 2 $ $ $ $ $ $ $ $ [ [ [ 2 4 ] S O D | 7 2 $ $ [ [ 2 P J O.g Q 4 [ [ $ [ [ 1 8 F V.Y Q 2 2 [ $ $ 2 1 E R -.j 8 1 [ $ $ #.#.2 4 K.x.0X5 1 4 e B V.% C 7 2 [ #.$ 2 5 ` g 4.m C 5 7 [ [ [ $ #.$ +.",
"$ $ $ $ $ $ $ $ $ $ $ $ $ $ $ $ $ $ $ $ $ $ [ $ 4 k - ; , t 7 [ [ $ $ $ $ [ 7 4 ` J 7.0.* e 7 2 [ $ $ [ $ Y.u N.(.6 7 [ $ $ [ [ 1 Q @ 4.X.j 5 $ $ $ $ $ [ 8 F ; k 6 [ [ $ $ $ $ [ $ $ $ [ [ [ 7 4 ~ N.U # C 4 7 $ $ $ 5 b D 4.; Q 6 7 [ $ [ [ [ 7 8 N 2.Q.C 7 7 [ [ $ 7 5 v J  .S e 1 $ $ $ $ $ [ 8 T OXC.6 7 4 ^ B.4. .f 6 2 $ $ $ $.K 3 Y o v 5 7 [ $ [ [ [ $ $ +.",
"$ $ $ $ $ $ $ $ $ $ $ $ $ $ $ $ $ $ $ [ [ $ $ 7 ] ,  .4.# v 6 [ 2 $ $ $ $ [ [ 2 8 V - A.7.B e $ $ $ $ $ | X h f 8 [ [ $ $ [ [ [ 7 q a Y 6.Y f e 7 $ $ 1 | M N.B.w 1 [ [ $ $ [ $ $ $ #.$ $ [ [ $ q j 2.>.4.S w 2 $ 6 r u 0.2.m G 4 [ [ +.$ $ [ $ 6 K ; ;.6.u t 1 $ 2 $ @.< m O : - Z ( 5 7 $ 2 1 q F ; n ( 6 7 6 V Y ;.: g ` 6 $ 1 e f o i + K 8 2 [ $ $ $ $ $ $ [ [ ",
"$ $ $ $ $ $ $ $ $ $ $ $ $ $ $ $ $ $ $ $ 7 4 ^ B W c L L S.. @ u ..2 2 [ [ [ [ [ 1 q A Y P.7.J N | | < V ; 9 v 5 7 $ $ [ [ [ [ [ 2 1 ] , d.: %.j.3 S * > 4.[.R P 6 7 [ $ $ [ [ [ [ [ $ $ [ 7 5 C m : 5.  1.,.U R 3 Y ^. .Y j ] 7 [ #.#.$ $ [ @.` S i y &.&.;.Y a _ q ~ S U 5.  -XL ,.z t.j.O.O.0.U = *.+ ( t v + z ) &Xp.y U ; m o g.U @ u | 4 [ [ $ $ $ $ $ $ +.[ [ ",
"$ $ $ $ $ $ $ $ $ $ $ $ $ $ $ $ $ $ $ $ 2 6 Q * o J l.J o Y W h K.7 2 $ #.#.#.$ [ $ 6 G p X.y f.= %X%.0.+ K 6 $ $ $ $ [ [ [ [ [ 3.2 7 _ s z.S.      L S. .+ ` 1 [ 3.+.+.$ $ $ $ [ $ $ $ [ 7 t j D Y Y o o o O.0.<.o m k i.6 $ $ $ $ $ $ $ [ 5 b N.W k.l.l.jXW S ~ t C , 3 > o o o o Y Y o l.> l.l.l.3 b 8 e u R o J & > J n.O.O.o + N E 5 $ $ $ +.+.+.$ [ [ [ [ [ $ ",
"$ $ $ $ $ $ $ $ $ $ $ $ $ $ $ $ $ $ $ [ [ 2 5XvX@.1 7 7 1 6 iXwX7 [ [ $ $ $ $ $ $ $ $ 2 Y.C u + # 3 B C 8 $ $ #.#.[ $ +.$ $ $ $ [ [ [ 2 5 ` N , p p B k ^ 6 $ $ +.+.+.#.#.#.$ $ $ $ $ $ $ [ 2 @.@.4 1 7 1 4 6 5 5 6 7 $ $ $ $ $ $ $ $ $ $ [ 7 4 @XAX6 1 1 4 @.DX4 1 @.wX@.1 7 7 1 4 4 4 1 7 2 2 2 2 2 2 2 1 +X+XwX7 3.3.1 6 $.$.wX$ $ $ $ #.$ $ $ $ $ $ $ $ $ $ $ $ ",
"$ $ $ $ $ $ $ $ $ $ $ $ $ $ $ $ $ $ $ [ $ +.$ +.+.$ $ #.#.#.$ $ $ $ $ $ $ $ $ +.$ $ $ #.$ $ #.#.2 $ $ $ $ $ $ 3.$ [ [ [ $ $ $ $ $ $ $ $ $ $ $ #.#.#.$ $ $ $ $ $ $ #.#.#.#.$ [ $ $ $ [ $ [ $ $ $ $ $ $ $ +.+.+.+.$ $ $ $ $ $ $ [ $ $ $ $ $ [ $ $ $ #.#.$ $ $ #.$ $ +.+.a.a.a.+.#.#.$ #.#.#.a.+.+.+.+.$ $ $ #.#.$ $ $ $ +.$ $ #.#.+.+.+.+.+.$ $ $ $ $ $ $ $ $ $ $ $ $ ",
"$ $ $ $ $ $ $ $ $ $ $ $ $ $ $ $ $ $ $ +.+.$ $ $ +.#.#.#.$ $ +.a.$ $ $ +.$ $ $ $ $ $ #.#.#.#.$ $ $ $ $ $ $ $ [ [ [ $ $ $ $ [ [ [ [ [ [ [ [ $ $ $ #.$ $ $ $ $ $ $ $ $ $ $ $ $ +.+.+.$ $ $ $ $ $ $ $ $ $ $ $ $ +.+.[ $ $ $ $ $ $ [ $ $ $ $ $ $ $ $ $ #.#.$ $ $ $ $ +.+.+.+.+.$ $ $ $ $ $ $ #.+.+.+.+.+.$ $ $ $ $ $ $ $ $ $ $ $ #.$ $ $ +.+.$ $ [ [ [ $ $ $ $ $ $ $ $ [ ",
"$ $ $ $ $ $ $ $ $ $ $ $ $ $ $ $ $ $ $ $ $ $ [ $ $ #.$ $ $ $ $ $ [ [ $ $ $ 3.[ [ $ $ $ $ $ $ [ [ [ [ $ $ #.#.$ $ $ $ $ $ $ [ $ $ $ $ $ $ $ $ $ $ $ $ $ $ $ [ [ $ $ $ $ $ $ $ $ $ $ $ $ $ $ $ $ [ [ [ [ $ $ $ $ $ $ $ $ $ $ $ $ $ $ $ $ [ $ $ $ $ $ $ $ $ $ [ $ $ $ [ [ [ +.+.+.$ $ $ $ $ $ $ $ $ $ $ $ $ $ $ $ +.$ $ $ $ $ [ $ +.$ $ $ $ $ $ $ $ $ $ $ $ $ $ $ $ $ $ ",
"$ $ $ $ $ $ $ $ $ $ $ $ $ $ $ $ $ $ $ $ $ $ $ $ $ $ $ $ $ $ $ $ $ $ $ $ $ $ $ [ $ $ $ $ $ $ $ $ $ $ $ $ $ #.$ $ $ $ $ $ $ $ $ $ $ $ $ $ $ $ $ $ $ $ $ $ $ $ $ $ $ $ $ $ $ $ $ $ $ $ $ $ $ $ $ $ $ $ $ $ $ $ $ $ $ $ $ $ $ $ $ $ $ $ $ $ $ $ $ $ $ $ $ $ $ $ $ $ $ $ $ $ $ $ $ $ $ $ $ $ $ $ $ $ $ $ $ $ $ $ $ $ $ $ $ $ $ $ $ $ $ $ $ $ $ $ $ $ $ $ $ $ $ $ $ $ $ $ "
};
