/* XPM */
static char *_a64bacaa3d84e1cfde973528ca6f778_23[] = {
/* columns rows colors chars-per-pixel */
"188 41 256 2 ",
"   c #FE0009",
".  c #E40B12",
"X  c #991314",
"o  c #CD1213",
"O  c #DD1012",
"+  c #B80509",
"@  c #CA1721",
"#  c #C80B11",
"$  c black",
"%  c #D4131A",
"&  c #C70509",
"*  c #B60B10",
"=  c #ED040A",
"-  c #CD1319",
";  c #C4181A",
":  c #EC0912",
">  c #C51112",
",  c #A90B11",
"<  c #730000",
"1  c #1A0000",
"2  c #0A0000",
"3  c #BD0F12",
"4  c #220000",
"5  c #320000",
"6  c #2A0000",
"7  c #120000",
"8  c #3A0000",
"9  c #C51317",
"0  c #D40B12",
"q  c #430000",
"w  c #630000",
"e  c #530000",
"r  c #5B0000",
"t  c #4B0000",
"y  c #F4080A",
"u  c #A21112",
"i  c #DC100C",
"p  c #B41111",
"a  c #9A0B11",
"s  c #AC1212",
"d  c #AC0A0B",
"f  c #940A0B",
"g  c #BC1318",
"h  c #AC191B",
"j  c #9C090A",
"k  c #8C090A",
"l  c #EE0303",
"z  c #E6040A",
"x  c #B41417",
"c  c #ED0411",
"v  c #830A0A",
"b  c #890C0F",
"n  c #A31A1C",
"m  c #BB0E0B",
"M  c #A41417",
"N  c #97100E",
"B  c #A6100B",
"V  c #940407",
"C  c #7B0909",
"Z  c #8C0307",
"A  c #840307",
"S  c #AF0101",
"D  c #BD1814",
"F  c #921F1F",
"G  c #780B10",
"H  c #E5100B",
"J  c #CC1814",
"K  c #7B0307",
"L  c #FC080C",
"P  c #73090A",
"I  c #730306",
"U  c #DE040F",
"Y  c #D10202",
"T  c #840903",
"R  c #C11E22",
"E  c #670B11",
"W  c #D20411",
"Q  c #740803",
"!  c #6B090A",
"~  c #6B0307",
"^  c #640307",
"/  c #68100E",
"(  c #580B11",
")  c #FC0803",
"_  c #5B0306",
"`  c #6C0501",
"'  c #C61D1B",
"]  c #530307",
"[  c #040000",
"{  c #470B11",
"}  c #E70415",
"|  c #5C0903",
" . c #DE0419",
".. c #4B0406",
"X. c #DC1813",
"o. c #3B090A",
"O. c #D50416",
"+. c #000004",
"@. c #230602",
"#. c #000400",
"$. c #310802",
"%. c #EB080C",
"&. c #F70407",
"*. c #EF080D",
"=. c #E30C0C",
"-. c #D71015",
";. c #E70C0E",
":. c #D31014",
">. c #E7080E",
",. c #F3040D",
"<. c #D71010",
"1. c #FB0406",
"2. c #D31414",
"3. c #040004",
"4. c #D81416",
"5. c #F90400",
"6. c #EB0C0E",
"7. c #E20C08",
"8. c #F00C0E",
"9. c #F2000D",
"0. c #D8140F",
"q. c #F00C08",
"w. c #E50410",
"e. c #AC1319",
"r. c #9C0408",
"t. c #FA0000",
"y. c #F8040C",
"u. c #6B0000",
"i. c #630803",
"p. c #FF0406",
"a. c #000404",
"s. c #EF0808",
"d. c #E41014",
"f. c #F20007",
"g. c #E20808",
"h. c #F30407",
"j. c #DC0309",
"k. c None",
"l. c #C80F0A",
"z. c #DC171C",
"x. c #891416",
"c. c #F40804",
"v. c #AA2325",
"b. c #840001",
"n. c #D3030A",
"m. c #DD0B0C",
"M. c #7B0000",
"N. c #BC191B",
"B. c #B4191A",
"V. c #CD181A",
"C. c #630A0A",
"Z. c #050400",
"A. c #E50B18",
"S. c #F70512",
"D. c #DD1119",
"F. c #B4201F",
"G. c #A4090B",
"H. c #FB0004",
"J. c #7B0804",
"K. c #530909",
"L. c #C51814",
"P. c #EE0A19",
"I. c #E50303",
"U. c #8C0001",
"Y. c #430306",
"T. c #E70808",
"R. c #A31813",
"E. c #E70C08",
"W. c #EB0C08",
"Q. c #D41813",
"!. c #A40408",
"~. c #59100D",
"^. c #E3080C",
"/. c #DD0B11",
"(. c #78100D",
"). c #AC0309",
"_. c #080005",
"`. c #7D1E1E",
"'. c #D4181A",
"]. c #791416",
"[. c #E70D1E",
"{. c #3A0306",
"}. c #4B090A",
"|. c #94191E",
" X c #681516",
".X c #5B090A",
"XX c #E60804",
"oX c #89100E",
"OX c #95282A",
"+X c #320306",
"@X c #360C0F",
"#X c #EF0419",
"$X c #270C0E",
"%X c #EB0808",
"&X c #FF0004",
"*X c #8C0804",
"=X c #B51B22",
"-X c red",
";X c #D3100F",
":X c #ED0804",
">X c #43090A",
",X c #F70005",
"<X c #AC0903",
"1X c #9C0001",
"2X c #9C0803",
"3X c #000008",
"4X c #120504",
"5X c #220405",
"6X c #940101",
"7X c #FF0400",
"8X c #F30D15",
"9X c #551B1F",
"0X c #711B1F",
"qX c #DD0203",
"wX c #2A0406",
"eX c #1A0406",
"rX c #F8000D",
"tX c #591417",
"yX c #A40101",
"uX c #530903",
"iX c #31090A",
"pX c #D3140F",
"aX c #F30300",
"sX c #B41814",
"dX c #AC1813",
"fX c #940903",
"gX c #DD0803",
"hX c #A40904",
"jX c #D30903",
"kX c #471617",
"lX c #430802",
"zX c #381415",
"xX c #D30B19",
"cX c #DD0C19",
"vX c #2A0A0A",
"bX c #4E1F1F",
"nX c #33110E",
"mX c #220908",
"MX c #5A2427",
"NX c #772B2E",
"BX c #47100E",
"VX c #2B1112",
"CX c #1B0A09",
"ZX c #050404",
"AX c #3A0803",
"SX c #1A0803",
"DX c #2A0803",
"FX c #4B0903",
"GX c #0C0709",
"HX c #26100C",
"JX c #11090B",
"KX c #F0100C",
"LX c #412422",
"PX c #000800",
"IX c #000808",
"UX c black",
/* pixels */
"$ $ [ [ $ $ $ $ $ $ $ $ $ $ $ $ $ $ $ $ $ $ [ [ [ [ [ $ $ $ $ $ $ $ $ $ $ $ [ $ $ $ $ $ $ $ $ [ $ $ $ $ $ $ $ $ $ $ $ $ $ $ $ $ $ $ $ $ #.$ $ $ #.$ [ $ $ $ $ $ $ $ $ $ $ [ $ $ $ #.#.#.$ $ $ $ $ $ +.+.$ $ $ $ #.#.#.#.$ $ $ $ $ $ $ $ $ $ $ $ $ $ $ $ $ $ $ $ $ $ $ $ $ $ $ $ $ $ $ $ $ $ $ $ $ +.$ $ $ $ $ $ $ $ $ $ $ $ $ $ $ $ $ $ $ $ $ $ $ $ $ $ $ $ $ $ $ $ $ $ $ $ $ $ $ $ $ $ ",
"+.$ $ $ [ [ $ $ $ $ #.$ $ #.$ $ $ $ #.$ [ $ $ $ $ $ $ $ $ $ $ $ $ $ $ [ [ $ $ $ $ $ 7 4 2 $ $ $ +.3.[ $ $ $ #.#.3.$ $ $ $ $ $ $ $ $ $ $ $ +.[ $ $ $ $ $ $ $ $ $ #.#.$ $ #.$ $ $ $ $ $ $ $ #.$ $ $ $ $ $ $ $ $ $ $ $ $ $ $ #.$ $ [ $ $ $ $ $ $ $ $ $ $ $ $ $ $ $ $ $ $ $ $ $ #.$ $ $ $ $ $ $ $ +.+.+.$ $ $ #.$ $ $ $ +.$ $ $ $ $ $ $ $ $ $ $ $ $ $ $ $ $ $ $ [ $ [ $ $ $ $ $ $ $ $ $ $ $ ",
"$ $ $ $ $ [ 2 1 @XY.$.7 Z.4 $.8 Y.6 2 $ [ [ [ 2 DX@X6 7 1 $.@X@X1 2 $ +.3.$ $ t b p n.0.o * T t 7 $ $ +.$ [ [ $ +.1 5 {.$.4 7 7 6 8 {.5 7 [ [ [ [ 2 1 +Xo.5 @.@.$.wX5X2 [ #.$ [ [ [ [ $ [ 7 6 t ` v k a u , <X).G.*Xu.8 $ $ $ $ $ $ $ #.$ $ $ 2 6 {.Y.8 6 4 $.5 5 5 6 2 7 5 e t t t { q q { t t e e r | ..5 2 $ $ 2 6 ..I K b V j B S S G.V I q 2 $ $ $ $ $ [ [ [ $ $ $ $ $ $ $ $ $ $ $ ",
"$ $ $ $ [ 2 1 ] M % O.J l.n.<.U z.a 6 2 [ [ [ 4 k @ & R # O.% N.Q 4 $ $ $ 8 f J P.S.q.q.5.  l <.V 8 [ 2 $ $ [ 2 [ ^ + W 0.O.o o 0.i V.n q 2 $ $ 2 1 _ F.z.j.<.n.0.@ k 5 7 [ $ [ [ [ [ $ 7 _ e.% 9.y c.,Xt.) &.&.&.5.6.O.G./ 1 $ $ $ $ $ +.$ $ 1 Q N.O.U j.<.j.U :.# f 5 e * } %.T.XXI.I.T.>.w.>.%.= 8.*.-.e.e 7 2 t B -.y y.&.t.)   5.y.L L 9.g.d ~ 6 $ $ $ $ [ 3.[ $ $ $ $ $ $ $ $ $ $ ",
"$ $ $ $ $ [ 2 6 C > 6.L p.  y j.R v @.[ [ [ [ 1 G + -.,.&.1.. S ~ 1 [ 7 q u 7.% , b.| | b m 7.1.7.p | 2 $ $ $ [ 2 ( , Y s.  -X-X1.*.# f 8 [ $ $ [ 7 ..e.;.y.p.L y 4.x.4 7 $ $ +.$ $ $ $ 7 i.e.o %.&.  8.cXS v Q U.* i 5.9.4.u q $ [ $ $ $ $ $ 1 ] j Y 8.t.&X&Xy.U > b $.8 N J ;.) p.-X1.,.T.U U U T.,.L 6.# u.7 2 e B o T.y.-X5.6.m b M.U.).0.t.8.U , ] $ [ a.$ $ $ $ $ $ $ $ $ $ $ $ $ ",
"$ $ $ $ $ $ $ $ $ 5 k i y = 0 ` $ $ #.$ [ [ $ $ $ $ ` J O.; A 6 $ 2 2 r p ; S w $ $ $ $ $ 1 b 0.: *.R ~.$ 2 $ #.Z.[ [ q N 0.s.f.J k q [ [ [ $ $ $ [ [ 5 ~ S A.Y k ( 1 $ $ $ $ $ #.$ $ $ [ 7 6 q G J &.A., q $ $ $ $ r , i &.6.* u.1 $ $ $ $ $ $ $ [ t a 0.&.4.u e 7 $ #.#.$ 1 J.Y 6.y W v q 6 6 8 e K p ; R ` 7 $ [ 1 5 E R y ;.* ( $ $ $ $ e j Y ,.6.> K 4 $ $ $ $ $ $ $ $ $ $ $ $ $ $ ",
"$ $ $ $ $ [ $ +.[ $ q g : c 4.` $ $ $ $ +.3.+.+.$ $ w # N.].6 [ [ 2 5 j D., q [ [ $ $ [ $ $ @.J.# y ;.S e 1 $ $ +.+.+.7 ( x =.z j 6 [ +.$ $ $ $ $ $ $ $ $ ` @ u 1 $ $ +.$ +.$ $ $ $ $ $ $ $ $ $ 8 B.,. .f 5 2 +.$ $ $ 4 v <.*.*.J E 2 2 3.$ $ $ $ [ 2 ! J f.D | [ $ $ #.#.#.$ q S 4.6.p 5 $ $ $ $ $ $ q X F.` 7 $ #.$ $ @.u P. .u q 7 $ $ $ $ $ ~ @ 6.9.O.Q 1 2 [ $ $ $ $ $ $ $ $ $ $ $ ",
"$ $ $ $ $ $ $ $ $ $ 4 k 4.%.6.f 4 2 3.$ $ $ $ [ 2 7 A 4., 8 2 [ 2 5 C + @ < [ $ [ $ $ $ $ +.2 4 k =.l 7.B 8 $ [ +.+.+.1 q u U . k 1 2 3.+.$ #.$ $ $ $ 2 $ ^ ' j @.$ 2 [ $ +.$ $ $ $ $ $ $ $ [ 2 5 B 8.X.k 6 7 $ $ $ $ $ 4 K & 8.c S e 1 3.+.$ $ $ [ 2 C.' s.D ~.7 2 $ $ $ $ [ 8 G.o 7.u 6 $ [ $ $ [ 7 6 `.v.u.2 $ $ [ 2 1 N 6.D.u q 7 $ $ 3.$ $ 1 ~ * ;.6.* ~ 4 [ $ $ $ $ $ $ $ $ $ $ $ ",
"[ $ $ $ $ $ $ $ [ $ 1 e x =.9.* ] 1 2 3.[ $ $ 2 1 o.j V.v 1 [ [ 7 u.m R N 8 2 $ $ $ +.+.$ $ [ $ ( > H : ;XP 2 2 3.+.$ 1 8 a z.7.A 2 2 3.$ [ $ $ $ $ $ [ $ i.N.f 4 [ [ $ $ +.$ $ $ $ $ $ $ $ [ 7 5 B *.X.oX6 2 $ $ $ $ $ 7 4 v O y 4.j 8 $ $ [ $ #._.7 _ L.q.D ~.1 2 $ $ $ $ [ 8 R.Y U u @.$ [ $ 3.3.7 1  XX w 2 $ $ 3.2 1 f 6.z.u q 7 [ $ $ $ $ 7 7 ` o >.z.p q $ $ $ $ $ $ $ $ $ $ $ $ ",
"$ $ [ $ $ $ $ [ $ $ 7 4 v -.h.% f 5 [ $ $ $ $ 2 5 (.h B t 2 [ $ 4 r.4.B.| 4 2 [ $ $ $ $ $ $ $ $ 6 k o q.6.B q 7 $ $ +.7 5 X  .=.b 7 2 +.$ $ $ $ $ $ [ [ $ _ N.F 1 $ [ $ $ $ $ $ $ $ $ $ $ $ [ 2 6 u P.4.k @.7 $ $ $ $ $ [ $ q + ;.;.W / $ [ $ $ $ 2 7 _ ; s.N.( 7 2 $ $ $ $ [ q B V.U u 4 $ $ $ $ $ 2 2 >X`.] 2 $ [ [ [ 1 k ;.X.j 8 7 $ $ $ $ $ [ $ 6 u D.6.. v $ [ $ $ $ $ $ $ $ $ $ $ ",
"$ $ $ $ $ $ $ $ [ 3.2 [ t g 6.=.9 | $ $ $ $ $ 2 e e.v.! 6 2 2 $ t m 7.u 8 7 2 3.$ $ $ $ $ $ $ $ 1 r + P.*.D I 4 #.a.+.7 5 j O 7.v 2 2 3.$ $ $ $ $ $ [ [ $ | N.k 1 $ [ $ $ $ $ +.$ $ $ $ $ $ [ 2 4 a 6.4.k 6 7 $ $ $ $ [ $ $ 1 v Y ;.;.N @.2 [ $ $ 2 7 ( ; s.N.( 7 2 $ $ $ $ [ q G.V./.j 4 $ [ $ $ $ [ 2 1 zX5X[ $ $ $ [ 2 k 6. .u q 7 $ $ $ $ #.$ $ 7 / R z c , 8 7 [ $ $ $ $ $ $ $ $ $ ",
"$ $ $ $ $ $ $ $ $ +.[ $ 4 k z.z >.f 1 [ $ $ $ 7 v @ k 6 2 [ 7 4 G - z k [ 2 [ +.$ $ $ $ $ $ $ $ 7 5 f =.9.4.u 8 $ #.+.1 q u O U C [ 2 +.$ $ $ $ $ $ [ [ $ | + k 1 $ [ $ $ $ $ +.$ $ $ $ $ $ [ 2 4 X 6.4.k 6 7 $ $ $ $ $ $ $ 7 t e.7.,.+ ] 1 [ +.+.2 2 ( R l D ( 1 2 $ $ $ $ [ q u V./.j 4 $ [ $ $ [ $ #.#.$ $ $ $ $ $ 2 [ b z  .B t 7 $ $ $ $ $ $ $ 7 5 f X.*.' Q 4 2 $ $ $ $ $ $ $ $ $ ",
"$ $ $ $ $ $ $ +.$ $ $ $ 7 r + 7.q.m ] 7 [ [ [ 5 X R / $ [ +.7 8 N -.7.K $ [ [ +.+.$ $ $ $ +.$ $ 2 2 ` O.,.} @ r $ $ +.1 q u O U C 2 [ +.$ $ $ $ $ [ [ [ $ _ B.k 1 $ [ [ [ $ $ +.$ $ $ $ [ $ [ 7 4 N 6.O.k 5 7 $ $ $ $ $ $ +.7 4 v X.&.Y v @.2 $ $ 2 2 ( 3 l D ( 1 2 $ $ $ $ [ q u V./.j 4 $ $ $ $ [ [ $ $ [ $ $ $ $ [ [ $ A 7.z., t 7 #.$ +.$ $ $ $ 2 7 ~ - y 2.j 8 2 $ $ $ $ $ $ $ $ $ ",
"$ $ $ $ $ $ $ +.$ $ $ $ 2 6 T - y Y v 6 7 2 1 ~.n a q [ $ +.7 ( B.-.0.~ $ $ [ +.+.$ $ $ $ $ $ $ [ $ t & *.P.i G [ 2 $ 7 q u O U C 2 2 $ $ $ $ $ $ $ [ [ $ | =Xk 1 $ [ [ $ $ $ $ $ $ $ $ $ $ [ 7 1 N ;.O.k 5 7 $ $ $ $ [ $ +.2 [ | J h.i , q [ $ $ 2 2 ( D : N.( 7 2 $ $ $ $ [ q u V.m.j 4 $ [ $ $ [ 7 6 7 [ $ [ $ #.$ [ [ v 7.z., e 1 #.$ +.$ $ $ $ [ $ q 3 8.U g e [ $ $ $ $ $ $ $ $ [ ",
"#.$ [ [ $ $ $ +.$ $ $ $ 2 2 q * ,.U * r 7 7 t F k.C.4 [ $ $ 1 Q ; X.Y w $ $ $ $ $ $ $ $ $ $ $ [ [ $ 8 p ;.= =.k 7 2 $ 7 q u O U C 2 2 $ $ $ $ $ $ $ [ [ $ | + k 1 $ [ $ $ $ $ $ $ $ $ $ $ $ [ 2 4 N ;.4.k 5 7 $ $ [ [ [ $ +.[ $ q m :XU ; | $ $ +.2 [ ( 3 W.B.( 2 2 $ $ $ $ [ 8 u J U u 4 $ $ $ [ [ >Xv { 2 $ $ $ $ $ [ [ v . X., t 1 +.+.$ $ $ $ $ [ $ 6 B ;.d.W u.$ $ $ $ $ $ $ $ $ [ ",
"$ $ $ $ $ $ $ $ $ $ $ $ [ [ 1 k 7.z O V 1 7 v =X`.4 7 [ [ $ 1 Z Y X.@ ( $ [ [ $ $ $ $ $ $ $ $ $ [ $ 4 a O %X;.X 4 2 +.7 t M U U C 2 2 $ $ $ $ $ $ $ [ [ $ | N.f 4 $ [ $ $ $ $ $ $ $ $ $ $ $ [ 7 1 N z -.k 5 7 $ $ [ $ $ $ $ [ $ 5 d 6.7.o u.$ $ $ 2 2 _ R s.+ ( 7 2 $ $ $ $ 2 8 u - /.u 4 $ $ [ 2 [ K.X ] 2 $ [ $ $ [ 2 2 v 7.4.B t 7 $ $ $ $ [ [ $ [ $ 1 V 7.H 7.v 2 $ [ $ $ $ $ $ $ $ ",
"$ $ $ $ $ $ $ $ $ $ $ +.$ $ [ | R U s.R e 8 B * ..$ [ $ $ $ 1 a 4.i & e $ [ [ $ $ $ $ $ $ [ $ $ $ $ 1 A W W.: B 5 7 $ 1 t ,  .U C [ 7 [ [ [ [ [ [ [ [ [ $ i.D X 4 $ [ $ $ $ $ +.$ $ $ $ $ $ [ 7 1 N z O.F 5 7 $ $ [ $ $ $ $ [ $ 4 a . H 0.J.2 $ $ 2 7 i.L.s.* ] 1 2 $ [ $ $ [ 8 u V.7.u 4 $ $ +.$ $ ! v.( 2 $ $ $ $ [ 2 2 T U '.u t 7 $ $ $ $ [ $ $ $ $ 1 v -.;.: N 7 [ [ $ $ $ $ $ $ $ ",
"$ $ $ $ $ $ $ $ $ $ $ +.+.$ [ 8 a -.&.=.u b B.k 6 $ $ $ $ $ 4 u U U l.e $ $ $ $ $ $ $ $ $ [ $ 3.$ $ 1 G J W.l e.q 7 [ 1 t , 7.7.C $ 2 3.[ [ [ $ $ $ [ [ $ i.D X @.$ [ $ $ $ $ +.$ $ $ $ $ $ [ 2 1 f H O.F 5 7 $ $ [ $ $ $ $ $ $ 1 Z /.H =.k 2 [ $ 2 7 i.; : sX..1 [ $ $ $ $ 2 8 u 2.w., 4 $ $ $ 1 ] N h ( 2 $ $ $ $ $ 2 2 T U '.u q 7 $ $ $ $ $ $ $ $ $ 1 Q Y ;.,.u 1 2 [ $ $ $ $ $ $ $ ",
"$ $ $ $ $ $ $ $ $ [ $ $ $ $ [ 4 _ D f.t.%Xo u q 1 $ $ $ [ $ 6 B U 7.o | $ $ $ $ $ $ $ #.$ [ $ #.$ $ 1 ^ g z q.S t 7 [ 7 t B 7.7.C $ 2 3.[ [ $ $ $ $ [ [ $ w R a 4 $ [ $ $ $ $ $ $ $ $ $ $ $ [ 7 4 N 7.2.k 5 7 +.$ $ $ $ $ $ $ $ 1 v -.z ;.f 7 [ [ 2 7 C.; : x ] 7 [ $ $ $ $ 2 8 u -.s.U m S p + o U % * r 7 $ $ $ +.$ 2 2 v U O.j q 1 [ $ $ $ $ $ $ $ $ 1 < @ ;.9.B 6 [ [ $ $ $ $ [ $ $ ",
"$ $ $ $ $ $ $ $ $ $ $ $ $ $ [ 2 4 f XX&.y.4.G 7 7 $ $ $ [ $ 5 d w.;.0 ^ $ $ $ $ $ $ $ $ $ [ $ $ $ $ 7 r * ;.f.S t 7 [ 7 t B 7.7.v [ 2 3.$ [ $ $ $ [ [ [ $ i.; a 4 $ [ $ $ $ $ $ $ $ $ $ $ $ [ 7 4 N =.2.F 5 7 +.$ $ $ $ $ $ $ $ 7 v <.z ;.f 7 [ [ 2 2 ^ ' q.* ] 7 [ $ $ $ $ 2 8 u X.5.t.8.%.T.%Xh.y.A.3 r 7 $ [ [ $ $ [ 2 A U '.j q 1 [ [ $ $ $ $ $ $ $ 1 ` # z 8.B 6 [ [ $ $ $ $ [ $ $ ",
"$ $ $ $ $ $ $ $ $ $ $ $ $ $ 3.[ $ u.;X6.,.# t $ [ $ $ +.[ $ 5 S } : 0.~ $ $ $ $ $ $ $ $ $ $ $ $ $ $ 1 e S H ,.S t 7 [ 7 t , 7.7.C [ 2 3.$ [ $ $ $ [ [ [ $ i.; a 4 $ [ $ $ $ $ $ $ $ $ $ $ $ [ 7 4 N z 2.oX6 7 +.$ $ $ $ $ $ $ $ 1 M.O.;.;.X 1 [ [ [ 7 ^ ' s.* ..7 [ $ $ $ $ 2 8 u 2.= > Q r e e < j R g | 7 $ $ $ $ [ [ 2 A =.4.a q 1 [ $ $ $ $ $ $ $ $ 1 u.# ;.*.B @.[ [ $ $ $ $ [ $ $ ",
"$ $ $ $ $ +.$ $ $ $ $ $ $ $ $ $ $ t 3 i d.p 8 $ [ $ $ +.[ $ 5 * ;.= U Q $ [ $ $ $ $ $ $ $ $ $ $ $ $ 1 t s d.9.S t 1 [ 7 t B 7.7.C [ 2 3.+.[ $ $ $ [ [ [ $ i.; a 4 $ [ $ $ $ $ $ $ $ $ $ $ $ [ 2 6 X ;.% v 4 7 +.$ [ $ $ $ $ $ $ 7 v O.A.;.N 1 [ [ [ 7 ^ L.*.* ] 7 [ $ $ $ $ [ 8 j V.U u 7 $ $ $ $ 7 v h r 2 $ $ $ $ [ 2 2 A 7.-.X q 1 [ $ $ $ $ $ $ $ $ 1 < @ z 9.B 4 2 [ $ $ $ $ [ $ $ ",
"$ $ $ $ $ $ $ $ $ $ $ $ $ $ $ $ $ 8 , 2.4.G.6 $ [ $ $ $ $ $ $.S z l =.C $ [ $ $ $ $ $ $ $ $ $ +.[ $ 7 { M 7.l s q 7 $ 7 t , U U C $ 2 3.$ [ $ $ $ $ [ [ $ w R N 4 $ [ $ $ $ $ $ $ $ $ $ $ $ [ 2 6 X 6.'.v 4 7 +.$ [ $ $ $ $ [ $ 1 Z 0.z w.f 7 [ $ 2 7 ^ ' *.+ ..7 2 $ $ $ $ [ 8 u V.U u 6 $ $ $ [ $  XM r [ $ $ $ $ [ 2 2 T 7.4.X q 7 $ [ $ $ $ $ $ $ $ 7 G o H 8.u 4 [ [ $ $ $ $ $ $ $ ",
"$ $ $ $ $ $ $ $ $ $ $ $ $ $ $ [ $ 8 u V.-.r.6 $ [ [ $ $ $ $ @.u  .c ;.k 2 2 $ $ $ $ $ $ $ $ $ +.$ $ 1 q u U %.u 5 7 $ 7 e dXU U C $ 2 [ $ [ $ $ $ $ [ [ $ i.D N 4 $ [ [ $ $ $ $ $ $ $ $ $ $ [ 2 @.X ;.'.v 4 7 $ $ [ $ $ $ +.[ $ @.j =.;.7.A 2 $ $ 2 7 ^ L.: * ] 7 _.$ $ $ $ [ 8 u Y 7.G.4 $ $ $ [ $ | n _ [ $ $ $ $ $ [ [ T 7.-.X q 7 $ $ $ $ $ $ $ [ $ 7 v -.z 6.f 1 [ [ $ $ $ $ $ $ [ ",
"$ $ $ $ $ $ $ $ $ $ $ $ $ $ $ $ $ 8 u V.-.r.6 $ $ $ $ $ $ $ 1 V 4.c c j 6 7 [ $ $ $ $ $ $ $ $ +.$ $ 1 e e. .z f 4 2 $ 7 e s 7.U C [ 2 $ $ $ $ $ $ $ [ [ $ | D f @.$ [ $ $ $ $ $ $ $ $ $ $ $ [ 2 4 X } % v 4 7 $ $ [ $ $ $ $ [ $ 6 d : z -.Q $ $ $ [ 7 ^ L.: x ] 7 2 $ $ $ $ [ 8 u Y 7.G.4 $ [ $ [ [ >Xv { [ $ $ $ $ $ [ 2 v 7.4.X q 7 $ $ $ $ $ $ $ [ $ 4 V U . U v 2 [ $ $ $ $ $ $ $ $ ",
"$ $ $ $ $ $ $ $ $ $ $ $ $ $ $ $ $ 8 u - -.u @.$ $ $ $ $ $ $ 1 v Y 6.8.S t 7 [ $ $ $ $ $ $ $ $ $ $ $ 7 w N. . .C $ [ $ 1 r x d.7.T 2 2 $ $ $ $ $ $ $ $ [ [ i.N.f 4 $ [ $ $ $ $ $ $ $ $ $ $ $ [ 2 4 j } % v @.7 $ $ [ [ [ $ $ [ $ q g 8.=.9 | $ $ $ 2 7 C.L.: x ] 7 2 $ $ $ $ [ 8 u Y 7.G.4 $ [ +.$ [ 1 {.4 [ $ $ $ $ $ 2 2 A =.4.u q 1 $ $ $ $ $ $ $ [ [ 5 , ;.7.% P $ $ [ $ $ $ $ $ $ $ ",
"$ $ $ $ $ $ $ $ $ $ $ $ $ $ $ $ $ 8 u - -.u @.$ $ $ $ [ $ $ 1 ` ; 6.h.R ^ 1 2 [ [ $ $ $ $ [ $ $ $ $ 1 I R  .0 ^ $ $ +.1 | * } d.A 1 7 [ $ $ $ $ $ $ $ [ [ E D F 4 $ [ $ $ $ $ $ $ $ $ $ $ $ [ 2 4 j } W v 6 2 $ $ $ $ $ $ $ 2 2 | # 8.z.s q 2 $ $ 2 7 C.9 : x ] 7 2 $ $ $ $ [ 8 u o =.G.4 $ $ +.$ $ $ $ $ [ $ $ +.$ $ [ 7 b 7.4.u q 1 $ $ $ $ $ $ $ 2 $ t D 6.7.; r [ $ $ $ $ $ $ $ $ $ ",
"$ $ $ $ $ $ $ $ $ $ $ $ $ $ $ $ $ 5 u @ O.r.@.$ $ $ #.$ $ $ 7 e s H &.Y A 6 [ $ $ $ $ $ $ [ $ $ $ $ 1 A # '.m t $ +.$ 1 r x A.. k 7 2 [ [ [ $ $ $ $ [ 7 7 P R k 4 $ [ [ [ [ $ $ #.$ $ $ $ $ [ 7 6 u ;.W v 6 2 $ $ $ $ $ [ [ 7 6 T 4.8.V.T 5 2 $ $ 2 7 ^ ' s.* ] 7 2 $ $ $ $ [ 8 j o 7.G.4 $ $ #.$ $ $ $ $ $ $ $ +.$ [ 2 7 k =.4.a q 1 [ [ [ $ $ $ $ 2 2 E J : -.j 8 [ $ $ $ $ $ $ $ $ $ ",
"$ $ $ $ $ $ $ $ $ $ $ $ $ $ $ $ $ 8 u V.-.r.4 $ $ $ $ $ $ $ 7 5 k O &.i , q [ $ $ $ $ $ $ [ $ +.[ $ 4 a W L.f 5 3.3.3.1 e e.=.;.X 6 7 [ $ $ $ $ $ $ [ 7 1 `.R v 1 $ [ $ $ $ $ $ $ $ $ $ $ $ [ 2 5 u ;.2.C 6 7 $ $ $ $ $ $ $ 7 t e.7.,.+ ( 1 [ $ $ 2 7 ^ ' q.+ ] 7 2 $ $ $ $ [ 8 u - 7.G.@.$ $ #.$ [ $ $ $ $ $ $ $ [ [ 2 1 k 7.4.u q 7 $ $ [ $ $ $ $ 7 5 F z.9.' P 4 [ $ $ $ $ $ $ $ $ $ ",
"$ $ $ $ $ $ $ $ $ $ $ $ $ $ $ $ $ 8 G.- -.u 6 $ [ $ $ [ $ $ 2 2 | # ,.;.o / [ $ $ $ $ $ $ $ $ +.[ $ 8 S 4.h | 4 ZX+.+.1 t B d.: B 8 7 [ $ $ $ $ $ $ 2 7 6 x.D G 7 $ $ $ $ $ $ $ $ $ $ $ $ $ [ 2 5 M 6.O.T 6 7 $ $ [ $ $ [ [ 1 A o w.A.f 1 2 [ $ $ 2 7 C.' q.+ ] 7 2 $ $ $ $ [ 8 u W =.B 6 $ [ $ $ [ $ +.$ $ 2 ( E 7 $ 2 1 F ;.X.u q 7 $ $ [ [ [ [ $ 1 u.g =.6.M 5 7 [ $ $ $ $ $ $ $ $ $ ",
"$ $ $ $ $ $ $ $ $ $ $ $ $ $ $ $ $ 8 , - 4.!.6 $ [ +.$ $ $ $ [ $ 8 S : *.;.f 1 [ [ $ $ $ $ $ $ +.2 $ | o  .F 6 7 $ +.+.7 8 a A.9.+ ] 1 [ $ $ $ $ $ $ [ 1 ..j B.u.7 $ $ $ $ $ $ $ $ $ $ [ [ $ [ 7 5 B : % oX6 7 $ [ [ $ $ [ $ 8 p =.7.@ | $ [ $ $ $ 2 7 ^ ' q.+ ( 7 2 $ $ $ $ [ 8 R.W =.B 6 $ [ $ $ [ $ $ [ $ 4 F k 4 $ 7 1 f 6.7.R.q 7 $ $ [ $ $ [ $ 4 u O ;.0.Q [ [ $ $ $ $ $ $ $ $ $ $ ",
"$ $ $ $ $ $ $ $ $ $ $ $ $ $ $ $ $ 8 d - -.u 6 $ [ $ $ #.$ $ [ $ 1 b i = y g e 1 2 $ +.$ $ [ $ [ 7 1 v O.Y w 2 2 +.+.+.7 4 oX .9.V.b 6 [ $ $ $ $ #.$ 2 4 ! v.u e 7 $ $ [ [ [ $ $ $ #.#.$ $ $ [ 2 5 B : 4.f 5 7 $ [ 3.$ $ 2 1 C % 6.o V 5 [ $ [ $ $ 2 7 ^ ' q.+ ] 7 [ $ $ $ $ [ q G.2.. B $.$ [ $ $ $ $ $ 2 $ }.n k 4 $ 2 4 N c 7.B { 7 $ $ $ $ $ 2 $ i.Y c 4.B q 2 [ $ $ $ $ $ $ $ $ $ $ ",
"$ $ $ $ $ $ $ [ $ $ $ $ $ $ [ $ $ q p % -.u @.$ $ $ $ $ $ [ [ $ 2 e s 7.5.X.N 8 2 $ $ $ $ [ $ $ 1 w B ' r.6 $ $ +.+.+.2 [ ~ O.y 7.+ t $ $ $ $ $ $ $ $ q , F.v 5 2 $ $ $ $ $ $ [ $ #.#.$ $ $ [ 7 5 , c  .u q 1 +.+.+.$ $ 4 K ; : ;.a 8 1 2 [ [ $ $ 2 7 E @ q.m ] 1 2 $ $ $ $ 7 q u 2.;.S 8 2 [ $ $ [ $ $ 7 1 ! v.J.4 $ 2 4 X 6. .S r 7 #.$ $ $ $ 1 ^ p : 6., t 4 2 [ $ $ $ $ $ $ $ $ $ $ ",
"$ $ $ $ $ $ $ $ $ $ $ $ $ $ $ $ $ q m 4.i G.4 $ $ +.+.$ $ $ $ $ 2 4 i.; &.%.-.A 7 $ $ #.$ [ $ $ q S @ j t 7 $ $ $ $ +.[ $ t 3 ,.c 7.A $ $ $ $ $ $ $ 1 k z.B.] 1 2 $ $ $ $ $ $ [ $ $ 3.$ $ $ [ 2 q x 8.H D E 7 $ $ $ $ $ Q W ;.7.* t $ [ #.$ [ [ $ 2 2 / @ 9.m ] 2 [ $ $ #.$ $ 8 , O.6.* 5 $ $ $ $ +.$ $ 2 t X v.u.1 $ [ 6 u c } ' G 7 $ $ $ $ $ | R  .d.R | $ 2 $ $ $ $ $ $ $ $ $ $ $ $ ",
"$ $ $ $ [ [ $ $ $ $ $ $ $ $ $ $ 7 K 0.W.W.l.< 6 [ $ #.$ $ $ $ $ [ [ 1 v -.: y o G @.$ #.#.$ $ q N 4.m e $ 2 $ $ [ $ $ [ $ 4 b <.l &.J v 8 $ $ $ $ t f - [.a 4 [ $ #.$ +.$ $ $ [ [ $ $ $ $ $ $ 5 J.l.c.s.0.a 4 $ $ $ e a - P.X.N q 7 +.$ [ $ $ $ #.$ t u i c.Y k 8 $ #.#.$ $ 5 f i %.f.Y A t 6 $ $ $ $ 7 e u D B r 7 $ 1 u.3 y &.. d q $ $ $ q b ; c  .M e 7 +.$ $ $ $ $ $ $ $ $ $ $ $ $ ",
"$ $ $ $ [ [ [ $ $ $ $ $ [ 7 o.C p 0.y.-X  y.U 3 F ..1 [ $ $ $ $ $ $ [ 6 A # S.9.0.B w 8 q e Z # @ s w 2 #.$ $ $ 3.$ $ $ $ 7 q a X.) 5.= o , N N , W 6.4.p e [ $ $ +.$ $ $ $ $ $ $ $ $ $ 2 6 P p z y.-X-X5.. 3 , ).+ O.c U R v 6 $ [ +.[ [ $ $ 7 { b > : 5.-Xt.%.R k ( 4 8 k ; =.5.  &X1.c U o ; ; R & Y g.5.;., t 8 i.G.U ,.  &X) : 3 u yXp Y : d.@ Z 5 $ [ $ $ $ $ $ $ $ $ $ $ $ $ $ $ ",
"$ $ $ [ $ $ $ $ $ $ $ $ 2 1 ` N.[.>.w.g.z >.6.7.D Q 6 2 [ $ $ $ $ $ #.$ [ ~ R d.S.y.T.j.g.k.. i a q $ 2 $ +.#.#.$ $ $ $ +.[ [ 8 j /.y &X&X&X    t.9.i X q 7 2 $ $ $ $ $ $ $ $ +.$ $ [ [ 1 e , xX} . U U g.z l 9.l >.Y S v 8 $ [ $ [ $ $ $ $ $ 4 C ' 7.8.z U T.*.} W V 8 ^ ; c %.z %.%.%.>.>.>.%.>.>.%.: T.T.W k 8 t |.V.6.>.w.w.g.. >.%.P.P.4.3 k t [ #.#.#.+.$ $ $ $ $ $ $ $ $ $ $ $ $ ",
"$ $ $ $ $ $ $ [ $ [ [ $ [ 2 {.| ` r t { t r w E .X+X7 [ $ [ $ $ $ $ $ #.$ 2 q k ; 7.c q.>.0., / 6 2 +.3.$ +.+.[ [ $ #.#.$ $ [ 2 5 ` u # j.w.. m.# X | 1 $ $ +.+.$ $ $ $ $ $ $ [ [ $ [ $ 2 @.( | w e t q e r ` Q ` | q 7 $ $ #.$ $ $ $ [ [ [ [ 7 Y.! G I r t r ^ ! C.q 1 wX.X~ w | r r | | r r r e e e e e e FX@.2 1 >X( | e t t t e w / ^ | Y.1 $ #.#.#.$ $ 3.$ +.$ $ $ $ $ $ $ $ $ $ $ ",
"[ $ $ $ $ $ $ $ $ $ [ $ $ $ $ $ $ #.$ $ $ $ $ $ $ $ $ $ $ $ +.+.+.+.+.$ [ $ $ $ 6 ] ^ ^ e 8 $ $ +.3.3.[ $ $ $ $ $ $ $ $ [ [ [ [ $ $ $ 4 Y.t t Y.@.$ $ $ $ $ [ +.+.+.$ $ $ $ [ 3.[ $ $ $ $ $ $ $ $ $ #.$ $ $ $ $ $ +.$ $ #.$ [ [ [ [ $ [ $ $ #.$ $ $ $ #.#.$ $ $ $ $ $ $ #.#.$ #.#.+.#.#.#.#.#.#.+.+.+.+.$ $ $ $ $ $ $ $ $ #.+.$ $ #.#.#.$ $ $ $ $ $ $ $ [ [ [ $ $ $ $ $ $ $ $ $ $ $ $ $ ",
"$ $ $ $ $ $ $ $ $ $ $ $ $ $ $ $ $ +.+.$ $ $ $ $ $ $ $ [ $ $ +.$ $ $ $ $ $ $ $ $ #.$ $ +.$ $ $ +.$ $ $ 3.3.$ $ $ $ $ $ $ $ $ $ $ $ $ $ $ $ +.$ $ +.+.$ $ [ $ $ $ $ $ $ $ $ $ $ +.$ $ $ $ $ $ $ $ +.+.+.+.+.$ $ $ $ $ $ $ $ $ $ [ [ [ [ $ +.+.+.$ $ [ 3.3.[ $ $ $ $ $ $ $ #.$ $ $ $ $ $ $ $ $ $ $ $ $ $ $ $ +.$ $ $ $ $ [ [ $ $ $ $ $ $ $ $ $ $ $ $ $ $ $ $ $ $ $ +.$ $ $ $ $ $ $ $ $ $ $ ",
"$ $ $ $ $ $ $ $ $ $ $ $ $ $ $ $ $ $ $ $ $ $ $ $ $ [ $ [ $ $ $ $ $ $ $ $ $ $ $ $ $ $ $ $ $ $ $ $ $ $ $ $ $ $ $ $ $ $ $ $ $ $ $ $ $ $ $ $ $ $ $ $ $ $ $ $ $ $ $ $ $ $ $ $ $ $ $ $ $ $ $ $ $ $ $ $ $ $ $ $ $ $ $ $ $ $ $ $ $ $ $ $ $ $ $ $ $ $ $ $ $ $ $ $ $ $ $ $ $ $ $ $ $ $ $ $ $ $ $ $ $ $ $ $ $ $ $ $ $ $ $ $ $ $ $ $ $ $ $ $ $ $ $ [ [ $ $ $ $ $ $ $ $ $ $ $ $ $ $ $ $ $ $ $ $ $ $ $ "
};
