/* XPM */
static char *_a64bacaa3d84e1cfde973528ca6f778_18[] = {
/* columns rows colors chars-per-pixel */
"178 40 256 2 ",
"   c #FE0009",
".  c #E40B12",
"X  c #991314",
"o  c #CD1213",
"O  c #DD1012",
"+  c #B80509",
"@  c #CA1721",
"#  c #C80B11",
"$  c black",
"%  c #D4131A",
"&  c #C70509",
"*  c #B60B10",
"=  c #ED040A",
"-  c #CD1319",
";  c #C4181A",
":  c #EC0912",
">  c #C51112",
",  c #A90B11",
"<  c #730000",
"1  c #1A0000",
"2  c #0A0000",
"3  c #BD0F12",
"4  c #220000",
"5  c #320000",
"6  c #2A0000",
"7  c #120000",
"8  c #3A0000",
"9  c #C51317",
"0  c #D40B12",
"q  c #430000",
"w  c #630000",
"e  c #530000",
"r  c #5B0000",
"t  c #4B0000",
"y  c #F4080A",
"u  c #A21112",
"i  c #DC100C",
"p  c #B41111",
"a  c #9A0B11",
"s  c #AC1212",
"d  c #AC0A0B",
"f  c #940A0B",
"g  c #BC1318",
"h  c #AC191B",
"j  c #9C090A",
"k  c #8C090A",
"l  c #EE0303",
"z  c #E6040A",
"x  c #B41417",
"c  c #ED0411",
"v  c #830A0A",
"b  c #890C0F",
"n  c #A31A1C",
"m  c #BB0E0B",
"M  c #A41417",
"N  c #97100E",
"B  c #A6100B",
"V  c #940407",
"C  c #7B0909",
"Z  c #8C0307",
"A  c #840307",
"S  c #AF0101",
"D  c #BD1814",
"F  c #921F1F",
"G  c #780B10",
"H  c #E5100B",
"J  c #CC1814",
"K  c #7B0307",
"L  c #FC080C",
"P  c #73090A",
"I  c #730306",
"U  c #DE040F",
"Y  c #D10202",
"T  c #840903",
"R  c #C11E22",
"E  c #670B11",
"W  c #D20411",
"Q  c #740803",
"!  c #6B090A",
"~  c #6B0307",
"^  c #640307",
"/  c #68100E",
"(  c #580B11",
")  c #FC0803",
"_  c #5B0306",
"`  c #6C0501",
"'  c #C61D1B",
"]  c #530307",
"[  c #040000",
"{  c #470B11",
"}  c #E70415",
"|  c #5C0903",
" . c #DE0419",
".. c #4B0406",
"X. c #DC1813",
"o. c #3B090A",
"O. c #D50416",
"+. c #000004",
"@. c #230602",
"#. c #000400",
"$. c #310802",
"%. c #EB080C",
"&. c #F70407",
"*. c #EF080D",
"=. c #E30C0C",
"-. c #D71015",
";. c #E70C0E",
":. c #D31014",
">. c #E7080E",
",. c #F3040D",
"<. c #D71010",
"1. c #FB0406",
"2. c #D31414",
"3. c #040004",
"4. c #D81416",
"5. c #F90400",
"6. c #EB0C0E",
"7. c #E20C08",
"8. c #F00C0E",
"9. c #F2000D",
"0. c #D8140F",
"q. c #F00C08",
"w. c #E50410",
"e. c #AC1319",
"r. c #9C0408",
"t. c #FA0000",
"y. c #F8040C",
"u. c #6B0000",
"i. c #630803",
"p. c #FF0406",
"a. c #000404",
"s. c #EF0808",
"d. c #E41014",
"f. c #F20007",
"g. c #E20808",
"h. c #F30407",
"j. c #DC0309",
"k. c #D40A0B",
"l. c #C80F0A",
"z. c #DC171C",
"x. c #891416",
"c. c None",
"v. c #AA2325",
"b. c #840001",
"n. c #D3030A",
"m. c #DD0B0C",
"M. c #7B0000",
"N. c #BC191B",
"B. c #B4191A",
"V. c #CD181A",
"C. c #630A0A",
"Z. c #050400",
"A. c #E50B18",
"S. c #F70512",
"D. c #DD1119",
"F. c #B4201F",
"G. c #A4090B",
"H. c #FB0004",
"J. c #7B0804",
"K. c #530909",
"L. c #C51814",
"P. c #EE0A19",
"I. c #E50303",
"U. c #8C0001",
"Y. c #430306",
"T. c #E70808",
"R. c #A31813",
"E. c #E70C08",
"W. c #EB0C08",
"Q. c #D41813",
"!. c #A40408",
"~. c #59100D",
"^. c #E3080C",
"/. c #DD0B11",
"(. c #78100D",
"). c #AC0309",
"_. c #080005",
"`. c #7D1E1E",
"'. c #D4181A",
"]. c #791416",
"[. c #E70D1E",
"{. c #3A0306",
"}. c #4B090A",
"|. c #94191E",
" X c #681516",
".X c #5B090A",
"XX c #E60804",
"oX c #89100E",
"OX c #95282A",
"+X c #320306",
"@X c #360C0F",
"#X c #EF0419",
"$X c #270C0E",
"%X c #EB0808",
"&X c #FF0004",
"*X c #8C0804",
"=X c #B51B22",
"-X c red",
";X c #D3100F",
":X c #ED0804",
">X c #43090A",
",X c #F70005",
"<X c #AC0903",
"1X c #9C0001",
"2X c #9C0803",
"3X c #000008",
"4X c #120504",
"5X c #220405",
"6X c #940101",
"7X c #FF0400",
"8X c #F30D15",
"9X c #551B1F",
"0X c #711B1F",
"qX c #DD0203",
"wX c #2A0406",
"eX c #1A0406",
"rX c #F8000D",
"tX c #591417",
"yX c #A40101",
"uX c #530903",
"iX c #31090A",
"pX c #D3140F",
"aX c #F30300",
"sX c #B41814",
"dX c #AC1813",
"fX c #940903",
"gX c #DD0803",
"hX c #A40904",
"jX c #D30903",
"kX c #471617",
"lX c #430802",
"zX c #381415",
"xX c #D30B19",
"cX c #DD0C19",
"vX c #2A0A0A",
"bX c #4E1F1F",
"nX c #33110E",
"mX c #220908",
"MX c #5A2427",
"NX c #772B2E",
"BX c #47100E",
"VX c #2B1112",
"CX c #1B0A09",
"ZX c #050404",
"AX c #3A0803",
"SX c #1A0803",
"DX c #2A0803",
"FX c #4B0903",
"GX c #0C0709",
"HX c #26100C",
"JX c #11090B",
"KX c #F0100C",
"LX c #412422",
"PX c #000800",
"IX c #000808",
"UX c black",
/* pixels */
"$ $ $ $ $ $ $ $ $ $ $ $ $ $ $ $ [ $ $ $ $ $ [ [ $ $ $ $ $ $ $ $ $ $ $ #.$ $ [ [ $ $ #.$ $ $ $ $ $ $ $ $ $ $ $ $ $ $ $ [ $ $ $ $ $ [ $ $ $ $ $ $ $ $ $ $ $ $ $ $ $ $ $ [ $ $ $ +.$ #.#.$ $ $ $ $ $ $ $ $ $ $ $ $ $ $ $ $ $ $ $ $ $ $ [ $ $ $ $ +.$ $ $ $ $ $ $ $ $ $ $ $ $ $ $ $ $ [ [ $ $ $ #.$ $ $ $ $ $ $ $ $ $ $ $ $ $ $ $ $ $ $ #.+.$ $ $ [ $ $ $ $ $ [ [ $ $ $ ",
"$ $ $ $ $ $ $ [ $ $ $ $ $ $ $ $ $ $ $ $ +.$ #.#.$ [ [ [ [ [ $ $ $ $ $ $ $ $ [ [ $ +.+.+.$ #.$ #.$ $ $ $ $ $ $ $ $ $ $ $ $ #.$ $ $ $ $ #.#.#.$ $ $ $ $ $ $ a.+.$ $ #.$ $ $ $ $ $ $ +.$ $ $ $ $ $ $ $ $ $ $ $ $ $ $ $ $ $ $ 3.$ $ $ $ [ $ $ $ $ $ $ $ $ $ $ $ $ $ $ [ $ $ $ $ #.$ $ $ +.+.+.$ $ $ $ $ $ $ #.$ #.[ $ $ $ $ $ $ $ $ $ $ $ $ $ +.3.$ $ $ $ $ $ $ [ $ $ $ ",
"$ $ $ $ $ $ [ 3.$ $ $ $ #.#.#.$ $ $ $ #.+.$ $ $ $ $ $ $ $ #.#.#.$ $ $ $ $ $ $ $ $ 7 t u.Q Q _ 5 $ $ $ [ $ $ $ $ [ $ $ $ $ $ $ $ #.#.$ $ $ $ $ $ $ $ $ $ $ $ #.#.$ $ $ $ $ $ $ $ $ $ $ $ [ $ $ $ $ #.1 $.8 q t q 8 7 $ $ $ +.+.$ $ $ $ $ [ $ $ $ $ $ #.$ $ $ #.#.$ $ $ $ $ $ $ $ $ $ $ $ $ $ $ #.$ $ $ $ $ [ 3.$ $ $ $ $ 1 @.5 8 q o.8 6 $ $ $ +.$ $ #.#.$ $ $ $ $ $ ",
"$ $ $ $ #.#.$ $ 2 4 C.F V G ` Q v k k ` 4 $ [ [ 2 1 | k A < < v v ! {.7 [ [ $ 6 I s 0.9.y.y >.W j _ 1 $ $ $ $ $ $ 7 o.P k b K G K A b k | 1 [ [ $ [ 7 ( b k v A b v ! 5 7 $ $ $ $ $ $ $ 2 5 P N m # Y 0.g.z } %./.# B I 5 $ $ $ $ $ $ $ $ [ [ 8 A a N Z b b Z Z C ] 5 e v j S B !.!.!.!.r.u B ).).S G.f ( 2 2 1 ..b S R o <.U w.>.>.w.0.+ f _ 2 $ $ $ $ $ $ $ $ $ $ ",
"$ $ $ $ $ $ $ [ 7 6 v % P.*.9.y y 9.d.e.Y.[ 2 2 2 4 X d.9.,.y rX[.F.| 1 $ 7 q k -.[.n.3 + 3 0.&.: O.X 5 $ [ $ $ $ 4 ^ N.[.S.y h.y.5.#X=.j 6 [ [ [ [ 4 a [.y &.&.S.A.B.r 1 [ [ $ $ $ [ $ 7 u.3 } p.p.&X  ,.U J l.U 8X8.} 3 A q $ $ [ $ $ $ [ $ e g [.S.) t.y.S.8XW b e Q * A.  p.  &X&Xp.1.t.L   p.p.L ;.f 1 1 8 |.z.  p.p.p.  l n.J k.g.9.y.0.S / 2 $ $ $ $ $ $ $ $ ",
"$ $ $ #.$ $ $ $ $ [ 6 ` p ;.p.5.*.S G ] 1 [ [ [ [ 2 q K ).T.*. .p ^ 4 2 $ e p @ x v 8 $ $ $ ( , 0.&.=.u q 7 $ $ $ 2 6 E V > 8.  y.: 3 b ..7 $ $ $ $ 7 ( a @ h.9./.p P 6 7 [ $ $ $ $ #.$ 2 8 Q V m =.&.7.S r $ $ q v + >.*.} + r $ [ $ $ [ $ $ 1 ..v > q.&.y.;Xu G Y.6 $.] A + =.) l j.S V Z U.a * O.z z V 1 2 4 .XA !.jXy 6.i Z 1 $ 2 ..X ;X6.y o b 8 [ $ $ $ $ $ $ ",
"$ $ $ $ $ $ $ $ $ #.$ $ 8 p *.;.i K $ $ $ $ [ $ +.$ $ $ e # V.T 6 $ [ 7 8 f z.S q $ $ $ $ $ $ 1 T m.l 7.p q $ [ [ [ $ $ $ / Y q.4.S t $ $ [ [ $ $ $ $ $ $ r ; N.E 7 $ #.#.$ $ $ $ $ $ $ $ #.#.$ ] m 8.O.v 1 2 +.$ $ 8 *X@ &.c g I 1 $ $ #.$ $ $ $ [ M.Y =.z b $ $ $ $ $ $ $ e R &.0 f 6 $ $ $ $ $ q j 4.f 1 $ $ $ $ $ f z 4.g | $ #.$ $ $ e d 6.6. .u 5 $ [ $ $ $ $ ",
"$ $ $ $ [ [ $ $ $ [ [ $ 7 K :.w.%.j 4 [ [ [ [ [ +.$ [ $ G W + q $ [ [ 5 b F.+ u.7 $ $ $ $ $ $ $ 5 u 4.9.A.b 4 7 [ $ #.2 [ e > 6.V.b 6 $ $ [ $ $ $ $ $ $ $ o.M j Y.2 2 [ $ +.$ $ $ $ $ $ $ $ [ 7 8 dX*.Y Q 7 2 $ $ $ [ [ ` Y 6.6.& ( $ [ $ $ $ $ +.1 E D -.0.G $ $ $ #.$ [ 2 q + 9.V.G 4 2 $ $ $ $ $ ` # k 1 [ [ $ $ [ v O 2.x e 7 $ $ $ $ $ q j W 8.4.T $.7 $ $ [ $ ",
"$ $ $ +.$ $ $ +.$ $ $ [ 1 t B X.f.m t 7 [ $ [ $ $ $ 7 5 F R *X1 $ $ $ ` @ N.Q 6 2 $ $ $ $ $ $ [ 1 t s 6.9.R ~ 4 [ $ $ 2 2 t R d.; C 6 [ $ $ $ $ $ $ $ $ $ 8 u j Y.2 2 #.#.+.$ $ $ $ $ 3.3.[ [ 7 8 , 8.2.P 7 2 $ $ $ #.$ 4 Q ; P.;.X 8 7 [ $ +.$ #.7 | * -.0.G $ [ $ $ $ 2 7 8 x c ' ` 1 7 $ $ $ $ $ e S `.7 [ [ [ [ 2 J.-.V., t 7 $ [ $ $ $ [ 5 X H z & v 4 $ $ [ $ ",
"$ $ $ [ $ [ $ +.$ $ $ $ 2 4 P J &.2.T $.7 $ $ $ $ [ @.P n u r 1 [ [ 4 j A.e.8 2 2 $ $ $ $ $ $ $ 2 2 Q i y i d q $ [ $ [ $ q 3 =.R G @.3.$ $ $ $ $ $ $ $ $ q u X {.[ 2 #.$ $ $ $ $ $ $ [ [ [ [ 7 5 B : 2.(.7 2 #.$ $ #.$ [ 4 b  .9.# v 6 [ $ $ $ $ 7 | * 4.4.Q $ $ $ $ $ 2 7 8 x *.; ^ 1 2 $ $ $ $ [ 5 x.0X2 [ $ $ [ 2 K W V.h e 2 $ $ $ $ $ $ $ r > A.} # t $ [ $ $ ",
"$ $ $ $ $ $ $ +.$ $ $ $ 2 7 8 x y  .m | 7 $ $ [ [ [ t , h / 4 7 2 7 ] B. .f 1 [ [ $ $ $ $ $ $ $ 2 $ t ; 8.;.:.I 2 2 $ [ $ q 3 A.D I 4 [ $ $ $ $ $ $ $ $ $ 8 u X {.[ 2 $ $ $ $ [ $ $ $ $ [ $ [ 7 5 u : 2.`.1 2 $ $ [ $ [ [ $ t 3 ;. .g e $ $ $ $ $ 7 | * 4.0.Q $ $ $ $ $ 2 7 8 x 8.; E 1 2 $ $ $ $ [ 1 K.kX2 [ $ [ [ 7 G Y Y S e 2 $ [ [ $ $ $ $ 6 Z Y c D.C 7 2 $ $ ",
"$ $ $ $ $ $ $ +.$ [ $ $ $ $ 7 v i 7.O f 1 $ [ [ [ $ ` 9 X 6 [ [ 7 5 T R 0 G [ [ [ $ $ $ $ $ $ 3.[ $ 6 u 7.l : a 6 7 [ [ $ { R } R I 4 [ $ $ $ $ $ $ $ $ $ 8 u X {.[ [ $ $ $ $ [ $ $ $ $ $ $ [ 7 6 u : % `.4 7 $ $ $ $ $ [ $ 4 V -.z  .v [ [ [ $ $ 7 r x -.0.I $ $ $ $ $ 2 2 8 x 8.; E 1 2 $ $ $ $ $ [ $ [ [ $ $ [ [ [ I o W x r 7 $ $ $ $ $ $ [ 1 t h ;.;.M q 1 [ $ ",
"[ $ $ $ $ $ $ $ $ $ $ +.$ $ [ t p i = 3 t $ 2 [ 7 6 x.N.Q 7 [ $ 7 e e.@ & ^ [ $ [ $ $ $ $ $ $ 3.$ $ 1 K - c 9.x { 1 [ [ $ q ; } R I 4 [ $ $ $ $ $ $ $ $ $ 8 u X {.[ [ $ $ $ $ [ $ $ $ $ $ $ [ 2 6 u 6.% v 6 7 $ $ $ $ $ $ $ 7 E D . 6.R.5 7 [ $ $ 7 | x -.4.I $ $ $ $ $ 2 2 8 x *.; E 1 2 $ [ $ $ $ $ $ $ $ $ $ $ [ [ I o Y * | 7 $ $ $ $ [ [ +.7 4 oX7.l R I 4 $ $ ",
"$ $ $ $ $ $ $ $ $ $ $ +.$ $ 2 6 T Y y O.v 4 7 _.4 C.X a q 7 $ $ 2 < 9 @ p t [ $ $ $ $ $ $ $ $ $ $ $ 7 t s =.f.' ` 4 2 [ $ q 9 6.R I 4 [ $ +.$ $ $ $ $ $ $ 8 u a {.[ [ $ $ $ $ [ $ $ $ $ $ $ [ 2 6 u 6.% v 6 7 $ $ $ $ $ $ $ 7 8 j U 9.* e 1 [ $ $ 7 | x O.0.Q $ $ $ $ $ [ 2 8 x *.; E 1 2 $ $ $ [ 2 2 3.[ [ $ $ $ [ [ I Y V.sXr 7 $ $ +.[ [ $ +.2 $ ^ O.8.O.j 5 $ $ ",
"$ $ $ [ $ $ $ $ $ $ $ $ $ $ [ 7 q dX: 7.x ( 1 2 q N OX~.4 2 [ $ 7 V 4.V.B q [ $ $ $ $ $ $ $ $ $ $ $ 7 6 oX-.q.W k $.2 2 $ t ; } ; G 4 [ $ +.$ $ $ $ $ [ $ q R.j o.2 [ $ $ [ [ [ $ $ $ $ $ $ [ 2 6 u 6.% T 6 7 +.+.+.$ $ $ +.7 1 v -.y L.` 4 2 $ $ 7 | * -.<.I $ $ [ $ $ 2 2 8 x P.; E 1 2 $ $ [ 4 9XkX2 [ [ $ $ [ [ [ I Y Y * r 2 $ $ $ $ $ $ $ [ $ q > l U * t $ $ ",
"$ $ $ $ $ $ $ [ $ $ $ $ $ $ $ [ $ v U >.z.N @.2 I D T 4 2 2 [ $ @.G.. V.a 8 2 #.$ $ $ $ $ $ $ $ $ $ 2 7 P 2.f.-.u 8 2 2 $ t ; } R I 4 $ $ $ $ $ $ $ $ [ $ q M j o.[ 2 $ $ [ [ [ $ $ $ $ $ $ [ 2 6 j 6.% T 6 7 +.$ $ $ $ $ $ 2 2 ~ Y f.V.T 5 2 $ $ 7 w + % <.I $ $ $ $ $ 2 7 5 S c 9 / 4 2 $ $ 2 8 x. X7 [ [ $ $ [ [ [ I J V.x | 2 $ $ $ $ $ $ $ [ $ 8 * ;.A.# r $ $ ",
"$ $ $ $ $ +.$ [ $ $ $ $ $ $ $ $ $ e 3  .6.# r 8 |.N.( $ $ $ [ $ 5 p %.o N 5 2 $ $ $ $ $ $ $ $ [ $ $ [ $ i.V.&. .p t 2 2 2 t ; } R P 4 $ $ $ $ $ $ $ $ $ $ q R.j Y.[ 2 $ $ [ [ [ $ $ $ $ $ $ [ 2 6 j 6.% T 6 7 +.$ $ $ [ $ $ [ $ ] 9 f.% j 8 [ $ $ 7 ^ + % <.I $ $ $ $ $ 2 7 5 S 8.' ` 4 [ $ $ [ t a 0X2 2 [ +.$ $ $ [ I o V.sX( 7 $ $ $ $ +.$ $ [ $ 6 r.O A.4.~ $ [ ",
"$ $ $ $ $ +.$ $ $ $ $ $ $ $ $ $ $ 6 k - 8.6.1XG M b 5 [ $ +.[ $ 8 + = 2.a 8 2 $ $ $ $ $ $ $ $ [ $ $ [ $ ] & &.=.3 e [ 2 2 e R } R P 4 $ $ $ $ $ $ $ $ $ $ q u j Y.[ [ $ $ [ $ [ $ $ $ $ $ $ [ 2 6 j 6.% v @.7 +.$ $ $ [ $ $ [ $ q 3 8.4.s q [ $ $ 7 ^ + % <.I $ $ $ $ [ 2 7 5 S *.# ` $ $ $ $ 7 v R G 7 2 3.+.$ [ $ [ I o V.x ( 7 $ $ $ $ 3.$ $ $ $ 4 V 4.6.=.Q $ [ ",
"$ $ $ $ $ $ $ $ $ $ $ $ $ $ $ #.$ 7 t h 6.1.%.Y n q 7 [ [ [ 2 $ q 3 :XQ.j 8 [ $ $ $ $ $ $ $ $ $ $ $ [ $ q g = 7.R ( [ 2 [ e ; ;.R I 4 [ $ $ $ $ $ $ $ [ [ q u j Y.7 2 $ $ $ $ [ $ $ $ $ $ $ [ 2 6 j ;.V.C 4 2 $ $ $ $ $ $ $ [ $ 8 * : O m t [ $ $ 1 ^ + 2.W ~ $ $ $ $ $ [ 2 5 e.8.. > S B B S 3 i d.T [ [ [ $ $ [ [ [ I o W * ( 2 $ $ $ $ $ $ $ $ $ 4 Z % z 7.K $ [ ",
"$ $ $ $ $ $ $ $ $ $ $ $ $ $ $ $ $ 2 7 v 7.  t.=.b 7 2 $ $ $ 2 $ t R q.4., q [ $ $ $ $ $ $ $ $ $ $ $ [ $ 8 p = 7.R r [ 2 $ e ; z R I 4 [ $ $ $ $ $ $ $ [ [ q u j Y.7 2 $ $ $ $ [ $ $ $ $ $ $ [ 2 6 a z - C 4 2 $ $ $ $ $ $ $ [ $ 8 p c O g t $ $ $ 7 / m O.W ` $ $ $ $ $ 2 2 $.p t.  y.f.l : s.y y.6.Z 7 [ [ $ $ [ $ [ Q W Y x ( 7 $ $ $ $ $ [ [ $ $ 1 Z 2.H 7.K $ [ ",
"$ $ $ $ $ $ $ $ $ $ $ $ $ $ $ $ $ [ $ e J 8.: o r $ [ [ $ $ 2 $ t ' 9.D.S t 2 $ $ $ $ $ $ $ $ +.$ $ [ $ 5 S l 7.; r [ 2 [ e > z D I 4 [ $ $ $ $ $ $ $ [ [ q u j Y.7 2 $ $ $ $ [ $ $ $ $ $ $ [ 2 6 a z - (.1 2 $ $ $ $ $ $ $ [ $ 8 S l O m t $ $ $ 7 u.D O.W ` $ #.$ $ [ 2 2 5 S *.D., Q w r ^ b.R d.b 2 [ $ $ #.$ $ [ Q ;XW x e 7 $ $ $ $ $ [ [ $ $ 1 A Y H 7.K $ [ ",
"$ [ [ $ $ $ $ $ $ $ $ $ $ $ $ $ [ [ $ 8 S  .4.p q $ [ [ [ $ 2 $ q R 9.7.m e [ $ $ $ $ $ $ $ $ +.$ $ [ $ 5 S l =.R r [ 2 $ ( > z D I 4 [ $ $ $ $ $ $ $ [ [ q u j Y.7 2 $ $ $ $ [ $ $ $ $ $ $ [ 2 6 a ;.V.G 1 2 $ $ $ $ $ $ $ [ $ 8 p : O + t [ $ $ 1 u.D '.W ` $ $ $ $ $ 2 2 5 dX;.; ` 2 $ $ $ $ E m Q $ [ [ $ $ $ [ [ Q W Y S e 2 $ $ $ $ $ [ [ $ $ 1 A Y H 7.K $ [ ",
"$ $ $ $ $ $ $ $ $ $ $ $ $ $ $ $ $ $ $ 6 r.2.W B 8 $ [ $ $ $ [ $ o.3 9.=.; | [ $ $ $ $ $ $ $ $ [ $ $ [ $ 5 , E.O 3 e 2 2 $ ( ; A.R I 4 [ $ [ $ $ $ $ $ [ [ 8 u j Y.7 2 #.$ $ $ [ $ $ $ $ $ $ [ 2 6 j ;.- G 4 2 +.$ $ $ $ $ $ [ $ q m 8.O p { [ $ $ 7 u.R O.W ` $ $ [ $ $ 2 7 5 e.6.' P 4 2 $ #.[ t X 0X7 [ $ $ $ $ [ [ Q W V.e.e 2 $ $ $ $ $ [ [ $ $ 4 V -.;.U K $ [ ",
"$ $ $ $ $ $ $ $ $ $ $ $ $ $ $ $ $ $ $ @.N - V.u 5 $ $ $ $ $ [ $ 5 p *.A.Y ` [ $ $ #.$ $ $ $ $ [ $ $ [ $ 5 hX7.-.p e 2 2 $ _ & A.R I 4 #.$ [ $ $ $ $ +.[ [ 8 u j Y.7 2 #.$ +.$ [ $ $ $ $ $ $ [ 2 6 j ;.- G 4 2 +.$ $ $ $ $ $ [ $ ] & &.4.G.q $ $ #.7 ` R 4.W ` $ $ [ $ $ 2 7 5 S 6.# G 4 2 $ $ 2 8 F 0X7 2 [ $ $ [ [ [ Q xXV.S ( 7 $ $ $ $ +.$ $ [ $ 6 j i z i I $ [ ",
"$ $ $ $ $ $ $ $ $ $ $ $ $ $ $ $ $ $ $ 6 a - - G.5 $ $ $ $ $ [ $ 6 , ;.6.O v 2 [ $ $ $ $ $ $ $ $ $ $ [ [ 5 d z Y u q [ 2 [ ( 9 } R Q 4 [ $ [ $ $ $ $ $ [ [ 8 j j { 7 2 $ $ +.$ [ $ $ $ $ $ $ [ 2 6 j ;.- G 1 2 +.$ $ $ $ $ $ 2 [ i.Y y W f 5 [ #.$ 7 ` R 4.0 ` $ $ [ $ $ 2 7 5 S 6.9 Q 4 2 $ $ 2 6  X9X2 2 [ $ [ [ [ 2 < 0 W S e 2 $ $ $ $ $ $ $ [ $ 5 S 7.7.o w $ [ ",
"$ $ $ $ $ $ $ $ $ $ $ $ $ $ $ $ $ $ $ 6 a o - G.5 $ $ +.$ $ [ $ 4 N 7.%.;.a 1 [ [ $ $ $ $ $ $ $ $ $ 2 [ q g 6.' v 6 [ 2 $ ( & } ; G 4 $ $ $ $ $ $ $ $ [ [ 8 j n ..7 2 $ $ +.$ [ $ $ $ $ $ $ [ 2 6 j ;.- G 1 2 +.$ $ $ $ $ $ 7 @.v 4.,.@ (.4 3.$ $ 7 ` R 4.W ` $ $ [ $ $ 2 7 5 s 6.# Q 4 2 $ $ $ 2 eXc.[ $ $ $ $ $ $ [ G 0.2.S e 2 $ $ $ $ $ $ #.[ $ t R ;.7.3 t $ $ ",
"$ $ $ $ $ $ $ $ $ $ $ $ $ $ $ $ $ $ $ 6 a - - u 5 $ $ +.$ $ [ $ 7 b i : 9.e.5 [ [ $ $ $ $ $ $ $ $ [ 2 [ t R 6.N.^ 4 2 2 $ ( & } ' C @.[ $ $ $ $ $ $ $ [ [ q M n { 7 2 $ $ +.$ $ $ $ $ $ $ $ [ 7 6 j z - G 1 7 +.$ $ $ $ $ $ 7 8 j O 9.D | 1 [ $ $ 7 ` R -.0 ` $ $ [ $ $ 2 7 5 s 6.# Q 4 2 $ $ $ $ $ $ #.$ $ +.+.$ $ 2 Q <.W S e 7 +.$ $ $ $ $ a.[ $ E Y = X., 8 $ $ ",
"$ $ $ $ $ $ $ $ $ $ $ $ $ $ $ $ $ $ $ @.a Y V.j 5 $ [ $ $ $ [ $ 7 ` ; =.f.D e 7 2 $ $ $ $ $ $ $ $ $ 2 7 | # 6.e.q 1 [ [ $ ( > w.@ k 6 [ $ $ $ $ $ #.#.[ [ t x n o.2 [ $ $ +.$ $ $ $ $ $ $ $ [ 7 $.j . J G 1 2 $ $ $ $ $ $ [ 1 w + z *.M 5 2 3.+.+.1 ` R 4.:.` $ $ [ $ $ 2 7 5 s 6.' P @.2 $ $ $ $ $ $ $ $ $ $ $ $ [ 7 K k.W e.e 2 $ $ $ $ $ $ +.7 1 oX7.*.; Q 4 $ $ ",
"$ $ $ $ $ $ $ $ $ $ $ $ $ $ $ $ $ $ $ 6 a W - u 5 $ [ $ $ $ $ $ 7 t B O &.J C 4 2 $ $ $ $ $ $ $ $ [ 7 7 ` J A.F 1 2 [ [ $ ] 9 w.- X 8 $ $ $ $ $ $ $ $ [ $ r R u 5 [ [ $ $ $ $ $ $ $ $ $ $ $ [ 7 5 u z o C 4 2 $ $ $ $ $ $ [ 4 V O.w.U v 2 2 3.+.$ 1 ` R 4.:.` $ $ [ $ $ 2 7 5 s 6.@ P 4 2 $ $ $ $ [ $ [ 2 2 7 2 [ [ 7 K /.'.S e 2 $ $ $ $ [ $ [ 1 t h 6.: B q 7 $ $ ",
"$ $ $ $ $ $ $ $ $ $ $ $ $ $ $ $ $ $ $ 6 r.W - u 5 $ $ $ $ $ $ $ 2 @.C Y y.X.R.q 2 $ $ $ $ $ $ $ $ $ 7 5 x.@ Y ^ $ [ $ [ $ q 3 ;.2.d q $ $ $ $ $ $ $ $ [ 2 ` ' a @.$ [ $ $ $ $ [ $ $ $ $ $ $ [ 7 5 M ;.W C 4 7 $ $ $ $ [ 2 $ q m z i g e $ $ a.$ $ 1 ` D 4.W ` $ $ [ $ $ 2 7 8 S : # P @.2 $ $ $ $ $ $ [ 1 .. XvX[ [ 2 K i 2.S e 7 $ $ $ [ [ $ $ 6 b @ } X.C 2 2 $ $ ",
"$ $ $ $ $ $ $ $ $ $ $ $ $ $ $ $ $ $ $ 6 u O.W B 5 $ $ $ $ $ $ +.[ 7 t m y ;.@ Q 2 $ $ $ $ $ $ $ +.+.7 r v.R G.8 $ $ $ [ $ 8 p w.i R ( $ $ $ $ $ $ #.ZX2 1 v # k 1 $ [ $ $ $ $ $ $ $ $ $ [ $ [ 7 5 B 6.% C 4 7 $ $ $ $ [ 7 1 C i c ' v 6 $ $ $ [ $ 1 u.m '.0 ` $ $ [ $ $ 2 7 8 S : ' ` 4 2 $ $ $ $ $ $ $ 4 v F +X2 2 [ K i 2.sX( 7 $ $ $ [ [ [ $ t 3 7.7.+ t $ [ $ #.",
"#.#.$ $ $ $ $ $ $ $ $ $ $ $ $ $ $ [ $ 6 G.% V.u 5 $ $ $ $ $ [ $ [ [ 4 f z >.H B 5 $ [ $ $ $ #.$ $ $ 4 Z ' v.^ @.[ $ $ [ $ 4 u 7.=.4.K $ $ [ $ $ #.#.[ 7 q X D < 7 $ [ [ [ [ [ $ #.$ $ $ [ [ 2 1 8 e.6.Q.T 6 7 $ $ $ $ $ 4 ^ + z A.j 8 1 [ $ $ [ $ 1 u.m 2.Y ` $ $ $ $ $ [ 2 8 S 6.# I 6 2 $ $ $ $ $ $ $ 8 B j 6 [ 2 2 v 0.O.+ | 2 $ $ $ $ [ 2 1 b 7.;.> M.4 $ $ $ $ ",
"$ $ $ $ $ $ $ $ $ $ $ $ $ $ $ $ $ [ $ 8 d -.2.G.5 $ $ +.+.$ $ $ $ $ [ | R H y W Q 1 2 #.+.+.$ $ 2 $ t m V.C 4 7 [ $ [ [ $ 1 K - } c R.5 2 [ $ $ $ #.$ 6 C v.u t 7 $ $ $ $ $ $ $ $ $ $ #.$ $ Z.1 t x 8.i f 8 7 #.#.+.$ $ e m U 7.m ] $ [ $ $ $ $ $ 7 u.g '.Y ` $ $ [ $ $ [ 2 q * P.V.v 6 7 $ $ $ $ $ [ $ _ + N 6 $ 2 7 b 7.D.J < 7 +.[ [ $ $ 5 b ; : ;XC @.7 $ $ $ $ ",
"$ $ $ $ $ $ $ [ $ $ $ $ $ $ $ $ $ $ $ 8 3 z 7.+ 8 $ $ $ $ $ $ $ $ #.2 6 K @ y ;.3 < [ #.$ +.+.$ [ q F ' S q 2 [ +.+.[ [ [ 1 t B 7.y.J v 4 $ +.a.$ $ $ < ' N.`.6 7 $ $ $ $ $ $ $ $ +.+.$ $ $ $ 2 | D ,.;.* | [ $ $ $ $ w S : d.s r 1 [ $ $ $ $ $ $ [ Q 9 X.0.I $ $ $ $ $ $ [ i.9 ,.4.a 5 $ $ #.$ $ $ $ 6 x.' f 7 $ $ 7 j 6.: d.N 7 $ $ $ $ 4 b 0.7.0 V 6 $ [ #.$ $ $ ",
"$ $ $ $ $ $ $ $ $ $ $ $ $ $ $ $ $ 4 t V U &.,.U X r 8 1 2 [ $ $ $ $ [ 2 4 b 7.*.8.# ` 7 $ $ $ $ | p ' j e 1 $ $ $ [ [ $ $ 2 1 / > y %.<.r.w 5 1 6 w V > [.e.q 7 2 $ $ $ $ [ [ [ $ +.+.$ [ [ 1 ^ p . L y =., t 6 8 r a j.6.^.S t $ 2 $ $ $ $ +.7 6 u.3 %.f.q.p w 5 2 2 [ 5 M.3 ;.t.: n.yXG w e e r w v <X# Y b 7 [ q v J &.1.5.@ ` 5 6 q M.* 4.P.; Q 6 [ $ $ [ $ $ $ ",
"$ $ $ $ $ $ $ $ $ $ $ $ $ $ 2 7 q a 4.8.y.L     S.. B.| 1 2 $ $ $ [ [ [ $ 8 V Y y y 0.* 6Xv N p # 4., q $ [ $ $ $ $ $ $ $ $ $ 4 k U ,.  &.z 0.Y O.%Xy =.; E $ $ +.$ $ $ $ $ $ $ $ $ $ $ 7 q f W t.p.p.    y U 0.g.>.c %.3 G 5 $ $ $ $ $ [ [ $ t p  .y &X  p.1.>.+ / 8 < p 7.  &X&X7X) y.8.%.>.>.>.>.y 1.: Y v 5 i.m 6.5.&X    y.>.0.0.U %.*.o u ( $ $ [ $ $ $ $ [ $ ",
"$ $ $ $ $ $ $ $ $ $ $ $ $ $ [ 7 { |.R m ).!.B S m R X K.1 2 $ [ $ $ $ $ [ 2 7 ` * 7.,.  L t.&.: R K 5 2 #.$ $ $ +.$ +.+.+.$ $ 2 5 K 3 c 1.p.&Xp.) 8.0 a t 7 [ $ $ $ $ $ $ [ [ $ $ $ $ $ 7 { F S 3 * S S * 3 J o J 3 N w 5 $ $ $ $ $ $ $ $ 2 2 .., R 3 + S S R o S / 8 I M + 3 m m + + * * m m m + + + + G.A t 5 ! e.> + S , ).* & o o R B A e 2 $ [ $ [ [ [ $ $ $ $ ",
"$ $ $ $ $ $ $ $ $ $ $ $ $ $ $ [ 2 2 2 #.$ $ $ #.#.a.a.#.[ $ $ $ $ $ $ $ $ #.#.$ 5 ` j + 3 3 u Q q $ +.+.+.[ [ $ 3.$ +.$ $ $ $ $ $ $ 8 P f S * S j Q q [ $ $ $ $ $ $ $ $ $ [ $ $ $ $ $ $ $ 2 4XZX$ #.#.#.#.#.2 7 Z.$ $ $ +.$ $ $ [ $ $ $ $ [ $ 2 4XSX#.$ #.$ #.7 2 2 [ 2 2 $ #.$ $ $ #.$ #.#.#.$ $ $ $ $ $ $ $ [ 2 Z.#.#.#.$ $ $ Z.4X4Xa.$ $ #.#.$ $ $ [ [ $ $ $ $ $ ",
"$ $ $ $ $ $ $ $ $ $ $ $ $ $ $ $ $ $ #.#.#.$ $ $ #.#.$ #.$ [ $ $ $ $ [ $ $ #.$ $ $ $ $ $ $ $ $ $ $ #.+.+.3.[ $ [ [ $ $ $ $ $ $ #.#.$ $ $ $ $ $ $ $ $ +.$ [ [ [ $ +.+.$ $ $ $ $ $ $ [ $ $ $ $ $ #.$ #.$ $ $ $ #.#.$ $ $ +.+.$ $ $ $ $ $ $ $ $ $ #.#.#.#.#.#.$ #.$ $ $ 3.+.$ #.#.$ $ $ $ $ $ $ $ $ $ $ $ $ $ $ $ $ $ #.#.#.$ $ $ $ $ $ +.a.#.#.$ $ $ $ $ $ $ $ $ $ $ $ ",
"$ $ $ $ $ $ $ $ $ $ $ $ $ $ $ $ $ $ $ $ $ $ +.+.+.$ $ $ $ [ [ +.$ $ $ $ +.$ #.$ $ $ $ $ $ $ $ +.$ #.$ +.+.$ $ $ $ $ $ $ $ $ $ [ [ [ $ $ $ $ $ +.+.$ [ [ $ $ $ $ [ [ [ $ $ +.$ $ $ $ $ $ $ $ $ $ $ $ $ [ [ $ $ $ $ $ $ $ $ $ $ $ $ $ $ $ $ [ [ [ $ $ $ $ $ $ [ [ [ [ [ [ [ $ $ $ $ $ $ $ $ $ [ [ $ $ $ $ $ $ $ [ [ $ [ [ [ [ $ $ $ $ $ $ $ [ [ [ [ $ $ $ $ $ +.$ [ $ "
};
