/* XPM */
static char *_a64bacaa3d84e1cfde973528ca6f778_10[] = {
/* columns rows colors chars-per-pixel */
"177 40 256 2 ",
"   c #FE0009",
".  c #E40B12",
"X  c #991314",
"o  c #CD1213",
"O  c #DD1012",
"+  c #B80509",
"@  c #CA1721",
"#  c #C80B11",
"$  c black",
"%  c #D4131A",
"&  c #C70509",
"*  c #B60B10",
"=  c #ED040A",
"-  c #CD1319",
";  c #C4181A",
":  c #EC0912",
">  c #C51112",
",  c #A90B11",
"<  c #730000",
"1  c #1A0000",
"2  c #0A0000",
"3  c #BD0F12",
"4  c #220000",
"5  c #320000",
"6  c #2A0000",
"7  c #120000",
"8  c #3A0000",
"9  c #C51317",
"0  c #D40B12",
"q  c #430000",
"w  c #630000",
"e  c #530000",
"r  c #5B0000",
"t  c #4B0000",
"y  c #F4080A",
"u  c #A21112",
"i  c #DC100C",
"p  c #B41111",
"a  c #9A0B11",
"s  c #AC1212",
"d  c #AC0A0B",
"f  c #940A0B",
"g  c #BC1318",
"h  c #AC191B",
"j  c #9C090A",
"k  c #8C090A",
"l  c #EE0303",
"z  c #E6040A",
"x  c #B41417",
"c  c #ED0411",
"v  c #830A0A",
"b  c #890C0F",
"n  c #A31A1C",
"m  c #BB0E0B",
"M  c #A41417",
"N  c #97100E",
"B  c #A6100B",
"V  c #940407",
"C  c #7B0909",
"Z  c #8C0307",
"A  c #840307",
"S  c #AF0101",
"D  c #BD1814",
"F  c #921F1F",
"G  c #780B10",
"H  c #E5100B",
"J  c #CC1814",
"K  c #7B0307",
"L  c #FC080C",
"P  c #73090A",
"I  c #730306",
"U  c #DE040F",
"Y  c #D10202",
"T  c #840903",
"R  c #C11E22",
"E  c #670B11",
"W  c #D20411",
"Q  c #740803",
"!  c #6B090A",
"~  c #6B0307",
"^  c #640307",
"/  c #68100E",
"(  c #580B11",
")  c #FC0803",
"_  c #5B0306",
"`  c #6C0501",
"'  c #C61D1B",
"]  c #530307",
"[  c #040000",
"{  c #470B11",
"}  c #E70415",
"|  c #5C0903",
" . c #DE0419",
".. c #4B0406",
"X. c #DC1813",
"o. c #3B090A",
"O. c #D50416",
"+. c #000004",
"@. c #230602",
"#. c #000400",
"$. c #310802",
"%. c #EB080C",
"&. c #F70407",
"*. c #EF080D",
"=. c #E30C0C",
"-. c #D71015",
";. c #E70C0E",
":. c #D31014",
">. c #E7080E",
",. c #F3040D",
"<. c #D71010",
"1. c #FB0406",
"2. c #D31414",
"3. c #040004",
"4. c #D81416",
"5. c #F90400",
"6. c #EB0C0E",
"7. c #E20C08",
"8. c #F00C0E",
"9. c #F2000D",
"0. c #D8140F",
"q. c #F00C08",
"w. c #E50410",
"e. c #AC1319",
"r. c #9C0408",
"t. c #FA0000",
"y. c #F8040C",
"u. c #6B0000",
"i. c #630803",
"p. c #FF0406",
"a. c #000404",
"s. c #EF0808",
"d. c #E41014",
"f. c #F20007",
"g. c #E20808",
"h. c #F30407",
"j. c #DC0309",
"k. c #D40A0B",
"l. c #C80F0A",
"z. c #DC171C",
"x. c #891416",
"c. c #F40804",
"v. c #AA2325",
"b. c #840001",
"n. c #D3030A",
"m. c #DD0B0C",
"M. c #7B0000",
"N. c #BC191B",
"B. c #B4191A",
"V. c #CD181A",
"C. c #630A0A",
"Z. c #050400",
"A. c #E50B18",
"S. c #F70512",
"D. c #DD1119",
"F. c #B4201F",
"G. c None",
"H. c #FB0004",
"J. c #7B0804",
"K. c #530909",
"L. c #C51814",
"P. c #EE0A19",
"I. c #E50303",
"U. c #8C0001",
"Y. c #430306",
"T. c #E70808",
"R. c #A31813",
"E. c #E70C08",
"W. c #EB0C08",
"Q. c #D41813",
"!. c #A40408",
"~. c #59100D",
"^. c #E3080C",
"/. c #DD0B11",
"(. c #78100D",
"). c #AC0309",
"_. c #080005",
"`. c #7D1E1E",
"'. c #D4181A",
"]. c #791416",
"[. c #E70D1E",
"{. c #3A0306",
"}. c #4B090A",
"|. c #94191E",
" X c #681516",
".X c #5B090A",
"XX c #E60804",
"oX c #89100E",
"OX c #95282A",
"+X c #320306",
"@X c #360C0F",
"#X c #EF0419",
"$X c #270C0E",
"%X c #EB0808",
"&X c #FF0004",
"*X c #8C0804",
"=X c #B51B22",
"-X c red",
";X c #D3100F",
":X c #ED0804",
">X c #43090A",
",X c #F70005",
"<X c #AC0903",
"1X c #9C0001",
"2X c #9C0803",
"3X c #000008",
"4X c #120504",
"5X c #220405",
"6X c #940101",
"7X c #FF0400",
"8X c #F30D15",
"9X c #551B1F",
"0X c #711B1F",
"qX c #DD0203",
"wX c #2A0406",
"eX c #1A0406",
"rX c #F8000D",
"tX c #591417",
"yX c #A40101",
"uX c #530903",
"iX c #31090A",
"pX c #D3140F",
"aX c #F30300",
"sX c #B41814",
"dX c #AC1813",
"fX c #940903",
"gX c #DD0803",
"hX c #A40904",
"jX c #D30903",
"kX c #471617",
"lX c #430802",
"zX c #381415",
"xX c #D30B19",
"cX c #DD0C19",
"vX c #2A0A0A",
"bX c #4E1F1F",
"nX c #33110E",
"mX c #220908",
"MX c #5A2427",
"NX c #772B2E",
"BX c #47100E",
"VX c #2B1112",
"CX c #1B0A09",
"ZX c #050404",
"AX c #3A0803",
"SX c #1A0803",
"DX c #2A0803",
"FX c #4B0903",
"GX c #0C0709",
"HX c #26100C",
"JX c #11090B",
"KX c #F0100C",
"LX c #412422",
"PX c #000800",
"IX c #000808",
"UX c black",
/* pixels */
"$ $ $ $ $ $ $ $ $ $ $ $ $ $ $ $ $ $ $ $ $ $ $ $ $ $ $ $ [ [ [ $ $ $ #.#.$ #.$ $ $ $ #.$ $ $ $ $ $ $ $ 3.$ $ $ $ $ $ $ $ $ $ $ $ $ $ $ $ $ $ $ $ $ #.$ $ $ $ [ $ $ $ $ #.$ $ $ $ #.#.$ $ $ $ $ $ $ $ [ $ $ $ $ $ #.$ $ $ $ [ [ $ $ $ $ $ $ $ $ $ $ $ $ $ $ $ $ [ [ $ $ $ $ $ $ $ $ $ $ $ $ $ $ $ $ $ $ $ $ [ $ $ $ $ $ $ $ $ $ #.#.$ $ $ $ $ $ $ $ [ $ $ $ $ $ $ $ ",
"$ $ $ $ $ $ $ $ $ $ $ $ $ $ $ $ $ $ $ $ $ $ $ $ $ $ $ $ $ $ $ [ $ $ $ #.$ $ $ $ $ $ [ $ $ $ $ $ $ $ $ $ $ $ $ $ $ $ $ $ $ $ $ $ $ $ $ [ $ [ $ [ $ $ $ $ $ $ $ $ $ $ $ $ $ $ $ $ $ $ $ $ $ $ $ [ [ [ [ [ $ $ $ $ $ $ $ $ $ $ $ $ $ $ $ $ $ $ $ $ $ $ $ $ $ $ $ $ $ $ $ $ +.+.$ $ $ $ $ $ $ $ $ $ $ $ $ $ $ $ $ +.+.+.+.$ G.G.G.G.G.G.$ [ $ $ $ $ $ [ $ $ #.$ $ $ $ ",
"$ $ $ $ $ $ $ $ $ $ $ $ $ $ $ $ $ $ +.+.$ $ $ G.G.G.G.G.G.G.G.G.G.G.G.G.G.G.G.3.[ $ [ $ $ $ #.#.#.G.G.G.#.$ $ [ [ $ $ +.+.+.3.3.[ [ [ [ [ [ [ [ $ $ $ $ $ $ $ +.$ $ $ $ $ $ $ $ $ $ [ $ $ $ $ $ $ #.#.G.G.G.G.$ $ $ #.#.$ $ $ [ $ $ $ $ $ $ $ $ #.#.$ $ $ $ #.$ $ $ $ $ $ +.+.$ $ $ $ #.+.+.+.+.$ +.$ $ $ $ $ $ $ $ $ $ $ $ $ $ $ $ $ [ $ $ $ $ $ $ $ $ $ $ $ $ $ ",
"$ $ $ $ $ $ $ $ $ $ $ $ $ $ $ $ $ $ $ $ $ +.$ $ $ $ $ [ G.G.G.G.G.G.G.G.G.G.$ +.+.$ $ $ q I v b I t 1 G.G.G.G.[ [ G.G.G.$ $ +.$ $ #.$ $ $ $ $ $ $ $ $ G.G.G.G.G.G.G.G.G.G.G.G.G.G.G.G.G.G.G.G.G.G.1 5 q ........5 2 $ $ $ [ $ $ $ $ $ $ [ $ #.$ #.#.$ $ $ $ $ $ $ #.$ $ $ $ +.$ $ $ $ $ +.+.+.+.$ $ $ [ [ $ $ #.#.6 Y.t ( ( e { 5 [ $ #.+.G.G.G.G.G.G.G.G.G.G.G.[ ",
"$ $ $ $ G.G.G.G.G.G.G.G.G.5 ].X u 6Xb U.r.j x.e 1 $ $ $ 1 C.T *XU.U.fXF C 5 $ $ $ $ r u - : 8.y P.g.+ I @.$ $ $ $ [ $ 1 ` f N 6XU.b V N oXE 6 G.G.G.G.5 P f j 1X1XV k ! 4 $ $ #.#.$ #.$ 2 8 v , # <.U ^.>.%.%.>.U J u ^ @.$ $ #.$ G.G.G.G.G...x.u yXa N 1X1Xf G t 8 G S 3 * S , u !.B S + 3 3 m , b 8 [ 1 t k p o <.g.>.: 6.} 7./.R V r 1 $ $ $ $ $ $ $ $ $ $ $ $ ",
"$ $ $ $ $ +.G.G.G.G.G.G.G.5 b # y 1.5.) ) w.+ ` 4 $ [ $ 6 A ; =.c.) 5.i B t $ 2 6 G # 7.> , a r.R %X8.i d G.G.[ [ [ $ 6 f W 6.1.5.t.) 5.-.N q 7 G.G.G.8 u 4.L &X&Xy '.f 6 $ $ $ $ $ [ $ 7 w m U ) -X-X5.7.R p + k.*.c g.d | 2 $ $ $ [ $ G.G._ S } G.G.) ) &.<., w t a z.1.p.&Xp.  &.q.q.G.G.G.p.8.@ r [ 6 C ' c G.G.G.f.m.m ).3 qXl *.j.u e 2 $ $ $ $ $ $ $ $ $ $ ",
"$ $ $ $ $ +.$ $ $ [ [ $ [ [ 7 | d =.) q.@ M.q 1 2 $ $ $ 2 6 e 6Xo 7.<.b.q 1 $ 5 V R =Xb.5 $ $ $ 6 M.R P.: S | G.G.G.G.2 6 | 6X;X9.  z + G 8 7 [ G.G.G.G.{ b l.U U * G 8 7 G.G.G.G.G.G.G.G.$.| M.p U y.<.v 1 $ $ 8 G m : H - f G.G.[ $ $ $ 2 7 q v ; c y.<.u u.q 1 2 5 ^ B =.L 8.n.6X` ^ ` v u R -.# ( G.G.8 w v + ;.y # I G.G.$ q k W 8.7.# G 7 [ [ $ $ [ $ $ $ $ ",
"$ $ $ $ $ $ $ $ $ $ [ +.$ #.#.[ q x 8.7.p e 2 +.$ [ $ $ #.$ $ u.S h C 1 G.G.7 ` 9 D ~.$ $ $ $ +.$ G.G.& : 7.m e $ $ $ $ #.$ 5 N X.y + Y.$ $ $ $ [ $ $ $ $ 7 G.G.F t $ $ $ $ $ [ $ $ #.G.G.G.G.G.G.N.c # ( G.G.#.#.$ q j % 8.% v 5 G.G.G.$ $ a.$ [ v D.8.x t 7 $ $ $ $ $ o.m 6.V.f 4 $ $ $ $ $ {.M R e $ $ #.$ $ ` '.P.B.{ [ G.G.G.$ r , U y # C $.[ $ $ $ $ $ $ [ ",
"$ $ $ $ [ [ $ #.$ $ $ #.$ $ $ 2 $ A z H J v 1 $ [ [ $ $ [ $ 4 N R k 8 1 3.4 | n N.b 1 $ $ G.G.G.G.G.G.v J ;.6.N 6 7 [ $ $ 2 6 C W P.u 4 [ G.G.G.G.G.G.G.G.G.t x.`.o.7 $ $ $ $ $ $ $ $ $ $ $ _.7 ..B.c ; ] $ 2 $ $ $ $ 6 F =.;.- b 6 $ $ [ [ [ 7 2 P -.;.u 8 G.G.G.[ G.G.6 p 6.; G 4 3.a.a.$ $ 1 x.x e $ $ a.[ 2 ^ J *.dXq 2 [ $ $ [ $ 8 u H U Y G 7 $ $ $ +.3.[ [ ",
"G.G.G.G.G.G.G.G.G.G.G.G.G.G.G.G.G.e > U 7.S 5 G.G.G.G.G.[ $ q + ; ( $ 2 $ q B N.N t 7 +.+.$ $ $ $ $ 7 8 N O f.' Q @.[ $ $ 7 4 P # 6.u 4 2 [ $ G.G.G.G.G.G.G.t x.`.8 7 $ G.G.G.G.G.G.G.G.G.G.G.G.G.G.P.G.G.G.2 +.$ [ [ $ q p  .P.o w $ 2 $ $ G.G.$ / '.z a 6 G.G.G.G.[ $ 6 d A.N.` 1 _.+.$ $ $ 2 P h ..$ +.G.G.[ | @ c , 8 G.G.G.G.G.G.2 e S 4.:Xp q [ G.G.#.$ $ $ ",
"$ $ $ $ $ $ $ $ $ $ $ $ $ $ $ G.G.5 k J %.Y ^ [ 2 [ $ $ 2 7 / + u 5 $ [ $ E o R ` 4 2 +.+.$ $ $ $ [ 7 7 i.J h.X.S q 2 $ $ 7 1 P @ 6.j 1 2 [ $ $ $ $ $ $ $ 1 t x.`.8 7 $ G.G.G.G.G.G.G.G.G.G.G.7 q S P.' G.G.[ +.+.3.$ #.1 w * : ;.N 6 7 $ $ +.2 [ ! Y =.a 6 7 $ G.G.G.G.6 S d.N.` 1 _.+.G.G.G.G.}.x.o.$ $ +.2 [ | # : h q G.G.G.G.G.G.2 4 ^ D :Xo C 6 G.G.G.$ G.G.",
"G.G.G.G.G.G.G.G.G.G.G.G.G.G.G.G.G.1 t h 6.A.X 8 G.G.G.G.1 t F X w 4 [ 2 7 F d.R ..$ 2 $ $ $ $ $ $ [ 2 $ 6 d 6.;.<.G $ $ $ 2 1 P @ 6.j 4 [ G.G.G.G.G.G.G.$ 1 t G.G.5 7 $ G.G.G.G.G.G.G.G.G.G.G.G.G.G.G.# G.G.G.G.G.$ G.G.G.7 C 7.8.g u.@.2 $ $ 2 [ / 2.z j 6 G.G.G.G.[ $ 5 S } D ` 4 3.G.G.[ [ [ 1 wX1 [ [ +.2 2 e 3 ;.h { 7 G.G.G.G.G.G.G.1 a ;.i x | G.G.G.$ $ $ ",
"$ $ $ $ $ $ $ $ $ $ $ $ $ $ $ $ $ 2 7 v U %.; G 6 $ $ $ @.A v.P 6 7 [ 1 q h 7.p 5 $ 2 $ $ $ $ [ $ $ $ G.G.A 0 H ;.X 1 [ G.G.G.P @ 6.j 4 2 2 $ $ $ $ $ $ $ 1 ..G.G.5 7 $ $ $ $ $ $ $ $ $ $ $ 2 1 8 , 6.@ G.G.G.G.G.G.$ $ G.G.e @ 6.2.j 8 _.$ G.G.$ / O.6.j 6 7 G.G.$ [ $ 8 S z D P 4 3.+.$ $ [ [ G.G.G.G.G.+.2 2 t 3 ;.h t 7 G.G.G.G.G.G.G.$ Q <.O % b 4 $ [ $ $ $ ",
"$ $ $ $ $ $ $ $ $ $ $ $ $ $ $ $ $ [ $ e # =.-., 8 G.G.G.q e.v.Y.[ 2 2 @.` N.4.u 4 G.G.G.G.[ $ $ $ $ $ $ 7 w R U *.x q 7 G.G.1 P # 6.j G.G.G.G.G.G.G.G.G.$ 1 ] G.G.5 G.G.G.G.G.G.G.[ G.G.G.G.G.G.8 G.G.& ( G.G.G.G.G.G.G.G.G.5 S 7.7.> e +.G.G.G.[ ! Q.6.a 6 7 G.G.$ [ $ 5 S A.D P 4 [ $ $ $ $ $ #.#.G.G.G.G.2 2 e > 6.h q 7 G.G.G.G.G.$ $ $ t m 4.7.d 5 G.G.[ $ $ ",
"$ $ $ $ $ $ $ $ $ $ $ $ $ $ $ $ $ $ $ 6 a O.w.W ^ $ 7 2 / =Xk 1 $ $ [ 5 b ; O.V 7 G.G.G.G.G.G.$ $ $ [ $ 7 t B X.h.9 | 7 [ 2 1 P # 6.j 4 2 G.G.[ [ $ $ $ $ 1 ] F `.5 7 #.$ $ $ [ [ [ G.G.G.G.G.G.5 G.G.# G.G.G.G.G.G.G.G.#.$ 1 f % . 0.u.$ $ $ 2 [ ~ O.6.j 6 G.G.G.$ [ $ 5 S A.D P 4 G.G.G.G.4 kXwX2 [ $ $ +.2 [ e R ;.h q 7 G.G.G.G.G.G.G.[ 8 j '.6.; t G.G.$ $ $ ",
"$ $ $ $ $ $ $ $ $ $ $ $ $ $ $ $ $ $ $ 1 | x ;.6.f 4 @.o.x.u r 7 $ $ 2 8 j ' W b 1 G.G.G.G.$ $ $ G.G.G.G.G.8 k % h.@ Q 4 2 2 4 P G.G.j 1 [ G.G.G.G.G.G.G.G.G.] OX`.5 7 #.$ $ $ $ $ [ G.G.G.G.G.G.G.G.G.G.G.G.G.G.G.G.G.G.G.G.1 I ; 7.7.v $ [ #.2 [ P -.: j 6 7 [ [ [ [ $ 5 S z R P 4 $ #.#.7 t x.{ 2 2 [ $ +.[ [ e ; 6.B.{ 7 [ $ $ $ $ $ $ $ 6 v # 8.W ^ [ 2 $ $ $ ",
"$ $ $ $ $ $ $ $ $ $ $ $ $ $ $ $ $ $ $ 7 1 T O 9.D ~ t C OX X6 2 G.G.G.t s J Y A 2 G.G.G.G.$ $ $ $ +.G.G.G.4 P V.y W oX6 2 7 4 G # H a 1 2 G.G.G.G.G.G.G.$ 1 ] OX`.8 7 #.G.G.G.G.G.G.G.G.G.G.G.G.G.G.G.G.G.G.G.G.G.G.G.G.G.G.G.( x U ;.f 1 [ #.2 7 G 4.;.X G.G.[ G.G.G.G.5 d 7.N.` 1 #.G.G.[ ^ a }.G.G.G.$ $ 2 7 | ' } h q G.G.G.G.G.G.G.G.G.1 E R 8.z.C 7 7 G.G.G.",
"G.G.G.G.G.G.G.G.G.G.G.G.G.G.G.G.G.G.G.G.G.e & = 4.S b.S F $.2 2 +.+.[ e + Y o A 7 G.G.3.$ $ $ $ +.G.G.G.G.1 | 9 &.4.f 8 7 7 4 C # H a 1 2 G.G.G.G.G.G.G.$ 4 ( OXv 5 7 #.G.G.G.G.G.G.G.G.G.G.G.G.G.G.G.G.G.G.G.G.G.G.G.G.G.G.G.{ R.i ;.a 4 2 $ 2 1 `.4.z N 6 7 [ $ $ $ $ 6 d =.N.! $ $ $ $ [ F B.] G.G.G.$ $ 2 7 | ; } h q 7 G.G.#.#.$ $ $ [ 1 ] m 9.D.v 1 7 +.$ $ ",
"$ $ $ $ $ $ $ $ $ $ $ $ $ $ $ $ $ $ $ $ $ 6 j O ;.= J # P 7 $ [ $ $ 2 w > O.W A 1 G.G.G.G.G.G.G.G.G.G.G.G.G.t m y O.N 8 7 7 4 C # . X 1 2 $ $ $ $ $ $ $ [ 1 ] OXx.8 7 #.$ $ G.G.G.G.G.G.G.G.G.G.G.G.G.G.G.G.G.G.G.G.G.G.G.G.G.G.u U : B 5 2 [ G.G.C z.;.f 4 7 G.G.#.$ $ 6 d z 4.S G.G.b 6X).Y R e $ $ $ $ $ 2 7 | 9 6., 8 7 [ #.$ $ $ $ $ $ 1 q S 8.D.x.4 7 G.G.$ ",
"$ $ $ $ $ $ $ $ $ $ $ $ $ $ $ $ $ $ $ $ $ 7 u.; z 5. .s t G.G.$ $ $ 2 / J 4.0 b 1 G.G.G.G.G.G.G.G.G.G.G.G.G.q * 9.% N 8 2 7 4 C @ XXX 1 2 [ $ $ $ $ $ $ [ 1 ] OXv 8 7 G.G.$ G.G.G.G.G.G.G.G.G.G.G.G.G.G.G.G.G.G.G.G.G.$ G.G.G.G.u U 6.B 5 2 [ G.G.C z.;.f 4 2 3.G.G.G.G.6 d *.&.t.c.G.G.,Xy.8.# ( $ $ $ $ [ 2 7 | 9 } , 8 7 [ #.$ $ $ $ $ [ 7 q dX*.D.k 4 7 $ $ $ ",
"$ $ $ $ $ $ $ $ $ $ $ $ $ $ $ $ $ $ [ $ $ 7 8 f 4.y J Q 4 G.G.G.[ [ 2 u.o i U V 4 G.G.G.G.G.G.G.G.G.G.G.2 7 8 S 8.% f 8 7 7 @.`.J ;.j 1 2 [ $ $ $ $ $ $ [ 1 ] OXx.8 7 G.G.$ G.G.G.G.G.G.G.G.G.G.G.G.G.G.G.G.G.G.G.G.G.$ G.G.G.G.j X.: B 5 2 [ G.G.`.z.6.X @.7 G.G.$ G.G.5 S 6.X.m U.G G b.u W ; e $ $ $ $ $ 2 2 | R } , o.7 3.$ $ $ $ $ $ $ 1 q e.*.D.oX4 7 $ $ $ ",
"$ $ $ $ $ $ $ $ $ $ $ $ $ $ $ $ $ $ $ $ $ 2 1 E ' = * t 7 G.G.G.G.G.G.u.:.7.=.j 6 G.G.$ $ [ $ $ $ $ $ $ 2 7 5 s l 2.f 8 7 2 6 `.Y %.j 1 2 [ $ $ $ $ $ $ [ 4 ] OXx.8 G.G.G.$ G.G.G.G.G.G.G.G.G.G.G.G.G.G.G.G.G.G.G.G.G.$ G.G.G.8 j U c B 5 7 G.G.7 C z.6.X @.2 [ #.G.G.G.6 d 7.D ` $ $ $ $ 7 k B.] $ $ $ $ $ 2 7 | ; ;., o.7 G.G.G.G.$ $ $ [ 1 { S *.i oX4 7 $ $ $ ",
"$ $ $ $ $ $ $ $ $ $ $ $ $ $ $ $ $ $ $ $ #.2 2 e g ;.dX8 7 2 [ G.G.G.G.^ o 7.z B 6 $ [ $ $ $ $ $ $ $ $ $ 2 7 5 s *.% f 8 7 7 6 `.J T.j 1 G.G.G.G.G.G.G.G.G.4 ] OX`.8 G.G.G.$ G.G.G.G.G.G.G.G.G.G.G.G.G.G.G.G.G.G.G.G.G.G.G.G.G.t , U : R.5 2 G.G.7 C z.;.N 4 G.G.G.G.G.G.6 d . D ` 4 G.G.G.2 ` u }.G.G.G.G.G.G.7 | ; A., 8 7 [ #.$ $ $ $ $ $ 1 ] * ,. .oX1 7 +.G.G.",
"G.G.G.G.G.G.G.G.G.G.G.G.G.G.G.G.G.G.G.G.G.G.[ t + 6., 5 2 2 [ [ [ $ 2 r R O 6.p 8 $ [ G.G.G.G.G.+.+.G.G.G.2 5 S ,.% k 5 7 7 6 v J E.a 1 G.G.G.G.G.G.G.$ [ 4 ( OXv 8 7 [ $ $ $ [ G.G.G.G.G.G.G.G.G.G.G.G.G.G.G.G.G.G.G.G.G.G.G.| * 7.>.N 4 G.G.G.G.C 4.;.N 4 G.G.G.G.G.G.6 S . D ` 4 G.G.G.G.| OX}.G.G.G.+.$ 2 7 | R z , 8 7 3.$ $ $ $ 3.G.G.4 / ; y D.C 7 G.G.G.[ ",
"$ $ $ $ $ $ $ $ $ $ $ $ $ $ $ $ $ $ $ $ $ 2 [ e m 6., 5 2 G.G.G.G.G.G.t p D.8.R t $ G.G.G.[ $ $ G.G.G.G.G.2 8 p 8.V.G 6 2 2 6 T Y E.j 1 G.G.G.G.G.G.G.G.G.4 ( F `.8 7 $ #.$ G.G.G.G.G.G.G.G.G.G.G.G.G.G.G.G.G.G.G.G.G.G.[ G.G.< ; =.. b G.G.G.G.1 C -.;.f 4 G.G.G.G.G.G.6 d H D ` 4 3.+.G.G.{. X@X$ [ G.G.G.G.7 | R } , 8 7 3.+.G.G.G.G.G.G.@.C V.9.% ! [ G.G.G.G.",
"G.G.G.G.G.G.G.G.G.G.G.G.G.G.G.G.G.G.G.G.G.2 2 e g 6.e.5 7 2 [ $ $ $ 2 8 j -.&.Y i.7 2 $ +.G.G.G.G.G.G.G.2 7 { + *.R | 1 2 7 5 oXW : u @.2 G.G.G.G.G.G.G.$ 4 r F G.G.G.G.G.$ G.G.G.G.G.G.G.G.G.G.G.G.G.G.G.G.G.G.G.G.G.G.G.$ 4 Z G.G.0.I $ $ G.G.1 C O.=.F 4 G.G.G.G.G.G.6 d d.D ` 4 _.+.+.$ G.G.Z.$ [ [ G.G.G.7 | R ;.B 8 7 3.+.$ $ $ $ $ 2 5 N W c @ ( $ 2 $ $ $ ",
"$ $ $ $ $ $ $ $ $ $ $ $ $ $ $ $ $ $ $ $ $ 2 2 e D : e.8 7 2 [ $ $ #.[ 6 k 2.&.X.`.4 7 +.G.G.G.G.G.G.G.G.G.7 e N.c S o.7 [ 7 5 k 2.*.u 6 7 G.G.G.G.G.$ $ $ 4 i.OX`.5 G.G.G.[ G.G.G.G.G.G.G.G.G.G.G.G.G.G.G.G.G.G.G.G.G.[ G.G.6 d d.7.J r $ $ $ 2 1 C O.7.k 1 G.G.G.G.G.G.6 d . R P 4 2 +.+.$ $ $ $ [ [ [ [ [ 2 7 | > ;., 8 G.G.G.G.G.G.$ $ $ t s O.6.m 8 $ 2 [ [ $ ",
"$ $ $ $ $ $ $ $ $ $ $ $ $ $ $ $ $ $ $ $ #.[ 2 e g ;., 8 2 [ $ G.G.G.G.1 ^ R y 7.R.q 7 #.$ $ $ #.$ $ +.+.2 4 / R A.a 4 G.G.G.6 v % 9., 5 2 G.G.G.G.G.G.G.$ 6 Q j 0X6 G.G.G.G.G.G.G.G.G.G.G.G.G.G.G.G.G.G.G.G.G.G.G.G.G.G.G.G.t > c 4., 8 #.#.$ 2 4 C O.7.k 1 G.G.$ #.G.G.5 S z R Q 4 2 $ $ $ $ $ $ $ $ $ $ [ 2 7 _ ; ;.B 5 7 3.$ $ $ #.$ $ $ E o O D.N 4 $ [ $ $ $ ",
"$ $ $ $ $ $ $ $ $ $ $ $ $ $ $ $ $ $ $ $ #.[ 2 e 3 6.e.8 7 [ $ G.G.G.G.7 8 , : . R u.1 $ $ $ $ $ $ $ G.G.G.5 v R - Q G.G.G.2 4 C - ,.p 8 7 [ $ $ $ $ $ $ $ 6 b n E 4 2 G.G.G.G.G.G.G.G.G.G.G.G.G.G.G.G.G.G.G.G.G.G.G.G.G.G.$ ` 4.P.; G 6 G.G.$ 2 1 C '.7.k 1 G.G.[ #.G.G.5 S ;.; Q 4 G.G.G.$ $ $ $ $ 2 @.$X2 2 1 | ; ;.B 8 7 G.G.G.G.[ 2 2 7 k A. .; / 1 $ $ $ $ $ ",
"$ $ $ $ $ $ $ $ $ $ $ $ $ $ $ $ $ $ $ $ $ 2 7 ( R l e.8 7 [ G.G.G.G.G.G.7 k U ;.-.V 6 G.G.G.$ [ $ $ $ $ 2 t M R , t 2 G.G.G.1 P @ 9.m e 1 2 $ #.#.#.$ $ $ 8 u v.~.7 G.G.G.$ G.G.G.G.G.G.G.G.G.G.G.G.G.G.G.G.G.G.G.G.G.G.G.q M ;.} j 8 1 G.G.#.2 7 ].O.;.N 4 G.G.G.G.G.G.5 S z R P 1 G.G.G.G.G.$ $ [ 5 `.| 2 2 2 ( 9 : e.q G.G.$ $ $ G.G.7 t * 8.O.k 5 7 [ $ $ $ $ ",
"$ $ $ $ $ $ $ $ $ $ $ $ $ $ $ $ $ $ [ $ $ 2 7 | ; l s 8 2 [ $ $ $ $ $ [ $ w & 7.;.R t $ [ $ $ $ $ +.$ $ 2 < ; F.P G.G.G.G.G.7 | 9 l @ G 6 G.G.G.G.G.+.$ G.G.+ v...7 2 $ [ [ $ $ G.G.G.G.G.G.G.G.G.S G.G.G.G.G.G.G.G.G.G.G.Z @ . o E 2 G.G.#.$ 2 7 (.-.6.a 4 7 G.G.G.G.G.5 p z D ` 1 3.G.G.G.G.$ $ $ ( h P [ 2 $ _ @ c S t 7 [ $ $ $ G.G.8 N % 9.g t [ 2 $ $ G.G.G.",
"G.G.G.G.G.G.G.G.G.G.G.G.G.G.G.G.G.G.G.$ $ 2 7 ^ ; : s 8 7 [ $ $ $ $ $ $ $ 8 u -.l X.T 4 7 +.$ [ $ $ $ G.G.X V.k 5 7 [ $ #.2 [ q * 6.4.B q 2 #.G.G.G.$ G.G.Q V.M 5 $ [ $ $ $ $ $ #.G.G.G.G.G.G.G.] G.G.G.G.2 G.G.$ $ $ $ w J  .Y X $.G.G.G.G.3.2 2 (.-.6.a 6 7 G.G.G.2 $ 5 * 6.9 Q 4 $ #.#.$ $ G.G.[ (.B.E 2 2 2 i.- 8.m e 7 [ #.$ $ $ 7 G o X.-.b.G.G.[ $ $ [ $ $ ",
"$ $ $ $ $ $ $ $ $ $ $ $ $ $ $ $ $ $ $ $ $ 2 7 ! # : S 8 7 [ $ $ #.$ $ +.+.1 r x : l ; Q 4 $ $ [ #.$ 2 4 ! F.+ | [ G.G.G.G.G.G.4 j d.U O.K $ #.$ $ G.G.G...n V.Z G.G.G.[ $ $ $ $ $ $ G.G.G.G.G.G.i.R 9.G.G.4 2 $ #.$ 4 ` + G.G.k 8 2 $ $ $ $ +.7 7 C O *.u 6 7 3.$ $ G.G.q # S.'.k 6 $ $ $ $ $ $ $ {.x.h r 7 2 [ ! Y ,.# ` 1 a.#.#.$ 1 ` R ;.9 v 6 G.G.G.G.+.+.+.$ ",
"$ $ $ $ $ $ $ $ $ $ $ $ $ $ $ $ $ $ $ $ #.$ 8 N 0.&.o G 6 G.G.G.#.#.$ +.+.2 1 I O.8.6.> E $ $ $ $ $ 1 v B.B ` 6 G.G.G.G.$ $ G.G.u.; 7.9.; ` 1 G.G.G.G.G.G.R e.r G.G.G.G.G.G.G.G.G.G.[ G.G.G.G.G.f 2.y 7.G.G.G.G.G.8 Z O. .O.j G.G.G.$ $ $ $ $ [ t B 6.&.m ( 7 $ $ $ $ 6 v z.L 6.3 E 4 $ $ $ $ $ t f =Xe.t 2 $ 8 N X.&.D., { $ $ $ q r.0 7.i T 2 $ $ #.$ $ +.+.$ $ ",
"$ $ $ $ $ $ $ $ $ $ $ $ $ $ $ $ $ $ $ 1 ] k R %.t.-Xt.. 3 f ( 7 [ $ $ $ $ $ $ 6 A - 9.S.Y a r 5 q ` j W ' / 2 2 $ a.$ $ $ $ $ 2 $.v V.y.,.U 3 a 6XyXm 0.c N.^ 1 2 $ $ $ $ [ [ $ $ $ $ G.G.G.` S z y.&X) 8.Y yX1X* Y 7.;.+ I 6 G.G.$ $ $ $ 1 t k l.9.  &Xy O.a | 5 8 Q + z t.&X&X) I.Y > m + m > U s.-.j t 8 P + ;.L &Xp.9.> a 1X3 O.6.z s ~ 4 $ $ +.+.$ $ #.$ $ $ ",
"$ $ $ $ $ $ $ $ $ $ $ $ $ $ $ $ $ $ $ 4 b @ i g.<.O.U %XO V.v 7 [ [ [ $ $ $ $ 2 7 ^ m >.,.&.T.j.g.: X., ~ 1 G.G.G.G.$ $ G.G.G.G.G.4 k i ,.p.p.  L p.5.G.G./ $ G.G.+.$ $ $ $ $ $ $ [ $ $ G.G.M Y >.z g.g.T.= *.l >.j.S G 8 $ $ $ $ $ $ $ $ @.Q m 7.%Xg.qXXXz @ a r ^ h z.%.%X%X%X%XT.>.>.T.T.T.T.T.U m C t ^ h i %X^.U g.z : %.6.%.0 d G 5 $ $ [ +.$ $ $ $ $ $ $ $ ",
"$ $ $ $ $ $ $ $ $ $ $ $ $ $ $ $ $ $ $ 7 @X}.{ G.G.4 5 { ..}.5 2 $ $ $ $ [ $ $ $ #.$ 8 C p k.U U J d G 6 G.G.#.$ $ $ $ $ $ $ $ $ $ [ 1 _ f 3 W O.Y 3 u ~ @.G.G.G.G.+.$ $ $ [ $ $ $ $ $ $ 2 1 o...t o.5 8 q e i.i.] 8 $ $ $ $ $ $ G.G.G.G.$ G.G.G.~...8 5 q ....q 6 $.{ ] t t q q q q o.q q q q q q 8 +X4 1 6 { ..{ q 5 8 q ] C.| ..5 $ $ $ +.+.$ $ $ $ $ $ $ $ $ $ ",
"$ $ $ $ $ $ $ $ $ $ $ $ $ $ $ $ $ $ $ $ $ #.$ $ $ G.G.G.G.G.#.$ $ $ $ $ $ $ $ $ #.#.$ $ 2 +Xo.o.6 $ $ $ $ $ $ $ $ $ $ $ $ $ $ $ $ $ $ $ $ [ 1 wX6 Z.$ $ $ $ $ $ $ $ $ $ $ $ $ $ $ $ $ [ $ $ $ #.#.#.a.$ +.+.+.+.+.+.+.+.+.$ $ $ $ $ [ G.G.G.G.G.G.G.G.G.G.$ $ $ +.+.+.+.+.#.#.#.$ $ $ $ +.+.$ $ G.G.G.G.G.$ $ $ $ $ $ $ $ $ $ $ +.$ $ G.G.G.G.G.G.G.G.G.G.G.G.G.G.",
"G.G.G.G.G.G.G.G.G.G.G.G.G.G.G.G.G.G.G.G.$ $ $ $ $ $ $ [ $ $ +.$ $ $ [ $ $ [ [ [ #.#.$ $ #.#.#.#.$ $ $ $ $ $ $ $ [ $ $ $ $ $ $ $ $ $ $ $ $ +.#.#.#.$ $ $ $ $ #.$ $ $ $ [ $ $ $ $ $ $ $ $ $ $ $ $ $ $ $ $ 3.+.+.+.+.+.+.+.+.G.G.G.G.G.G.G.G.G.G.G.+.a.#.G.G.G.G.G.G.$ $ $ G.G.G.G.[ $ $ $ +.+.a.a.$ $ $ $ $ $ $ $ +.+.$ $ $ #.#.$ $ $ $ $ $ $ $ $ $ $ $ $ $ $ $ $ $ ",
"$ $ $ $ $ $ $ $ $ $ $ $ $ $ $ $ $ $ $ $ [ [ $ [ $ $ $ $ $ $ $ $ #.$ $ $ $ $ $ $ $ [ $ $ $ $ $ $ $ $ #.$ $ $ $ $ $ $ $ $ $ $ $ $ $ $ $ $ [ [ $ $ #.$ $ $ $ $ $ $ $ $ $ $ $ $ $ $ $ $ $ $ $ [ [ [ [ $ [ [ G.G.G.G.G.G.$ $ $ $ $ $ $ $ $ $ [ $ $ $ +.#.$ $ $ $ $ $ $ $ $ $ $ $ $ $ $ $ $ $ $ $ $ $ $ $ [ 3.3.$ $ $ $ [ [ +.$ $ +.$ $ $ $ $ $ $ $ $ $ $ $ $ $ $ $ $ $ "
};
