/* XPM */
static char *_a64bacaa3d84e1cfde973528ca6f778_9[] = {
/* columns rows colors chars-per-pixel */
"178 41 256 2 ",
"   c #FE0009",
".  c #E40B12",
"X  c #991314",
"o  c #CD1213",
"O  c #DD1012",
"+  c #B80509",
"@  c #CA1721",
"#  c #C80B11",
"$  c black",
"%  c #D4131A",
"&  c #C70509",
"*  c #B60B10",
"=  c #ED040A",
"-  c #CD1319",
";  c #C4181A",
":  c #EC0912",
">  c #C51112",
",  c #A90B11",
"<  c #730000",
"1  c #1A0000",
"2  c #0A0000",
"3  c #BD0F12",
"4  c #220000",
"5  c #320000",
"6  c #2A0000",
"7  c #120000",
"8  c #3A0000",
"9  c #C51317",
"0  c #D40B12",
"q  c #430000",
"w  c #630000",
"e  c #530000",
"r  c #5B0000",
"t  c #4B0000",
"y  c #F4080A",
"u  c #A21112",
"i  c #DC100C",
"p  c #B41111",
"a  c #9A0B11",
"s  c #AC1212",
"d  c #AC0A0B",
"f  c #940A0B",
"g  c #BC1318",
"h  c #AC191B",
"j  c #9C090A",
"k  c #8C090A",
"l  c #EE0303",
"z  c #E6040A",
"x  c #B41417",
"c  c #ED0411",
"v  c #830A0A",
"b  c #890C0F",
"n  c #A31A1C",
"m  c #BB0E0B",
"M  c #A41417",
"N  c #97100E",
"B  c #A6100B",
"V  c #940407",
"C  c #7B0909",
"Z  c #8C0307",
"A  c #840307",
"S  c #AF0101",
"D  c #BD1814",
"F  c #921F1F",
"G  c #780B10",
"H  c #E5100B",
"J  c #CC1814",
"K  c #7B0307",
"L  c #FC080C",
"P  c #73090A",
"I  c #730306",
"U  c #DE040F",
"Y  c #D10202",
"T  c #840903",
"R  c #C11E22",
"E  c #670B11",
"W  c #D20411",
"Q  c #740803",
"!  c #6B090A",
"~  c #6B0307",
"^  c #640307",
"/  c #68100E",
"(  c #580B11",
")  c #FC0803",
"_  c #5B0306",
"`  c #6C0501",
"'  c #C61D1B",
"]  c #530307",
"[  c #040000",
"{  c #470B11",
"}  c #E70415",
"|  c #5C0903",
" . c #DE0419",
".. c #4B0406",
"X. c #DC1813",
"o. c #3B090A",
"O. c #D50416",
"+. c #000004",
"@. c #230602",
"#. c #000400",
"$. c #310802",
"%. c #EB080C",
"&. c #F70407",
"*. c #EF080D",
"=. c #E30C0C",
"-. c #D71015",
";. c #E70C0E",
":. c #D31014",
">. c #E7080E",
",. c #F3040D",
"<. c #D71010",
"1. c #FB0406",
"2. c #D31414",
"3. c #040004",
"4. c #D81416",
"5. c #F90400",
"6. c #EB0C0E",
"7. c #E20C08",
"8. c #F00C0E",
"9. c #F2000D",
"0. c #D8140F",
"q. c #F00C08",
"w. c #E50410",
"e. c #AC1319",
"r. c #9C0408",
"t. c #FA0000",
"y. c #F8040C",
"u. c #6B0000",
"i. c #630803",
"p. c #FF0406",
"a. c #000404",
"s. c #EF0808",
"d. c #E41014",
"f. c #F20007",
"g. c #E20808",
"h. c #F30407",
"j. c #DC0309",
"k. c #D40A0B",
"l. c #C80F0A",
"z. c #DC171C",
"x. c #891416",
"c. c #F40804",
"v. c #AA2325",
"b. c #840001",
"n. c #D3030A",
"m. c None",
"M. c #7B0000",
"N. c #BC191B",
"B. c #B4191A",
"V. c #CD181A",
"C. c #630A0A",
"Z. c #050400",
"A. c #E50B18",
"S. c #F70512",
"D. c #DD1119",
"F. c #B4201F",
"G. c #A4090B",
"H. c #FB0004",
"J. c #7B0804",
"K. c #530909",
"L. c #C51814",
"P. c #EE0A19",
"I. c #E50303",
"U. c #8C0001",
"Y. c #430306",
"T. c #E70808",
"R. c #A31813",
"E. c #E70C08",
"W. c #EB0C08",
"Q. c #D41813",
"!. c #A40408",
"~. c #59100D",
"^. c #E3080C",
"/. c #DD0B11",
"(. c #78100D",
"). c #AC0309",
"_. c #080005",
"`. c #7D1E1E",
"'. c #D4181A",
"]. c #791416",
"[. c #E70D1E",
"{. c #3A0306",
"}. c #4B090A",
"|. c #94191E",
" X c #681516",
".X c #5B090A",
"XX c #E60804",
"oX c #89100E",
"OX c #95282A",
"+X c #320306",
"@X c #360C0F",
"#X c #EF0419",
"$X c #270C0E",
"%X c #EB0808",
"&X c #FF0004",
"*X c #8C0804",
"=X c #B51B22",
"-X c red",
";X c #D3100F",
":X c #ED0804",
">X c #43090A",
",X c #F70005",
"<X c #AC0903",
"1X c #9C0001",
"2X c #9C0803",
"3X c #000008",
"4X c #120504",
"5X c #220405",
"6X c #940101",
"7X c #FF0400",
"8X c #F30D15",
"9X c #551B1F",
"0X c #711B1F",
"qX c #DD0203",
"wX c #2A0406",
"eX c #1A0406",
"rX c #F8000D",
"tX c #591417",
"yX c #A40101",
"uX c #530903",
"iX c #31090A",
"pX c #D3140F",
"aX c #F30300",
"sX c #B41814",
"dX c #AC1813",
"fX c #940903",
"gX c #DD0803",
"hX c #A40904",
"jX c #D30903",
"kX c #471617",
"lX c #430802",
"zX c #381415",
"xX c #D30B19",
"cX c #DD0C19",
"vX c #2A0A0A",
"bX c #4E1F1F",
"nX c #33110E",
"mX c #220908",
"MX c #5A2427",
"NX c #772B2E",
"BX c #47100E",
"VX c #2B1112",
"CX c #1B0A09",
"ZX c #050404",
"AX c #3A0803",
"SX c #1A0803",
"DX c #2A0803",
"FX c #4B0903",
"GX c #0C0709",
"HX c #26100C",
"JX c #11090B",
"KX c #F0100C",
"LX c #412422",
"PX c #000800",
"IX c #000808",
"UX c black",
/* pixels */
"#.#.$ $ $ $ $ $ $ $ $ $ $ $ $ $ $ $ $ $ $ $ $ $ $ $ $ $ $ $ $ $ $ $ $ $ $ $ $ $ $ $ $ $ $ $ $ $ $ $ $ $ $ #.m.m.$ $ $ $ $ $ $ $ $ $ $ $ $ $ $ $ $ $ $ $ $ $ $ $ $ $ $ $ $ [ $ $ $ $ $ $ $ $ $ $ $ $ +.$ $ $ $ $ $ $ $ $ $ $ $ $ $ $ $ $ $ $ $ $ $ $ [ [ $ $ #.$ $ $ $ $ $ $ $ $ $ $ $ $ $ #.$ $ [ [ [ $ $ $ $ $ $ [ $ $ $ $ $ $ #.#.$ $ $ $ $ $ $ $ $ $ $ $ $ $ $ $ ",
"$ $ $ $ $ $ $ $ $ $ $ $ $ $ $ $ $ $ $ $ $ $ +.$ $ $ #.$ $ $ $ $ $ $ $ $ $ $ $ $ $ $ $ $ $ $ $ $ $ $ $ $ $ $ $ [ [ [ [ [ $ $ $ $ $ $ $ $ $ $ $ $ $ $ $ $ $ $ $ $ $ $ $ $ [ [ [ [ [ [ $ $ +.$ $ $ [ [ [ [ [ [ $ $ $ $ $ $ $ $ [ [ [ $ $ $ $ $ $ $ $ $ $ $ $ $ $ $ $ $ $ $ $ [ [ $ $ $ $ $ $ $ +.+.$ $ $ $ $ $ $ $ $ [ [ [ $ $ $ $ #.$ 3.[ [ $ $ $ $ $ $ $ $ $ $ $ $ $ ",
"$ $ $ $ $ $ $ [ $ $ $ $ $ $ $ $ $ #.#.+.+.+.+.$ $ $ $ $ $ $ $ $ $ $ $ $ $ $ [ [ [ [ $ $ $ #.m.m.m.m.m.m.m.+.[ $ $ $ [ [ $ +.$ +.+.3.3.3.+.[ $ $ $ $ $ $ $ $ $ $ $ $ $ $ $ $ $ $ $ $ $ $ [ $ $ $ +.$ $ $ $ #.#.#.#.$ $ $ $ #.$ $ $ $ $ $ 3.[ [ m.m.m.m.m.$ $ $ $ $ [ $ $ #.$ [ $ $ $ $ $ $ +.+.+.+.$ $ [ $ $ $ #.#.#.$ $ $ $ $ $ $ $ $ $ $ $ $ $ $ $ $ $ $ $ $ $ 3.$ ",
"$ $ $ $ $ $ $ $ $ $ $ $ $ $ $ $ $ $ $ $ $ $ $ $ $ $ $ $ $ $ $ $ $ $ $ $ $ #.+.+.3.3.#.$ 6 ( ! G E Y.7 $ $ $ [ $ $ $ +.$ +.+.+.+.$ m.m.m.m.m.m.m.m.m.[ $ $ $ $ $ $ $ $ $ $ $ $ $ $ $ $ $ $ $ $ $ #.#.1 6 8 8 o.+X1 $ $ $ $ $ $ $ $ $ $ $ $ $ $ $ $ $ $ $ $ $ $ #.$ $ $ $ $ $ $ $ $ $ $ $ $ $ $ $ $ $ $ $ $ $ $ $ #.Z.4 6 5 m.m.m.m.m.m.$ $ $ $ [ $ $ $ $ $ $ $ $ #.$ ",
"$ $ $ [ $ $ $ $ $ $ $ $ 2 1 K.x.N b G v 6XN k ^ 4 [ [ [ 7 { G b b v A T C o.[ $ $ $ q k ; %.9.,.P.^.g Q 6 $ $ $ [ m.m.m...C b b b.v b Z A ` m.m.m.m.2 @.E v k b b.v v E m.m.m.m.m.m.m.m.[ 8 Q u R Y 0.U I.>.z g.<.; fXe 1 $ $ [ [ [ [ [ [ 1 ( T a a Z Z 6XV v / q q `., p d !.r.N N 1X!.).p * p X P 6 2 4 w f p @ n.m.m.m.U /.O.# , G 8 $ $ $ [ [ [ $ $ $ [ [ $ $ $ ",
"$ $ $ $ $ #.$ [ $ m.m.m.m.1 | * : y aX5.) 8.J k $.m.m.m.m.E B. .y y.y d.m | [ [ $ _ +  .o + ).yX; z P./.S t $ 2 m.m.m.4 G R z t.y.5.1.rX .S e 2 $ m.m.m.N -.y.  ) :XQ.j 5 $ $ $ $ $ $ m.m.m.m. .  p.&Xt.w.l.+ 3 gXy : 0.u ] [ [ [ [ [ [ [ 4 P N.;.L 1.1.1.9.- X r ( , d.m.m.&X  ) c.= f.&.L p.1.z * t [ 8 u % 8.&Xm.7X9.0.3 m @ I.: 7.; v 6 $ $ $ $ $ $ $ [ m.m.m.m.",
"m.m.m.m.m.$ m.m.m.m.m.m.m.m.1 e a 4.1.&.7.B r 6 7 $ #.#.2 4 m.m.; ;.>.u r 6 [ 4 Q h D j t $ $ $ 4 G 3 8.*.S w 1 $ $ $ 7 6 i.6XY q.  : # b t 1 2 $ m.m.m.t k J d.. R b t m.m.m.m.m.m.m.$ 2 5 E b + 7.&.-.C 4 $ $ t Z > 8.;.@ b 6 $ $ $ $ [ 2 1 e Z @ l 5.4.u ` q 4 1 8 ` S ;.m.m.# 6XI < G *XS J '.* t $ 7 t I N J 6.9.+ | 7 $ 4 w G.U ,.O S r $ [ $ $ $ $ m.m.m.m.m.",
"m.m.m.m.m.m.m.m.[ $ $ +.+.$ [ $ 4 X ;.H # G $ $ $ $ $ $ $ a.$ t j D G.5 $ [ 2 _ R ' P 1 m.m.+.+.[ $ | > *.d.> r $ $ [ $ $ $ 6 b <.c.R ( $ $ $ #.m.m.m.m.m.m.w j X e $ $ $ $ $ $ $ $ $ $ $ $ $ $ _ m : & ] $ [ $ $ $ e S O 8.W C 4 7 $ $ #.#.#.$ 1 |. .: u 6 $ $ $ $ $ $ _ > c # C 1 $ $ $ $ 2 i.h S t $ $ $ $ 4 k 4.6.u $.2 [ $ $ 4 G 3 . 8.p e 1 2 $ $ [ [ [ $ $ $ ",
"$ $ $ $ $ $ [ [ [ [ $ $ $ $ $ [ [ E o  .O.j 4 +.+.$ $ $ m.m.m.G =XX ( 1 +.1 q F @ u $.m.m.m.m.m.m.$ 1 K # : 9.u 5 2 2 $ $ 7 4 ` V.*.e.5 m.m.$ $ $ $ $ $ [ m.m.m.x.q 7 #.#.$ $ $ $ $ $ $ $ $ [ 2 ..S 6.9 e $ [ $ $ $ 2 8 j ;.6.# v m.m.$ $ $ $ m.m.`.4.A.f 4 m.m.$ $ 2 $ q 3 6.N.| 1 [ #.$ [ $ 6 F , q $ $ $ 2 4 `.'.6.j 6 7 [ [ [ [ 2 _ m %X0.S e m.m.m.m.m.m.m.3.$ ",
"$ $ $ $ $ $ $ $ $ $ $ $ $ $ m.m.$ 8 j Y H > t $ [ $ $ $ $ $ 6 G.' P 7 [ $ 6 b + h w 7 $ $ $ $ [ $ +.2 6 k 4.h.J C 6 m.m.[ 7 1 ! 9 6., 5 7 2 [ m.m.m.m.m.m.m.Y.x.x.o.7 #.m.m.m.m.m.m.m.m.m.m.m.m.t m.m.9 m.m.[ $ [ m.m.m.m.*  .;.; e m.m.3.+.+.2 7 C 4.z k 7 m.m.$ m.m.$ q g ;.B.] m.m.m.#.$ $ 7 `.n q $ m.m.2 1 C Y 6.j 4 2 [ $ $ $ $ 7 I ; i 7.X 4 $ [ $ $ $ $ +.$ ",
"$ $ $ $ $ $ $ $ $ $ $ $ $ $ [ m.m.4 E + 6.O v 1 m.m.m.m.m.[ ] m * { $ $ $ t + R x.5 7 [ [ [ $ $ $ $ 2 2 e 3 l O + e m.m.[ 2 1 ! @ *.M 6 7 2 $ m.m.m.m.m.m.1 q v `.o.7 #.$ $ $ $ m.m.m.m.m.m.m.m.q B.c 9 m.m.m.m.m.m.m.m.1 ` g ;.U k 4 7 m.m.m.m.m.G '.=.k 1 2 [ $ $ [ $ q 3 ;.B...m.m.a.$ $ $ [ | x.5 [ +.$ 2 1 G Y 6.j 6 2 [ $ $ $ $ 7 5 k J %.R _ 7 2 $ $ [ $ $ $ ",
"m.m.m.m.m.m.m.m.m.m.m.m.m.m.m.m.m.m.6 f =.H B.e 1 $ $ $ 7 6 ].h A 4 m.m.m.I O.; E 7 2 [ $ [ $ +.m.m.m.m.4 j d.w.i A 7 2 [ 7 1 / # : M 6 2 [ $ m.m.m.m.m.m.1 Y.x.`.o.7 #.$ $ $ $ m.m.m.m.m.m.m.m.m., P.m.m.m.m.m.m.[ m.m.m.1 b =.*.+ | 4 [ [ [ 7 7 G O.=.k 1 2 [ m.m.m.$ ..3 ;.B...7 [ +.$ $ $ [ 5X@Xm.m.m.$ 7 1 P o ;.j @.m.m.m.$ m.m.m.2 ..* 8.4.f 5 7 $ $ [ $ $ m.",
"m.m.m.m.m.m.m.m.m.m.m.m.m.m.m.m.m.m.m.^ o =.% a 5 $ $ $ 1 w j F t 1 $ 2 4 N  .D ..m.m.[ $ $ $ $ $ $ #.$ 7 Q o . c B $.m.m.m.1 E ' 6.R.6 2 m.m.m.m.m.[ m.m.1 Y.x.`.o.7 #.$ $ $ $ m.m.m.m.m.m.m.m.m.m.m.J m.m.m.m.m.m.+.3.m.m._ W l o V 5 2 m.m.2 7 (.-.H F 1 m.m.m.[ 2 $ ..3 6.x ..7 3.$ $ $ $ $ $ #.#.$ $ $ 7 1 P - 6.u 6 2 [ $ $ $ m.m.[ 7 N c 7.g w m.m.$ $ $ 3.$ ",
"$ $ $ $ $ $ $ $ $ $ $ $ $ $ $ $ $ $ $ 5 d i 7.# e m.m.m.6 N v.C.1 2 m.m...h  .S 8 m.m.m.m.$ m.m.m.m.m.m.m.e S D.y R e 1 [ 2 7 / # : M 4 2 m.m.m.m.m.m.m.[ 1 Y.x.`.q m.m.m.m.m.m.m.m.m.m.m.m.2 m.m.m.m.m.m.2 m.m.m.m.m.m.m.m.8 * =.0.+ t m.m.m.2 1 C O.7.k 1 m.m.m.[ 2 $ { 3 6.x ..m.m.m.m.m.m.$ $ $ $ $ m.m.m.4 Q - ;.u 6 2 m.m.m.m.m.m.$ $ I -. .2.Z 1 $ [ $ $ +.$ ",
"$ $ $ $ $ $ $ $ $ $ $ $ $ $ $ $ $ $ #.7 I R A.7.v 2 m.m.e =Xj 5 $ [ 2 1 C.+ U B 6 m.m.m.m.m.m.m.m.m.m.m.m.5 f -.&.V.P 1 2 2 7 E # W.R.6 7 m.m.m.m.m.$ $ [ 1 q x.v q m.m.m.m.m.m.m.m.m.m.m.m.m.m.8 m.m.' ( [ m.m.m.m.m.m.m.m.4 N -.O o | $ [ [ 7 4 C % 7.k 1 m.m.m.[ 2 $ { R 6.x ] 7 [ m.m.m.6 >X1 [ $ #.$ 3.7 4 G Y z u 6 2 m.m.m.m.m.m.$ $ e 3 4.7.B 6 $ [ m.m.m.m.",
"m.m.m.m.m.m.m.m.m.m.m.m.m.m.m.m.m.m.m.7 5 X U 6.e.q 6 4 ].h I m.m.m.[ 6 C R U u 4 m.m.m.m.[ m.m.m.m.m.m.m.4 C - &.2.b 5 m.m.1 ! # ;.u 6 7 m.m.m.m.m.m.m.m.1 q x.x.q m.m.m.m.m.m.m.m.m.m.m.m.m.m.5 m.m.> m.m.m.m.m.m.m.m.m.m.7 K @ U 0.G $ 2 $ m.m.C O.. k 1 m.m.m.[ 2 $ t 3 ;.S e m.m.m.#.2 | v +X[ m.m.m.[ 7 4 Q - H j 6 7 2 [ $ $ $ $ $ [ q B '.6.g o.$ [ $ $ $ $ ",
"$ $ $ $ $ $ $ $ $ $ $ $ $ $ $ $ $ $ $ 2 $ ^ Y : @ k t ( x.v q m.m.m.2 8 f @ U j 1 m.m.m.m.[ $ +.m.m.m.m.m.1 _ ; &.X.j q m.m.4 ` # 6.R.6 7 m.m.m.m.m.m.m.[ 1 q `.m.m.m.m.m.m.m.m.m.m.m.m.m.m.m.m.m.m.m.m.m.m.m.m.m.m.m.m.m.m.7 ^ m 7.A.k 2 2 $ 2 4 `.-.7.b 4 7 3.$ $ [ $ q + =.dXe m.m.m.m.2 G j {.m.m.[ [ [ 2 1 P J . a 6 7 [ $ $ $ $ $ $ [ 6 f Y *.J ] m.m.m.m.m.m.",
"m.m.m.m.m.m.m.m.m.m.m.m.m.m.m.m.m.m.m.[ $ 5 S H i l.b N m.] 1 2 $ $ [ q G.W /.j 1 m.m.m.m.m.m.$ $ $ $ $ 2 7 t g &.X., t 7 2 4 P # 6.M 6 7 m.m.m.m.m.$ $ [ 1 q x.m.m.7 m.m.m.m.m.m.m.m.m.m.m.m.m.m.m.6.> m.m.m.+.$ $ $ $ m.m.m.e S U 6.N 1 m.m.m.m.v O.7.b 4 m.m.m.m.[ $ 8 + w.S ..$ $ $ $ 4 N B q $ [ [ [ [ 2 1 P J =.X 6 m.m.m.m.m.m.m.#.$ 6 b V.*.W C.$ 2 $ $ $ $ ",
"$ $ $ $ $ $ $ $ $ $ $ $ $ $ $ $ $ $ $ $ m.m.K o 7.s.o o k 4 m.m.3.+.2 { d 2./.j 4 $ $ $ $ $ $ $ $ $ $ $ 2 2 8 p 9. .S e m.m.4 ` ' 6.R.6 7 2 $ $ $ $ $ $ $ 1 q x.x.q 2 $ m.m.m.m.m.m.m.m.m.m.m.m.m.B m.m.m.[ m.m.m.m.m.m.m.m.7 q M  .: u 6 [ #.2 1 v O.7.b 7 2 [ $ $ m.m.o.3 9.<.B U.K v N d J p q $ [ $ $ +.2 1 P - z N 4 2 [ $ $ $ $ $ $ [ 4 G 9 P.% / [ 2 +.$ [ $ ",
"$ $ $ $ $ $ $ $ $ $ $ $ $ $ $ $ $ $ $ $ $ 2 t B i ,X. ; w 7 $ [ +.+.[ t p Q.=.j 4 m.m.$ $ $ $ $ $ $ $ $ 2 2 5 s 8.X.s e 7 2 4 P # 6.R.6 2 2 [ $ $ $ $ $ $ 1 ..x.x.q 2 #.m.m.m.m.m.m.m.m.m.#.m.m.m.B m.m.m.[ m.m.m.m.m.#.m.m.m.q M m.m.u 6 m.m.2 1 v O.7.T 1 2 $ $ $ [ $ q 3 y.1.5.q.m.m.m.y.6.* q $ [ $ $ $ 2 1 P J A.f 4 2 [ $ $ $ $ $ $ $ 4 Q ; P.O.! [ 2 +.$ $ $ ",
"$ $ $ $ $ $ $ $ $ $ $ $ $ $ $ $ $ $ $ [ $ 2 1 ` V.y -.X 8 m.m.m.m.$ 2 e m -.z d 5 m.m.m.m.m.m.m.m.m.m.m.m.2 6 G.l 4.s t 2 2 4 (.# 6.R.6 2 2 $ $ $ $ $ $ $ 1 ..x.x.q 2 m.m.m.m.m.m.m.m.m.m.m.m.m.m.m.;.9 ( [ m.m.m.m.m.#.m.m.m.q u m.m.u 6 2 #.2 1 v 4.7.b 7 m.m.m.+.m.m.q m 9.i ).b Q m.U., V.* q m.m.m.m.m.m.1 P J A.N 4 m.m.m.m.m.m.m.m.m.4 ` ; c W E 2 2 +.m.m.m.",
"m.m.m.m.m.m.m.m.m.m.m.m.m.m.m.m.m.m.m.m.m.m.m.{ m q.# (.@.2 $ $ $ $ 2 e m X.: p 8 $ [ m.m.m.m.+.$ $ m.m.m.m.4 u 6.4.s t m.m.4 C J : u 4 2 2 [ m.m.m.m.m.$ 1 ..x.x.q m.m.m.m.m.m.m.m.m.m.m.m.[ m.m.m.m.9 ] [ m.m.m.m.m.#.$ $ 7 q u U 6.j 6 [ #.2 1 v -.7.T 7 m.m.m.m.m.m.8 m ;.B.] $ $ $ $ 4 j , 8 $ [ [ [ m.m.1 P J A.N 1 m.m.m.m.m.[ [ $ $ 4 ` R %.o / 2 2 m.m.m.m.",
"m.m.m.m.m.m.m.m.m.m.m.m.m.m.m.m.m.m.m.m.m.m.m.8 S ;.D C.4 m.m.m.m.m.m.t p X.l m q m.m.$ $ $ $ +.+.m.m.m.m.[ 4 u c 4., t 2 2 6 C o : u 4 m.m.m.m.m.m.m.m.m.m.Y.x.x.q 7 #.$ 3.m.m.m.m.m.m.m.m.m.m.m.m.m.9 ] $ [ m.m.m.m.m.m.m.m.e e.m.m.N 4 m.m.m.1 T 4.. b 7 7 [ $ $ [ $ 8 + } * | m.m.m.m.7 v j 8 $ [ $ $ $ 2 4 P @ A.N 1 m.m.m.m.m.m.m.m.[ 6 G ' = W ^ $ 2 3.m.m.m.",
"m.m.m.m.m.m.m.m.m.m.m.m.m.m.m.m.m.m.m.m.m.m.m.$., ;.m .X1 m.m.m.m.m.[ q , 4.l ; ] $ 2 $ $ $ $ +.m.m.m.m.m.m.4 G.8.4.j q 7 7 @.v o = u 4 [ m.m.m.m.m.$ [ m.m.Y.x.x.q 7 #.$ 3.$ $ m.m.m.m.m.m.m.m.m.m.6.9 ] $ m.m.m.m.m.m.m.m.m.^ m U =.k 1 m.m.2 1 T z.z b 7 7 [ $ $ [ $ q g : + _ m.m.m.m.2 ` |.o.$ [ m.m.m.m.4 P #  .|.4 7 m.m.m.m.[ m.m.m.6 k V.l o _ $ 2 +.m.m.m.",
"m.m.m.m.m.m.m.m.m.m.m.m.m.m.m.m.m.m.m.m.m.m.m.5 , ;.N.| 1 m.m.m.m.m.m.8 a '.8.J ^ 7 2 $ $ $ $ 3.$ $ m.m.m.m.6 M : W k 5 7 7 6 ].o l B 6 2 m.m.m.m.m.m.m.m.m.Y.x.v q 7 #.$ +.$ $ m.m.m.m.m.m.m.m.m.m.6.9 ] $ [ $ $ $ $ $ $ m.m.K # U O v 2 m.m.2 4 v 4.. b m.m.m.m.m.[ $ q g 6.+ | 7 [ #.m.m.}.m.wX$ $ $ $ $ 2 1 P @ 7.N 1 7 m.m.m.m.m.$ $ [ 8 u % 6.3 q $ 2 m.m.m.m.",
"m.m.m.m.m.m.m.m.m.m.m.m.m.m.m.m.m.m.m.m.m.m.m.5 , ;.N._ 1 m.m.m.m.m.[ 6 v V.y 4.v 4 m.m.m.m.m.[ m.m.m.m.m.m.5 , ;.; ` 6 7 7 6 C - 9.s 5 m.m.m.m.m.m.m.m.[ 1 ..x.`.8 m.m.m.+.$ $ m.m.m.m.m.m.m.m.m.m.;.m.m.$ [ m.m.m.m.m.m.+.4 V 4.7.:.` m.m.m.m.4 x.4.=.b 2 2 [ $ $ [ $ q 3 6.m | 1 [ $ m.m.2 m.m.$ $ $ m.m.2 1 P J z N 1 7 [ $ $ $ $ $ $ $ t + z.d.S 5 $ [ [ m.m.m.",
"m.m.m.m.m.m.m.m.m.m.m.m.m.m.m.m.m.m.m.m.m.m.m.5 , ;.D _ 1 m.m.m.#.$ [ 4 ` # y  .a 8 7 $ $ $ $ $ $ $ $ $ 2 2 8 h } * e 1 2 7 @.C Y ,.S 8 2 m.m.m.m.m.[ $ [ 1 ] F ].8 m.m.m.+.$ $ $ $ $ $ $ $ 2 7 Y.e.;.; ] $ m.m.m.m.m.m.m.m.5 S 7.U > m.m.m.$ 7 4 x.-.7.oXm.m.m.m.m.[ $ q m : N.| 1 [ $ $ $ $ $ +.+.$ [ 3.+.7 1 P - ;.N 1 7 m.m.m.m.m.+.$ $ u.o  . .a 4 $ [ m.m.m.m.",
"m.m.m.m.m.m.m.m.m.m.m.m.m.m.m.m.m.m.m.m.m.m.m.5 , 6.D _ 4 2 [ $ m.m.m.7 ..x q.H * w 1 +.$ $ $ +.$ $ [ m.m.7 ] B.=.u 5 2 [ 7 4 (.W ,.S 8 m.m.m.m.m.m.[ $ [ 4 ` m.].5 m.m.m.+.$ $ $ $ $ $ $ $ 2 m.m.dXm.m...m.m.m.m.m.m.m.[ $ e & ;.% j 8 $ $ $ 7 4 T % U x.2 2 [ [ [ [ $ q m : N.| 1 [ $ [ [ $ $ $ +.m.m.m.m.m.1 P - z N 1 2 [ $ $ $ $ [ [ $ v U D.R ` m.m.m.m.m.$ m.",
"m.m.m.m.m.m.m.m.m.m.m.m.m.m.m.m.m.m.m.m.m.m.m.5 d : D _ 1 2 #.m.m.m.m.m.@.a P.6.Y A 7 $ $ $ $ 3.[ [ $ $ 2 4 ! N.4.A m.m.[ 7 1 P o y + t 7 m.m.m.m.m.m.m.$ $.A n ! m.m.m.m.$ m.m.m.m.m.m.m.m.m.m.m.m.m.; ] $ [ $ $ $ $ [ 7 2 G 4.6.m ~ m.m.m.m.m.@.T '.U oXm.m.m.m.m.[ $ q g c + _ 1 [ $ $ [ [ $ $ [ 7 vX5Xm.m.1 P - H f 7 2 m.m.m.m.m.[ 7 5 , : 4.j q m.m.m.m.m.$ m.",
"m.m.m.m.m.m.m.m.m.m.m.m.m.m.m.m.m.m.m.m.m.m.[ 5 d 6.N..X1 m.m.m.m.m.m.m.m.P 4.>.w.S 8 m.m.m.[ [ [ $ $ m.m.q N R m ( [ m.m.m.7 E @ y R | m.m.#.m.m.m.m.m.m.m.j v.| m.m.m.m.m.m.m.m.m.m.m.m.m.m.m.m.m.m.m.m.[ m.m.m.m.m.m.m.e dX} z N 5 7 [ m.m.7 4 `.2.U oX7 m.m.m.m.[ $ q 3 c m | m.m.m.m.m.m.[ [ [ o.v }.[ 2 1 C W 6.j 1 7 [ [ [ [ $ 2 6 Q @ 9.@ E 1 m.m.#.m.m.m.m.",
"m.m.m.m.m.m.m.m.m.m.m.m.m.m.m.m.m.m.m.m.m.m.m.8 S 6.N.C.1 m.m.m.m.m.m.m.$ t + =.9.W E 2 2 [ $ $ $ $ 3.m.m.u.N.=Xv 6 m.m.m.2 2 ] ; m.m.k 5 m.m.#.#.$ m.m.m.e m.m.m.m.m.#.[ [ [ [ m.m.m.m.m.m.m.m.m.B.;.9 ( $ m.m.m.m.m.m.6 N Y z o | [ 2 m.m.m.m.1 C O.=.b 1 2 [ $ $ [ $ q R c + | 1 [ m.m.m.m.m.[ [ E n r $ 2 4 `.% c j 6 2 [ +.+.3.$ 2 | m  .6.B 6 $ [ $ [ [ $ $ $ ",
"$ $ $ $ $ $ $ $ $ $ $ $ $ $ $ $ $ $ $ #.m.m.m.o.* 6.g | 1 m.m.m.m.m.m.m.m.6 v # %.7.a 8 m.m.m.3.$ $ [ $ 4 V V.j 8 7 3.+.+.[ [ 5 s 6.i m e m.m.$ $ #.#.[ $ ` ; u 5 [ m.m.m.$ $ $ $ $ $ m.m.m.m.m...B.6.m.m.m.m.m.#.m.m.m.m.Y 7.- V 6 $ [ m.m.m.m.1 `.W U oX1 m.m.m.m.[ $ q ; P.D | 1 [ #.m.m.m.m.2 6 v B e 7 1 4 T -.c B 5 2 m.m.+.[ $ $.j  .-.m w 1 $ $ #.$ $ $ $ $ ",
"$ $ $ $ $ $ $ $ $ $ $ $ $ $ $ $ $ $ #.#.a.[ $ q m *.; ~ 1 2 $ $ $ $ $ $ [ 7 8 N 7.l W V 6 $ $ +.+.#.[ 2 | B.R / 2 [ $ $ $ [ m.m.k U . O Z 2 $ $ #.#.$ [ q j J k m.m.m.m.m.m.m.m.m.#.$ $ $ m.m.1 m.m.s.-.v 1 2 #.#.#.m.m.3 6.-.b 5 7 +.m.m.m.m.m.1 T 4.m.m.4 m.m.m.+.[ $ ( Y S.@ I 7 m.m.m.m.m.m.1 | n X q 2 7 5 f X.,.+ ..2 #.$ $ $ { f - } S ( 1 2 m.m.m.m.m.m.m.m.",
"m.m.m.m.m.m.m.m.m.m.m.m.m.m.m.m.m.m.#.#.+.$ 1 I o &.O.X q $ $ [ [ $ [ $ 3.2 [ ( R : c 0.C 2 $ +.$ $ $ < h h v 5 [ $ $ $ [ [ $ 2 | m U h.@ K 5 m.m.m.m.w p ; x | m.m.m.m.m.m.m.[ [ [ $ $ $ $ $ 8 N O.,.. x r $ $ $ q a U =.0 V 5 m.m.+.$ [ [ $ 7 w + 6.,.p m.m.m.m.m.$ q N  .t.7.S w 6 $ $ $ $ 4 E S =Xx.5 $ 2 r p 7.y W k 5 $ $ 2 w * U -.m w $ [ $ $ $ $ $ $ $ $ $ ",
"$ $ $ $ $ $ $ $ $ $ $ $ $ $ $ $ $ $ #.7 8 C + ^.y 7X1.:X& B P 4 m.m.m.m.m.m.$ 1 | S } t.0.S ` q t ` f Y @ P 1 [ $ $ $ $ [ [ [ 2 @.` R ,.9.g.& , u S > j.*.D E 1 [ $ $ +.+.$ $ $ $ [ [ m.m.6 m.m.m.m.m.L ,.O.).u 3 0.d.} * ~ 4 [ $ #.$ $ [ 1 e f n.&.7X&Xq.k.m.m.m.q A # ,.  m.m.t.T.0.o > 3 > W T.9.J (.q t k o y   &X1.%.; u ).l.7.6.0.f q 2 m.m.#.#.$ $ $ $ $ $ $ ",
"$ $ $ $ $ $ $ $ $ $ $ $ $ $ $ $ $ $ $ 1 i.h % U <.Y 0.g./.xXN 6 [ m.m.$ m.m.$ [ $ q u 4.c 5.l g.g.%.O S I m.m.m.[ [ [ [ $ $ $ [ 2 1 G o 6.m.m.p.p.p.t.7.m E 2 $ 3.3.+.$ $ $ m.m.m.m.m.m.2 t u J g.U 0.j.g.^.%.>.^.k.B I 5 m.m.m.m.m.m.m.m.m.C R =.%Xj.j.^.. 9 k e I S 0 g.qX0.O.<.0.j.g.^.w.z I.g.0.s | q C + 0.g.j.O.0.U g.w.z g.& f | 1 $ $ $ $ $ $ $ $ $ $ $ +.m.",
"m.m.m.m.m.m.m.m.m.m.m.m.m.m.m.m.m.m.m.m.5X>XlX8 6 1 @.5 {.{ +X2 m.m.m.#.$ $ +.$ +.$ 4 | f 3 W j.J S K m.m.[ $ $ $ $ $ $ [ [ m.m.m.m.m.q v d ; o @ m j m.m.m.m.m.3.$ $ $ $ $ $ $ $ #.m.m.m.1 iX+X5 $.6 6 8 q ] ] o.@.$ $ $ $ $ [ [ $ $ $ [ 7 $.}.K.q 6 @.5 q o.6 1 6 {.{.5 5 6 6 6 6 5 8 5 5 5 $.$.6 4 7 7 $.>XY.8 6 4 6 5 Y.....{.7 $ $ +.[ $ $ $ $ $ $ $ $ $ $ $ $ ",
"$ $ $ $ $ $ $ $ $ $ $ $ $ $ $ $ $ $ #.m.m.m.m.m.m.#.#.#.$ $ $ #.#.$ $ $ [ $ $ $ $ $ $ $ $ 7 6 +X4 $ $ $ $ $ $ $ [ $ $ $ $ $ $ $ $ $ $ $ $ $ 4X4 1 $ $ $ $ $ $ $ $ $ $ $ [ [ [ $ $ $ $ $ $ $ $ $ $ $ +.+.+.+.+.$ $ #.#.$ $ $ $ $ $ $ $ $ $ $ $ $ $ +.+.+.$ #.$ $ $ $ +.+.+.$ $ $ $ $ $ #.$ +.a.a.#.#.#.$ $ #.#.#.#.+.+.m.m.m.m.m.m.m.m.$ $ $ $ $ $ $ $ $ $ $ [ $ $ $ ",
"$ $ $ $ $ $ $ $ $ $ $ $ $ $ $ $ $ $ $ m.m.+.+.+.+.$ $ $ $ $ $ $ $ $ $ $ m.m.m.m.m.$ $ #.#.$ $ $ $ $ $ [ $ $ $ $ $ $ $ $ $ $ $ $ [ $ $ $ $ $ #.$ $ $ $ $ $ $ $ $ $ $ $ $ $ $ $ $ $ $ $ $ $ $ $ $ $ $ $ $ [ [ $ $ $ $ #.$ $ $ $ $ $ $ $ $ $ $ $ +.$ +.+.+.m.m.m.m.m.m.3.3.+.$ m.m.m.m.m.m.m.a.a.#.#.m.m.m.#.$ $ $ $ $ $ m.m.m.m.m.m.m.m.m.m.m.m.m.m.m.m.m.m.m.m.m.m.m.",
"m.m.m.m.m.m.m.m.m.m.m.m.m.m.m.m.m.m.m.m.m.m.m.a.$ [ [ [ $ $ $ $ $ $ $ $ $ $ $ $ $ $ $ $ $ $ $ $ $ $ $ $ $ $ $ $ $ $ $ $ $ $ $ $ $ [ $ $ $ $ $ $ $ $ [ [ [ [ $ $ $ $ $ $ $ $ $ $ $ $ $ $ $ $ $ $ $ $ $ $ $ $ $ $ $ [ [ [ [ [ $ $ $ $ $ $ $ +.$ $ $ $ $ $ [ [ $ $ $ $ $ $ $ $ $ $ $ $ $ $ $ #.#.#.$ [ [ $ $ $ $ $ $ $ $ m.m.[ [ $ $ $ $ $ $ $ $ $ $ $ $ $ $ $ $ $ $ $ ",
"$ $ $ $ $ $ $ $ $ $ $ $ $ $ $ $ $ $ $ $ $ $ $ $ $ $ $ $ $ $ $ $ $ $ $ $ $ $ $ $ $ $ $ $ $ $ $ $ $ $ $ $ $ $ $ $ $ $ $ $ $ $ $ $ $ $ $ $ $ $ $ $ $ $ $ $ $ $ $ $ $ $ $ $ $ $ $ $ $ $ $ $ $ $ $ $ $ $ $ $ $ $ $ $ $ $ $ $ $ $ $ $ [ $ $ $ $ $ $ $ $ $ $ $ $ $ $ $ $ $ $ $ $ $ $ $ $ $ $ $ $ $ $ $ $ $ $ $ $ $ $ $ $ $ $ $ $ $ $ $ $ $ $ $ $ $ $ $ $ $ $ $ $ $ $ $ $ $ "
};
