/* XPM */
static char *_a64bacaa3d84e1cfde973528ca6f778_1[] = {
/* columns rows colors chars-per-pixel */
"172 40 256 2 ",
"   c #FE0009",
".  c #E40B12",
"X  c #991314",
"o  c #CD1213",
"O  c #DD1012",
"+  c #B80509",
"@  c #CA1721",
"#  c #C80B11",
"$  c black",
"%  c #D4131A",
"&  c #C70509",
"*  c #B60B10",
"=  c #ED040A",
"-  c #CD1319",
";  c #C4181A",
":  c #EC0912",
">  c #C51112",
",  c #A90B11",
"<  c #730000",
"1  c #1A0000",
"2  c #0A0000",
"3  c #BD0F12",
"4  c #220000",
"5  c #320000",
"6  c #2A0000",
"7  c #120000",
"8  c #3A0000",
"9  c #C51317",
"0  c #D40B12",
"q  c #430000",
"w  c #630000",
"e  c #530000",
"r  c #5B0000",
"t  c #4B0000",
"y  c #F4080A",
"u  c #A21112",
"i  c #DC100C",
"p  c #B41111",
"a  c #9A0B11",
"s  c #AC1212",
"d  c #AC0A0B",
"f  c #940A0B",
"g  c #BC1318",
"h  c #AC191B",
"j  c #9C090A",
"k  c #8C090A",
"l  c #EE0303",
"z  c #E6040A",
"x  c #B41417",
"c  c #ED0411",
"v  c #830A0A",
"b  c #890C0F",
"n  c #A31A1C",
"m  c #BB0E0B",
"M  c #A41417",
"N  c #97100E",
"B  c #A6100B",
"V  c #940407",
"C  c #7B0909",
"Z  c #8C0307",
"A  c #840307",
"S  c #AF0101",
"D  c #BD1814",
"F  c #921F1F",
"G  c #780B10",
"H  c #E5100B",
"J  c #CC1814",
"K  c #7B0307",
"L  c #FC080C",
"P  c #73090A",
"I  c #730306",
"U  c #DE040F",
"Y  c #D10202",
"T  c #840903",
"R  c #C11E22",
"E  c #670B11",
"W  c #D20411",
"Q  c #740803",
"!  c #6B090A",
"~  c #6B0307",
"^  c #640307",
"/  c #68100E",
"(  c #580B11",
")  c #FC0803",
"_  c #5B0306",
"`  c #6C0501",
"'  c #C61D1B",
"]  c #530307",
"[  c #040000",
"{  c #470B11",
"}  c #E70415",
"|  c #5C0903",
" . c #DE0419",
".. c #4B0406",
"X. c #DC1813",
"o. c #3B090A",
"O. c #D50416",
"+. c #000004",
"@. c #230602",
"#. c #000400",
"$. c #310802",
"%. c #EB080C",
"&. c #F70407",
"*. c #EF080D",
"=. c #E30C0C",
"-. c #D71015",
";. c #E70C0E",
":. c #D31014",
">. c #E7080E",
",. c #F3040D",
"<. c #D71010",
"1. c #FB0406",
"2. c #D31414",
"3. c #040004",
"4. c #D81416",
"5. c #F90400",
"6. c #EB0C0E",
"7. c #E20C08",
"8. c #F00C0E",
"9. c #F2000D",
"0. c #D8140F",
"q. c #F00C08",
"w. c #E50410",
"e. c #AC1319",
"r. c #9C0408",
"t. c #FA0000",
"y. c #F8040C",
"u. c #6B0000",
"i. c #630803",
"p. c None",
"a. c #000404",
"s. c #EF0808",
"d. c #E41014",
"f. c #F20007",
"g. c #E20808",
"h. c #F30407",
"j. c #DC0309",
"k. c #D40A0B",
"l. c #C80F0A",
"z. c #DC171C",
"x. c #891416",
"c. c #F40804",
"v. c #AA2325",
"b. c #840001",
"n. c #D3030A",
"m. c #DD0B0C",
"M. c #7B0000",
"N. c #BC191B",
"B. c #B4191A",
"V. c #CD181A",
"C. c #630A0A",
"Z. c #050400",
"A. c #E50B18",
"S. c #F70512",
"D. c #DD1119",
"F. c #B4201F",
"G. c #A4090B",
"H. c #FB0004",
"J. c #7B0804",
"K. c #530909",
"L. c #C51814",
"P. c #EE0A19",
"I. c #E50303",
"U. c #8C0001",
"Y. c #430306",
"T. c #E70808",
"R. c #A31813",
"E. c #E70C08",
"W. c #EB0C08",
"Q. c #D41813",
"!. c #A40408",
"~. c #59100D",
"^. c #E3080C",
"/. c #DD0B11",
"(. c #78100D",
"). c #AC0309",
"_. c #080005",
"`. c #7D1E1E",
"'. c #D4181A",
"]. c #791416",
"[. c #E70D1E",
"{. c #3A0306",
"}. c #4B090A",
"|. c #94191E",
" X c #681516",
".X c #5B090A",
"XX c #E60804",
"oX c #89100E",
"OX c #95282A",
"+X c #320306",
"@X c #360C0F",
"#X c #EF0419",
"$X c #270C0E",
"%X c #EB0808",
"&X c #FF0004",
"*X c #8C0804",
"=X c #B51B22",
"-X c red",
";X c #D3100F",
":X c #ED0804",
">X c #43090A",
",X c #F70005",
"<X c #AC0903",
"1X c #9C0001",
"2X c #9C0803",
"3X c #000008",
"4X c #120504",
"5X c #220405",
"6X c #940101",
"7X c #FF0400",
"8X c #F30D15",
"9X c #551B1F",
"0X c #711B1F",
"qX c #DD0203",
"wX c #2A0406",
"eX c #1A0406",
"rX c #F8000D",
"tX c #591417",
"yX c #A40101",
"uX c #530903",
"iX c #31090A",
"pX c #D3140F",
"aX c #F30300",
"sX c #B41814",
"dX c #AC1813",
"fX c #940903",
"gX c #DD0803",
"hX c #A40904",
"jX c #D30903",
"kX c #471617",
"lX c #430802",
"zX c #381415",
"xX c #D30B19",
"cX c #DD0C19",
"vX c #2A0A0A",
"bX c #4E1F1F",
"nX c #33110E",
"mX c #220908",
"MX c #5A2427",
"NX c #772B2E",
"BX c #47100E",
"VX c #2B1112",
"CX c #1B0A09",
"ZX c #050404",
"AX c #3A0803",
"SX c #1A0803",
"DX c #2A0803",
"FX c #4B0903",
"GX c #0C0709",
"HX c #26100C",
"JX c #11090B",
"KX c #F0100C",
"LX c #412422",
"PX c #000800",
"IX c #000808",
"UX c black",
/* pixels */
"$ $ $ $ $ $ $ $ $ $ $ $ $ $ $ $ $ $ $ $ $ $ $ $ $ $ $ $ $ $ #.$ $ $ $ $ $ $ $ $ $ #.$ $ $ $ $ $ $ $ $ $ $ $ $ $ $ $ $ $ $ $ $ $ $ $ $ $ $ $ $ $ $ $ $ $ $ $ $ $ $ $ $ #.#.#.$ $ $ $ $ $ #.$ $ $ $ $ $ $ $ $ $ $ $ $ $ $ $ $ $ $ $ $ $ $ $ $ $ $ $ $ $ $ $ $ $ $ $ $ $ $ $ $ $ $ $ #.#.$ $ $ $ $ $ $ $ $ $ $ $ $ $ $ $ $ $ $ $ $ $ $ $ $ $ $ $ $ $ $ $ $ ",
"$ $ $ $ $ $ $ $ $ $ $ $ $ $ $ $ $ $ $ $ $ $ $ $ $ $ $ $ $ $ #.$ $ $ $ $ [ $ $ $ $ $ $ +.$ $ $ [ $ $ $ $ $ $ $ $ $ $ $ $ $ $ $ $ $ $ $ $ $ $ $ $ $ $ $ $ $ $ $ $ $ $ $ $ $ $ $ [ [ $ $ $ #.$ $ $ $ $ [ $ $ $ $ $ $ $ $ $ $ $ $ $ $ +.$ $ $ $ $ $ $ $ $ $ $ $ +.$ $ $ $ $ $ $ $ $ $ $ $ $ [ $ $ [ $ $ [ $ $ $ $ $ $ $ $ $ $ $ $ $ $ $ $ $ $ $ $ $ $ $ $ $ ",
"[ $ $ $ $ $ $ $ $ $ $ $ $ $ $ $ $ $ $ $ $ $ $ $ $ $ $ $ $ $ $ $ [ [ [ [ $ $ $ $ $ $ $ #.$ #.#.#.$ $ $ $ $ $ $ $ $ $ $ $ $ $ $ $ $ $ $ $ $ $ $ $ $ $ $ $ $ $ $ $ $ $ $ $ $ $ $ $ $ $ $ $ $ $ [ $ [ [ 3.$ $ $ $ $ $ $ $ $ $ $ $ $ $ +.$ $ $ $ $ $ $ $ $ $ $ $ $ $ $ $ $ $ $ $ $ $ #.$ $ $ $ $ $ $ $ $ [ [ $ $ $ $ $ $ $ $ $ $ $ $ $ $ $ $ $ $ $ $ $ $ $ $ ",
"$ $ $ $ $ $ $ $ $ $ $ $ $ $ $ $ $ $ $ $ $ $ $ $ $ $ $ $ $ $ $ $ $ $ [ [ [ $ $ $ $ $ $ #.$ $ $ #.$ +.$ $ $ $ $ $ $ $ $ $ $ $ $ $ $ $ $ $ $ $ $ $ $ $ $ #.$ $ $ $ [ $ +.$ $ $ $ $ $ $ $ $ $ #.$ $ #.#.$ $ $ $ $ $ $ $ $ $ $ $ $ $ $ $ $ $ $ $ $ $ $ $ $ $ $ $ $ $ $ $ $ $ $ $ $ $ $ $ $ $ $ $ $ $ $ $ $ $ $ $ $ $ $ $ $ $ $ $ $ $ $ $ $ $ $ $ $ $ $ $ $ $ ",
"$ $ $ $ $ $ $ $ $ [ 2 $.>Xq @.$ $ $.o.{.4 2 $ $ $ [ 6 @X4 7 1 $.$.6 7 [ [ $ $ 5 I G.> J > , K q $ $ $ $ $ $ [ [ 4 o.8 6 7 1 4 $.AX4 $ $ $ [ [ 1 $.8 5 6 @.6 6 2 [ $ $ $ $ $ $ 3.7 5 ( G b N u B ).B a A ^ $.$ $ $ $ $ $ $ $ $ $ 1 o.{ 8 6 1 4 6 5 @.[ 7 o...( ~.e t t t t e e t { q +X1 $ [ [ 6 e Q A V r.B ).).G.V I 5 $ $ $ $ $ $ $ $ $ $ $ $ $ $ $ $ ",
"$ $ $ $ $ [ $ $ $ [ 1 ` F.0.0.l.J O.W =XC @.[ [ $ @.k ' J jX<.0.R v 5 2 [ 1 ^ p z ^.U g.s.P.>.> G 6 [ $ $ [ 7 1 Q # g.0.Y Y k.Y J k 1 $ [ 2 1 ~.S i U 0.k.J , { $ [ $ $ $ $ $ 2 r p 0.&.1.)   5.l z z *.%.; f e $ #.$ $ [ [ $ $ t S xX<.0.<.0.U 0.X 5 r * i %Xs.T.T.T.%X%XT.%X%XI.U 3 ! [ 1 Y.u g.y.1.    1.f.%X= ,.^.& a e $ $ $ $ $ $ $ #.$ +.+.$ $ $ ",
"$ $ $ $ $ $ $ $ $ [ 7 8 v & 6.1.1.6.; k ( 7 [ [ [ 1 / u o 9.9.T.d i.4 [ 4 A 9 ; S < 8 q w j i l 0 !.t $ $ [ 2 7 _ B k.f.-X  S.<.S I 7 $ [ 2 7 q X 0.8.y.: # f 8 $ $ $ $ $ $ [ 2 e a m g.y   7.j / r u.u n.w.= > C 5 2 $ $ $ $ $ 5 C S g.t.  1.qX3 v 6 q v S U c.1.t.z J & > & n.7.l i v [ 4 Y.k R qXy &.U p < t ` a & y c > k 5 $ $ [ $ $ $ $ $ $ $ $ +.",
"$ $ $ $ $ $ [ [ $ $ $ +.$ q u z >.m ^ [ $ #.$ #.$ +.$ $ G ' N.b 5 $ 2 1 E D > ~ $ $ $ $ $ 1 v ' z ;.X 5 2 3.+.+.$ $ q p l 7.; u.2 $ $ $ $ +.$ $ 4 | n @ r.q $ $ +.$ $ $ $ [ [ [ $ $ 6 v J l 3 q $ $ $ $ q X g.;.i j 5 $ [ $ +.3.$ $ @.V O.z Y | $ $ +.$ $ 7 v @ d.7.b 2 $ #.$ 1 r * W C 7 2 $ $ 2 u.0 ;.N.^ [ $ $ $ q a o 6.=.f 5 2 [ #.$ $ $ $ [ [ $ $ ",
"$ $ [ $ $ $ $ $ $ $ $ $ 2 $ ` <.;.; G 4 #.#.$ $ #.$ $ 1 Z @ F 6 [ [ 1 ^ v.h K @.$ $ $ #.#.2 1 Q Q.y W k 8 2 $ +.[ $ 1 j z W a 8 [ $ $ $ $ $ $ +.2 7 0Xv.` 2 #.$ $ $ $ $ [ [ [ $ #.$ 7 ~.B.=.p 8 $ [ $ $ $ 6 b ' = -.v 4 7 [ 3.$ $ $ 1 I D O.3 q $ $ +.$ $ 7 | x '.o | $ $ $ #.$ $ G F.! 7 2 [ [ $ t > 7.B.r 1 $ #.$ $ $ ~ J c '.G.q $ $ $ $ $ $ $ $ $ $ ",
"$ $ $ $ $ $ $ $ $ $ $ $ $ $ q m 7.4.d 8 $ $ $ $ $ [ $ 8 , J E $ 2 $ 8 d R `.4 2 $ #.$ #.$ [ $ 6 u 7.7.0 < 2 $ $ $ $ 1 N 7.# b 5 2 $ $ $ $ $ $ $ 7 1  XX u.7 $ $ $ $ [ $ $ $ $ $ $ [ 7 ..B.;.+ 8 $ [ +.$ [ $ $ v U . D < 4 $ $ $ $ +.1 ~ + 2.m q $ $ $ $ $ 7 | e.V.> ( $ [ [ $ $ 7 e F  X7 2 [ [ $ q 3  .S ( 1 $ $ #.#.#.2 v - 7.U A 7 2 $ $ $ $ $ #.$ [ ",
"$ $ $ $ $ $ $ $ $ $ $ $ $ $ 6 b J 7.Y ^ $ [ $ $ +.2 1 C.v.R.8 $ 2 7 E J ; ] $ [ $ $ $ [ [ [ $ 2 u.> 7.c u 6 [ [ $ $ 1 N =.' v $.2 $ $ $ $ $ $ $ 2 1  Xn u.7 $ $ $ $ [ $ $ $ $ $ $ [ 7 ..B.6.3 q $ [ $ $ [ [ $ q S 4.i p q $ [ $ $ +.1 u.+ W * q $ [ $ $ $ 1 r S V.& ( $ [ [ $ $ 2 8 0XMX2 2 $ [ $ q 3  .h ( 1 $ $ $ #.#.7 8 X 4.*.x t 7 [ $ $ $ $ $ $ [ ",
"$ $ $ $ $ $ $ $ $ $ $ $ $ $ 1 t B U . N 6 7 [ $ +.7 { x.OX^ 4 [ 7 5 F '.* 8 $ [ $ $ $ $ $ $ $ 2 8 X -.,.; i.1 2 [ $ 1 N 7.9 v $.2 $ $ $ $ $ $ $ 2 7  Xj / 7 $ $ $ $ [ $ $ $ $ $ $ [ 7 ..S 6.R q $ [ $ $ $ $ $ 1 ^ + ;.U G 7 2 $ $ $ 1 ` + Y + q $ [ $ $ $ 7 | h Y > e $ [ [ $ $ 2 1 zXnX2 [ $ [ $ 8 3 O h ( 1 [ $ $ $ $ 2 2 t 3 *.2.k 5 2 $ $ $ $ $ $ $ ",
"$ $ $ $ $ $ $ $ $ $ $ $ $ [ 7 7 Q O.= R ` @.[ [ $ 1 K h ].6 7 [ 1 | h V.r.4 $ $ +.$ $ $ $ $ $ 2 4 / # y -.N 8 7 [ $ 1 V U ; v 5 2 $ $ $ $ $ $ [ 7 1 C.u u.7 $ $ $ $ [ $ $ $ $ $ #.[ 7 { s 6.R q $ [ $ $ $ $ $ 7 6 k H : u 8 1 $ $ $ 4 ` + Y * q $ $ [ $ $ 7 | B.Y > e $ [ [ $ $ [ [ $ $ $ $ $ $ $ 8 + O h r 4 [ $ $ $ $ [ $ 1 N . X.3 | 2 $ $ $ $ [ $ $ ",
"$ $ $ $ $ $ $ $ $ $ $ $ $ $ [ $ q 3 %.O., q $ [ $ 5 M =X..$ [ $ 6 k N.R b.1 $ $ +.$ $ $ $ $ $ [ 7 q + y 7.+ ( 7 $ $ 1 V 7.9 v $.2 $ $ $ $ $ $ [ 7 1  Xn ^ 7 $ $ $ $ $ $ $ $ $ $ #.[ 7 q dX6.3 q $ [ $ $ $ $ $ 2 2 ` <.%.D ` 4 $ $ $ 4 < + Y * q $ $ $ $ $ 7 | B.V.; e $ [ [ $ $ $ $ $ $ +.+.$ [ $ 8 m 4.h ( 1 [ $ $ $ $ $ $ 7 < :.i 0.v 7 $ [ $ $ $ $ $ ",
"$ $ $ $ $ $ $ $ $ $ $ $ $ #.$ $ 1 V O.O 0 ` $ 2 [ ( h f 6 $ $ $ 8 , ' =Xu.7 $ $ +.$ $ $ $ $ $ [ [ 4 j 6.7.J Q 7 $ $ 1 N 7.; C 5 2 $ $ $ $ $ $ $ 7 1  Xj ^ 7 $ $ $ $ $ $ $ $ $ $ #.[ 7 Y.dX6.R q $ [ $ $ $ $ $ [ $ t > . J f 6 +.$ $ 4 ` * Y + q $ $ +.$ $ 7 | B.Y ; e $ [ 3.2 2 CXCX2 [ +.$ $ [ $ 8 m 4.h ( 1 [ $ $ #.#.#.#.2 e * -.z j 4 [ [ $ $ +.$ $ ",
"$ $ $ $ $ $ $ $ $ $ $ $ $ $ #.$ 7 r S i 6.X 1 4 8 `.OX( 1 $ $ $ e ; Y S | 7 $ $ [ $ $ $ $ $ $ [ [ 7 A U 7.-.b 1 $ $ 1 N 7.R C 6 2 $ $ $ $ $ $ [ 7 7 ! u u.7 $ $ $ $ $ $ $ $ $ $ $ [ 7 Y., ;.3 q $ [ $ $ $ $ $ [ $ 5 S U % d q $ $ $ 1 ` m Y * q $ $ $ $ $ 7 r e.2.# r $ [ [ 7 4 bX9X1 2 [ $ $ [ $ 8 m 4.h ( 1 $ $ $ $ #.$ $ 2 q j '.6.s 5 [ [ $ $ $ $ $ ",
"$ $ $ $ $ $ $ $ $ $ $ $ $ $ $ $ 2 4 (.J l D i.q K n E 4 7 $ $ $ w W % e.r 1 $ $ $ $ $ $ $ $ $ $ [ 2 u.J U 7.u @.[ [ 1 a =.D C 6 2 #.#.#.$ $ $ [ 2 7  Xn I 7 #.$ $ $ $ $ $ $ $ $ $ [ 7 Y.dX6.3 q $ [ $ $ $ $ $ [ $ 4 r.0.X.; e $ $ $ 1 ` + Y p q $ $ $ $ #.2 e e.W o | $ [ $ 7 6  X X6 7 $ $ $ [ $ 8 m 4.h ( 1 $ $ $ $ $ $ $ 2 6 v V.*.D t [ 2 $ $ [ $ $ ",
"$ $ $ $ $ $ $ $ $ $ $ $ $ $ $ $ 2 [ q + l -.u G S j $.$ [ 3.[ $ ` i X.S ( 1 $ $ $ $ [ $ 3.$ $ $ $ 7 r 3 i ;., 6 [ [ 1 j ;.; C @.2 #.#.$ $ $ $ [ 7 2  Xn Q 2 #.$ $ $ $ $ $ $ $ $ $ [ 2 Y.dX;.3 q $ [ $ $ $ $ $ $ $ 1 6XQ.O J ( $ $ [ 1 ` * Y p q $ [ [ $ $ 2 e e.Y o ( $ $ $ $ e F  X@.7 $ $ $ [ $ 8 * 4.h ( 1 $ $ $ $ $ $ $ 2 4 ! ' 9.; ( 2 2 $ $ $ $ $ ",
"$ $ $ $ $ $ $ $ $ $ $ $ $ $ $ $ [ $ 1 V =.;.g.3 R C 7 $ $ 3.[ $ G U i p ( 1 $ $ $ $ $ $ $ $ $ $ [ 2 t s % >.d 6 $ [ 1 j =.R G @.2 $ $ $ $ $ $ $ 2 7  XM Q 2 #.$ $ $ $ $ $ $ $ $ #.[ 7 { h z + o.$ [ +.$ $ $ $ $ $ 1 A o O W w $ [ [ 4 < + o * 8 $ $ $ $ #.7 e e.-.j.6XE E < V R ; ].1 2 [ $ $ [ $ 8 + X.h ] 1 [ $ $ $ $ $ $ 2 1 | R 9.@ i.7 2 $ $ $ $ $ ",
"$ $ $ $ $ $ $ $ $ $ $ $ $ $ $ $ [ $ 2 | ; 7.f.-.B t 7 $ $ [ [ $ K 7.O p | 7 $ $ +.$ $ $ $ $ $ $ $ 2 q B 2.;.d 5 $ [ 4 j A.R C @.2 $ $ $ $ [ $ $ 2 7  XM Q 2 $ #.$ $ $ $ $ $ $ $ #.[ 7 t h . + q $ [ +.$ $ $ $ $ $ 4 v J U ;X^ $ [ [ 4 < + - p 8 $ $ [ $ $ 7 e p . H.y = = s.&.) i v 7 2 [ $ +.[ $ 8 + X.h ( 1 [ $ $ $ $ $ $ 2 1 _ 3 y # i.7 2 $ $ $ $ $ ",
"$ $ $ $ $ $ $ $ $ $ $ $ $ $ $ $ $ $ 2 5 b 2.&.Y Q 4 2 $ $ [ [ $ v . U g ` 7 $ $ +.$ $ $ $ $ $ $ $ 2 8 u W ;.S 8 $ 2 4 j A.9 C 6 2 $ $ $ $ [ $ $ 7 1 0XM < 7 $ #.$ $ $ $ $ $ $ $ $ [ 7 t dX=.m q $ [ +.$ $ $ $ $ $ 4 K o O 0 E $ [ $ 4 Q N.V.p q $ [ $ $ $ 7 e S O >.p Z b b.a # @ ].7 7 [ $ +.[ $ 8 + X.h ( 1 $ $ $ $ $ $ $ 2 1 _ R y @ ^ 7 2 $ $ $ $ $ ",
"$ $ $ $ $ $ $ $ $ $ $ $ $ $ $ +.+.$ 2 4 _ D c D e 2 2 +.+.$ [ $ v . . ; I 7 $ $ +.$ [ $ $ $ $ $ $ 2 8 N Y ;.S 8 $ 2 4 u ;.' v $.2 $ $ $ $ [ $ $ 7 7 0Xv.< 7 $ #.$ $ $ $ $ $ $ $ $ [ 7 t h =.m q $ [ +.$ $ $ $ $ $ 1 v o i W w $ [ [ 4 G N.V.S q $ [ $ $ $ 1 e , - J ~.$ $ $ $ r F  X4 7 [ $ +.[ $ 8 * X.h ] 1 [ $ +.$ $ $ $ 2 1 _ R ,.J E 7 2 $ $ $ $ $ ",
"$ $ $ $ $ $ $ $ $ $ $ $ $ $ $ +.+.$ 2 1 t x ;.* o.[ [ $ $ $ [ $ K 7.z - A 1 $ $ $ $ $ $ $ $ $ $ $ 2 8 N V.. d 5 $ [ 4 j z # T $.2 $ $ $ $ $ $ $ 2 7 0Xn < 7 $ $ $ $ $ $ $ $ $ $ $ [ 7 t S ;.3 q $ [ +.$ $ $ $ $ $ 4 Z 0 U Y | $ [ $ 4 G N.W p 8 $ $ $ $ $ 7 e , W Y | $ [ $ 7 8 0XMX4 7 $ $ $ [ $ 8 m X.h ( 1 [ $ $ $ $ $ $ 2 4 E ' y @ ^ 7 2 $ $ $ $ $ ",
"$ $ $ $ $ $ $ $ $ $ $ $ $ $ $ $ $ $ 2 7 q S 6.* 8 $ [ $ $ $ [ $ I i H 4.N 4 $ $ $ $ $ $ $ [ [ $ #.[ 8 X J i j 4 $ $ 4 j . ' v 6 2 $ $ $ $ $ $ $ 7 7 0Xn < 7 $ $ $ $ $ $ $ $ $ $ $ [ 7 ..x 6.3 q $ [ #.$ $ $ $ $ $ 6 u U U > e $ $ $ 4 G D Y S 8 $ $ $ $ $ 7 e , % W | $ $ $ 7 6 MX X6 7 [ $ $ [ $ 8 + i h e 1 $ $ $ $ $ $ $ 2 6 C V.y 9 | 2 2 $ #.$ $ $ ",
"$ $ $ $ $ $ $ $ $ $ $ $ $ $ $ $ $ $ 2 7 q x 6.p 8 [ [ $ $ $ [ $ w o . 7., 6 $ [ $ $ $ $ $ $ $ $ $ 2 q u V.% Z 1 $ $ 4 u ;.' v 6 2 $ $ $ $ $ $ $ 7 1 0Xn ` 7 $ $ $ $ $ $ $ $ $ $ $ [ 7 ..B.>.3 q $ [ #.$ $ $ [ $ $ 6 d 7.4.+ t $ $ $ 4 G m o S 8 $ $ $ $ $ 7 e , 2.o r $ $ $ 2 7 kXkX1 2 [ $ $ [ $ 8 3 X.h ( 1 $ $ $ $ $ $ $ 7 8 k - 8.+ { [ [ $ $ $ $ $ ",
"$ $ $ $ $ $ $ $ $ $ $ $ $ $ $ $ $ $ 2 7 q x 6.p q $ [ $ $ $ $ $ e R U ;.m 8 $ [ $ $ [ $ $ $ $ $ $ 2 t p V.& Q 7 [ $ 6 G.;.# v 5 2 $ $ $ $ $ $ $ 7 1 0Xn E 7 $ $ $ $ $ $ $ $ $ $ $ [ 7 ..S >.3 q $ [ #.$ $ [ [ [ $ q 3 H W u 5 $ $ $ 4 Q g V.S 8 $ $ $ $ $ 7 e , 2.o r $ $ $ $ [ 2 4X[ $ $ $ $ [ $ q R 7.h ( 4 [ $ $ $ [ [ $ 7 q B 2.;., 6 [ [ $ $ $ $ $ ",
"$ $ $ $ $ $ $ $ $ $ $ $ $ $ $ $ $ $ 2 7 q x 6.p o.$ [ $ $ $ $ $ 8 S i %.l.( $ [ $ $ [ $ $ +.$ $ $ 2 e R @ p r 7 $ $ 6 j =.J k 5 2 $ $ $ $ $ $ $ 7 6 `.X w 1 $ $ $ $ $ $ $ $ $ $ $ [ 7 ..x >.3 q $ [ $ $ $ $ [ 2 $ | o ;.; K @.$ $ $ 4 G + V.S 8 $ $ $ $ $ 7 e , W o r $ $ +.$ $ $ $ [ $ $ $ $ [ $ q R 7.S ( 1 [ $ $ $ $ [ $ 7 | + -.7.fX1 $ [ $ $ $ $ [ ",
"$ $ $ $ $ $ $ $ $ $ $ $ $ $ $ $ [ $ 2 1 t x 6.p 8 2 2 $ $ $ $ $ $.k W h.U C 7 7 [ $ +.$ $ $ $ $ $ $ u.o ' F 8 7 [ [ 4 a . o a 8 2 $ $ $ $ $ $ $ 7 8 `.OXr 7 $ $ $ $ +.$ $ $ $ $ $ [ 7 ..S H m q $ [ $ $ $ $ $ 7 1 v O ;.e.e 7 $ $ $ 4 G m V.S 8 $ $ $ $ $ 7 e , Y # r $ [ $ $ $ $ $ $ $ $ $ $ [ $ q R  .h ( 1 [ $ $ $ $ 3.$ 1 b 0.O.> u.2 $ [ [ [ [ $ $ ",
"$ $ $ $ $ $ $ $ $ $ $ $ $ $ $ $ $ $ 2 1 t x 6.p 8 [ 2 $ $ $ $ [ 4 ^ N.l . j 8 1 $ $ +.$ $ $ [ [ $ $ K 4.N./ 4 2 #.$ 1 V 7.W s t 2 $ $ $ $ $ $ [ 1 ..F F t 7 $ $ $ $ +.$ $ $ $ $ $ 2 1 ] x ;.m q $ [ $ $ $ $ $ 1 q B A.7.oX4 2 $ $ $ 4 G m V.S 8 $ $ $ $ $ 7 e , W # r $ [ $ $ $ $ $ [ 2 mXnX7 2 $ q R 7.h r 1 $ $ $ $ $ 2 [ 8 d >.'.j q 2 $ $ $ $ [ $ $ ",
"$ $ $ $ $ $ $ $ $ $ $ $ $ $ $ $ $ $ 2 1 t x : p 8 $ 2 $ $ $ $ [ 7 5 j H %.R I 4 $ $ $ $ [ $ $ [ 2 @.a O B 8 7 [ $ $ 7 k 0.-.3 r 7 $ #.$ $ $ $ [ 4 / OXv 8 7 $ $ $ $ $ $ $ $ $ $ $ 2 1 ] B.;.m q $ [ $ $ $ $ $ 6 Z @ 7.> r $ 2 [ $ $ 4 Q m V.S 8 $ $ $ $ $ 1 e , Y J | $ [ $ $ $ $ $ 2 4 C. X4 7 [ q ; 7.B.| 4 $ $ $ [ [ 7 1 ` J y ; ^ 1 2 $ $ $ $ $ $ $ ",
"$ $ $ $ $ $ $ $ $ $ $ $ $ $ $ $ $ $ 2 1 e x : p 8 $ [ $ $ $ $ $ 2 $ ` 0.*.U ).q $ #.#.#.[ $ +.2 1 ] F.Q.K 7 [ [ $ $ 7 G o 4.O.M.7 [ [ #.p.+.$ $ $.k n E 4 7 $ [ [ [ $ $ $ $ $ [ $ 2 1 ~.+ 6.3 q $ [ $ $ $ [ $ | ; 4.# Z 6 $ [ [ $ $ 4 I + V.p 8 $ $ $ $ $ 1 e , - @ | $ [ +.$ $ $ $ 2 q N ].4 1 2 t > d.* w 4 [ $ +.$ $ 7 ( s z.} f 4 2 [ $ $ [ $ $ $ $ ",
"$ $ $ $ $ $ $ $ $ $ $ $ $ #.#.$ [ $ 2 1 e x 6.* q [ [ $ [ $ $ $ [ $ 8 p 7.%.<.Q $ [ #.$ $ $ $ 2 8 k F.B { [ $ $ $ $ 2 | m X.7.u 6 $ [ #.+.3.$ $ e 3 h ] 7 2 [ [ [ [ $ #.$ $ $ $ $ 2 1 | N.: ; t $ 2 $ $ $ 2 o.j =.4.N q 7 [ $ $ $ $ 4 Q m Y p 8 $ #.$ $ $ 7 r S 2.J w $ [ $ $ $ $ $ [ u.m C 7 7 [ t ; =.R G 4 $ $ $ [ $ 5 !.D.% S e 2 [ $ $ $ $ $ $ $ $ ",
"$ $ $ $ $ $ $ $ $ $ $ $ $ $ $ $ $ $ $ 1 | D *.3 { $ $ +.+.+.$ $ #.$ 1 u.+ ;.= x | 7 #.#.$ $ $ 7 v R X t 1 [ $ $ $ $ 7 8 f 2.q.& ~ 7 $ #.$ +.$ 6 f O.u 5 $ [ $ $ $ [ [ $ $ $ $ $ $ [ 7 ` ' 8.Q.C 2 $ $ $ $ ( S Y 7.S q $ 2 [ $ [ $ $ 1 v ' X.R q $ $ $ $ $ $ Q # 7.U G $ $ $ #.#.$ $ 4 f # P $ 2 $ ( # } % j $.$ $ $ $ t X U 6., t 1 _.+.$ $ $ $ $ $ $ +.",
"$ $ $ $ $ $ $ $ $ $ $ $ $ $ $ $ [ [ 4 w , i 5.O u w 5 7 Z.$ $ [ [ 3.7 1 I :.y . > E $ $ $ $ $.G + ; ^ $ [ $ $ $ $ $ 2 1 ] + &.%.J V e 4 4 8 Q S @ ; < 7 $ $ $ $ $ $ [ $ $ $ $ [ $ 1 ^ m =.5.} 3 Q 5 4 e v 3 ;.J f t 2 $ $ $ $ [ 2 1 w 3 } 8.U Z 8 7 [ 7 6 u.3 6.,.8.3 b.E ] q q e Q u V.W ` $ 4 ( j U y P.<.G 6 6 { A l.U Y , t $ [ 3.+.$ $ $ $ #.#.$ $ ",
"$ $ $ $ $ $ $ $ $ $ $ $ $ $ $ $ 1 ^ S i &.&.&.y.t.U x i.1 $ [ [ [ [ [ $ 1 v J 6.t.k.!.U.b.N ; - M ^ 4 $ $ +.+.$ $ $ $ [ 7 G 0 : t.y U Y jXj.%Xy # C 6 2 $ $ $ $ $ $ $ $ $ $ $ 2 q f o &.) ) L 5.T.O.O.g.T.;XS I 1 $ [ $ $ [ [ [ t , 0.y.&X  t.*.<.F 6 r p 7.t.&X-X&X  H.f.%XXXT.= y 9.;.J u.5 b <.y 5.)   L %XO.0.z ;.U * ~ 1 $ $ $ $ $ $ $ $ $ $ +.$ $ ",
"$ $ $ $ $ $ $ $ $ $ $ $ $ $ $ $ 7 E , d p !.r.).m p X ( 1 $ [ [ $ $ $ $ $ [ ] , U *.y.y 9.z o a q $ [ [ $ +.$ $ $ $ $ $ $ 4 ^ s g.y 5.L 1.h.0.S w 2 $ 3.3.$ [ [ [ [ $ $ #.#.$ 2 q k B S ).u B S m & ; p N i.7 $ $ $ [ [ $ +.$ $ t j p + p ).).m m v 4 e u * p p p S p + m m * * p p , a v q $.C S + , B <XS 3 > R + N ^ @.$ $ $ [ [ [ [ $ $ $ $ $ [ $ $ ",
"$ $ $ $ $ $ $ $ $ $ $ $ $ $ $ $ [ $ $ #.$ $ $ $ $ $ $ $ [ $ $ #.$ [ $ [ $ #.$ 1 ..C j j f G o.$ $ $ $ $ $ $ $ $ $ $ $ $ $ $ $ 4 ( G k k b ` { $ $ $ $ $ $ $ #.$ $ $ $ $ #.#.$ $ $ $ $ $ $ $ $ $ $ $ $ $ $ $ $ $ $ $ $ $ $ $ $ $ $ $ $ $ $ $ $ $ $ $ $ $ $ $ $ $ $ #.$ $ $ $ $ $ $ $ $ #.$ $ 2 #.$ $ $ $ $ $ $ $ $ $ $ $ $ $ $ $ $ $ $ $ $ $ $ $ $ $ $ $ ",
"$ $ $ $ $ $ $ $ $ $ $ $ $ $ $ $ $ $ $ #.#.#.#.#.$ $ $ $ $ $ $ $ [ 3.[ $ $ [ $ $ #.$ $ $ $ $ +.+.$ $ $ #.#.$ $ $ [ $ $ $ $ $ $ $ $ $ $ $ $ $ $ $ $ $ $ $ $ $ $ [ [ [ $ $ $ $ $ $ $ $ $ $ $ $ $ $ $ $ #.#.$ $ $ $ $ $ $ $ $ $ $ $ $ $ $ #.$ $ $ $ #.$ $ $ #.#.#.$ #.#.#.#.#.$ #.#.#.#.#.$ $ $ $ #.#.#.$ $ $ $ $ $ $ $ $ [ [ [ $ $ $ $ $ $ $ $ $ $ $ $ $ $ ",
"$ $ $ $ $ $ $ $ $ $ $ $ $ $ $ $ $ $ $ $ $ $ $ $ $ $ $ $ $ $ $ $ $ $ $ $ $ $ $ #.$ $ $ $ $ $ [ [ $ $ $ $ $ $ $ $ $ $ $ $ $ $ +.#.#.#.$ #.$ $ $ $ $ $ $ $ $ $ $ $ $ $ $ $ $ $ $ $ $ $ $ $ $ $ $ $ $ $ $ #.#.$ $ $ $ $ $ $ $ $ $ $ $ $ $ $ $ $ +.$ $ $ $ $ $ $ $ $ $ $ $ $ $ $ $ $ $ $ #.$ $ $ $ #.$ $ #.$ $ $ $ $ $ $ $ $ $ $ $ $ $ $ $ $ $ $ $ $ $ $ $ $ ",
"$ $ $ $ $ $ $ $ $ $ $ $ $ $ $ $ $ $ $ $ $ $ $ $ $ $ $ $ $ $ $ +.$ $ $ [ $ $ $ $ [ $ $ $ $ $ +.$ $ $ $ $ $ $ $ $ $ $ $ $ $ $ $ $ $ $ $ $ $ $ $ $ $ $ $ $ $ $ $ $ $ $ $ $ $ $ $ $ $ $ $ [ $ $ $ $ $ $ $ $ $ $ $ $ $ $ $ $ $ $ $ $ $ $ $ $ $ $ $ $ $ $ $ $ $ $ $ $ $ $ $ $ $ [ $ $ $ +.+.$ $ $ $ $ $ $ $ $ $ $ $ $ $ $ $ $ $ $ $ $ $ $ $ $ $ $ $ $ $ $ $ $ "
};
