/* XPM */
static char *_a64bacaa3d84e1cfde973528ca6f778_17[] = {
/* columns rows colors chars-per-pixel */
"180 41 256 2 ",
"   c #FE0009",
".  c #E40B12",
"X  c #991314",
"o  c #CD1213",
"O  c #DD1012",
"+  c #B80509",
"@  c #CA1721",
"#  c #C80B11",
"$  c black",
"%  c #D4131A",
"&  c #C70509",
"*  c #B60B10",
"=  c #ED040A",
"-  c #CD1319",
";  c #C4181A",
":  c #EC0912",
">  c #C51112",
",  c #A90B11",
"<  c #730000",
"1  c #1A0000",
"2  c #0A0000",
"3  c #BD0F12",
"4  c #220000",
"5  c #320000",
"6  c #2A0000",
"7  c #120000",
"8  c #3A0000",
"9  c #C51317",
"0  c #D40B12",
"q  c #430000",
"w  c #630000",
"e  c #530000",
"r  c #5B0000",
"t  c #4B0000",
"y  c #F4080A",
"u  c #A21112",
"i  c #DC100C",
"p  c #B41111",
"a  c #9A0B11",
"s  c #AC1212",
"d  c #AC0A0B",
"f  c #940A0B",
"g  c #BC1318",
"h  c #AC191B",
"j  c #9C090A",
"k  c #8C090A",
"l  c #EE0303",
"z  c #E6040A",
"x  c #B41417",
"c  c #ED0411",
"v  c #830A0A",
"b  c #890C0F",
"n  c #A31A1C",
"m  c #BB0E0B",
"M  c #A41417",
"N  c #97100E",
"B  c #A6100B",
"V  c #940407",
"C  c #7B0909",
"Z  c #8C0307",
"A  c #840307",
"S  c #AF0101",
"D  c #BD1814",
"F  c #921F1F",
"G  c #780B10",
"H  c #E5100B",
"J  c #CC1814",
"K  c #7B0307",
"L  c #FC080C",
"P  c #73090A",
"I  c #730306",
"U  c #DE040F",
"Y  c #D10202",
"T  c #840903",
"R  c #C11E22",
"E  c #670B11",
"W  c #D20411",
"Q  c #740803",
"!  c #6B090A",
"~  c #6B0307",
"^  c #640307",
"/  c #68100E",
"(  c #580B11",
")  c #FC0803",
"_  c #5B0306",
"`  c #6C0501",
"'  c #C61D1B",
"]  c #530307",
"[  c #040000",
"{  c #470B11",
"}  c #E70415",
"|  c #5C0903",
" . c #DE0419",
".. c #4B0406",
"X. c #DC1813",
"o. c #3B090A",
"O. c #D50416",
"+. c #000004",
"@. c #230602",
"#. c #000400",
"$. c #310802",
"%. c #EB080C",
"&. c #F70407",
"*. c #EF080D",
"=. c #E30C0C",
"-. c #D71015",
";. c #E70C0E",
":. c #D31014",
">. c #E7080E",
",. c #F3040D",
"<. c #D71010",
"1. c #FB0406",
"2. c #D31414",
"3. c #040004",
"4. c #D81416",
"5. c #F90400",
"6. c #EB0C0E",
"7. c #E20C08",
"8. c #F00C0E",
"9. c #F2000D",
"0. c #D8140F",
"q. c #F00C08",
"w. c #E50410",
"e. c #AC1319",
"r. c #9C0408",
"t. c #FA0000",
"y. c #F8040C",
"u. c #6B0000",
"i. c #630803",
"p. c #FF0406",
"a. c #000404",
"s. c None",
"d. c #E41014",
"f. c #F20007",
"g. c #E20808",
"h. c #F30407",
"j. c #DC0309",
"k. c #D40A0B",
"l. c #C80F0A",
"z. c #DC171C",
"x. c #891416",
"c. c #F40804",
"v. c #AA2325",
"b. c #840001",
"n. c #D3030A",
"m. c #DD0B0C",
"M. c #7B0000",
"N. c #BC191B",
"B. c #B4191A",
"V. c #CD181A",
"C. c #630A0A",
"Z. c #050400",
"A. c #E50B18",
"S. c #F70512",
"D. c #DD1119",
"F. c #B4201F",
"G. c #A4090B",
"H. c #FB0004",
"J. c #7B0804",
"K. c #530909",
"L. c #C51814",
"P. c #EE0A19",
"I. c #E50303",
"U. c #8C0001",
"Y. c #430306",
"T. c #E70808",
"R. c #A31813",
"E. c #E70C08",
"W. c #EB0C08",
"Q. c #D41813",
"!. c #A40408",
"~. c #59100D",
"^. c #E3080C",
"/. c #DD0B11",
"(. c #78100D",
"). c #AC0309",
"_. c #080005",
"`. c #7D1E1E",
"'. c #D4181A",
"]. c #791416",
"[. c #E70D1E",
"{. c #3A0306",
"}. c #4B090A",
"|. c #94191E",
" X c #681516",
".X c #5B090A",
"XX c #E60804",
"oX c #89100E",
"OX c #95282A",
"+X c #320306",
"@X c #360C0F",
"#X c #EF0419",
"$X c #270C0E",
"%X c #EB0808",
"&X c #FF0004",
"*X c #8C0804",
"=X c #B51B22",
"-X c red",
";X c #D3100F",
":X c #ED0804",
">X c #43090A",
",X c #F70005",
"<X c #AC0903",
"1X c #9C0001",
"2X c #9C0803",
"3X c #000008",
"4X c #120504",
"5X c #220405",
"6X c #940101",
"7X c #FF0400",
"8X c #F30D15",
"9X c #551B1F",
"0X c #711B1F",
"qX c #DD0203",
"wX c #2A0406",
"eX c #1A0406",
"rX c #F8000D",
"tX c #591417",
"yX c #A40101",
"uX c #530903",
"iX c #31090A",
"pX c #D3140F",
"aX c #F30300",
"sX c #B41814",
"dX c #AC1813",
"fX c #940903",
"gX c #DD0803",
"hX c #A40904",
"jX c #D30903",
"kX c #471617",
"lX c #430802",
"zX c #381415",
"xX c #D30B19",
"cX c #DD0C19",
"vX c #2A0A0A",
"bX c #4E1F1F",
"nX c #33110E",
"mX c #220908",
"MX c #5A2427",
"NX c #772B2E",
"BX c #47100E",
"VX c #2B1112",
"CX c #1B0A09",
"ZX c #050404",
"AX c #3A0803",
"SX c #1A0803",
"DX c #2A0803",
"FX c #4B0903",
"GX c #0C0709",
"HX c #26100C",
"JX c #11090B",
"KX c #F0100C",
"LX c #412422",
"PX c #000800",
"IX c #000808",
"UX c black",
/* pixels */
"#.#.#.$ $ [ [ $ $ $ [ $ $ $ [ $ [ #.#.$ #.$ [ [ [ $ $ #.$ $ #.$ $ $ $ $ #.$ #.$ $ $ $ #.$ $ $ $ $ #.#.$ $ $ $ $ $ [ [ [ [ $ $ [ $ $ #.#.$ $ $ $ $ #.#.$ [ $ $ $ $ $ $ [ [ [ $ $ $ #.#.#.$ #.#.$ $ [ [ $ $ $ $ $ $ $ +.#.#.#.$ $ $ $ $ [ $ $ $ $ $ #.$ $ $ $ #.$ $ $ $ $ [ [ $ $ $ [ [ [ $ $ #.#.#.#.#.[ [ $ [ [ $ [ [ [ [ $ $ $ $ #.#.#.[ $ $ $ $ $ $ $ $ $ $ $ $ $ $ $ ",
"$ $ $ $ $ [ [ $ $ $ $ 3.[ 3.[ [ $ $ a.a.#.+.+.+.+.[ 3.[ [ [ $ $ #.$ [ [ $ $ #.$ $ $ $ $ $ $ $ #.#.#.[ $ $ $ #.$ $ [ $ $ $ a.+.a.$ $ $ $ #.$ [ $ $ a.$ +.a.$ a.+.+.+.a.[ $ $ [ $ $ $ [ [ [ Z.$ #.$ $ $ +.+.$ $ $ #.$ +.+.$ #.[ [ $ $ $ [ $ #.$ $ $ $ $ +.+.$ #.#.$ $ [ $ [ [ a.+.$ $ $ $ $ #.$ $ +.+.+.3.[ [ $ [ $ [ [ $ $ #.#.#.$ $ $ $ $ +.+.$ $ $ #.$ $ $ $ $ $ $ $ $ ",
"$ [ [ $ $ [ [ [ [ $ $ $ $ $ #.$ #.$ $ $ $ #.$ $ $ $ $ $ $ $ #.#.#.$ $ #.#.$ $ #.$ $ $ 5 _ E E uX5 $ $ $ 3.[ $ [ $ $ $ $ $ $ $ #.#.#.$ $ $ $ #.$ $ a.3.+.$ $ $ $ $ $ $ #.#.$ $ $ $ $ [ [ [ $ $ $ $ $ $ #.2 4 6 5 6 1 $ $ $ a.+.$ $ $ $ [ [ 3.$ $ $ $ $ #.#.$ #.#.$ $ #.#.$ $ $ $ $ $ $ $ $ $ $ $ $ $ $ $ $ $ $ $ $ $ $ #.$ $ $ 7 4 $.6 1 $ $ $ #.#.#.$ $ #.$ $ $ #.$ $ $ ",
"$ $ $ $ [ $ $ [ [ 2 1 K.C A Q ` I G v b E $.7 2 [ 2 7 K.].Q I ` G (.! Y.7 [ [ #.1 E f p O.7.} i ; N _ 4 [ $ [ [ $ [ 7 {.! v v G G G G C `.( 1 2 [ [ [ 7 }.G C K G G G ! o.7 [ $ $ $ $ $ [ 7 5 E b B S m ; J Y Y o > * N ` 5 $ $ [ $ $ [ [ [ [ 2 {.C k b A v v v v P FX5 e C f u r.r.a r.N f V X r.u u f C ..7 7 4 ] v u S m ; # # o o > p N C ..$ $ $ $ [ [ [ [ $ $ $ $ ",
"$ a.a.$ $ $ $ $ [ 2 1 ( S z.d.w.w.z d.z.B.P 6 1 2 7 1 P R z.} >.6. .R F 8 [ 7 8 P p % W n.Y Y U *.[.W j o.$ [ #.#.[ 1 ..n z.: P.c l : =.% j q 2 [ $ 2 4 x.'.[.9.,.#XD.N.` 6 2 [ $ $ #.[ [ 1 ^ *  .1.p.p.L &.%Xg.g.T.9.} W B G 8 [ [ [ $ #.#.2 7 ^ g  .6.*.= P.6.z R G e Z 9 [.5.p.p.p.p.  y y t.t.p.L 6.R I 6 6 | h z.S.  &X  1.8.U 0.U ^.d.4.d b ( 2 $ $ $ $ $ $ $ $ $ ",
"$ #.$ $ $ $ $ $ $ [ [ 6 C.f -.y y.q.o u ` 8 7 2 2 2 7 { K !.0.;.7.# k q 1 [ q v h D u e $ $ $ e N # 6.i , r 7 $ $ $ 7 6 ! N > 6.) y.*.@ u i.1 [ [ $ [ 7 _ j J P.P.U 3 A 8 1 [ [ [ $ $ [ [ 7 q v B o z f.O S w 2 $ e f R =.;.4.u t 7 [ $ $ [ [ [ 6 w X o %Xq.q.Y , v ..6 q ~ B Y : t.: <.* B !., p J /.D.- K 4 1 8 G B J . q.U 3 G 1 $ 8 v 3 g.A.7.B E 5 2 $ $ +.$ $ $ $ ",
"$ $ $ #.#.$ [ $ $ $ $ [ $ q f W U 7.j {.[ [ $ $ $ #.+.$ $ q j N.u | 1 2 7 6 P D F./ 4 $ $ $ $ $ 1 C J 7.z.p t $ 2 [ Z.$ $ $ | > ;.X.R | $ $ [ #.#.#.$ [ $ 2 ( x F.(.5 [ $ $ #.$ [ $ #.$ 3.[ $ $ 2 | B.U # C 4 2 $ $ $ q a Y %. ., r 4 [ [ [ [ $ $ $ 4 Z W X.W G $ $ $ #.#.$ 4 Q ; ;.R (.4 $ $ $ $ 1 ^ M R Q 1 [ [ $ $ t e.D.' X q 2 $ $ [ 5 b R z z.+ I 5 2 [ $ $ $ $ $ ",
"$ #.#.$ [ $ $ $ #.$ $ [ [ 1 ^ e.% . x | 4 7 [ [ [ $ $ [ 7 ( S F.! 6 7 2 6 i.j D b 5 7 [ [ $ [ [ $ $.*XJ ;.7.a q 1 [ $ $ 2 2 q x -.' u 8 [ [ [ [ #.$ #.#.[ 2 5 F X }.7 2 #.$ $ $ $ $ #.$ $ +.$ 2 1 t h 7.' ` 1 2 $ $ 2 7 6 J.Y 7.4.S t 2 [ $ #.+.[ $ 1 G R V.; E 2 [ $ +.+.2 4 E N.7.m | 4 2 $ [ [ 7 6 C F.! 1 [ [ 2 7 q u 4.R F q 7 [ $ [ 7 6 ` 3 %  .m i.@.7 [ [ [ $ $ ",
"$ $ $ $ $ $ #.$ $ $ $ [ [ 7 5 v ; . ; v 8 2 $ [ [ $ [ 2 4 0X=Xj { 7 2 2 t u h f e 1 [ $ $ $ $ [ [ 7 q j D.6.; v 5 2 [ $ 2 2 8 B W R f 8 7 [ $ #.$ $ #.$ [ [ 5 |.X }.1 7 #.$ $ $ $ [ [ [ $ $ [ 2 1 q , 7.' / 7 2 $ $ $ [ $ $.v ' =.4.b 6 1 [ $ +.[ [ 1 I D @ R ^ 2 2 [ [ $ 2 4 _ *  .B.] 1 2 [ [ [ 2 1 C.M C.7 [ [ 2 7 8 a -.D T 8 7 [ [ [ [ [ 5 ` B.U Y j ~.1 [ [ $ $ $ ",
"$ #.#.$ $ $ $ $ $ $ $ $ $ 2 1 ..e.=.Y , w 1 [ [ $ $ [ 1 t F h G 6 7 2 1 G R h ! 6 7 [ $ $ $ $ $ +.2 $ i.9 =.-.p e 7 2 $ [ [ 8 u - D k 5 2 [ [ $ $ $ $ [ [ 2 5 k F { 7 2 [ [ $ $ $ $ $ $ [ [ [ 2 1 o.M D.' ! 1 2 $ $ $ $ $ 7 8 F 4.7.m Q 6 2 [ $ [ $ 1 ` D J R i.[ [ $ $ $ 2 1 .XB.D.h ] 1 2 $ #.$ [ 2 { v K.7 [ $ [ 7 8 f - D k 8 2 $ $ +.$ [ 7 8 A o z.@ a 8 [ [ $ $ $ ",
"$ #.#.$ $ $ $ $ [ $ $ $ $ [ 7 6 b W 2.# b $.[ [ [ [ 7 5 v OXv t 1 2 7 q X Y j ..1 2 [ $ $ $ $ $ +.2 2 8 , X.U :.v 4 7 [ 2 [ 8 , W N.b 5 2 [ $ $ #.#.$ $ [ 2 5 x.x.>X7 2 [ [ [ $ $ $ $ $ [ [ [ 2 1 8 u X.' Q 1 7 [ $ $ $ #.2 1 _ R 7.W , q 2 [ $ $ [ 1 u.=X# 3 w 2 [ $ $ $ 2 1 .XB.7.S ] 1 7 [ #.$ [ [ wXbXiX2 [ $ [ 7 5 f W R F q 2 $ [ $ $ [ 2 2 _ S 2.-.* C.7 2 $ $ $ ",
"$ [ $ $ $ $ $ [ $ $ [ $ $ [ [ 7 w * Y i s ] 7 2 [ 2 7 e j OX| 6 7 7 6 ! S Y F 6 7 2 $ [ $ $ $ $ [ 2 [ 4 v # 7.A.M q 1 [ 2 2 8 s -.R b 5 2 [ $ $ #.#.$ $ [ 2 5 x.x.>X7 2 [ $ $ $ $ $ $ $ $ [ $ [ 7 8 u X.' (.4 7 [ $ $ $ $ [ 2 5 j 2.4.- I 7 2 $ [ [ 1 ` =X# R w 2 [ $ $ $ 2 4 ( B.O S ] 1 2 [ $ $ #.[ [ 2 2 [ $ [ 2 7 5 f O.R F q 7 [ [ $ $ $ [ [ 8 k ; 4.# v 5 1 [ $ $ ",
"$ [ [ [ $ $ $ $ [ [ [ $ $ 3.[ 7 8 b R 7.# C 5 7 Z.7 4 P , T {.7 2 1 q oXN.- v 4 2 [ $ $ $ $ $ $ $ [ [ 1 w x O ;.+ ^ 4 2 2 [ 8 S 4.R k 5 2 [ [ [ $ $ $ $ [ [ 5 k x.o.7 2 [ $ $ $ $ $ $ $ $ $ $ [ 7 5 j X.# ].@.7 [ [ $ $ $ [ [ 4 G ; z.D.N $.7 [ [ $ 1 ` + @ R w [ [ $ $ $ 2 4 | B.O S ] 1 2 [ $ $ $ $ $ $ $ $ $ [ [ 7 6 f 0 R k q 7 $ $ +.$ [ [ 2 @.` S 4.-.j ( 1 [ $ $ ",
"$ #.#.[ [ $ $ $ $ [ [ $ $ $ [ 2 @.i.S 7.2.B _ 1 7 1 ..x.n ! 1 2 2 7 e j R ; I 1 [ [ $ [ [ $ $ $ $ [ [ 1 8 f O.E.@ b 8 2 2 [ 8 , O.D b 5 2 [ [ [ $ $ $ $ [ [ 5 k F >X7 2 [ $ $ $ $ $ $ $ $ $ $ [ 7 5 j  .@ C 6 7 [ [ $ $ $ [ [ 1 t B O.7.B t 1 2 [ $ 1 ` + # R w [ 2 $ $ $ 2 4 ~.B.O h ] 1 2 $ #.$ [ 7 2 [ [ [ [ $ 2 7 5 F :.R F q 7 [ $ $ $ [ [ [ 1 t N %  .x I 6 $ $ $ ",
"$ $ $ $ $ $ [ $ $ $ $ $ $ $ $ _.7 5 k % 4.R A 5 7 5 ! x.v q 7 2 2 1 ` * ' * i.7 [ $ $ $ $ $ [ $ $ $ $ 7 4 Q ; . 2.s q 7 2 2 8 s -.R b 5 2 $ $ $ #.$ $ $ [ 2 5 F OX{ 7 2 $ $ $ $ $ $ $ $ $ [ $ [ 7 5 j X.# ].6 7 $ $ $ #.#.$ [ 1 6 k Y z + i.4 2 [ $ 1 ` + ' g w [ 2 [ $ $ 2 4 ~.B.D.S ] 7 2 [ [ [ wX9X@X2 [ $ [ $ 2 7 5 F xXR F q 2 $ $ $ $ $ $ [ 7 6 C V.7.R b 8 [ [ $ ",
"$ $ [ $ $ $ $ $ $ $ $ $ $ $ $ [ 2 2 ^ g % 4.p ] 1 e F x.K.4 7 2 2 4 v ' # p w 2 [ $ $ $ $ $ $ $ $ $ $ 2 7 | R w.-.x e 7 7 7 q s -.R b 5 2 $ [ $ #.#.$ $ [ [ 5 |.OX{ 7 2 [ $ [ $ $ $ $ $ $ $ $ [ 7 5 X X.# ].6 7 [ $ $ $ #.$ $ 7 1 (.J H R G 6 2 [ $ 1 I N.@ D w 2 2 [ [ [ 2 4 ~.B.X.S ] 1 2 [ [ 2 Y.`.K.2 2 [ $ [ 2 7 5 k Y R k q 7 $ $ $ $ $ $ [ 7 4 ` 9  .9 N q [ [ $ ",
"$ $ $ $ $ $ $ $ [ $ $ $ [ [ [ [ [ [ q N ; 7.W T t C M ! 4 2 [ 2 [ 6 k o # S ( 7 [ [ $ $ $ $ $ $ $ $ $ 2 $ t + z X.R ^ 7 7 2 q s -.; k 5 2 $ $ $ #.$ $ $ [ 2 8 |.OX}.7 2 $ $ $ $ $ $ $ $ $ $ $ 2 7 5 a O @ C 6 7 [ $ $ [ [ $ $ 2 7 i.R 7.' b 5 2 [ [ 1 I N.# g | [ 2 [ [ [ 2 4 ( B. .e.] 1 2 $ $ $ | |.~.7 2 [ $ $ 2 7 5 F Y R F q 7 [ [ $ #.#.$ [ 7 7 | m X.V.B t $ [ $ ",
"$ $ $ $ $ $ $ $ [ $ $ $ $ $ $ $ $ [ 4 ~ e.U 7.p b u n ] 7 2 $ [ [ 6 f 2.J * | 7 [ [ $ $ $ $ $ $ [ $ $ 2 [ q S ;. .# ` 1 7 7 q S O.R k 5 2 $ $ $ $ $ $ $ [ 2 5 F OX}.7 2 $ $ $ $ $ $ $ $ $ [ $ 2 1 5 X X.@ (.@.7 $ $ $ $ $ $ $ 2 7 e g 7.# f 8 7 2 [ 1 < N.@ 3 r 2 2 [ [ $ 2 4 ( B.z.S ] $ $ $ $ 5 x.v.| 7 2 [ [ [ 2 7 5 k o R k q 7 [ $ $ $ $ $ [ 2 7 ( p -.V.S e [ [ $ ",
"$ $ $ $ $ $ $ $ $ $ $ $ $ $ $ $ $ $ 7 6 x.O.*.>.k.B.C 5 2 [ [ 2 [ 5 N -.Y * w 2 [ $ $ $ [ $ $ $ +.[ [ 2 [ 8 M i 4.J I 1 7 7 q s -.; k 5 2 $ [ [ $ $ $ $ [ 2 8 F OX}.7 2 [ [ $ $ $ $ $ $ $ $ [ 2 7 5 X 4.; P 4 7 $ [ [ $ $ $ $ 2 7 e + . - u q 2 [ [ 4 G D ' * ( [ [ [ $ $ 2 1 ] =XH 0.3 , u !.).m Y # ` 7 [ [ [ $ [ 2 6 k Y R f q 7 $ [ [ $ $ $ [ 2 7 ] s % V.S | 2 [ $ ",
"$ $ $ $ $ $ $ $ $ $ $ $ $ $ $ $ $ $ 2 7 / ; H : =., ( 4 [ $ +.2 2 8 j O.2.+ w 2 [ [ $ [ [ $ $ $ +.$ $ [ 2 5 j 0.4.> I 1 7 7 q , 4.R k 5 2 [ [ $ $ $ $ $ [ 7 8 |.OX}.7 2 [ $ 3.[ $ $ $ $ $ $ $ 2 7 5 X 4.R P 1 2 $ $ $ $ $ $ $ 2 2 t * H W B q 2 [ [ 4 G R # m r $ [ [ [ [ 2 1 ] + ,.S.c = %.: 9.,.6.:.I 7 2 2 3.$ [ 2 6 k Y D k q 7 [ [ [ $ [ $ $ 2 2 ..s % - p r [ [ $ ",
"$ $ $ $ $ $ $ $ $ $ $ $ $ $ $ $ $ $ [ 2 q G.O.7.W T 5 7 [ [ 3.2 2 8 j 4.O.; ` 7 [ [ $ [ $ $ $ $ +.$ $ 2 [ 6 V <.-.# ` 1 7 2 q S 4.; k 8 2 [ [ $ $ $ $ $ [ 2 8 F OX}.7 2 [ $ 3.[ $ $ $ $ $ $ $ 2 7 5 X 4.R P 4 2 $ $ $ [ $ $ $ 2 7 t * =.W B q 2 [ [ 4 K R ' m r $ [ $ $ [ 7 1 ] B.z - a Q ^ ` K Z N.9 ` 7 [ [ #.$ [ 2 6 k W R k q 7 $ [ $ $ $ $ $ 2 2 .., 2.- p | [ [ $ ",
"$ $ $ $ $ $ $ $ $ $ $ $ $ $ $ $ $ $ [ [ 5 v R 2.; ` 7 2 [ $ +.2 2 5 u 4.4.@ Q 1 2 [ $ $ $ $ $ $ +.$ $ [ 2 $.V O.-.# ` 1 7 7 q S -.; k 8 2 [ [ $ $ $ $ $ [ 2 8 |.OX}.7 2 [ $ 3.[ $ $ $ $ $ $ [ 2 7 5 X -.; ` 1 7 $ $ $ [ $ $ $ 2 2 t * =.W B q 7 2 [ 4 K R ' m r [ [ $ [ [ 7 4 ] B.X.S ] $ $ $ $ 7 ].n ~.[ [ [ $ $ [ 2 $.F O.D oX8 7 $ $ $ $ $ $ +.2 2 ..s 2.Y * | 2 [ $ ",
"$ $ $ $ $ $ $ $ $ $ $ $ $ $ $ $ $ $ $ $ 4 I S # p i.7 2 2 [ $ [ $ 5 X 4.X.o v 4 2 [ #.$ $ $ $ $ [ [ $ [ [ 6 *XY Q.& ` 1 7 2 t S % R k 8 2 [ [ $ $ $ $ $ [ 2 5 F OX}.7 2 [ $ $ $ $ $ $ $ $ $ [ 2 7 5 X 4.; ` 4 7 $ [ $ $ $ $ $ 2 7 e m z 2.u q 2 [ [ 1 K R @ + _ $ [ [ $ [ 7 4 ] B.X.B.~.4 2 2 2 7 | |..X7 2 [ $ $ [ 7 5 f -.R oXo.7 [ [ $ $ $ $ #.[ 2 ( x 4.Y S _ 2 [ [ ",
"$ $ $ $ $ $ $ $ $ $ $ $ $ $ $ $ $ $ $ $ 4 ` , ' * _ 7 2 [ [ $ [ $ 6 k W -.Q.k 6 2 [ $ [ [ $ $ $ [ $ $ [ [ 6 *Xo Y 3 ^ 7 7 2 t p -.R A 5 2 [ [ $ $ $ $ +.[ 2 5 F OX}.7 2 [ $ $ $ $ $ $ $ $ $ $ [ 1 5 X X.R ` 4 2 $ $ $ $ $ $ [ 2 2 ^ ' >.- N 8 7 2 [ 1 K R ' m r $ [ [ $ $ 2 1 ] =XO * ~.4 2 [ [ 2 }.x.( 7 2 [ $ [ 2 7 5 k - R k q 7 $ $ $ $ $ $ $ 2 1 | + i J , e 7 2 [ ",
"$ $ $ $ $ $ $ $ $ $ $ $ $ $ $ $ $ $ $ $ 4 I e.# * | 7 2 [ $ $ [ $ 4 v J 4.D.j 8 7 2 $ $ $ $ $ $ $ $ $ 2 2 $.N O.V.x e 7 2 2 t S 4.R k 5 2 [ [ $ $ $ $ $ [ 2 5 k OX}.7 2 [ $ $ $ $ $ $ $ $ $ $ 2 7 8 X -.; ` 4 2 $ $ [ [ [ [ [ 7 4 Q J 6.' v 6 7 [ $ 1 K R # + r [ [ $ $ $ 2 1 ] B.O * ( 1 2 [ [ 2 {.0X>X7 2 [ [ [ 2 7 5 f :.R k q 7 $ $ $ $ $ $ $ 2 4 / 3 i ' j t 2 [ $ ",
"$ $ $ $ $ $ $ $ $ $ $ $ $ $ $ $ $ $ [ [ 4 I S # + | 7 2 [ $ $ [ [ 1 Q ; X.. S e 1 2 $ [ [ $ $ $ $ $ [ 2 2 8 u 4.# j t 7 2 2 t x 4.; k 5 2 [ [ [ $ $ $ $ [ 7 5 k OXK.7 2 [ [ $ $ $ $ $ $ $ $ [ 2 7 8 X O.R ` 4 2 $ $ [ [ [ [ [ 1 8 k 2.;.N.! 4 2 [ $ 1 K 9 @ + r $ [ [ $ $ 2 1 ] B.O B.( 1 2 [ $ [ 2 CXCX[ $ [ [ $ [ 2 6 k % R k 8 7 $ $ $ $ $ $ $ 7 5 C o 7.R b 8 [ [ $ ",
"$ $ $ $ $ $ $ $ $ $ $ $ $ $ $ $ $ $ [ [ 4 I S # + | 7 2 $ $ [ [ $ 1 E * i 6.+ | 4 2 [ [ [ $ $ $ $ $ [ 2 2 q B z.R T 8 2 2 2 t x 4.' f 8 2 [ [ $ $ $ $ [ [ 7 8 F OX}.7 2 [ [ $ $ $ $ $ $ $ $ [ 2 1 8 a O.R ` 4 7 $ $ $ $ $ [ [ 1 t u -.H S ..1 [ [ [ 4 K ; @ m r [ [ [ $ $ 2 1 ( S  .B.( 1 2 $ $ $ [ $ $ #.$ $ [ $ [ 7 6 k pXR k 8 7 $ $ $ $ $ $ $ 7 Y.k O.7.+ C 5 [ [ $ ",
"$ $ $ $ $ $ $ $ $ $ $ $ $ $ $ $ $ $ $ $ 4 I e.# * | 7 2 $ $ $ [ [ 1 e u W E.' C 5 7 $ $ [ $ +.$ $ $ $ 2 2 t S O.B.i.6 2 2 2 t x 4.@ G.q 2 [ [ $ $ #.$ [ 2 2 t M j >X7 2 [ [ $ $ $ $ $ $ $ $ [ [ 7 8 X Q.D ` 1 2 $ $ $ $ $ [ [ 4 < R  .d.X 6 7 3.[ [ 1 K 9 @ + r $ 2 [ [ [ 2 4 ( B. .B.( 1 2 $ $ $ $ $ $ +.$ $ $ $ [ 2 5 f :.R oX8 7 $ [ 3.[ [ [ [ 4 i., X.<.j e 1 [ [ $ ",
"$ $ $ $ $ $ $ $ $ $ $ $ $ $ $ $ $ $ $ $ 4 I x @ * i.7 2 [ [ [ [ [ 7 8 A # E.Y u e 7 $ $ #.#.#.$ $ [ [ 7 1 _ m -.j q 1 2 2 2 q S -.@ , t 2 [ [ $ $ #.$ $ 2 7 ] B.j o.7 2 $ $ $ $ $ $ $ $ [ [ [ 2 7 8 j 4.R ! 4 2 $ $ $ $ $ [ 2 5 N W 4.o I 1 2 [ [ [ 4 K R # + r [ 2 [ [ [ 2 4 ] B. .B.( 4 2 $ $ $ $ [ [ $ 2 7 7 2 2 7 8 f O.R oXq 7 [ [ $ $ $ [ [ 5 A D z.- T 5 7 [ [ $ ",
"$ $ $ $ $ $ $ $ $ $ $ $ $ $ $ $ $ $ [ [ @.I S J + i.2 2 [ $ $ $ $ 7 4 ^ m ;.4.3 I 4 [ $ #.$ $ $ [ [ $ 7 @.P + @ C 4 2 [ [ 2 8 , O.- p e 2 [ [ $ $ $ $ [ 2 7 C.=X|.$.2 [ $ $ $ $ [ $ $ $ [ [ [ 2 1 8 u 4.9 Q 4 2 $ $ $ $ 2 2 7 e 3 O J , q $ [ $ [ 2 4 K R # m | [ [ [ [ [ 2 1 ] B. .B.( 4 2 $ $ $ $ $ [ [ 1 ( C.5X2 1 5 f O.; oXo.7 [ [ [ [ [ [ 7 e , - O.p | 2 2 [ $ $ ",
"$ $ $ $ $ $ $ $ $ $ $ $ $ $ $ $ $ $ [ [ 6 K =XV.g i.7 2 [ $ [ $ $ [ 7 8 j U i W f 5 [ [ $ $ $ #.$ $ $ 7 q |.D S e 2 [ [ [ [ 5 j -.W ; / 7 2 [ $ #.$ $ [ 7 1 Q =XoX4 2 [ $ $ $ $ $ $ $ $ [ [ [ 2 1 q B X.9 (.4 7 $ $ $ $ 2 1 5 b 2. .=X` @.2 [ $ [ [ 4 K ; @ m r 2 [ [ $ $ 2 1 ] B. .B.( 4 2 [ $ $ $ 3.[ [ +Xv `.6 7 1 8 N -.; k 8 2 $ [ [ $ [ 2 $.C @ 4.; k 8 [ [ $ [ $ ",
"$ #.$ $ $ $ $ $ $ $ $ $ $ $ $ $ $ $ [ $ @.K =X@ * | 7 2 [ $ [ [ $ [ 2 1 I & 0.7.* | 1 7 $ $ $ #.#.$ $ 4 < h v.K 5 2 [ $ [ [ 4 A - 4.-.b 4 2 [ #.#.#.#.[ 7 8 x.F.I 1 $ [ [ [ [ $ $ #.#.#.[ [ [ 2 4 q B X.' (.@.7 $ $ $ [ $ 6 I + 4.W k $.1 [ $ $ [ [ 1 K R # * r 2 2 [ [ [ 2 4 ] B.D.=X( 4 2 $ #.$ $ [ 2 2 }.a C @.7 1 8 a 4.# N { 2 $ [ [ $ 2 4 | B 4.W u e 4 [ [ [ $ $ ",
"$ #.#.$ $ $ $ $ $ $ $ $ $ $ $ $ a.#.[ [ 6 v m V.g i.1 2 [ [ $ $ [ [ [ 7 q j o %.0 j t 1 $ #.$ +.+.2 2 q R.D x.8 1 2 [ +.[ [ 4 E * 4.7.e.t 1 2 $ #.$ [ [ @.P v.n e 7 $ [ [ $ $ $ $ $ #.$ $ [ $ 2 4 t S d.Y k 8 1 $ $ [ 2 2 | 3 O.2., { 2 2 [ $ $ [ [ 4 K ; @ m r $ [ [ $ [ 7 1 C.N. .m ! 6 7 [ [ #.#.[ 7 6  Xn C 4 7 1 q u z.V.B e 7 [ [ 2 2 1 r s # O.S _ 4 7 $ $ #.$ $ ",
"$ $ $ $ $ $ $ $ $ $ $ $ $ $ $ $ #.$ $ $ 6 f 9 % 9 ` 7 $ $ $ $ $ [ $ +.[ 4 r s ;.=.Y N 5 [ 2 [ $ $ 2 5 v R p ( 7 2 [ [ [ 2 [ 1 q k - >.- f 8 $ $ #.$ $ $ / m =Xv 5 2 $ 3.3.[ [ [ [ [ +.$ $ $ $ [ 1 / D 6. .* | 2 $ $ $ 1 ` * 7.4.j t 4 [ [ [ $ $ [ $ 7 A @ W ; w $ $ $ $ $ 2 6 `.; z ' v 6 $ $ #.$ $ $ 2 ( X h P 1 2 1 ] p .  .9 Q 7 $ $ $ 2 e , 4.W , ^ 6 [ [ 3.$ [ $ $ ",
"$ $ $ $ $ $ $ $ $ $ [ $ $ $ $ $ [ 2 6 e K R . 6.7.m b.t 4 7 2 [ [ [ [ 3.2 4 ` 3  .} W f q $ $ $ [ e j N.M u.1 2 [ $ $ $ $ $ 2 1 _ * ;.A./.p Q q 5 8 u.N R z.B { 1 2 $ $ $ $ $ $ $ $ $ $ $ 2 7 5 ` + 7.&.9.U ).r 8 t ` d g.7.Y N q 2 2 [ $ $ [ [ 1 8 v & ;.%Xz d w 5 7 7 7 q fXY ;.&.H l.1XK / w | w ` V ; ; e./ 4 4 w B <.&.q.=.S ^ 8 8 w B W -.W N _ 6 2 [ +.+.$ $ $ $ ",
"$ $ $ $ $ $ $ $ $ $ $ $ $ $ $ [ 2 6 C # z ,.1.1.t.8X^.9 k q 2 [ [ [ [ [ [ $ 5 I S =.P.U o , 6X1XS > 2., e $ 2 [ $ $ $ $ $ $ [ 2 6 G R d.5.y %.g.0.j.%.:  .m w 7 [ [ $ #.#.#.$ $ [ [ [ [ [ 7 q N - y L     L y . U ^.w.=.0., ~ $.$ $ $ #.3.[ 7 7 ! g U 9.) )   S.^.* w t N o 6.t.) &X  1.&.8.6.%.z >.= ,.y.7.p u.r a :.8.5.    L S.>.U g.g.i W G.G t $ $ [ $ $ #.$ $ $ $ ",
"$ $ #.$ $ $ $ $ $ $ [ [ $ $ $ [ 7 8 C s d u r.r.u , , F C.@.2 [ [ [ [ [ $ $ [ 7 | a > d.&.y.t.9.A.R v 5 7 $ #.$ $ $ $ +.+.+.$ [ 2 6 ` , 4.P.t.p.p.&.. > f t 7 [ $ $ $ $ $ $ $ [ [ [ $ [ [ 7 o.`.j , B u !., S 3 R m ).A ~.@.$ $ $ $ $ $ $ $ 2 1 ] X S , B !.!.p m M ^ q Q u , ).S S ).B B ).)., , ).)., !.N G t q P u ).B u u B S m 3 m ).V G q $ $ [ [ $ $ $ $ $ +.$ $ ",
"$ $ $ $ $ $ $ $ $ $ [ [ $ $ $ $ [ $ $ #.#.$ $ $ $ $ #.#.7 2 [ #.#.$ $ [ $ $ #.$ $ 1 | b G., S a Q q 2 $ [ 3.$ [ $ $ $ #.$ $ $ $ [ $ $ 6 C.A u , u k ` 8 $ $ $ $ $ $ $ $ $ $ [ $ #.$ $ $ $ [ 2 #.#.$ $ #.#.#.$ #.$ $ $ $ $ $ #.$ $ $ [ [ [ $ [ [ 2 2 #.$ $ $ $ #.#.#.$ $ $ $ $ $ $ $ $ $ $ $ $ $ $ $ $ $ $ #.$ $ Z.Z.#.$ #.$ $ $ $ a.#.a.a.$ $ $ #.$ $ [ [ [ $ $ $ $ $ $ ",
"$ $ $ $ $ $ $ $ $ $ [ $ $ $ $ $ $ +.$ #.#.#.$ $ $ #.#.$ #.#.$ $ $ $ $ $ $ $ $ $ $ $ $ $ $ $ $ $ $ $ $ #.+.3.$ $ $ $ $ $ $ [ [ $ $ $ $ $ $ $ $ $ $ $ $ $ #.$ $ $ $ $ $ $ $ $ $ [ [ [ [ $ $ $ $ $ $ $ $ $ $ $ $ $ $ $ $ $ [ [ [ $ $ $ $ $ $ $ $ #.#.#.#.#.#.#.$ #.$ #.$ [ $ +.+.+.$ $ $ a.+.$ $ +.#.#.#.#.$ $ +.[ 3.$ #.#.#.#.$ $ $ #.a.$ #.#.#.#.$ $ $ $ $ $ $ $ $ $ $ $ ",
"$ $ $ $ $ $ $ $ $ $ $ $ [ [ $ $ $ #.$ $ #.$ $ #.$ #.$ $ [ [ [ $ a.$ $ $ $ $ $ $ $ $ $ $ $ $ $ $ $ [ [ $ #.$ #.$ $ [ [ [ $ $ $ $ [ [ [ $ $ $ $ +.+.+.$ $ $ $ $ $ [ $ [ [ [ [ $ $ $ [ $ $ [ [ [ $ #.$ $ $ [ [ [ $ $ [ $ $ +.$ $ $ $ $ $ $ $ $ $ $ #.$ $ $ #.$ $ Z.$ [ [ [ [ [ $ +.[ 3.[ [ $ $ $ [ [ $ $ $ $ $ $ $ $ [ [ 3.[ [ [ [ $ #.#.#.$ $ [ [ [ [ $ $ $ +.+.+.$ $ $ $ ",
"$ $ $ $ $ $ $ $ $ $ $ $ $ $ $ $ $ $ $ $ $ $ $ $ $ $ $ $ $ $ $ $ $ $ $ $ $ $ $ $ $ $ $ $ $ $ $ $ $ $ $ $ $ $ $ $ $ $ $ $ $ $ $ [ [ $ $ $ $ $ $ $ $ $ $ $ $ $ $ $ $ $ $ $ [ $ $ $ $ $ $ $ $ $ $ $ $ $ $ $ $ $ $ $ $ $ $ $ $ $ $ $ $ $ $ $ $ $ $ $ $ [ $ $ $ $ $ $ $ $ $ $ $ $ $ $ $ $ $ $ $ $ $ $ $ $ $ $ $ $ $ $ $ $ $ $ $ $ $ $ $ $ $ $ $ $ $ $ [ $ $ $ $ $ $ $ $ $ $ $ "
};
