/* XPM */
static char *_a64bacaa3d84e1cfde973528ca6f778_2[] = {
/* columns rows colors chars-per-pixel */
"179 40 256 2 ",
"   c #FE0009",
".  c #E40B12",
"X  c #991314",
"o  c #CD1213",
"O  c #DD1012",
"+  c #B80509",
"@  c #CA1721",
"#  c #C80B11",
"$  c black",
"%  c #D4131A",
"&  c #C70509",
"*  c #B60B10",
"=  c #ED040A",
"-  c #CD1319",
";  c #C4181A",
":  c #EC0912",
">  c #C51112",
",  c #A90B11",
"<  c #730000",
"1  c #1A0000",
"2  c #0A0000",
"3  c #BD0F12",
"4  c #220000",
"5  c #320000",
"6  c #2A0000",
"7  c #120000",
"8  c #3A0000",
"9  c #C51317",
"0  c #D40B12",
"q  c #430000",
"w  c #630000",
"e  c #530000",
"r  c #5B0000",
"t  c #4B0000",
"y  c #F4080A",
"u  c #A21112",
"i  c #DC100C",
"p  c #B41111",
"a  c #9A0B11",
"s  c #AC1212",
"d  c #AC0A0B",
"f  c #940A0B",
"g  c #BC1318",
"h  c #AC191B",
"j  c #9C090A",
"k  c #8C090A",
"l  c #EE0303",
"z  c #E6040A",
"x  c #B41417",
"c  c #ED0411",
"v  c #830A0A",
"b  c #890C0F",
"n  c #A31A1C",
"m  c #BB0E0B",
"M  c #A41417",
"N  c #97100E",
"B  c #A6100B",
"V  c #940407",
"C  c #7B0909",
"Z  c #8C0307",
"A  c #840307",
"S  c #AF0101",
"D  c #BD1814",
"F  c #921F1F",
"G  c #780B10",
"H  c #E5100B",
"J  c #CC1814",
"K  c #7B0307",
"L  c #FC080C",
"P  c #73090A",
"I  c #730306",
"U  c #DE040F",
"Y  c #D10202",
"T  c #840903",
"R  c #C11E22",
"E  c #670B11",
"W  c #D20411",
"Q  c #740803",
"!  c #6B090A",
"~  c #6B0307",
"^  c #640307",
"/  c #68100E",
"(  c #580B11",
")  c #FC0803",
"_  c #5B0306",
"`  c #6C0501",
"'  c #C61D1B",
"]  c #530307",
"[  c #040000",
"{  c #470B11",
"}  c #E70415",
"|  c #5C0903",
" . c #DE0419",
".. c #4B0406",
"X. c #DC1813",
"o. c #3B090A",
"O. c #D50416",
"+. c #000004",
"@. c #230602",
"#. c #000400",
"$. c #310802",
"%. c #EB080C",
"&. c #F70407",
"*. c #EF080D",
"=. c #E30C0C",
"-. c #D71015",
";. c #E70C0E",
":. c #D31014",
">. c #E7080E",
",. c #F3040D",
"<. c #D71010",
"1. c #FB0406",
"2. c #D31414",
"3. c #040004",
"4. c #D81416",
"5. c #F90400",
"6. c #EB0C0E",
"7. c #E20C08",
"8. c #F00C0E",
"9. c #F2000D",
"0. c #D8140F",
"q. c #F00C08",
"w. c #E50410",
"e. c #AC1319",
"r. c #9C0408",
"t. c #FA0000",
"y. c #F8040C",
"u. c #6B0000",
"i. c #630803",
"p. c #FF0406",
"a. c #000404",
"s. c None",
"d. c #E41014",
"f. c #F20007",
"g. c #E20808",
"h. c #F30407",
"j. c #DC0309",
"k. c #D40A0B",
"l. c #C80F0A",
"z. c #DC171C",
"x. c #891416",
"c. c #F40804",
"v. c #AA2325",
"b. c #840001",
"n. c #D3030A",
"m. c #DD0B0C",
"M. c #7B0000",
"N. c #BC191B",
"B. c #B4191A",
"V. c #CD181A",
"C. c #630A0A",
"Z. c #050400",
"A. c #E50B18",
"S. c #F70512",
"D. c #DD1119",
"F. c #B4201F",
"G. c #A4090B",
"H. c #FB0004",
"J. c #7B0804",
"K. c #530909",
"L. c #C51814",
"P. c #EE0A19",
"I. c #E50303",
"U. c #8C0001",
"Y. c #430306",
"T. c #E70808",
"R. c #A31813",
"E. c #E70C08",
"W. c #EB0C08",
"Q. c #D41813",
"!. c #A40408",
"~. c #59100D",
"^. c #E3080C",
"/. c #DD0B11",
"(. c #78100D",
"). c #AC0309",
"_. c #080005",
"`. c #7D1E1E",
"'. c #D4181A",
"]. c #791416",
"[. c #E70D1E",
"{. c #3A0306",
"}. c #4B090A",
"|. c #94191E",
" X c #681516",
".X c #5B090A",
"XX c #E60804",
"oX c #89100E",
"OX c #95282A",
"+X c #320306",
"@X c #360C0F",
"#X c #EF0419",
"$X c #270C0E",
"%X c #EB0808",
"&X c #FF0004",
"*X c #8C0804",
"=X c #B51B22",
"-X c red",
";X c #D3100F",
":X c #ED0804",
">X c #43090A",
",X c #F70005",
"<X c #AC0903",
"1X c #9C0001",
"2X c #9C0803",
"3X c #000008",
"4X c #120504",
"5X c #220405",
"6X c #940101",
"7X c #FF0400",
"8X c #F30D15",
"9X c #551B1F",
"0X c #711B1F",
"qX c #DD0203",
"wX c #2A0406",
"eX c #1A0406",
"rX c #F8000D",
"tX c #591417",
"yX c #A40101",
"uX c #530903",
"iX c #31090A",
"pX c #D3140F",
"aX c #F30300",
"sX c #B41814",
"dX c #AC1813",
"fX c #940903",
"gX c #DD0803",
"hX c #A40904",
"jX c #D30903",
"kX c #471617",
"lX c #430802",
"zX c #381415",
"xX c #D30B19",
"cX c #DD0C19",
"vX c #2A0A0A",
"bX c #4E1F1F",
"nX c #33110E",
"mX c #220908",
"MX c #5A2427",
"NX c #772B2E",
"BX c #47100E",
"VX c #2B1112",
"CX c #1B0A09",
"ZX c #050404",
"AX c #3A0803",
"SX c #1A0803",
"DX c #2A0803",
"FX c #4B0903",
"GX c #0C0709",
"HX c #26100C",
"JX c #11090B",
"KX c #F0100C",
"LX c #412422",
"PX c #000800",
"IX c #000808",
"UX c black",
/* pixels */
"$ #.$ $ $ $ $ $ $ $ $ $ $ $ $ $ $ $ $ $ $ $ $ $ $ $ $ $ $ $ $ $ $ $ $ $ #.#.#.$ $ [ $ $ $ #.$ $ $ $ $ $ $ $ $ $ $ $ $ $ $ $ #.#.$ $ $ $ $ $ $ $ $ $ $ $ $ $ $ $ $ $ $ $ $ $ $ $ $ #.#.#.$ $ $ [ $ $ $ $ $ $ $ $ $ $ [ $ #.#.$ $ $ $ $ $ $ $ $ $ $ $ $ $ $ #.$ $ $ $ $ $ $ $ $ $ $ $ $ $ $ $ #.$ $ $ $ $ $ $ +.$ $ $ $ $ $ $ $ +.$ $ $ $ $ $ $ $ $ $ $ $ $ $ $ $ $ $ $ ",
"$ $ $ $ $ $ $ $ [ $ [ $ $ $ $ $ $ $ $ $ $ $ $ $ $ $ $ $ $ $ $ $ $ #.$ $ #.$ $ $ $ #.#.$ $ $ $ $ $ $ #.$ $ $ $ $ $ $ $ $ $ $ $ $ $ $ $ $ $ $ $ $ $ $ $ $ $ $ $ $ $ $ $ $ $ +.$ $ $ $ #.$ $ [ [ $ $ $ $ $ $ +.$ $ $ $ $ $ $ $ $ $ $ $ $ $ $ [ $ $ $ $ $ $ $ #.$ $ $ $ $ $ $ $ $ $ $ $ $ $ $ $ $ $ $ $ [ 3.3.$ $ $ [ [ $ $ $ $ #.$ $ $ $ $ $ $ $ $ $ $ $ $ $ $ $ $ $ $ $ ",
"$ $ $ $ $ $ $ $ $ $ $ $ $ $ $ $ $ #.#.$ $ $ $ $ #.$ $ $ $ $ $ $ $ $ #.$ $ $ $ [ [ $ $ #.$ $ $ $ $ #.$ $ $ [ $ $ $ $ $ $ $ [ [ $ $ $ $ $ $ $ $ $ $ $ $ $ $ $ $ $ $ $ $ $ $ $ $ $ $ $ $ $ $ $ $ $ $ $ $ [ $ [ [ [ $ $ $ $ $ $ $ $ $ $ $ $ $ $ $ $ $ $ $ $ $ #.#.$ +.$ $ $ $ $ $ $ $ $ $ $ $ $ $ $ $ $ $ $ [ $ $ $ [ [ $ $ $ $ $ $ $ $ $ $ $ $ $ $ $ $ $ $ $ $ $ $ $ $ $ ",
"$ $ $ $ $ $ $ $ $ $ $ $ $ $ $ $ $ $ $ $ $ $ $ $ $ $ $ $ $ $ $ $ $ $ $ $ $ $ $ $ $ [ $ #.$ $ $ $ $ #.$ $ $ $ $ $ $ $ $ $ $ $ $ $ $ $ $ $ $ $ $ $ $ $ $ $ $ $ $ $ $ #.$ $ $ $ [ $ $ $ $ $ $ $ $ $ $ $ #.#.$ #.#.$ $ $ $ $ $ $ $ $ $ $ $ $ $ $ $ $ $ $ $ $ $ $ $ $ $ $ $ $ $ $ $ $ $ $ $ $ $ $ $ $ $ $ $ $ $ $ $ $ $ $ #.$ $ $ #.$ $ $ $ $ $ $ $ $ $ $ $ $ $ $ $ $ $ $ $ ",
"$ #.#.$ $ $ $ $ $ $ $ $ $ [ [ [ 7 {.BXo.6 4 6 q ..Y.4 [ $ $ $ 2 $.8 @.7 6 o.{ 6 7 [ $ $ $ q G j 3 R m u G 8 $ $ $ $ [ [ [ 2 $...t 5 4 4 4 8 Y.6 [ $ $ [ [ 1 {.{ 8 5 5 8 $.7 [ [ $ $ $ #.+.3.7 5 e I A V r., ).B a b ` 8 $ $ $ $ $ $ $ $ $ [ 1 o.] e q 8 8 q o.$.1 1 q ~.i.^ r e e e t e | / E | ..@.$ 2 2 6 ( ` v 6Xu , )., G.V I q 2 $ $ $ $ $ $ $ [ $ $ $ $ $ $ $ $ ",
"#.#.#.$ $ $ $ $ $ [ [ [ $ $ [ 2 4 P h Y W J o O.Y h ` @.2 2 2 $.f # Y n.W W * `.5 7 7 $.~ S i U j.U T.;.7.3 G 6 7 [ [ [ 7 4 C ' U <.W W Y o 9 k 4 [ 2 7 4 .Xv.O.j.0.W # , t [ 2 $ $ $ [ [ 7 r s ;Xf.t.    t.= . g.6.;.; f _ 2 $ [ [ [ [ [ [ t B @ 0.j.<.0.j.W u { w p 0.>.l %XT.T.T.T.T.= q.l . & (.1 6 q j 0.q.5.    ) h.>.%.8.U > a ~.1 [ [ $ [ $ $ $ #.#.+.+.$ $ $ ",
"$ $ $ $ $ #.#.#.$ $ $ $ $ $ $ [ 7 8 v > H y S.7.+ b Y.1 2 2 2 6 I G.o *.6.i G._ @.7 5 b D N.u u.8 q | X O.=.@ a q [ [ [ 7 1 C.G.o l   5.,.;Xs ~ 1 [ [ 2 1 t a 0 6.,.6.R k 8 [ [ $ $ $ [ [ 7 e f + U 8.y D.u ^ e ^ r.@ U 6.; C 8 7 [ 3.+.$ [ 5 G G.-.8.L y.j.m A 8 q M.<X0.q.c.5.^.J > R & W U E.0.T 4 4 8 v * k.q.q.i S Q e ` N R . d.9 f q [ 2 [ [ $ $ $ [ [ $ +.+.+.",
"$ $ $ $ $ $ $ $ $ $ $ $ $ $ $ $ $ +.7 ( B i O dXe 7 $ $ #.#.$ $ $ $ G R F.C 5 [ 7 6 ` =X* w 7 $ +.+.$ 4 v 3 4.X.f 8 2 [ [ [ [ $ t S =.4.3 u.1 $ [ $ +.+.[ 2 4 r X =Xf q 2 [ $ $ +.$ $ $ [ [ [ [ 5 A ' 7.g t $ $ $ $ q V <.X.W j 8 2 2 3.$ $ $ $ 6 k # D.J w $ $ $ $ $ 7 Q D 4.4.b 1 $ $ #.1 e B ' `.4 7 [ 7 1 w 9 -.=X` 1 $ $ $ 8 Z ;  .4.N q 1 2 $ a.+.$ [ [ [ $ +.$ ",
"$ $ $ $ [ $ $ [ [ [ $ $ $ +.$ $ $ [ 2 4 C W X.+ I 4 [ [ #.#.[ [ $ 4 b D x.6 7 2 4 ` B n I 4 $ $ +.3.[ 7 6 C Y l @ b 8 7 [ [ 2 2 $.a 4.' F 8 2 $ 2 [ [ $ $ [ 7 1 0XX E 7 $ $ $ $ $ $ [ $ $ $ $ [ 1 _ h -.e.q 2 [ $ $ $ 5 v ; 7.- v 5 1 [ [ $ $ [ 4 ` B.@ + q $ [ [ [ [ 1 | S V.9 w [ [ $ $ $ 2 ~ B 0X1 7 3.[ $ q + % F.^ 4 $ $ $ $ 2 | 3 7.W , t 2 [ #.$ $ #.#.#.#.[ $ ",
"$ $ $ $ $ $ $ $ $ $ $ $ $ $ $ $ $ $ [ $ t g X.Y u 8 $ [ $ #.$ 2 2 q u m | $ 7 2 q , + P 4 7 $ $ $ $ [ [ $ 6 j 4.4.@ ` 7 [ $ [ [ 4 F W N.C 5 2 $ $ $ $ $ $ [ 7 4  XF | 7 [ [ $ $ $ $ #.#.$ [ $ 2 1 ] h 4.S q [ 2 $ [ [ 2 2 (.o X.D M.6 [ [ $ $ [ 1 E S @ + { [ [ +.[ [ 1 ( h ' 3 _ 7 2 [ [ [ 2 q `.C.7 2 [ [ [ q p '.F.| 4 [ $ $ $ #.7 I D O.<.b 4 7 [ $ $ #.#.a.$ [ [ ",
"$ $ $ $ $ $ $ $ $ $ $ $ $ $ $ $ $ $ [ [ 6 V J O.R | 2 2 [ [ $ 7 4 / X k 5 [ 7 4 ` R B.e 2 2 $ $ [ [ [ [ [ 7 u.D O. .X 6 7 2 [ [ 1 F O.D C 5 2 $ $ #.$ $ $ [ 7 4 C.F | 7 [ $ $ $ $ $ $ $ $ [ $ 2 1 ] h X.x q [ 2 [ [ [ 2 [ q B V.W S t 2 2 $ [ [ 4 ^ S @ * t $ 2 3.[ $ 1 e , ' g _ 2 2 [ [ [ 7 6  Xs.7 2 [ 2 [ q S W h i.4 $ $ #.$ #.7 8 k @ U B.( 1 2 $ $ $ $ #.$ $ $ ",
"$ $ $ $ $ $ $ $ $ $ $ $ $ $ $ $ $ $ $ [ 1 ( , 2.O.k 6 1 2 [ [ 7 t x.F ( 4 2 1 q F ; u 8 2 [ $ $ $ $ $ [ [ 7 8 X V.;.N.i.4 7 2 [ 1 k -.+ G $.7 [ $ $ $ $ $ [ 7 4 C.F r 1 [ [ $ $ $ $ $ $ $ [ $ 2 1 ..h z.* q [ 2 $ [ [ [ 2 4 E B.z.W C 4 7 [ [ [ 4 ^ h @ p t $ 2 3.[ $ 1 r , L.3 r 2 2 [ [ [ 2 7 nXVX2 [ $ [ $ 8 , Y h i.4 [ $ $ $ [ 2 1 t s X.' N q 7 $ [ $ $ $ $ $ $ ",
"$ $ $ $ $ $ $ $ $ $ $ $ $ $ $ $ $ $ $ $ 7 4 C J m.sXE 6 2 2 [ 1 C n ! 4 7 2 4 / B ; k 4 [ [ $ $ +.$ $ $ $ 7 @.P 9 6.W F o.1 2 2 4 f W N.C $.7 $ $ $ $ $ $ [ 7 4 C.F r 1 [ [ $ $ $ $ $ $ $ $ $ [ 1 { M X.+ { [ 2 $ [ [ [ [ 1 5 k 0.U u t 1 [ [ [ 4 E S ' S t [ 2 3.[ $ 1 r , ' D r 2 2 [ [ [ [ [ $ $ [ $ $ [ $ 8 , J h ^ 4 2 [ $ $ $ [ 2 4 k % Y D ^ 7 [ [ $ [ [ $ $ $ ",
"$ $ $ $ $ $ $ $ $ $ $ $ $ $ $ $ $ $ $ $ 2 [ e 3 7.- j q 2 2 2 5 a M Y.[ [ [ 5 F + F.Q 1 $ $ $ $ [ $ $ $ $ 2 1 t B.} 4.S e 1 [ 2 4 k W N.C 5 7 $ $ $ $ $ $ [ 7 4 C.F r 7 [ [ $ $ $ $ $ $ $ [ $ [ 1 q , X.p { [ 2 $ $ $ $ [ 7 1 ` J i + I 6 2 2 [ 4 E S # p t [ 2 [ $ $ 1 r , ; 3 ( 7 2 [ [ [ $ $ $ $ $ $ [ [ [ 5 B @ v.i.4 2 $ a.$ $ $ [ 7 u.R Y 2.b 1 2 [ $ [ $ $ $ $ ",
"$ $ $ $ $ $ $ $ $ $ $ $ $ $ $ $ $ $ #.$ [ $ 6 f xXxX; ^ 2 7 1 .Xj v 4 2 2 $ q s R M r 7 $ $ +.$ [ $ +.+.$ 2 2 6 j  .4.; ` 7 [ 2 4 f 2.N.C 5 7 [ $ $ $ [ $ $ 7 4  XF r 7 [ [ $ $ [ $ $ $ $ [ $ [ 1 q , X.x Y.[ 2 $ $ $ #.$ 2 [ t p O.L.f 5 2 [ [ 4 E B.J + t [ 2 [ $ [ 1 r , 9 m ( 7 2 [ 2 2 s.s.2 [ $ $ [ 2 [ 5 B J v.^ 4 2 [ +.+.$ $ $ 7 t u V. .u 5 7 2 [ [ [ $ +.$ ",
"$ $ $ $ $ $ $ $ $ $ $ $ $ $ $ $ $ $ $ $ [ [ 7 | S xX .f 4 6 q v k t 1 [ 2 $ ( g ; B e 1 $ $ $ $ [ $ +.$ $ [ 2 1 b O.4.Y A 1 2 2 4 f 2.N.C 6 7 [ $ $ $ [ $ [ 7 4  XF r 7 [ [ [ $ $ $ $ $ $ [ $ [ 1 q , X.x q [ 2 $ $ $ $ $ 2 [ 8 , -.V., q $ [ [ 4 u.B.@ p q [ 2 [ [ [ 1 ( , ; 3 _ 2 2 2 7 1 bX9X1 7 [ $ $ [ 2 8 , J v.i.4 2 [ [ $ $ #.$ 7 8 F #  .e.q 7 2 [ [ [ $ $ $ ",
"$ $ $ $ $ $ $ $ $ $ $ $ $ $ $ $ $ $ $ [ [ [ 7 6 v # 7.p | q v X | 4 7 [ 2 [ / # # B e 1 [ [ $ $ $ $ $ $ $ [ 2 7 ` # 4.4.X @.2 7 6 f -.+ G 6 7 $ $ $ $ $ $ [ 7 1 C.F i.7 [ [ [ $ $ $ $ $ $ [ $ [ 7 t B 4.p q 2 2 $ $ $ $ $ 2 [ 6 a 2.W g e $ 2 2 4 u.B.' S q [ [ $ [ $ 1 e B # R | [ 2 $ 7 4 C. X6 1 [ $ $ [ [ 8 , @ v.i.4 2 [ [ $ $ $ $ 7 6 Q R =.N.~.1 2 $ $ [ $ $ $ ",
"$ $ $ $ $ $ $ $ $ $ $ $ $ $ $ $ $ $ [ [ [ [ 7 7 ..x 7.- j G e.X 6 [ 2 [ 2 [ P - J B e 1 [ [ $ $ +.$ $ $ $ [ [ 7 ^ R Q.O u $.7 7 6 X 4.N.P 6 7 $ $ $ $ $ [ [ 7 1 C.OXE 7 [ [ [ $ $ $ $ $ $ [ $ [ 1 t B X.x q [ 2 $ $ $ $ $ [ 2 4 Z J Y R ( [ 2 2 4 / B.# S q [ [ [ [ [ 1 e M L.R ( $ $ $ $ q `. X6 7 [ [ $ [ [ 8 B @ v.i.4 2 [ $ $ $ $ [ 2 4 ^ N.d.R C.1 2 $ [ [ $ $ $ ",
"$ $ $ $ $ $ $ $ $ $ $ $ $ $ $ $ $ $ $ $ $ $ [ $ 4 f z.7.gXm + P 1 [ [ [ 2 2 C O.W M e 1 [ $ $ [ [ $ [ $ $ [ [ 2 e S - i G.5 7 7 6 N -.+ Q 6 7 [ $ $ $ $ $ [ 7 1  XOX/ 1 [ [ $ $ $ $ $ $ $ [ $ 2 1 { M % S q 2 2 $ $ [ $ $ [ [ 4 M.R 2.@ w [ [ 2 4 u.S L.s q $ [ [ [ $ 7 e M @ Y N ` ` < *Xp D `.@.7 [ [ $ [ [ 5 B J h ^ 4 2 [ $ $ $ $ $ 2 4 ( * d.' ` 4 7 $ [ $ $ $ $ ",
"$ $ $ $ $ $ $ $ $ $ $ $ $ $ $ $ $ $ $ $ $ $ [ [ 1 / 9 X.>.Y j q 7 $ [ [ 2 7 v -.2., e 1 $ $ $ $ [ [ [ $ $ [ [ 7 t B J i B 5 7 7 6 a -.m G 6 7 [ $ $ $ $ $ $ 7 4  XOX/ 1 2 [ $ $ $ $ $ $ $ [ $ 2 1 t M O.S q 2 [ $ $ [ $ $ [ [ 4 G R % J ^ $ 2 2 4 u.B.' s o.$ [ $ [ [ 1 t , O rXy %.%X= ,.&.i oX4 7 [ [ $ [ [ 8 , V.h ^ 4 2 [ $ $ $ $ $ 2 1 e x 7.L.P 4 7 $ $ $ $ $ $ ",
"$ $ $ $ $ $ $ $ $ $ $ $ $ $ $ $ $ $ $ $ $ $ [ [ 7 8 f J =.; ` 4 2 $ [ [ 2 7 oXX.2.x w 1 $ $ [ $ $ $ $ $ $ [ [ 7 q u J 0.B 5 7 7 6 a 4.N.C $.7 [ $ $ $ $ $ $ 7 1 0XX ^ 7 [ [ $ $ $ $ $ $ $ [ $ 2 1 t B % S q 2 2 $ $ [ $ $ [ [ 4 K ; 2.o / $ 2 2 4 ` B.L.s q [ [ 3.[ [ 1 e e.O.=.p U.b b 6Xm D `.4 7 [ $ $ 2 [ 8 , V.h i.4 2 [ $ $ $ $ $ 2 4 e x =.; P 4 7 $ $ $ $ $ $ ",
"$ $ $ $ $ $ $ $ $ $ $ $ $ $ $ $ $ $ $ $ $ $ [ $ 7 4 ^ +  .x t 7 2 $ $ [ 2 7 T X.4.N.u.7 $ $ [ $ [ [ [ $ $ $ [ 2 8 j @ O , 8 7 7 5 a 4.R v 5 7 [ $ $ $ [ $ [ 7 4 0XOX^ 7 2 [ $ $ $ $ $ $ $ [ $ 2 1 t B % S q 2 2 $ $ [ $ $ [ [ 4 K R 2.@ E [ 2 [ 4 I B.; s q 2 [ 3.3.[ 1 e M 9 R | $ $ $ $ e `.0X@.7 [ [ [ 2 2 8 d V.S i.4 2 $ $ $ $ $ $ 2 1 ] B.d.' ` 4 7 $ $ $ $ $ $ ",
"$ $ $ $ $ $ $ $ $ $ $ $ $ $ $ $ $ $ $ $ $ $ $ [ 2 4 e h 4.B 8 2 [ $ $ $ 2 7 C 4.X.; G 4 $ [ $ $ [ [ [ $ $ $ $ 2 8 a @ O.u 5 7 7 6 a 4.D C $.7 [ $ $ $ $ $ [ 7 4 0XOXw 1 2 [ $ $ $ $ $ $ $ $ [ 2 1 t B 4.p q [ 2 $ $ $ $ $ [ [ @.A # O.# w [ 2 [ 4 ` B.' d q [ [ $ [ [ 1 t u ' ; w $ 2 [ 7 $. X X6 7 2 [ [ 2 [ 8 , V.h i.4 2 [ [ $ $ $ $ 2 4 | + A.' ` 1 7 $ $ [ [ $ $ ",
"$ $ $ $ $ $ $ $ $ $ $ $ $ $ $ $ $ $ $ $ $ $ $ $ 2 4 t h -.B 5 2 [ $ $ [ 2 [ I % z.V.k 6 [ [ $ $ [ [ [ [ [ [ $ 2 q a R J f @.2 7 6 a 4.N.C $.7 $ $ $ $ $ $ $ 7 6 0XOXi.1 [ [ [ $ $ $ $ $ $ $ [ 2 1 t , X.* { 2 [ $ $ $ $ #.[ [ 6 N '.O.R ( [ 2 2 4 ` B.' , 8 $ [ $ [ [ 1 t u @ > w $ [ [ 2 1 9X X6 7 2 [ $ [ 2 8 , Y h i.4 [ $ +.$ $ $ [ 7 6 P R 6.R ^ 1 2 $ [ [ [ [ $ ",
"$ $ $ $ $ $ $ $ $ $ $ $ $ $ $ $ $ $ $ $ $ $ $ $ 2 4 t h 4.M 8 2 2 $ $ $ [ [ E @ 4.% j 5 2 2 $ $ [ [ [ $ $ [ $ 7 q u R # v 1 2 2 6 j 0.D C 5 7 [ $ $ $ $ $ [ 7 4 0XOXi.1 2 [ [ $ $ $ $ $ $ $ [ 2 1 t , 4.x q 2 [ $ $ $ [ [ [ [ 5 u % Y * t $ [ [ 4 ` B.' d q [ [ $ [ [ 1 t R.@ ; | $ [ $ 2 7 o.bX1 7 [ [ $ [ 2 8 d W h i.4 [ [ $ $ $ $ $ 7 5 A ' d.+ e 7 2 $ $ $ [ [ $ ",
"$ $ $ $ $ $ $ $ $ $ $ $ $ $ $ $ $ $ $ $ $ $ $ $ 2 4 t h 4.u 5 2 2 $ $ [ [ $ ( R -.4.S 8 2 2 [ $ $ [ 3.+.+.[ [ 7 e S ; N.` 1 2 2 6 j -.R v 5 7 [ $ $ $ $ $ $ 7 6 0XOX| 7 2 [ [ $ $ $ $ $ $ $ [ 2 1 t , 4.* { 2 [ $ $ $ [ [ 2 [ q x 4.# u 8 [ [ [ 4 ` B.' d q [ [ +.$ $ 1 e M # ; | $ [ $ [ 2 4X4X2 [ $ $ $ 2 [ q S W h i.4 2 [ $ $ $ [ [ 1 q X J 7.s 8 7 2 $ $ $ $ $ $ ",
"$ $ $ $ $ $ $ $ $ $ $ $ $ $ $ $ $ $ $ $ $ $ [ $ 2 4 e h O.M 8 2 [ $ $ [ [ [ q S % O 3 ] 2 2 [ [ [ [ +.+.+.[ [ 7 ( + R , ( 1 2 2 6 a -.R T 5 7 $ $ #.$ $ $ [ 7 5 NXF ( 1 [ [ $ $ $ $ $ $ $ $ [ 2 1 ..h i x q 2 [ $ $ $ $ [ 7 2 _ ; 4.R A $.2 2 [ 4 u.B.# , q [ [ +.$ $ 1 e n # ; r [ [ +.$ $ $ $ $ $ $ $ $ 2 2 q S W h | 4 [ [ $ $ $ [ [ 7 e s - O X 6 2 [ $ $ $ $ +.$ ",
"$ $ $ $ $ $ $ $ $ $ $ $ $ $ $ $ $ $ $ $ $ $ [ [ 2 4 e h O.u 8 2 [ $ $ $ [ [ 5 f V.w.W Q 1 7 [ [ [ $ +.$ [ [ [ [ ~ ; N.x.5 7 2 2 6 N <.L.f 8 7 $ #.#.#.$ $ [ 1 {.`.F t 7 $ $ #.$ $ $ #.$ $ [ $ 2 1 ] h O.s q [ [ $ $ $ #.$ 7 6 v % U S _ 1 $ $ [ 4 ` B.' d q $ [ 3.[ $ 1 t n ; R | [ [ $ $ $ $ $ $ [ [ $ [ 2 [ 8 , V.B | 4 [ $ $ $ #.[ 2 1 K 9 V.' Q 4 2 [ [ [ $ $ $ $ ",
"$ $ $ $ $ $ $ $ $ $ $ $ $ $ $ $ $ $ $ $ $ $ [ [ 7 4 e h O.R.5 2 2 $ $ [ [ 2 6 I m U O.f 8 1 [ [ $ $ +.$ [ 2 2 7 C J S ^ 4 2 [ [ 4 f 0.@ u t 1 [ $ $ #.$ $ [ 1 ..x.x.q 7 $ $ $ $ $ $ #.#.$ [ [ 2 1 ] h 4.S q [ 2 $ $ $ $ 2 1 t M 4.O.b 6 7 $ [ [ 4 ` B.' s q $ [ [ [ [ 1 e n ' 3 | [ 2 $ $ $ $ $ [ 2 eXVX1 7 2 q s J h ^ 4 [ $ $ $ $ [ 2 8 u 4.@ R.t 1 [ [ $ $ $ $ $ $ ",
"$ $ $ $ $ $ $ $ $ $ $ $ $ $ $ $ $ $ $ #.#.$ [ $ 7 4 ( h -.B 8 2 [ $ $ $ $ [ 1 q j 4.i * E @.[ [ +.$ $ [ [ 2 7 6 F J N 8 1 2 [ [ 1 k Y V.p ( 1 [ [ $ #.#.[ 2 6 C.OX`.5 7 [ [ [ $ $ $ $ $ $ [ [ 2 4 _ h X.p q 2 2 $ $ $ [ [ 6 b ; -.R r 7 2 [ [ [ 4 ` B.' s 8 $ [ [ [ [ 1 e u ; 3 | [ [ $ $ $ [ [ 2 4 tX X@.1 7 q S W F.` 4 $ $ +.[ [ 7 4 ^ D d.R I 6 2 $ $ $ $ $ $ $ $ ",
"$ $ $ $ $ $ $ $ $ $ $ $ $ $ $ $ $ $ $ #.#.$ [ [ 7 6 | S -.B 8 2 [ $ $ $ $ [ 7 1 I Y 7.Y j 8 [ [ a.#.$ [ $ 2 1 ~.B R I 1 2 [ [ [ 1 G # - # Q 1 2 2 $ #.$ [ 2 5 T j  X4 7 [ [ [ $ $ $ $ $ [ [ [ 7 1 | S X.p q 2 2 $ $ $ [ $ r m 2.# k 6 2 2 [ [ [ 4 I F.' s q [ [ 3.[ [ 1 e u ; 3 | 2 2 $ $ $ [ [ 2 8 x.NX@.4 1 t * O.=X` 6 [ $ +.+.[ 7 t j V.D.N 5 7 [ $ $ $ $ $ $ [ $ ",
"$ $ $ $ $ $ $ $ $ $ $ $ $ $ $ $ $ $ #.$ $ $ [ $ 2 6 i.B.O.B 8 2 2 [ [ [ $ $ 2 2 { p 0.U # ~ 2 2 a.a.$ [ $ 7 8 v v.X q 7 [ [ $ [ 7 w + V.Y f 6 2 [ $ $ [ 2 $ e h n ..1 7 [ [ [ [ $ #.#.#.[ [ [ 2 4 | =Xi + t 7 2 $ [ [ 7 o.X 4.O.X q 1 [ [ [ [ [ 4 ` B.@ p o.$ $ [ $ $ 1 e B # R w [ 2 $ $ [ $ $ 2 ( n 0X4 1 1 t * -.D v 6 2 [ 3.[ $ $.f V.@ * | 2 2 [ $ $ $ $ $ [ $ $ ",
"$ $ $ $ $ $ $ $ $ $ $ $ $ $ $ $ $ $ $ $ $ $ [ $ [ 4 ! +  .x q [ $ $ 3.[ $ [ [ [ 4 < m U 7., e 1 [ $ $ [ $ 4 G B.k ..1 2 [ $ $ $ 7 8 f @ 7.D / 1 $ $ $ $ $ 5 k ' a 5 2 [ $ $ [ [ [ $ $ $ $ +.[ 2 4 ` D 7.# (.7 [ $ $ $ e , @ 4.s t $ 2 [ [ [ [ $ 1 M.D W m q $ $ [ [ $ 2 I D % :.G $ $ $ $ $ $ $ 4 T =XP 7 7 $ e D 4.V.u 8 $ $ $ [ q k J 4., | 4 2 $ $ $ $ $ [ [ $ $ $ ",
"$ $ $ $ $ $ $ $ $ $ $ $ $ $ $ $ $ $ $ $ $ #.2 2 5 u.s O.*.% j ( 5 2 s.3.$ [ [ [ 7 6 Q J 6.4.* | $ $ $ $ 8 G S x | 7 2 $ $ $ $ [ 2 4 ( x 6.7.# V t 4 @.q ` , ; =XI 1 [ $ #.$ $ $ $ $ $ $ $ [ 2 1 w S z.c  .m ` 5 4 t v * O # N t 7 $ [ $ $ $ 2 4 w *  .6.0.b 8 7 [ 7 4 w p 7.: 6.m M.| t 8 8 q E f ; - I 1 6 e N -.6.} Y M.5 6 q G 3 Q.V.d e 2 2 3.3.+.+.$ $ $ $ $ $ $ ",
"$ $ $ $ $ $ $ $ $ $ $ $ $ $ $ $ $ $ $ $ [ [ 1 ~ S -.y &.c.y 8.:.B | 4 2 2 [ [ [ 2 2 $.v # A.*.o s.U.b a 3 ; j | 1 [ $ $ [ [ [ [ [ 2 4 G J A.y 9.U Y n.j.. 6.; G 5 7 [ 3.3.[ [ $ +.$ [ [ [ 7 q f o y L p.  S.%X<.<.U =.Y d I @.[ [ $ $ [ 2 2 t G.Y y   H.&.>.W f 8 w S 0.&.s.7Xs.) y.q.T.z I.T.= : =.@ Q 8 b Y c y.  ) 1.T.O.O.g.7.-.p P 8 7 $ [ [ $ +.+.$ $ $ $ $ $ $ ",
"$ $ $ $ $ $ $ $ $ $ $ $ $ $ $ $ $ $ [ [ 2 [ 1 ! n s S , yX).* S F ..1 [ [ [ $ #.[ $ 2 1 | B <.6.y 9.: U @ N q $ [ [ [ 3.[ [ [ $ 3.[ 2 6 ~ , /.,.t.1.5.q.<.d ^ 1 2 2 [ 3.[ [ [ [ $ #.#.#.$ 7 q k B p S ).S * 3 & > S V / 5 $ $ [ [ [ [ $ [ 2 { X S * S , <X+ * oX8 e j S p * S S p m m + m + + * ).j v t 5 v S p )., ).S m > 3 * N ` 5 $ $ [ [ [ [ [ $ $ $ $ $ $ $ $ $ ",
"$ $ $ $ $ $ $ $ $ $ $ $ $ $ $ $ $ $ $ $ $ $ [ $ $ $ $ $ $ $ $ $ $ [ [ $ $ $ $ [ $ $ $ $ $ @.] C N f k P 8 $ $ #.$ $ $ $ $ $ $ $ [ $ $ $ $ 4 _ G b k v ` ..7 $ [ [ $ $ #.#.$ $ $ $ $ #.#.$ [ $ $ $ $ $ $ $ $ $ $ $ $ $ $ $ $ $ $ $ $ $ $ $ $ $ $ $ $ $ $ $ $ $ $ 2 [ $ $ $ $ $ $ $ $ $ $ $ $ $ $ $ $ $ $ [ ZX+.$ $ $ $ $ $ $ $ +.$ $ $ $ [ $ $ $ $ $ $ $ $ $ $ $ $ $ $ ",
"$ $ $ $ $ $ $ $ $ $ $ $ $ $ $ $ $ $ $ $ $ $ $ $ $ #.#.$ #.#.#.$ #.#.$ $ $ $ $ [ [ $ $ $ $ $ $ $ $ $ $ $ $ $ $ $ $ $ $ [ [ $ $ $ $ $ $ $ $ $ $ $ $ $ $ $ $ $ #.$ $ [ [ $ $ $ $ $ $ $ $ $ $ $ $ $ $ $ $ #.#.$ $ $ $ $ $ $ $ $ [ $ $ $ $ $ $ $ $ $ $ #.$ $ +.$ #.#.#.#.#.#.#.#.#.#.#.#.#.#.#.$ $ $ #.$ $ $ $ $ $ $ $ $ $ $ $ $ $ $ $ $ $ $ $ $ $ $ $ $ $ $ $ $ $ $ $ $ $ ",
"$ $ $ $ $ $ $ $ $ $ $ $ $ $ $ $ $ $ $ $ $ $ $ $ $ $ $ $ $ $ $ $ $ $ $ $ $ $ [ [ [ $ $ $ $ #.#.$ $ $ #.$ $ [ [ [ $ $ $ $ $ $ $ $ $ $ $ $ $ $ $ $ $ #.$ $ $ $ $ $ $ $ $ $ $ $ $ $ $ $ $ $ $ $ $ $ +.+.+.$ $ $ $ $ $ $ $ $ $ $ $ $ $ $ $ $ $ $ $ $ $ $ $ $ $ $ $ #.$ #.$ #.#.#.#.$ #.#.#.$ $ $ $ $ $ $ $ $ #.#.#.$ $ $ $ $ $ $ $ $ $ $ $ $ $ $ $ $ $ $ $ $ $ $ $ $ $ $ $ ",
"$ $ $ $ $ $ $ $ $ $ $ $ $ $ $ $ $ $ $ $ $ $ $ $ $ $ $ $ $ $ $ $ $ $ $ $ $ $ $ $ $ $ [ $ $ [ [ $ $ $ $ $ [ [ $ $ $ $ $ $ $ $ $ $ $ $ $ $ $ $ +.$ $ $ $ $ $ $ $ $ $ $ $ $ $ $ $ $ $ $ $ $ $ $ $ $ $ $ $ $ $ $ $ $ $ $ $ #.$ $ $ $ $ $ $ $ $ $ $ $ $ $ $ $ $ $ $ $ [ [ $ $ $ $ $ $ $ $ $ [ $ +.$ $ $ $ $ $ $ $ $ $ $ $ $ $ $ $ $ $ $ $ $ $ $ $ $ $ $ $ $ $ $ $ $ $ $ $ $ "
};
