/* XPM */
static char *_a64bacaa3d84e1cfde973528ca6f778_12[] = {
/* columns rows colors chars-per-pixel */
"178 40 256 2 ",
"   c #FE0009",
".  c #E40B12",
"X  c #991314",
"o  c #CD1213",
"O  c #DD1012",
"+  c #B80509",
"@  c #CA1721",
"#  c #C80B11",
"$  c black",
"%  c #D4131A",
"&  c #C70509",
"*  c #B60B10",
"=  c #ED040A",
"-  c #CD1319",
";  c #C4181A",
":  c #EC0912",
">  c #C51112",
",  c #A90B11",
"<  c #730000",
"1  c #1A0000",
"2  c #0A0000",
"3  c #BD0F12",
"4  c #220000",
"5  c #320000",
"6  c #2A0000",
"7  c #120000",
"8  c #3A0000",
"9  c #C51317",
"0  c #D40B12",
"q  c #430000",
"w  c #630000",
"e  c #530000",
"r  c #5B0000",
"t  c #4B0000",
"y  c #F4080A",
"u  c #A21112",
"i  c #DC100C",
"p  c #B41111",
"a  c #9A0B11",
"s  c #AC1212",
"d  c #AC0A0B",
"f  c #940A0B",
"g  c #BC1318",
"h  c #AC191B",
"j  c #9C090A",
"k  c #8C090A",
"l  c #EE0303",
"z  c #E6040A",
"x  c #B41417",
"c  c #ED0411",
"v  c #830A0A",
"b  c #890C0F",
"n  c #A31A1C",
"m  c #BB0E0B",
"M  c #A41417",
"N  c #97100E",
"B  c #A6100B",
"V  c #940407",
"C  c #7B0909",
"Z  c #8C0307",
"A  c #840307",
"S  c #AF0101",
"D  c #BD1814",
"F  c #921F1F",
"G  c #780B10",
"H  c #E5100B",
"J  c #CC1814",
"K  c #7B0307",
"L  c #FC080C",
"P  c #73090A",
"I  c #730306",
"U  c #DE040F",
"Y  c #D10202",
"T  c #840903",
"R  c #C11E22",
"E  c #670B11",
"W  c #D20411",
"Q  c #740803",
"!  c #6B090A",
"~  c #6B0307",
"^  c #640307",
"/  c #68100E",
"(  c #580B11",
")  c #FC0803",
"_  c #5B0306",
"`  c #6C0501",
"'  c #C61D1B",
"]  c #530307",
"[  c #040000",
"{  c #470B11",
"}  c #E70415",
"|  c #5C0903",
" . c #DE0419",
".. c #4B0406",
"X. c #DC1813",
"o. c #3B090A",
"O. c #D50416",
"+. c #000004",
"@. c #230602",
"#. c #000400",
"$. c #310802",
"%. c #EB080C",
"&. c #F70407",
"*. c #EF080D",
"=. c #E30C0C",
"-. c #D71015",
";. c #E70C0E",
":. c #D31014",
">. c #E7080E",
",. c #F3040D",
"<. c #D71010",
"1. c #FB0406",
"2. c #D31414",
"3. c #040004",
"4. c #D81416",
"5. c #F90400",
"6. c #EB0C0E",
"7. c #E20C08",
"8. c #F00C0E",
"9. c #F2000D",
"0. c #D8140F",
"q. c #F00C08",
"w. c #E50410",
"e. c #AC1319",
"r. c #9C0408",
"t. c #FA0000",
"y. c #F8040C",
"u. c #6B0000",
"i. c #630803",
"p. c #FF0406",
"a. c #000404",
"s. c #EF0808",
"d. c #E41014",
"f. c None",
"g. c #E20808",
"h. c #F30407",
"j. c #DC0309",
"k. c #D40A0B",
"l. c #C80F0A",
"z. c #DC171C",
"x. c #891416",
"c. c #F40804",
"v. c #AA2325",
"b. c #840001",
"n. c #D3030A",
"m. c #DD0B0C",
"M. c #7B0000",
"N. c #BC191B",
"B. c #B4191A",
"V. c #CD181A",
"C. c #630A0A",
"Z. c #050400",
"A. c #E50B18",
"S. c #F70512",
"D. c #DD1119",
"F. c #B4201F",
"G. c #A4090B",
"H. c #FB0004",
"J. c #7B0804",
"K. c #530909",
"L. c #C51814",
"P. c #EE0A19",
"I. c #E50303",
"U. c #8C0001",
"Y. c #430306",
"T. c #E70808",
"R. c #A31813",
"E. c #E70C08",
"W. c #EB0C08",
"Q. c #D41813",
"!. c #A40408",
"~. c #59100D",
"^. c #E3080C",
"/. c #DD0B11",
"(. c #78100D",
"). c #AC0309",
"_. c #080005",
"`. c #7D1E1E",
"'. c #D4181A",
"]. c #791416",
"[. c #E70D1E",
"{. c #3A0306",
"}. c #4B090A",
"|. c #94191E",
" X c #681516",
".X c #5B090A",
"XX c #E60804",
"oX c #89100E",
"OX c #95282A",
"+X c #320306",
"@X c #360C0F",
"#X c #EF0419",
"$X c #270C0E",
"%X c #EB0808",
"&X c #FF0004",
"*X c #8C0804",
"=X c #B51B22",
"-X c red",
";X c #D3100F",
":X c #ED0804",
">X c #43090A",
",X c #F70005",
"<X c #AC0903",
"1X c #9C0001",
"2X c #9C0803",
"3X c #000008",
"4X c #120504",
"5X c #220405",
"6X c #940101",
"7X c #FF0400",
"8X c #F30D15",
"9X c #551B1F",
"0X c #711B1F",
"qX c #DD0203",
"wX c #2A0406",
"eX c #1A0406",
"rX c #F8000D",
"tX c #591417",
"yX c #A40101",
"uX c #530903",
"iX c #31090A",
"pX c #D3140F",
"aX c #F30300",
"sX c #B41814",
"dX c #AC1813",
"fX c #940903",
"gX c #DD0803",
"hX c #A40904",
"jX c #D30903",
"kX c #471617",
"lX c #430802",
"zX c #381415",
"xX c #D30B19",
"cX c #DD0C19",
"vX c #2A0A0A",
"bX c #4E1F1F",
"nX c #33110E",
"mX c #220908",
"MX c #5A2427",
"NX c #772B2E",
"BX c #47100E",
"VX c #2B1112",
"CX c #1B0A09",
"ZX c #050404",
"AX c #3A0803",
"SX c #1A0803",
"DX c #2A0803",
"FX c #4B0903",
"GX c #0C0709",
"HX c #26100C",
"JX c #11090B",
"KX c #F0100C",
"LX c #412422",
"PX c #000800",
"IX c #000808",
"UX c black",
/* pixels */
"#.$ [ [ [ [ [ [ [ $ $ #.#.$ $ $ $ $ $ $ $ $ $ $ [ [ $ $ $ $ $ $ $ #.#.#.#.#.#.$ $ $ $ $ +.$ [ [ $ $ $ [ $ $ #.$ $ $ $ $ $ $ $ $ $ $ #.$ $ $ $ $ #.$ $ $ $ $ $ $ $ $ $ #.$ $ $ #.#.$ $ $ $ $ $ $ $ $ $ $ $ $ $ $ $ [ $ #.#.$ $ $ $ $ $ $ $ $ $ $ $ $ $ $ $ $ $ [ $ $ $ $ $ $ $ $ [ [ [ [ [ #.#.#.#.$ $ $ $ #.$ [ $ $ $ #.#.#.$ #.#.#.$ $ [ [ [ $ $ $ $ $ [ [ [ $ $ $ ",
"[ [ $ $ $ $ $ $ $ $ $ $ $ $ #.#.#.$ [ +.+.+.+.$ $ $ $ [ $ 3.$ $ $ $ #.#.$ $ [ [ $ $ a.a.+.a.#.+.$ $ [ [ #.#.$ $ $ $ $ $ #.#.$ $ #.#.$ $ $ $ $ $ $ $ +.3.+.$ $ $ $ $ #.$ $ $ [ [ [ $ +.+.+.+.+.3.3.[ [ [ $ $ $ $ $ [ $ $ $ [ [ [ [ [ [ $ [ $ [ [ [ $ $ [ $ #.$ $ $ [ [ $ $ #.$ $ $ $ $ [ [ [ $ $ +.+.$ $ $ $ $ [ $ [ $ [ #.$ +.+.$ #.$ #.$ $ #.$ $ $ $ $ $ $ $ [ [ [ ",
"$ $ $ $ $ [ $ [ $ $ $ $ $ #.#.$ $ $ #.#.+.$ $ $ $ $ $ [ [ $ $ $ $ $ $ $ +.$ $ $ $ #.$ $ $ $ #.$ $ $ $ #.$ #.#.$ $ $ $ $ +.+.+.+.+.+.+.$ $ $ $ #.$ $ 3.+.+.+.+.+.$ $ $ $ $ $ $ $ $ $ $ $ $ $ $ $ $ $ $ #.#.$ $ $ a.a.+.+.$ $ [ [ [ [ [ $ $ $ $ $ $ $ #.$ $ $ $ $ #.$ $ $ $ $ $ $ $ $ $ $ $ $ +.#.a.#.$ $ $ $ $ $ #.#.#.#.$ #.#.#.$ $ $ $ $ $ $ [ [ [ [ $ $ $ $ $ [ $ ",
"$ $ $ $ $ $ $ $ $ $ $ [ [ 2 4X$ $ $ $ $ $ $ 2 2 [ [ [ [ $ $ #.#.$ #.$ [ 2 [ $ $ $ $ 7 ] A u G.u A ( 4 $ $ [ $ $ +.[ [ $ $ #.$ $ $ $ $ $ $ [ [ $ $ +.3.3.+.+.a.#.$ $ $ $ [ $ $ $ $ $ #.#.[ [ 2 6 .._ ` G v b b v P ] @.$ $ #.#.#.$ $ $ $ [ [ 2 2 $ $ $ $ $ $ $ $ $ 2 7 1 @.6 6 4 1 1 7 1 1 4 6 6 4 eX[ $ [ [ $ 4 q ( / G v A b b v ^ 8 $ $ $ $ $ [ [ [ [ $ $ $ $ [ $ ",
"$ #.#.$ $ $ $ $ $ [ 2 2 5 v S S <XB , S 3 , / 4 7 2 2 7 .Xj S ).<Xp p F { 7 2 7 1 e f 9 z.%.9.S.9.U p ! 1 $ $ $ [ 2 2 q f x p S S S + 3 M P 6 [ $ [ 2 { f e.p p S d R.Q 4 2 [ $ $ $ [ [ 7 e f 3 4.f.: 8.,.,.c 6.6.cX+ b e 7 $ $ $ [ [ [ [ 7 q x.* 3 + * m 3 p , I 8 I x # J W o J J # Y W k.<.W J g G 4 4 6 Q m 0.. = ,.y 9.%.} ;.i & !.Q 8 $ $ $ $ $ $ $ $ $ $ [ $ ",
"$ #.$ $ $ [ $ [ [ [ [ [ 6 C m  .S.y.&.: /.3 P 4 7 2 2 7 i.x 4.9.t.h.U , ] 4 7 5 G e.# ; V ` M.6Xm z ;.Y a q $ [ $ Z.[ q R.% : t.1.  S.%.R G 6 2 $ [ 2 e B -.y t.1.;.R v 6 [ [ [ [ [ [ [ 7 w S 4.8.5.H.:XY , U.6X+ 0.=.XX; T q 2 $ [ 3.3.[ 1 8 F - P.5.p.p.y.f.> v 8 ~ * i 9.p.p.p.y %XT.%.: = l ,.6.j 5 6 8 k - T.&.  h.;.m Z U.B & . 8.4.d i.1 $ $ $ $ #.+.+.$ [ $ ",
"$ $ $ $ $ +.$ $ [ [ [ [ Z.2 q f z.6.l > E 1 1 2 [ $ [ [ 2 1 | p W + v 8 7 7 4 / D R C 8 $ $ $ $ 5 k # ;.7.a q 7 [ $ [ 7 4 t r.X.6.8.# v q 1 2 [ $ $ [ 1 8 G + Y & a r 4 7 $ $ [ $ $ $ [ 2 1 8 e V o ;.J C 1 $ $ [ t N ;Xi 4., e 7 2 $ #.$ $ 2 1 q f 4.: 2.u r 6 7 [ 2 4 w + . 7.0.V t 8 o.t ^ *XR z.f @.1 7 4 q < R H O.p e $ $ $ $.v ; D.w.D C 8 7 [ [ #.$ $ $ $ $ ",
"+.+.$ $ $ $ [ +.$ $ $ +.$ [ $ t , 2.z R _ 2 7 [ [ $ $ $ $ $ 8 , ; (.4 7 2 @.w j =XA 1 $ [ [ $ $ 2 6 v Y A.@ f 8 [ [ #.$ $ 7 ^ m 4. .k 2 $ $ #.$ $ $ [ [ $ 1 ! X `.8 [ $ $ 3.$ $ $ +.+.#.#.$ $ 2 ] S  .R i.2 2 $ $ $ 6 G g =.-., r 1 [ $ $ $ $ 2 $ _ 9 U m ! 1 $ $ 3.[ [ 4 b W Y m e $ $ $ $ $ [ P =X`.4 7 [ $ $ 6 X % ; j 8 2 $ #.$ 1 t u 0.X.2.A 5 7 [ $ [ [ $ $ $ ",
"$ $ $ $ $ $ $ [ $ $ $ +.+.[ 2 4 ` N.H V.v $.7 [ [ $ $ #.2 7 C.F.e.q 7 7 $ q B F.T 8 7 $ [ [ [ [ 2 $ 8 , 4.4.@ P 1 7 2 [ $ 1 e M @ Y G 7 [ [ $ $ $ $ +.[ 2 4 ( x.0X6 7 $ [ +.$ [ $ $ $ #.#.$ 2 7 t h D.D ( 2 2 $ $ [ 2 7 I # z.O., q 2 2 [ $ +.2 2 t m -.h i.1 2 $ +.[ [ 4 K # ; B q 7 [ [ +.$ 7 ( n ].4 7 [ [ $ 4 k @ D N 8 2 [ [ [ [ 1 t j V.7.+ E 4 2 $ [ $ $ [ $ ",
"#.#.$ $ $ $ $ $ $ $ $ $ [ [ 2 1 q B U -.e.( 1 [ [ [ [ $ 1 o.v v.C 6 2 7 7 G # B.] 7 2 $ [ [ $ +.[ [ 1 / * 0.U , t 1 2 [ [ 1 t j @ - Q $ [ $ $ $ $ $ $ $ [ 4 .Xx. X6 7 [ [ $ $ $ $ #.$ [ [ [ 2 1 { , z.D ] 2 2 $ $ 3.$ $ 4 b ; 7.W C 4 7 2 [ 3.2 2 t m 4.S C.4 2 [ $ [ [ 4 K # R R.q 7 [ [ $ $ 2 8 x.0X4 7 [ [ [ 4 v ; N.f 8 2 $ #.$ $ 2 1 t B 7.V., ( 1 [ [ $ $ 3.[ ",
"$ $ $ $ $ $ $ $ $ $ $ $ $ $ [ 2 7 (.o 4.@ b 6 [ [ $ [ 2 4 I j v q 1 2 1 q a J j 5 2 [ $ $ [ $ $ $ [ 1 8 F 2.. R C 5 2 [ [ 7 q j @ W G [ [ $ #.#.$ $ $ $ [ 1 | x.E 4 7 [ [ $ $ $ $ $ $ [ [ [ 2 1 q , D.R _ 2 2 $ $ 3.$ [ 1 q N 4.O B e 4 [ [ 3.2 2 t + 4.h | 4 2 [ $ [ [ 1 v # L.M q 7 [ [ $ $ 2 4 tXf.7 2 [ 2 [ 4 v # ; j q 2 $ $ $ $ [ 2 1 G W O.@ k @.[ [ $ $ [ $ ",
"$ $ $ $ $ $ $ $ $ $ $ $ $ $ [ 2 2 t S 2. .* t 2 2 [ [ [ 8 X n ~.1 2 2 6 ` h R K 4 [ [ #.$ [ $ $ [ $ 7 7 i.9 ;.Q.s e 7 2 [ 7 q j @ W G 2 2 [ $ #.#.$ $ $ [ 1 .Xx. X4 7 [ [ [ $ $ $ $ $ [ [ [ 2 1 q u  .R C.2 2 $ $ +.$ [ 7 1 E #  .; b 5 2 [ [ 2 2 t * Q.h | 4 2 [ $ [ [ 4 v @ ; B q 7 [ [ $ [ [ 7 5XeX[ [ [ [ 2 4 b @ ; u q 7 [ [ [ $ [ [ [ t s V.4.x ..2 2 $ $ $ $ ",
"$ $ $ $ $ [ $ $ $ $ $ $ $ $ $ [ 2 6 C R U Y G 6 1 2 2 2 ~.h N 5 2 2 7 8 f F.B.u.1 [ [ $ $ +.[ [ [ [ 2 [ q s d.z.# ` 7 2 2 7 q j # W J.[ 2 [ $ #.#.$ $ $ [ 1 | x. X4 7 [ [ $ $ $ $ $ $ [ [ [ 2 1 q u  .R | 7 2 $ $ +.$ $ [ 2 q p i 2.* e 2 2 [ 2 2 t m -.h | 4 2 $ $ [ [ 1 A @ ' M q 7 [ [ [ [ [ [ $ $ $ $ +.[ [ 4 b @ R j q 2 [ [ [ [ [ [ 2 5 v D 7.J P 1 7 3.$ $ $ ",
"$ $ $ $ $ $ $ $ $ $ $ $ $ $ $ $ [ 1 q j X.X., t 4 2 1 5 `.v.Q 1 2 2 7 r p R , r 1 [ [ $ $ +.$ [ [ [ [ [ @.F O.D.z.k 4 2 [ 7 q j @ 0 K 2 2 [ #.$ $ $ $ $ [ 1 .Xx. X4 7 [ [ $ $ $ $ $ $ $ [ [ 2 1 8 u  .R i.7 2 $ $ +.$ #.$ $ 6 V Y 4.o ` 2 2 [ 2 [ t g 4.h _ 4 2 $ $ [ $ 1 A ' ; B q 7 [ [ [ [ $ $ [ $ $ $ +.3.$ 4 v # R j q 7 [ $ $ [ [ [ 2 4 e , U 2.f 8 1 [ $ $ $ ",
"$ $ $ $ $ $ $ $ $ $ $ $ $ $ $ $ $ 2 1 Q Y i R v $.7 6 ^ F v o.7 2 2 2 I @ ; j t 1 [ [ $ $ $ $ $ $ [ [ [ 7 I R 0.A.B 5 7 2 1 t u @ Y G [ 2 [ $ $ $ $ $ $ $ 4 | F  X6 7 [ $ $ $ [ $ #.#.$ $ $ 2 1 8 u  .; i.1 7 $ $ +.$ #.$ [ 1 ` + O.4.v 7 7 2 2 $ t g 4.h _ 4 2 [ $ $ [ 1 v 9 ; B q 7 [ [ 2 7 VX>X1 7 [ $ +.[ [ 6 A J L.u q 7 [ $ $ [ [ $ $ 7 5 X X.4.M e 1 [ [ [ $ ",
"$ $ $ $ $ $ $ $ $ $ $ $ $ $ $ $ $ 2 2 t S % W S t 2 q N OXK.1 7 2 2 7 v W ; N q 1 [ [ $ $ $ $ $ $ $ [ [ 1 | x Q.H B.{ 1 2 1 t j @ W G [ 2 [ $ $ $ $ $ $ [ 4 | F  X6 7 [ $ $ $ [ $ #.#.$ $ $ 2 7 8 u  .R i.1 7 $ $ +.$ $ $ $ 1 e B.O.U N 6 7 [ 2 $ e 3 z.h ( 4 2 [ $ $ [ 1 K 9 ; B q 7 [ [ 7 4 MX X6 7 [ [ 3.2 2 6 b # ; j q 2 $ $ $ [ [ $ [ 7 4 v 4.z.=XE 4 [ $ $ $ ",
"$ $ $ $ $ $ $ $ $ $ $ $ $ $ $ $ $ [ [ @.A ; -.o v 6 ~ h `.4 2 [ [ 2 4 f 4.# f q 7 [ [ $ $ $ $ $ $ $ $ [ 7 q u 2.;.m | 4 7 1 t u ' W G 2 2 [ $ $ $ $ $ [ [ 4 | OX0X6 7 [ $ $ $ [ $ #.#.$ $ $ 2 7 8 u  .; i.1 7 $ $ +.$ $ $ $ 7 q u W  .n 8 7 [ 2 [ e D X.S _ 4 7 2 [ [ [ 1 K 9 R M q 2 $ $ 2 5  X X6 7 [ $ +.[ [ 4 A # ; j q 2 $ $ $ $ $ $ [ 2 7 G Y 4.R C @.[ $ $ $ ",
"$ $ $ $ $ $ $ $ $ $ $ $ $ $ $ $ $ $ [ 1 e M -.7.* < |.n e 7 [ [ [ 2 6 a O ' k 8 7 [ [ $ $ $ [ [ $ $ $ [ 7 8 F - 6.D ^ 4 7 1 t j ' W G 2 2 [ $ $ $ $ $ [ 2 4 C.F 0X$.7 [ [ $ $ [ $ #.#.$ $ $ 2 7 8 u  .R i.1 2 $ $ +.$ $ $ [ 7 5 k Y 7., q 1 [ 2 2 e 3 4.B ] 4 7 [ $ $ [ 1 G ' ; G.{ $ $ $ $ r |.].6 1 [ [ 3.[ $ 1 A J ; j 8 2 $ +.+.$ $ $ $ 2 7 ~ J z.' b 6 [ [ $ $ ",
"$ $ $ $ $ $ $ $ $ $ $ $ $ $ $ $ $ #.#.2 1 G - l z Y =XG 6 7 [ $ [ 2 5 u O # f q 7 [ $ $ $ $ $ $ $ $ $ [ 7 5 x.# 6.R ! 4 7 1 t u @ Y G 2 2 [ $ $ $ $ $ $ 2 4 | OX0X5 7 [ $ $ $ [ $ #.#.$ [ [ 2 1 8 u D.R | 7 2 $ $ +.$ $ [ [ 7 6 v J 7.B...4 2 2 [ t 3 z.h ] 1 2 $ $ [ $ 7 G ' -.W B b U.V B R @ x.6 7 [ $ $ [ [ 4 A @ ' u q 2 [ $ $ [ [ $ $ 2 7 w ; 4.@ f 5 2 [ [ $ ",
"$ $ $ $ $ $ $ $ $ $ $ $ $ $ $ $ $ $ #.2 2 t + 6.c ;.e.t 1 2 [ [ 2 2 8 B U J j q 7 $ $ $ $ $ $ $ $ $ $ [ 7 6 C ' ;.D ! 4 7 7 t u @ Y G 2 2 [ $ [ $ $ $ [ 2 4 | OX0X5 7 [ [ $ [ $ $ #.#.$ $ [ 2 1 o.u X.D | 7 2 $ $ 3.$ $ [ [ 7 6 v J 7.h ] 1 2 2 [ e g 4.h e 4 2 [ $ [ [ 1 K Y 6.t.q.. z : ,.y  .k 4 7 [ $ [ 2 [ 4 A # ; j q 2 $ $ $ $ [ [ [ 2 [ | ; 4.J f 8 2 [ 3.$ ",
"$ $ $ $ $ $ $ $ $ $ $ $ $ $ $ $ $ $ $ [ [ 6 f % 7. .k 4 7 [ #.$ [ 7 q s 7.- , e 1 [ [ $ $ $ $ [ [ [ $ [ 2 6 P R . D ! @.7 1 t M J o G [ 2 [ $ $ $ $ $ [ 2 4 _ OX0X5 7 [ [ $ [ $ $ $ #.$ $ [ 2 1 q u X.N._ 2 2 $ $ +.$ $ [ [ 7 6 v J 7.S ] 1 2 2 [ ] D 4.h ] 4 2 [ $ [ [ 7 K @ '.o N < u.` b.+ V.x.6 7 [ $ 3.[ [ 4 A # ; j q 2 [ $ $ $ [ $ $ 2 [ | > 4.@ f $.2 [ 3.$ ",
"$ $ $ $ $ $ $ $ $ $ $ $ $ $ $ $ $ $ +.[ 2 4 ` m V.J I 7 2 $ $ #.2 7 8 , H -.x r 1 [ [ $ [ [ [ $ $ $ $ $ 7 @.E D . D ! @.7 1 e B @ o G [ 2 [ $ $ $ $ $ [ 2 4 | OX0X5 7 [ [ [ [ [ $ $ #.$ $ [ 2 1 q u 4.m ( 7 2 $ $ +.$ $ [ [ 7 6 C J 7.S ] 1 2 2 2 ( D 4.h ( 4 2 [ $ [ [ 7 K R D u 8 $ $ $ $ r |.].4 7 [ $ $ [ [ 4 T # ; j q 2 [ $ $ $ [ $ $ 2 2 | & 4.@ f 5 [ [ 3.$ ",
"$ $ $ $ $ $ $ $ $ $ $ $ $ $ $ $ $ #.$ $ $ 1 r , ' ; E 2 [ $ $ $ 2 2 5 R.. 4.m ^ 1 [ [ $ $ $ $ $ $ $ $ $ 2 4 / g . m C.6 7 1 e R.@ Y I [ [ [ $ $ $ $ $ [ 2 4 | OX0X5 7 [ $ $ $ $ $ $ $ $ $ [ 2 1 q u X.m ( 7 2 $ $ $ $ $ [ [ 1 5 k - 7.h t 1 2 2 [ ( R z.v.] 4 2 [ $ [ [ 1 K ; R , t 2 [ [ 7 5 0X X6 7 [ $ $ [ 2 6 b # ; j q 7 [ [ $ $ $ $ [ 2 2 ~ J X.- f $.[ [ +.$ ",
"$ $ $ $ $ $ $ $ $ $ $ $ $ $ $ $ $ $ $ $ $ 7 e u R D w [ [ $ $ [ 2 7 6 j U 4.; I 4 [ [ $ $ $ $ $ $ $ $ $ 2 4 / D . + | 4 7 1 t R.@ Y Q [ [ [ $ $ $ $ [ [ 2 4 | OX0X5 7 2 [ $ $ $ $ $ $ $ [ [ 2 1 q u -.m ( 2 2 $ $ $ #.#.$ [ 1 q j 2.U , q 1 [ 2 2 ( D 4.v.] 4 2 [ $ [ [ 1 K 9 ' s t 7 [ $ 2 4 C. X6 7 [ [ $ [ [ 4 A # ; u q 7 [ [ $ $ $ $ [ 2 7 C %  .@ b 6 [ [ 3.$ ",
"$ $ $ $ $ $ $ $ $ $ $ $ $ $ $ $ $ $ $ $ $ 1 e M R R w [ [ $ $ $ 2 2 6 f i 4.V.K 4 2 [ $ $ $ $ $ $ $ $ $ 7 6 P R  .h t 1 7 1 e , @ :.G 2 2 [ $ $ $ $ $ [ 2 4 | OX0X5 7 [ $ $ $ $ $ $ $ $ [ [ 2 1 q R.4.m ] 2 2 $ $ $ $ #.$ [ 4 e h O.O j 5 7 [ 2 2 ] D 4., e 4 2 [ $ $ [ 1 K 9 ; s t 7 [ $ 2 7 kXf.4 2 $ $ [ 2 [ 4 A 9 ; u q 7 [ [ $ $ $ $ [ 7 4 v O.X.R G 4 [ [ +.$ ",
"$ $ $ $ $ $ $ $ $ $ $ $ $ $ $ $ $ $ $ $ $ 7 e u R D w [ [ [ $ $ [ 2 4 T 0 X.4.f 6 2 [ $ $ $ $ [ $ $ [ [ 7 5 v R 4.R.5 1 2 1 e h V.-.J.7 2 [ $ $ $ $ $ $ 2 4 C.F  X6 7 $ $ $ $ $ $ $ $ $ [ [ 2 1 q , X.+ e 7 2 $ $ $ $ $ [ 2 1 ~ N.4.O k 1 2 [ 2 2 ] D O.B ] 4 2 [ $ [ [ 7 K ; ; , t 7 [ [ [ [ 2 CX2 [ $ $ 3.2 2 4 b # ; j q 7 [ [ $ $ [ [ [ 1 $.k -.4.B.w 4 [ [ $ $ ",
"$ $ $ $ $ $ $ $ $ $ $ $ $ $ $ $ $ $ $ [ $ 7 r u R D | 2 2 [ $ $ [ 2 1 I o i  ., 8 $ [ +.$ $ [ [ [ [ [ [ 7 8 x.R % b 4 7 2 1 ( s 2.4.v 7 2 [ $ $ $ $ $ $ 2 4 / F E 6 7 $ $ $ $ $ $ $ $ $ [ [ 2 1 q B 4.* e 7 2 $ $ $ $ $ [ 2 4 A @ X.-.Q 2 2 [ 2 2 ] g -.B ] 4 2 [ $ $ [ 1 G R ; s t 2 2 [ $ $ $ $ [ $ +.+.3.2 2 4 v ' R j q 2 [ [ $ $ $ $ [ 7 ..B X.4.j t 4 [ [ [ $ ",
"$ $ $ $ $ $ $ $ $ $ $ $ $ $ $ $ $ $ $ $ $ 7 e M ; R w 7 2 [ $ $ [ $ 2 ( p -.;.R ~.2 2 [ #.$ [ [ [ $ [ [ 7 t j N.D E 7 2 [ 1 e , W i k 1 7 2 [ $ #.$ $ [ 2 6 v OXC.4 2 $ $ +.$ +.$ $ $ [ [ [ 2 1 ..B O.* e 2 2 $ $ $ #.$ [ 2 8 d i -.m e $ [ $ 2 2 ] D -.B ] 1 2 [ $ [ [ 1 G ; ; s t 2 [ [ $ #.$ $ 3.[ $ $ $ [ $ 4 b # ; u q 7 [ $ $ $ $ $ [ 4 P D 7.Y `.6 7 $ $ 3.$ ",
"$ $ $ $ $ $ $ $ $ $ $ $ $ $ $ $ $ $ $ $ $ 7 r , ; R w 2 2 [ $ [ [ [ 2 q j - . @ C 6 7 $ $ $ [ [ [ $ [ [ 1 r dX+ u q 7 2 [ 1 e M Y  .N 6 7 2 [ $ $ $ $ 2 2 5 k j ~.1 2 $ $ $ $ +.$ $ $ [ [ [ 2 1 .., 4.m ] 2 2 $ $ $ $ $ 2 [ r ; U V.f 8 2 [ [ 2 7 ] + V.n ] 4 2 [ $ [ [ 1 G R ; s t 2 [ [ $ $ $ [ [ 2 7 mX7 2 [ 4 b # ; j q 7 2 [ $ $ [ [ [ q u @  .D _ 7 2 $ $ +.$ ",
"$ $ $ $ $ $ $ $ $ $ $ $ $ $ $ $ $ $ $ [ [ 1 r , ; R ^ 2 2 [ $ $ $ [ 2 6 P N.=.O.M e 1 [ [ [ [ [ [ $ [ 2 1 G R F.C $.2 [ [ 1 q j Y =.u 8 7 2 $ #.$ $ 3.2 2 q u j ..7 2 $ $ $ $ $ $ $ $ [ [ [ 2 1 t , X.D _ 7 2 $ $ [ [ [ 1 5 k -.U h | 4 [ [ [ 2 2 ] * V.n ] 1 2 [ $ [ [ 1 G ; ' s t 2 [ [ $ $ [ [ 2 1 BX XiX7 2 4 b @ ; j q 7 [ $ $ $ [ 2 7 u.9 W - f 6 2 [ $ [ [ [ ",
"$ $ $ $ $ $ $ $ $ $ $ $ $ $ $ $ $ $ $ [ [ 1 w e.' ; ^ 2 2 [ $ $ $ [ 2 1 q R.=. .' v 4 $ [ +.$ [ [ [ [ $ 6 N @ a q 1 [ $ [ 1 5 k V.;.* e 1 2 $ [ $ +.3.2 2 ] B.j 8 7 2 $ $ [ $ $ $ $ $ [ [ [ 2 1 t , z.D | 7 2 [ [ [ [ [ 4 ` * O 0 C 4 2 [ $ [ 2 2 ] m 4.B ] 1 2 [ $ [ [ 4 G ; ; , t 2 [ [ $ $ [ [ 2 6 (.`.+X1 7 4 k - ; j q 7 [ [ [ $ [ 7 5 N  .2.h | 1 [ [ $ $ $ $ ",
"$ $ $ $ $ $ $ $ $ $ $ $ $ $ $ $ $ $ $ $ [ 1 ^ S ' D | [ [ $ [ 3.$ +.3.2 1 J.O.7.D.s q 2 2 [ [ $ $ $ 2 7 ] F.' ` 7 2 3.+.[ 7 4 Q ' A.; (.6 2 $ $ $ $ 3.2 1 Q N.k 6 2 [ +.$ $ $ $ #.#.$ [ 3.[ 2 1 e h 4.R ^ 1 2 $ [ [ [ $ t S 2.O.S { 2 2 [ $ [ 2 2 ] m -.B ] 4 2 [ $ $ $ 1 G R ' p t 2 $ [ $ $ $ [ 2 q X v 6 7 2 6 f W J B t 7 [ [ $ $ 2 5 Q D 7.R ` 6 1 [ [ [ $ $ $ ",
"$ $ $ $ $ $ $ $ $ $ $ $ $ $ $ $ $ $ #.#.$ 1 ` m @ ; / 7 2 $ #.[ [ 3.3.[ 2 q G.Y H Q.T 6 1 2 [ 3.3.[ 7 t k F.j q $ 2 [ $ $ 2 1 ( g 6.-.S e 7 $ [ [ [ 2 1 ( X =XI 1 [ [ $ [ [ $ $ #.#.#.$ $ $ 2 4 _ B.7.J v 6 7 [ $ $ 7 t u 7.4., ( 1 $ $ $ $ [ 7 1 ~.R z.F.| 4 2 [ +.[ 2 4 k W - * ( $ $ +.+.#.[ 2 1 ` =Xx.6 7 2 6 a -.% m | [ [ $ $ $ 4 K ; - J A 6 7 2 $ [ [ $ $ $ ",
"$ $ $ $ $ $ $ $ $ $ $ $ $ $ $ $ $ $ $ $ $ @.Z o i X.k 7 $ $ $ [ [ a.a.+.2 4 ( e.A.;.9 b 6 $ $ $ $ $ 8 N D F t 4 [ $ $ $ $ [ 2 5 X  .7.U u 8 $ $ $ $ [ | S N.j t 7 [ [ $ $ $ $ $ $ +.+.$ [ $ $ 5 b @ 6.X.e.( $ $ $ 2 ` R -.O S t 2 2 3.$ $ $ $ $ 1 C W z ; v 6 $ $ $ $ $ t p =.7.W b 5 $ $ $ $ $ 7 t a ' b 4 7 [ q * 6.;.X.b 7 $ $ $ t f @ A.D G 8 2 [ $ $ $ [ [ [ [ ",
"$ $ $ $ $ $ $ $ $ $ $ $ $ $ $ $ $ [ 7 Y.G u <.9.y y -.S A ] 1 2 [ [ $ $ [ 7 4 / R d.} i j r 5 1 q ` j # x e [ 2 [ $ #.$ $ [ [ 1 | S  .&.>.& !.b v 6XS o d.+ ^ 4 7 $ [ +.$ $ $ $ $ $ [ [ 7 @.| j 0.= t.&.: l.6Xb 1Xm O.[.; b t 2 $ [ [ [ [ 7 6 ^ B O.l &.= k.r.~ q 4 t f # 6.    t.f.> S u r.u B 3 W D.4.b 6 q v + ;.  1.y.0.u 6XV ).Y  .- s / 4 [ [ $ $ $ +.+.+.$ $ ",
"$ $ $ $ $ $ $ $ $ $ $ $ $ $ $ $ $ 2 7 ! ; 7.%.l T.T.%.6.V.k 8 7 [ [ [ $ $ $ $ 1 _ u X.8.>.U Y & o O @ k q 7 [ [ [ [ $ $ [ [ [ 2 4 | p 6.S.L ) 5.&.y.y  .m ~ 2 [ [ $ $ $ $ [ [ $ $ $ #.[ 7 t n V.;.%X%X: s.8.%.6.c >.; N i.1 $ $ $ $ [ [ [ 4 ( h 7.y q.q.f.l D.R M.t F % c *.q.= = s.q.8.: %.%.>.%XT.0 + < 8 C & z %X:X: l 8.8.c 6.A.O.S G 8 [ $ $ $ $ #.#.#.#.#.$ $ ",
"$ $ $ $ $ $ $ $ $ $ $ $ $ $ $ $ $ 2 7 >X! ` | r | i.I G ! Y.1 [ $ $ +.$ $ $ $ [ $ 5 G , o z w.7.# B ` 4 $ $ #.#.$ $ $ $ $ $ $ [ 2 2 t v s J m.U <.& d C 8 7 [ $ +.+.+.+.$ $ $ $ $ $ [ [ 2 6 K.C.~ w | w / I C C G ^ 8 $ $ $ $ $ $ $ [ $ [ 7 6 tXP Q ` ^ E ! P ` t 6 ..E ` i.| w ^ ^ i.E E ^ w w w | ~...6 1 Y./ I ~ i.| r ^ G Q ` .XY.1 $ $ +.$ $ $ $ $ $ $ $ $ $ $ ",
"$ $ $ $ $ $ $ $ $ $ $ $ $ $ $ $ $ $ $ $ $ #.#.$ #.$ $ $ $ $ $ $ $ $ #.$ #.#.$ $ $ $ $ 7 { | | _ q 1 $ +.a.$ $ $ $ $ $ $ $ $ $ $ $ $ $ $ 1 8 ......$.$ $ #.$ +.+.+.[ $ $ $ $ $ $ $ $ [ [ [ $ $ #.$ $ $ a.a.$ $ #.#.+.+.a.$ $ $ $ $ $ $ [ [ $ $ $ $ #.$ $ $ $ $ $ $ $ $ $ $ #.$ #.$ #.#.a.a.a.a.#.#.#.#.$ $ $ $ $ #.$ $ $ +.+.$ $ $ $ $ $ #.#.$ $ $ $ $ $ +.$ $ $ $ $ ",
"$ $ $ $ $ $ $ $ $ $ $ $ $ $ $ $ $ $ $ $ $ #.$ $ $ #.$ $ $ $ #.$ $ $ $ $ $ $ $ $ $ $ $ $ $ $ $ $ $ $ $ +.+.[ [ $ $ $ [ [ [ [ $ $ $ +.$ $ $ $ $ $ $ $ $ $ $ $ $ $ $ $ $ $ [ [ $ $ $ $ $ $ $ #.$ $ $ $ $ $ $ +.+.+.+.+.+.+.$ $ $ $ $ $ +.[ [ $ #.$ #.$ $ $ $ $ $ $ $ #.$ $ 3.3.$ $ $ #.#.#.#.+.+.$ $ $ $ $ [ [ [ $ [ $ +.$ $ $ $ $ +.+.+.+.+.$ $ $ $ $ $ [ [ [ [ [ $ $ ",
"$ $ $ $ $ $ $ $ $ $ $ $ $ $ $ $ $ $ $ $ $ [ $ $ $ $ $ $ $ #.$ $ +.$ $ $ $ $ $ $ $ $ $ $ $ $ $ +.$ [ [ [ $ #.#.#.$ $ $ $ $ $ $ $ [ [ $ [ $ $ $ $ $ $ [ $ $ $ $ $ $ [ [ [ [ $ $ $ $ $ $ [ $ $ $ $ $ $ [ [ [ [ +.+.+.3.$ $ $ $ $ $ $ $ [ $ $ $ $ $ #.$ $ $ $ $ #.$ $ [ $ $ $ [ $ #.#.#.$ $ #.[ $ [ $ $ $ $ $ $ [ [ $ $ $ $ [ $ $ $ $ $ $ $ $ $ $ $ $ $ $ $ $ $ $ $ $ $ "
};
