/* XPM */
static char *_a64bacaa3d84e1cfde973528ca6f778_4[] = {
/* columns rows colors chars-per-pixel */
"178 40 256 2 ",
"   c #FE0009",
".  c #E40B12",
"X  c #991314",
"o  c #CD1213",
"O  c #DD1012",
"+  c #B80509",
"@  c #CA1721",
"#  c #C80B11",
"$  c black",
"%  c #D4131A",
"&  c #C70509",
"*  c #B60B10",
"=  c #ED040A",
"-  c #CD1319",
";  c #C4181A",
":  c #EC0912",
">  c #C51112",
",  c #A90B11",
"<  c #730000",
"1  c #1A0000",
"2  c #0A0000",
"3  c #BD0F12",
"4  c #220000",
"5  c #320000",
"6  c #2A0000",
"7  c #120000",
"8  c #3A0000",
"9  c #C51317",
"0  c #D40B12",
"q  c #430000",
"w  c #630000",
"e  c #530000",
"r  c #5B0000",
"t  c #4B0000",
"y  c #F4080A",
"u  c #A21112",
"i  c #DC100C",
"p  c #B41111",
"a  c #9A0B11",
"s  c #AC1212",
"d  c #AC0A0B",
"f  c #940A0B",
"g  c #BC1318",
"h  c #AC191B",
"j  c #9C090A",
"k  c #8C090A",
"l  c #EE0303",
"z  c #E6040A",
"x  c #B41417",
"c  c #ED0411",
"v  c #830A0A",
"b  c #890C0F",
"n  c #A31A1C",
"m  c #BB0E0B",
"M  c #A41417",
"N  c #97100E",
"B  c #A6100B",
"V  c #940407",
"C  c #7B0909",
"Z  c #8C0307",
"A  c #840307",
"S  c #AF0101",
"D  c #BD1814",
"F  c #921F1F",
"G  c #780B10",
"H  c #E5100B",
"J  c #CC1814",
"K  c #7B0307",
"L  c #FC080C",
"P  c #73090A",
"I  c #730306",
"U  c #DE040F",
"Y  c #D10202",
"T  c #840903",
"R  c #C11E22",
"E  c #670B11",
"W  c #D20411",
"Q  c #740803",
"!  c #6B090A",
"~  c #6B0307",
"^  c #640307",
"/  c #68100E",
"(  c #580B11",
")  c #FC0803",
"_  c #5B0306",
"`  c #6C0501",
"'  c #C61D1B",
"]  c #530307",
"[  c #040000",
"{  c #470B11",
"}  c #E70415",
"|  c #5C0903",
" . c #DE0419",
".. c #4B0406",
"X. c #DC1813",
"o. c #3B090A",
"O. c #D50416",
"+. c #000004",
"@. c #230602",
"#. c #000400",
"$. c #310802",
"%. c #EB080C",
"&. c #F70407",
"*. c #EF080D",
"=. c #E30C0C",
"-. c #D71015",
";. c #E70C0E",
":. c #D31014",
">. c #E7080E",
",. c #F3040D",
"<. c #D71010",
"1. c #FB0406",
"2. c #D31414",
"3. c #040004",
"4. c #D81416",
"5. c #F90400",
"6. c #EB0C0E",
"7. c #E20C08",
"8. c #F00C0E",
"9. c #F2000D",
"0. c #D8140F",
"q. c #F00C08",
"w. c #E50410",
"e. c #AC1319",
"r. c #9C0408",
"t. c #FA0000",
"y. c #F8040C",
"u. c #6B0000",
"i. c None",
"p. c #FF0406",
"a. c #000404",
"s. c #EF0808",
"d. c #E41014",
"f. c #F20007",
"g. c #E20808",
"h. c #F30407",
"j. c #DC0309",
"k. c #D40A0B",
"l. c #C80F0A",
"z. c #DC171C",
"x. c #891416",
"c. c #F40804",
"v. c #AA2325",
"b. c #840001",
"n. c #D3030A",
"m. c #DD0B0C",
"M. c #7B0000",
"N. c #BC191B",
"B. c #B4191A",
"V. c #CD181A",
"C. c #630A0A",
"Z. c #050400",
"A. c #E50B18",
"S. c #F70512",
"D. c #DD1119",
"F. c #B4201F",
"G. c #A4090B",
"H. c #FB0004",
"J. c #7B0804",
"K. c #530909",
"L. c #C51814",
"P. c #EE0A19",
"I. c #E50303",
"U. c #8C0001",
"Y. c #430306",
"T. c #E70808",
"R. c #A31813",
"E. c #E70C08",
"W. c #EB0C08",
"Q. c #D41813",
"!. c #A40408",
"~. c #59100D",
"^. c #E3080C",
"/. c #DD0B11",
"(. c #78100D",
"). c #AC0309",
"_. c #080005",
"`. c #7D1E1E",
"'. c #D4181A",
"]. c #791416",
"[. c #E70D1E",
"{. c #3A0306",
"}. c #4B090A",
"|. c #94191E",
" X c #681516",
".X c #5B090A",
"XX c #E60804",
"oX c #89100E",
"OX c #95282A",
"+X c #320306",
"@X c #360C0F",
"#X c #EF0419",
"$X c #270C0E",
"%X c #EB0808",
"&X c #FF0004",
"*X c #8C0804",
"=X c #B51B22",
"-X c red",
";X c #D3100F",
":X c #ED0804",
">X c #43090A",
",X c #F70005",
"<X c #AC0903",
"1X c #9C0001",
"2X c #9C0803",
"3X c #000008",
"4X c #120504",
"5X c #220405",
"6X c #940101",
"7X c #FF0400",
"8X c #F30D15",
"9X c #551B1F",
"0X c #711B1F",
"qX c #DD0203",
"wX c #2A0406",
"eX c #1A0406",
"rX c #F8000D",
"tX c #591417",
"yX c #A40101",
"uX c #530903",
"iX c #31090A",
"pX c #D3140F",
"aX c #F30300",
"sX c #B41814",
"dX c #AC1813",
"fX c #940903",
"gX c #DD0803",
"hX c #A40904",
"jX c #D30903",
"kX c #471617",
"lX c #430802",
"zX c #381415",
"xX c #D30B19",
"cX c #DD0C19",
"vX c #2A0A0A",
"bX c #4E1F1F",
"nX c #33110E",
"mX c #220908",
"MX c #5A2427",
"NX c #772B2E",
"BX c #47100E",
"VX c #2B1112",
"CX c #1B0A09",
"ZX c #050404",
"AX c #3A0803",
"SX c #1A0803",
"DX c #2A0803",
"FX c #4B0903",
"GX c #0C0709",
"HX c #26100C",
"JX c #11090B",
"KX c #F0100C",
"LX c #412422",
"PX c #000800",
"IX c #000808",
"UX c black",
/* pixels */
"$ $ $ $ $ $ $ $ $ $ $ $ $ $ $ $ $ $ $ $ $ $ $ $ $ $ $ $ $ $ $ $ $ $ $ $ $ $ $ $ $ $ $ $ $ $ $ $ $ $ $ $ $ $ $ $ $ $ $ $ $ $ $ $ $ $ $ $ $ $ $ $ $ $ $ $ $ $ $ $ $ $ $ $ $ $ $ $ #.i.i.i.i.i.i.i.i.i.[ $ $ $ $ $ $ [ $ #.#.$ $ $ $ $ $ $ $ $ $ $ $ $ $ $ $ $ $ $ $ $ $ $ $ $ $ $ $ $ $ $ $ $ $ $ $ $ $ $ $ $ $ [ $ $ $ $ $ $ $ $ $ $ $ $ $ $ $ $ $ $ $ $ $ $ $ $ $ $ ",
"$ $ $ $ $ $ $ $ $ $ $ $ $ $ $ $ $ $ $ $ $ $ $ $ $ $ $ $ $ $ $ $ $ $ $ $ $ $ [ $ $ $ $ $ $ [ $ $ $ $ $ i.i.i.i.i.i.i.i.i.i.i.i.i.i.i.i.i.i.i.i.i.i.i.i.i.i.i.i.i.i.i.i.i.i.i.i.i.i.$ $ $ $ $ $ $ [ $ $ $ $ $ $ $ [ [ [ $ $ $ $ $ $ $ $ $ $ $ $ $ $ $ $ $ $ $ $ $ $ $ $ $ $ $ $ $ $ $ $ $ $ $ $ $ $ $ $ $ $ $ $ $ $ $ [ $ $ $ $ $ $ $ $ $ $ $ $ $ $ $ $ $ $ $ $ $ $ $ ",
"$ $ $ $ $ $ $ $ $ $ $ $ $ $ $ $ $ $ $ $ [ $ $ $ $ $ $ $ $ $ $ $ $ $ $ $ $ $ $ $ $ $ $ $ $ $ $ $ $ $ $ $ $ $ $ $ $ $ $ $ $ $ $ $ $ $ $ $ $ $ $ $ $ $ $ $ $ $ $ $ $ $ $ $ $ $ $ $ $ $ $ $ $ $ $ #.#.i.i.i.i.i.$ $ $ $ $ $ $ $ $ $ $ $ $ $ $ $ $ $ $ $ $ $ $ #.#.$ $ [ $ $ $ $ $ $ $ $ $ $ $ $ $ $ $ $ $ [ [ [ $ +.$ $ $ $ $ $ $ $ $ $ $ $ $ $ $ $ $ $ $ $ $ $ $ $ $ $ ",
"$ $ $ $ $ $ $ $ $ $ $ $ $ $ $ $ $ $ $ $ $ $ $ $ $ $ $ $ $ $ $ $ $ $ $ $ $ #.$ #.#.$ $ $ $ $ $ ZX2 $ $ $ $ $ $ $ $ $ $ $ $ $ $ $ $ $ $ $ $ $ $ $ $ $ $ $ $ $ $ $ $ $ $ $ $ $ $ $ $ $ $ [ $ $ $ $ $ $ $ $ $ $ $ $ $ $ $ $ $ $ $ $ $ $ [ $ $ $ $ $ $ $ $ $ $ $ $ $ $ $ $ $ $ $ $ $ $ $ $ $ $ $ $ $ $ $ $ [ $ $ $ $ $ $ $ $ $ $ $ $ $ $ $ $ $ $ $ $ $ $ $ $ $ $ $ $ $ $ ",
"$ $ $ $ $ $ $ $ $ [ $ $ $ $ $ 1 >XK.q 5 @.6 t ] {.1 [ $ $ $ 7 Y...5 4 8 t Y.@.2 +.+.$ $ e Z p Y Y @ d i.i.i.i.#.$ $ i.i.7 i.i.e q 8 8 8 q Y.6 2 i.i.i.i.5Xo...i.i.i.5 6 2 [ $ i.i.i.i.i.i.1 q / A V u , p m + S X K t i.i.i.i.i.i.i.i.i.i.4 ] C.| e t q i.i.i.1 1 Y.| E E i.i.i.i.i.( ^ I I u.( 5 [ 2 [ 6 ( I b.a B * + * S B b r 1 $ $ $ $ $ $ $ $ $ $ $ $ $ $ $ $ ",
"$ $ $ [ $ $ $ $ $ [ $ $ $ $ [ 8 X @ ^.. j.j.>.cXB ..i.i.i.i.q * i 0.0.g.z N./ 1 2 [ 8 T ; i.i.<.U q.,.>.R P i.i.+.$ $ 7 $.k W %XI.U g.g.0.J b 1 $ $ 2 4 ` g g.I.g.j.W , q +.[ [ $ $ $ i.i.w g 7.1.) p.p.y.l I.T.s.l o G.^ $ $ [ $ $ $ [ 2 q , 2.g.T.I.g.. i R.q e d i = c.l i.i.l l s.h.c.aXq.0.oX4 4 5 f /.&.H.  i.p.l m.^.8.>.0.p Q 5 $ $ $ $ i.i.i.i.i.i.i.i.i.i.",
"$ $ $ $ $ $ $ $ i.i.i.i.i.i.i.1 ] N 0.9.  S.i ).P $.2 [ 3.+.5 C ).0.c.: O.f o.7 $ 8 , 4.+ Z r $.8 w a i 6.@ N 8 $ $ 3.2 4 E i.i.i.i.i.5.<.B ^ i.i.i.i.1 e u U ,.t.%.; b 5 $ $ $ $ $ [ i.i.i.i.i.i.h.) 7.N r t r Z R m.*.o k q 2 i.i.$ $ [ 6 E j ;Xf.1.1.i.i.i.i.i.` u Y f.t.L T.J 3 + m ; k.:X;.N 6 4 6 G S W c.5.6.l.Q 8 e K d U : 4.p r i.i.$ $ $ $ $ $ [ [ $ $ $ ",
"[ $ $ $ $ [ i.i.i.i.i.i.i.i.i.i.i.i.I R 8.H j 6 $ $ $ [ [ [ $ $ $ V -.dX| 1 [ 1 8 x.' p t i.i.i.i.i.i.b o } 7.f 4 i.i.i.$ i.i.i.m ,.U p r $ $ $ i.i.i.i.i.6 ^ u D b 5 $ $ $ $ $ $ $ $ $ i.i.i.i.K @ s.R i.i.i.i.i.5 Z 0.. U , { i.i.$ $ $ $ $ 1 v J . 0.` $ $ $ $ $ $ ^ + 7.;.X 4 $ $ $ $ 8 N ' x.6 7 [ $ $ t ; d.V.f 6 $ $ $ 1 ` S =.6.* E 4 i.i.$ $ $ $ $ [ $ $ $ ",
"$ $ $ $ $ $ $ $ $ $ $ $ $ $ $ $ i.i.6 f ;.;.e.e 1 +.$ $ $ [ 2 $ 6 u - (.$ $ $ @.V + a ( 7 $ +.3X3X+.2 6 A z.i.i.C 6 2 [ i.i.i.i., 6.J T 6 [ #.$ i.i.i.i.i.i.i.i.u w 7 i.i.i.i.i.i.i.[ 3.$ $ $ 7 ] =XA.g i.i.i.i.i.i.i.K 3 : X.f 5 1 [ $ $ #.$ 7 | B.% # e $ $ $ #.#.2 q u -.i G $ $ $ $ #.$ e j `.6 7 +.$ $ 6 S X.; v 6 $ $ $ $ $ q d O D.& E $ $ $ $ $ $ $ $ $ $ i.",
"i.i.i.i.i.i.i.i.i.i.i.i.i.i.i.i.i.i.i.^ O.6.W Z 6 $ #.#.$ $ 2 2 K.h + t $ 2 $ e ; 9 C.$ 2 +.+.3.3.[ 2 $ 8 S %.7.& | $ $ $ [ [ 4 u A.; Q i.i.i.i.i.i.3.$ $ i.i.i.i.i.i.i.i.i.i.i.i.i.i.i.i.i.i.i.i.B.i.i.i.i.i.+.i.i.[ $ I O.=.# b.6 $ $ $ $ $ 7 e h O.& e $ $ $ #.i.i.q u 2.-.` i.i.$ $ #.7 8 `.0X6 7 $ $ $ 6 , 4.R v i.i.i.i.$ $ [ r S z.;.M 5 2 2 $ $ $ $ $ [ [ [ ",
"$ $ $ $ $ $ $ $ $ $ $ $ $ $ $ $ $ [ $ 8 d i U 3 t i.i.i.#.i.i.8 v M C 6 [ 7 @.`.V.p q $ [ $ $ $ i.i.i.i.2 M.o 7.;.f 4 [ $ $ $ 4 B ;.R P i.i.i.i.i.i.[ $ $ 7 i.i.i.| 7 $ $ $ $ [ i.i.i.i.i.i.i.i...i.i.g o.i.i.i.i.i.i.i.8 B -.7.; i.i.i.i.i.$ 7 e h 2.& e i.i.$ $ $ 7 q R.2.O.` $ [ +.+.i.i.6 9XMX4 i.i.i.i.6 , 4.; v 6 $ $ $ $ $ 2 4 ` 9 %.# C 6 2 $ [ $ $ $ $ [ $ ",
"$ $ $ $ $ $ $ $ $ $ $ $ $ $ $ $ $ $ +.1 I R =.U C 7 2 3.i.i.i.` M x.8 1 2 4 ( n ' V 4 i.i.[ $ $ $ [ i.i.i.t B 4.y m ] 7 [ i.i.6 G.;.R P @.i.i.i.i.i.[ $ $ i.i.i.i.| i.i.i.i.i.[ i.i.i.i.i.i.i.i.i.S 6.i.i.i.i.i.i.i.i.i.i.| * 6.. T 1 i.i.i.+.1 e h Q.@ i.i.i.$ i.i.7 q M '.O.` i.i.+.+.#.[ 7 vXnX7 i.i.i.i.4 !.4.; v 6 i.i.i.i.i.i.i.6 j 7.-.+ r i.i.i.[ $ $ $ [ $ ",
"$ $ $ $ $ $ $ $ $ $ $ $ $ $ $ $ $ +.+.7 8 N O : , q i.i.i.i.6 a F.~.2 2 $ 6 b + + Q 1 +.$ $ $ $ i.i.i.i.i.6 v V.y 2.T 6 i.i.i.@.u . R P @.i.i.i.i.i.3.$ $ i.i.i.i.i.7 $ $ $ $ [ i.i.i.i.i.i.i.i.i.s i.i.i.i.i.i.i.i.i.i.i.4 oXd.: s t 1 $ i.i.i.e h O.@ e i.i.$ $ #.7 q B '.O.~ i.i.+.a.$ [ i.i.i.i.i.+.$ $ 4 u O.; A 6 $ i.i.i.i.i.i.i.Q o 4.4.A 1 $ $ $ $ $ $ [ $ ",
"$ $ $ $ $ $ $ $ $ $ $ $ $ $ $ $ $ $ $ 2 2 ~ o %.' v 6 $ 2 [ ] F.B 8 $ $ $ q p ; h r 1 +.+.$ $ $ $ $ i.i.i.1 | ; h. ., t 7 $ $ 4 u H ; P i.i.i.i.i.i.[ $ $ 7 i.i.F r i.i.i.i.i.i.i.i.i.i.i.i.i.i.i.i.i.i.i.i.i.i.i.i.i.i.i.[ ^ Y W.; K 4 $ $ +.1 e h O.o ( i.i.i.i.i.i.q n O.0.` i.i.$ #.#.#.$ $ $ $ $ $ $ $ @.r.O.; A 6 $ $ $ $ $ i.i.7 t s -.6., $.[ [ #.$ $ $ $ $ ",
"$ $ $ $ $ $ $ $ $ $ $ $ $ $ $ $ $ $ #.$ $ 8 S =.4.+ e [ 1 6 ].n < 1 $ $ $ | o V.j q 7 +.$ $ $ $ $ $ $ $ 2 2 5 , i.i.9 ` 2 $ $ 4 u z ; Q i.i.i.i.i.i.i.i.i.i.i.i.OXr 7 i.i.i.i.i.i.i.i.i.i.i.i.i.i.i.i.i.i.i.i.i.i.i.i.i.[ $ q g 7.o X 5 $ $ +.1 e h O.J ( i.i.i.i.i.i.q j '.-.` $ [ [ i.i.i.i.1 i.i.i.i.$ i.i.1X% R A @.i.i.i.i.i.i.i.i.$.v J *.m t 2 2 [ [ [ $ $ $ ",
"$ $ $ $ $ $ $ $ $ $ $ $ $ $ $ $ $ $ $ $ i.i.K - 7.U K $ @.E OX].8 i.i.i.i.` -.Y X q 7 +.$ $ $ $ $ $ i.i.i.i.4 N ;.. Y K 7 [ [ 6 u . D ` 4 i.i.i.i.i.$ i.i.i.i.i.i.i.7 i.i.i.i.i.i.i.i.i.i.i.i.i.i.i.i.i.i.i.i.i.i.i.i.i.i.i.i.).U 4.* { i.i.i.i.r S Q.> e i.i.$ i.i.i.q j 2.-.` i.i.i.2 7 o. X8 i.i.i.i.i.i.6 r.W D A @.$ i.i.i.i.i.i.i.4 / ; 8.# ^ 1 i.i.i.i.i.i.i.",
"i.i.i.i.i.i.i.i.i.i.i.i.i.i.i.i.i.i.$ [ $ 7 q u 4.c B 8 q j n Y.2 2 [ 2 $ v U % f 8 7 +.$ $ $ $ $ $ $ $ [ $ 7 A U H i k 1 [ $ 6 G.d.D ` i.i.i.i.i.i.$ i.i.i.6 ].j w 1 $ $ $ $ [ i.i.i.i.i.i.i.i.i.i.i.i.i.i.i.i.i.i.i.i.i.i.i.r.4. .o | $ [ i.i.| S Q.> e $ [ i.i.i.i.8 a - 4.I i.i.i.i.1 9XNXq 1 [ $ $ [ $ 6 r.W D v 6 i.i.i.i.i.#.$ [ 7 t x *.W C 6 7 $ $ $ $ [ $ ",
"$ $ $ $ $ $ $ $ $ $ $ $ $ $ $ $ $ $ $ $ [ 7 1 ! J y o J.Q + k 7 $ $ [ 2 2 k A.O.f 5 7 +.$ [ $ $ $ $ $ $ $ $ 2 K i d./.X 4 $ [ 6 u H N.! i.i.i.i.i.i.$ i.i.i.6 ].n w i.i.$ $ $ [ i.i.i.i.i.i.i.i.i.i.i.i.i.i.i.i.i.i.i.i.$ $ i.i.% d.0.E i.i.i.i.| S -.> e i.i.i.i.i.i.8 X - <.` $ $ $ $ 5 0X`.q 1 [ [ i.i.i.4 r.o N.v 6 $ $ [ $ $ #.$ [ 7 8 , c -.k 5 i.i.[ [ [ $ $ ",
"$ $ $ $ $ $ $ $ $ $ $ $ $ $ $ $ $ $ $ i.i.i.i.8 S *.%XO.m S ( 2 +.$ [ 2 1 N } 4.N 5 7 +.$ $ $ $ $ $ $ $ [ $ [ E @  .. j 4 $ [ $.G.z m E i.i.i.i.i.i.i.i.i.i.6 ].n w 7 #.$ $ $ [ i.i.i.i.i.i.i.i.i.i.i.i.i.i.i.i.i.i.i.i.$ i.i.K # 7.O I i.i.i.i.w B.% R t $ $ $ $ i.i.8 a % ^.yX` u.` i.i.i.F 8 1 $ $ $ $ $ 4 2X- N.A 6 $ $ [ $ $ $ $ 2 7 6 M 8.4.N 8 i.i.i.i.i.[ i.",
"i.i.i.i.i.i.i.i.i.i.i.i.i.i.i.i.i.i.i.i.i.i.i.1 Z U = q.V.v @.2 +.i.i.i.1 j 6.i a 8 7 +.$ $ $ $ $ $ $ $ $ $ [ | ; D.. u @.i.i.i.B z N./ i.i.i.[ $ $ $ $ +.7 6 ].u w 7 #.$ $ $ [ i.i.i.i.i.i.i.i.i.i.i.i.i.i.i.i.i.i.i.i.i.i.i.i.# 7.O Q $ [ i.i.w B.% R t $ [ i.i.i.i.8 j U   &.= %X= y &X;.j 8 1 $ $ $ $ $ 4 2XY N.A 6 [ $ [ $ $ $ $ 2 7 6 G.8.4.N 8 i.i.i.i.i.[ $ ",
"$ $ $ $ $ $ $ $ $ $ $ $ $ $ $ $ $ $ $ i.i.i.i.i.( m 7.y R t 2 2 +.i.i.i.@.j c  .M q 7 +.$ $ $ $ $ $ $ $ $ $ [ e m 4.7.u 6 [ [ 5 G.H D ` 4 i.i.[ $ $ $ $ +.7 6 i.i.^ 7 #.$ $ $ [ i.i.i.i.i.i.i.i.i.i.i.i.i.i.i.i.i.i.i.i.i.i.i.i.# 7.i G i.i.$ 1 ^ B.% ; t $ $ 3.i.i.i.8 j 4.= + Z i.i.i.R ' |.8 1 [ $ $ $ $ 4 2XY N.A 6 [ $ [ $ $ $ $ 2 7 6 R.8.-.N 8 i.i.i.i.i.[ $ ",
"$ $ $ $ $ $ $ $ $ $ $ $ $ $ $ $ $ $ $ $ $ $ i.i.5 b - 6.s 5 $ 2 +.i.i.2 4 j c 7., t i.i.i.$ $ $ $ $ $ $ $ $ 2 t * 4.U u 6 [ [ 5 G.H D P @.2 $ [ $ $ $ $ +.7 6 i.i.^ i.i.i.i.i.[ i.i.i.i.i.i.i.i.i.i.i.i.i.i.i.i.i.i.i.i.i.i.i.G ' 7.i Q i.i.i.i.^ =X% ; t $ $ $ $ $ 7 8 |.V.Y u.i.i.i.i.i.v `.8 1 [ $ $ $ $ 4 a - N.A 6 [ $ [ $ $ $ $ 2 7 6 M *.4.N 8 i.i.i.i.i.[ i.",
"i.i.i.i.i.i.i.i.i.i.i.i.i.i.i.i.i.i.i.i.i.i.i.i.6 G ; A.u 4 i.i.+.$ [ 2 1 a : H + | 7 +.$ $ $ $ $ $ $ $ $ $ [ t p 2.0.N 4 [ [ 5 B . D ` 4 i.i.i.i.i.i.i.i.i.i.i.X E i.i.i.i.i.i.i.i.i.i.i.i.i.i.i.i.i.i.i.i.i.i.i.i.i.i.i.i.1 v i.i.<.` i.i.i.1 w B.Q.> t $ $ $ $ $ 7 8 N V.0 ` i.i.i.2 4 C.NXq 1 $ $ $ $ $ @.1XW D A 6 [ i.i.i.$ $ $ 2 7 5 , 9.4.f 8 i.i.i.i.i.i.i.",
"i.i.i.i.i.i.i.i.i.i.i.i.i.i.i.i.i.i.i.i.i.i.i.i.6 P R d.u 1 i.i.$ $ [ 2 2 f ;.z ' Q 1 +.$ $ $ $ $ $ $ $ $ $ $ t S V.W b 1 i.i.$.B . N.! 4 2 #.$ $ $ [ [ [ i.i.i.X ^ 7 #.i.i.i.i.i.i.i.i.i.i.i.i.i.i.i.i.i.i.i.i.i.i.#.#.$ $ 4 N -.i.i.^ $ [ $ 1 w B.Q.; t $ [ i.i.i.i.8 N Y 0.` $ [ i.i.7 bXNXq i.i.i.+.$ $ 4 r.W R A 6 i.i.i.i.$ $ $ [ 7 t x 8.-.k 5 i.i.i.i.i.$ i.",
"i.i.i.i.i.i.i.i.i.i.i.i.i.i.i.i.i.i.i.i.i.i.i.i.6 P ; A.j 4 i.i.$ i.i.i.[ v 7.;.2.b 1 $ $ $ $ $ $ $ i.i.i.i.i.e * V.' Q 7 [ [ 5 , z D P 4 i.i.i.i.i.i.i.[ i.i.i.i.i.i.i.i.i.i.i.i.i.i.i.i.i.i.i.i.i.i.i.i.i.i.i.i.i.i.i.$ i.i.!.O i > ( i.i.i.i.w B.Q.R t $ [ +.i.i.i.8 a W <.` $ [ +.[ 2 zXMX$.i.i.i.i.$ $ 4 r.W D v 6 $ $ $ $ $ $ $ [ 4 | g 9.- Q 4 i.i.i.i.i.[ i.",
"i.i.i.i.i.i.i.i.i.i.i.i.i.i.i.i.i.i.i.i.i.i.i.i.6 P ; A.j 1 i.i.$ $ $ [ $ ` 0.;. .u 4 i.i.3.$ $ $ +.+.$ $ $ [ | R @ * ^ 2 [ [ 5 s ;.; (.i.i.i.i.i.i.i.i.[ i.i.i.OXr i.i.i.i.i.3.i.i.i.i.i.i.i.i.i.i.i.i.i.i.i.i.i.i.i.i.2 $ o.+ z -.d i.i.i.i.i.w B.'.3 t $ [ +.i.i.i.q j W O.` i.i.i.$ [ i.SXi.i.i.i.i.$ $ 6 u -.R K 6 $ $ $ $ $ $ i.i.6 C J 8.; _ 7 2 i.i.i.i.i.i.",
"i.i.i.i.i.i.i.i.i.i.i.i.i.i.i.i.i.i.i.i.i.i.i.i.6 P R A.j 1 i.i.$ $ $ $ $ r o ;.;.p 8 $ $ +.$ [ $ +.+.$ $ $ 2 ^ # @ G.i.i.i.[ 5 , E.# C i.i.i.i.i.i.i.i.[ i.i.i.i.e i.i.i.i.i.[ i.i.i.i.i.i.i.i.i.i.i.i.i.i.i.#.i.i.i.i.i.i.~.J ;.J f i.i.i.i.i.| S Q.R t $ [ i.i.i.i.q j W 0 ` i.i.i.i.i.i.i.i.i.$ $ $ $ $ @.!.-.D C 6 i.i.i.i.i.i.i.i.8 a W c p 8 2 2 [ $ $ $ $ i.",
"i.i.i.i.i.i.i.i.i.i.i.i.i.i.i.i.i.i.i.i.i.i.i.i.6 Q ; 7.j 1 i.i.i.i.i.i.i.q p  .: J _ $ 2 +.$ $ $ $ $ $ $ $ [ K -.; `.6 2 [ [ 5 d T.J b 5 i.i.i.i.i.i.i.i.i.i.i.i.i.i.#.i.i.i.i.i.i.i.i.i.i.2 1 ..x ;.i.i.i.i.i.i.i.i.i.i.1 C U : * w i.i.i.i.i.w B.'.R t $ [ i.i.i.i.q j '.<.u.i.i.+.i.i.i.i.i.i.[ $ $ [ $ 6 u -.D C 6 $ $ i.i.i.i.i.2 w R 4.U f 4 i.i.i.i.i.i.i.i.",
"i.i.i.i.i.i.i.i.i.i.i.i.i.i.i.i.i.i.i.i.i.i.i.i.6 Q ; 7.j 1 i.i.i.i.i.[ 2 5 k - %.0.C 1 7 [ $ $ $ $ $ [ [ [ 7 k  .=X] 1 [ i.i.6 B %.2.j 8 2 i.i.i.i.i.i.i.i.i.i.i.i.i.i.i.i.i.i.i.i.i.i.i.i.i.i.i.i.i.g i.i.i.i.i.i.i.$ 7 q u ;.;.N 5 7 [ i.i.i.w B.2.3 t $ [ +.$ $ 7 q j 2.<.` i.i.i.i.i.i.#.i.i.7 i.i.i.i.6 u O.N.C 6 i.i.i.[ i.i.i.7 b 4.z.J ` i.i.i.#.$ $ $ [ i.",
"i.i.i.i.i.i.i.i.i.i.i.i.i.i.i.i.i.i.i.i.i.i.i.i.5 G ; 7.j 1 i.i.i.i.i.i.i.i.e S ;.=., t 1 i.i.i.i.$ $ i.i.i.5 ,  .i.i.i.i.$ $ 4 u ;.4.s t i.i.i.i.i.[ [ [ 6 i.i.i.i.i.i.i.i.i.i.i.i.i.i.i.i.i.i.i.i.i.3 i.i.2 $ $ [ i.i.i.A # z Y ^ 2 i.i.i.i.i.^ B.2.3 t $ [ +.$ $ 7 q j W <.` i.i.i.i.i.i.i.2 4 }. XnXi.i.6 hX2.R v 6 i.i.i.i.i.i.[ q * 8.W N 8 i.i.i.i.i.i.i.i.i.",
"i.i.i.i.i.i.i.i.i.i.i.i.i.i.i.i.i.i.i.i.i.i.i.7 6 C ; 7.j 1 $ i.i.i.i.i.i.7 4 k U %.# A i.i.$ #.#.+.$ i.i.4 / F.& / 7 $ $ $ $ 7 b i 4.# u.2 $ 3.+.+.$ $ $ 5 f n C.i.i.i.i.i.i.i.i.i.i.i.$ i.i.i.~.i.i.R { $ 2 [ [ [ [ $ e >  .Y a 5 $ [ [ $ $ 1 / B.'.3 i.i.[ +.$ $ 7 q j Y 0.` i.i.i.i.i.i.i.i.5 `.`.+X7 [ 6 B O.; b i.i.i.$ i.i.i.6 v % 9.S { 7 i.i.i.i.i.i.i.$ i.",
"i.i.i.i.i.i.i.i.i.i.i.i.i.i.i.i.i.i.i.i.i.i.i.i.5 T ' 7.j 4 i.i.$ $ $ i.i.i.[ r l.>.7.R ( i.i.#.a.a.$ i.i.i.N h f 8 i.i.i.i.i.7 ` @ i i f 7 $ #.#.a.i.i.i.( 3 v.{ 2 2 $ [ [ [ $ $ #.$ $ $ $ i.i.i.N.i.i.e [ 2 $ $ $ [ 5 f ;.7.M t 1 $ $ [ $ $ 1 ^ B.O.R t $ $ $ $ $ 7 q u 2.0.I i.i.+.$ #.#.$ [ e , x.@.7 $ 6 , 0.V.j 5 $ $ $ $ $ 7 K # z.:.G i.i.i.$ +.+.$ +.$ $ $ ",
"$ $ $ $ $ $ $ $ $ $ $ $ $ $ $ $ $ $ $ #.$ $ $ $ 5 F J ;.B 4 $ $ +.$ i.i.i.[ $ 6 Z W : ;.a 5 [ #.+.#.i.i.i.Z L.F 8 7 i.i.i.i.i.i.q , 4.%.m ] $ $ #.a.i.i.i.F 2.j 4 $ $ $ $ $ $ $ $ #.$ $ $ #.$ 1 ` ; *.W i.i.[ $ $ $ t u o 7.* t i.i.i.[ [ [ i.i.` D D.@ e $ $ $ $ i.i.w m 7.. b $ $ +.i.i.#.$ $ J.# v 7 i.i.8 + z  .3 t $ $ $ $ 1 Q o 6.R v $.i.i.i.i.i.i.i.$ $ $ $ ",
"$ $ $ $ $ $ $ $ $ $ $ $ $ $ $ $ $ $ $ i.i.i.i.i.< ; A.y.o K 8 4 Z.[ $ $ $ $ [ 7 8 f  .y % u q $ #.$ $ 8 v D 3 | [ [ $ $ [ [ i.i.i.^ R y w.R v 8 $ [ 6 < S i.i.` 2 $ [ $ $ $ $ [ i.i.i.i.i.i.7 ( S U 5.;.+ u.1 2 q K m 6.0 j e 1 [ [ $ [ [ 2 7 e p w.,.>.V 8 2 i.i.[ e S 7.*.*.R b.w t 8 5 8 r v ; D.v i.i.8 v <.&.y 7.A 1 2 4 w , 0 7.o Q 1 [ $ +.+.$ $ $ $ $ $ $ $ ",
"$ $ $ $ $ $ $ $ $ $ $ $ $ $ $ $ $ $ $ [ $ 6 K 3 g.1.1.5.y.9.Y N q 7 $ $ i.i.i.i.i.5 j z.#Xy > 6Xb.v a > - j ( 1 +.$ $ $ i.i.i.i.i.4 A cX8.&.%XjX& J O.>.y @ C 5 2 i.i.[ $ [ $ $ i.i.i.i.i.8 oX; f.t.p.p.1.%Xn.o ^.= U ; A 6 $ [ $ $ $ $ $ q a o 8.p.&X1.= 0 f 5 t r.W i.i.i.i.i.&.s.T.^.U g.%X8.*./.M.4 ` > >.1.&X&Xp.= W W 0.=.;.o f e 7 $ $ [ $ [ $ $ $ $ $ $ $ $ ",
"$ $ $ $ $ $ $ $ $ $ $ $ $ $ $ $ $ $ $ [ $ 6 k g + + S B p & * T 8 i.i.i.i.i.i.i.$ [ 6 P 3 %.y 5.y.i.i.@ V 8 $ $ $ $ $ i.i.i.i.i.i.i.i.Q p XXi.i.p.  &.U p E 2 [ 3.+.i.i.i.i.i.i.i.i.i.+.i.i.F S m + p + 3 > Y J m u I 5 $ $ [ [ [ $ +.$ $ q j m R m p * ; & f 8 t u m m 3 3 m m 3 ; ; ; 3 3 3 + d N e 1 ` S 3 * * m 3 l.Y Y o S v t $ $ $ $ $ $ $ $ $ $ $ [ [ [ $ $ ",
"$ $ $ $ $ $ $ $ $ $ $ $ $ $ $ $ $ $ $ $ #.$ 2 #.$ $ $ $ $ $ [ [ 2 [ [ $ $ [ [ [ $ $ $ $ 5 / N p S G.C 8 $ $ $ $ +.$ $ i.i.i.i.i.i.#.i.i.i.E T j u f K ] 7 $ $ $ i.i.i.i.#.$ $ [ $ $ $ $ [ 2 2 $ $ $ $ $ $ $ $ $ $ $ $ $ $ $ $ $ $ $ +.$ $ [ [ [ $ $ $ $ $ #.$ i.i.i.i.i.i.i.#.$ $ $ $ $ $ $ #.#.$ $ #.Z.#.+.$ $ $ $ $ $ $ $ $ $ $ $ $ $ $ $ $ $ $ $ +.$ +.+.+.$ $ $ ",
"$ $ $ $ $ $ $ $ $ $ $ $ $ $ $ $ $ $ $ $ $ $ $ #.#.$ $ $ $ #.$ $ $ $ $ $ +.$ $ $ $ $ $ $ $ $ +.+.$ $ $ $ $ $ $ $ +.$ $ $ $ $ $ $ $ $ #.$ #.i.i.i.i.#.$ $ $ $ $ $ #.$ $ $ $ $ $ $ $ $ $ $ $ $ $ $ $ #.#.#.$ $ $ $ $ $ $ [ $ $ i.i.i.i.i.i.i.i.i.i.i.i.i.i.i.i.i.i.+.$ $ $ $ #.#.i.i.i.i.i.i.i.i.i.$ i.i.#.i.i.$ $ $ $ $ $ $ $ $ $ $ #.$ $ $ $ $ $ $ $ $ $ $ $ $ $ $ $ ",
"$ $ $ $ $ $ $ $ $ $ $ $ $ $ $ $ $ $ $ $ $ $ $ $ $ $ $ $ #.$ $ $ $ $ $ $ [ $ $ $ $ $ $ $ $ [ $ $ $ $ $ $ $ $ $ $ $ $ $ $ $ $ $ $ $ $ $ $ $ $ $ $ $ #.$ $ [ $ $ $ $ $ [ [ $ $ $ [ $ $ $ $ $ $ $ $ $ $ #.$ $ $ $ $ $ $ $ [ $ $ $ $ $ $ $ $ +.$ $ $ $ $ $ $ $ $ $ $ $ $ $ $ $ $ $ $ $ $ $ $ $ $ $ $ $ $ $ $ $ $ $ $ $ $ [ $ $ $ $ $ $ $ $ $ $ $ $ $ $ $ $ $ $ $ $ $ $ $ ",
"$ $ $ $ $ $ $ $ $ $ $ $ $ $ $ $ $ $ $ $ $ $ $ $ $ $ $ $ $ $ $ $ $ $ $ $ $ $ $ $ $ $ $ $ $ [ $ $ $ $ $ $ i.i.i.i.i.i.i.i.i.i.i.i.i.i.[ [ [ $ $ $ $ $ $ $ $ $ $ $ $ $ $ $ $ $ $ 3.$ $ $ $ $ $ $ $ $ $ $ $ $ $ $ $ $ $ $ $ $ $ $ $ $ $ $ $ $ $ $ $ $ $ $ $ $ $ $ $ $ $ $ $ $ $ $ i.i.i.i.$ $ $ $ $ $ $ $ [ $ $ $ [ [ $ $ $ [ $ $ $ $ $ $ $ $ $ $ $ $ $ $ $ $ $ $ $ $ $ "
};
