/* XPM */
static char *_a64bacaa3d84e1cfde973528ca6f778_3[] = {
/* columns rows colors chars-per-pixel */
"179 40 256 2 ",
"   c #FE0009",
".  c #E40B12",
"X  c #991314",
"o  c #CD1213",
"O  c #DD1012",
"+  c #B80509",
"@  c #CA1721",
"#  c #C80B11",
"$  c black",
"%  c #D4131A",
"&  c #C70509",
"*  c #B60B10",
"=  c #ED040A",
"-  c #CD1319",
";  c #C4181A",
":  c #EC0912",
">  c #C51112",
",  c #A90B11",
"<  c #730000",
"1  c #1A0000",
"2  c #0A0000",
"3  c #BD0F12",
"4  c #220000",
"5  c #320000",
"6  c #2A0000",
"7  c #120000",
"8  c #3A0000",
"9  c #C51317",
"0  c #D40B12",
"q  c #430000",
"w  c #630000",
"e  c #530000",
"r  c #5B0000",
"t  c #4B0000",
"y  c #F4080A",
"u  c #A21112",
"i  c #DC100C",
"p  c #B41111",
"a  c #9A0B11",
"s  c #AC1212",
"d  c #AC0A0B",
"f  c #940A0B",
"g  c #BC1318",
"h  c #AC191B",
"j  c #9C090A",
"k  c #8C090A",
"l  c #EE0303",
"z  c #E6040A",
"x  c #B41417",
"c  c #ED0411",
"v  c #830A0A",
"b  c #890C0F",
"n  c #A31A1C",
"m  c #BB0E0B",
"M  c #A41417",
"N  c #97100E",
"B  c #A6100B",
"V  c #940407",
"C  c #7B0909",
"Z  c #8C0307",
"A  c #840307",
"S  c #AF0101",
"D  c #BD1814",
"F  c #921F1F",
"G  c #780B10",
"H  c #E5100B",
"J  c #CC1814",
"K  c #7B0307",
"L  c #FC080C",
"P  c #73090A",
"I  c #730306",
"U  c #DE040F",
"Y  c #D10202",
"T  c #840903",
"R  c #C11E22",
"E  c #670B11",
"W  c #D20411",
"Q  c #740803",
"!  c #6B090A",
"~  c #6B0307",
"^  c #640307",
"/  c #68100E",
"(  c #580B11",
")  c #FC0803",
"_  c #5B0306",
"`  c #6C0501",
"'  c #C61D1B",
"]  c #530307",
"[  c #040000",
"{  c #470B11",
"}  c #E70415",
"|  c #5C0903",
" . c #DE0419",
".. c #4B0406",
"X. c #DC1813",
"o. c #3B090A",
"O. c #D50416",
"+. c #000004",
"@. c #230602",
"#. c #000400",
"$. c #310802",
"%. c #EB080C",
"&. c #F70407",
"*. c #EF080D",
"=. c #E30C0C",
"-. c #D71015",
";. c #E70C0E",
":. c #D31014",
">. c #E7080E",
",. c #F3040D",
"<. c #D71010",
"1. c #FB0406",
"2. c #D31414",
"3. c #040004",
"4. c #D81416",
"5. c #F90400",
"6. c #EB0C0E",
"7. c #E20C08",
"8. c #F00C0E",
"9. c #F2000D",
"0. c #D8140F",
"q. c #F00C08",
"w. c #E50410",
"e. c #AC1319",
"r. c #9C0408",
"t. c #FA0000",
"y. c #F8040C",
"u. c #6B0000",
"i. c #630803",
"p. c #FF0406",
"a. c #000404",
"s. c #EF0808",
"d. c #E41014",
"f. c #F20007",
"g. c #E20808",
"h. c #F30407",
"j. c #DC0309",
"k. c #D40A0B",
"l. c #C80F0A",
"z. c #DC171C",
"x. c #891416",
"c. c #F40804",
"v. c #AA2325",
"b. c #840001",
"n. c None",
"m. c #DD0B0C",
"M. c #7B0000",
"N. c #BC191B",
"B. c #B4191A",
"V. c #CD181A",
"C. c #630A0A",
"Z. c #050400",
"A. c #E50B18",
"S. c #F70512",
"D. c #DD1119",
"F. c #B4201F",
"G. c #A4090B",
"H. c #FB0004",
"J. c #7B0804",
"K. c #530909",
"L. c #C51814",
"P. c #EE0A19",
"I. c #E50303",
"U. c #8C0001",
"Y. c #430306",
"T. c #E70808",
"R. c #A31813",
"E. c #E70C08",
"W. c #EB0C08",
"Q. c #D41813",
"!. c #A40408",
"~. c #59100D",
"^. c #E3080C",
"/. c #DD0B11",
"(. c #78100D",
"). c #AC0309",
"_. c #080005",
"`. c #7D1E1E",
"'. c #D4181A",
"]. c #791416",
"[. c #E70D1E",
"{. c #3A0306",
"}. c #4B090A",
"|. c #94191E",
" X c #681516",
".X c #5B090A",
"XX c #E60804",
"oX c #89100E",
"OX c #95282A",
"+X c #320306",
"@X c #360C0F",
"#X c #EF0419",
"$X c #270C0E",
"%X c #EB0808",
"&X c #FF0004",
"*X c #8C0804",
"=X c #B51B22",
"-X c red",
";X c #D3100F",
":X c #ED0804",
">X c #43090A",
",X c #F70005",
"<X c #AC0903",
"1X c #9C0001",
"2X c #9C0803",
"3X c #000008",
"4X c #120504",
"5X c #220405",
"6X c #940101",
"7X c #FF0400",
"8X c #F30D15",
"9X c #551B1F",
"0X c #711B1F",
"qX c #DD0203",
"wX c #2A0406",
"eX c #1A0406",
"rX c #F8000D",
"tX c #591417",
"yX c #A40101",
"uX c #530903",
"iX c #31090A",
"pX c #D3140F",
"aX c #F30300",
"sX c #B41814",
"dX c #AC1813",
"fX c #940903",
"gX c #DD0803",
"hX c #A40904",
"jX c #D30903",
"kX c #471617",
"lX c #430802",
"zX c #381415",
"xX c #D30B19",
"cX c #DD0C19",
"vX c #2A0A0A",
"bX c #4E1F1F",
"nX c #33110E",
"mX c #220908",
"MX c #5A2427",
"NX c #772B2E",
"BX c #47100E",
"VX c #2B1112",
"CX c #1B0A09",
"ZX c #050404",
"AX c #3A0803",
"SX c #1A0803",
"DX c #2A0803",
"FX c #4B0903",
"GX c #0C0709",
"HX c #26100C",
"JX c #11090B",
"KX c #F0100C",
"LX c #412422",
"PX c #000800",
"IX c #000808",
"UX c black",
/* pixels */
"$ $ $ $ $ $ $ $ $ $ $ $ $ $ $ $ $ $ $ $ $ $ $ $ $ $ $ $ $ $ $ $ $ $ $ $ $ $ $ $ $ $ $ $ $ $ $ $ $ $ $ $ $ [ $ $ $ $ $ $ $ $ $ $ $ $ $ $ $ $ $ $ $ $ $ $ $ $ $ $ $ $ $ $ $ $ $ $ $ $ n.n.n.n.n.$ $ $ $ $ $ $ $ $ $ $ $ $ $ $ $ $ $ $ $ $ $ $ $ $ $ $ $ $ $ $ $ $ $ $ $ $ $ $ $ $ $ $ $ $ $ $ $ $ $ $ $ $ $ $ $ $ $ $ $ $ $ $ $ $ $ $ $ $ $ $ $ $ $ $ $ $ $ $ $ $ $ $ $ ",
"$ $ $ $ $ $ $ $ $ $ $ $ $ $ $ $ $ $ $ $ $ $ $ $ $ $ $ $ $ $ $ $ $ $ $ $ $ $ $ $ $ $ $ $ $ $ $ $ $ +.$ #.n.n.n.n.n.n.n.n.n.n.n.n.n.n.n.n.n.n.n.n.n.n.n.n.n.n.n.n.n.n.n.n.n.n.+.n.n.n.n.n.n.n.$ $ $ $ $ $ $ $ $ $ $ $ $ $ $ $ $ $ $ $ $ $ $ $ $ $ $ $ $ $ $ $ $ $ $ $ $ $ $ $ $ $ $ $ $ $ $ $ $ $ $ $ $ $ $ $ $ $ $ $ $ $ $ $ $ $ $ #.$ $ $ $ $ $ $ $ $ $ $ $ $ $ $ $ $ ",
"$ $ $ $ $ $ $ $ $ $ $ $ $ $ $ $ $ $ $ $ $ $ $ $ $ $ $ $ $ $ $ $ $ $ $ $ $ $ #.$ $ $ $ $ $ $ $ $ $ $ $ $ $ 3.$ $ $ $ $ $ $ $ $ $ $ $ $ $ $ $ $ $ $ $ $ $ $ $ $ $ $ $ $ $ $ $ $ $ $ $ $ $ $ $ [ $ $ $ $ $ n.n.n.n.+.#.#.$ $ $ $ $ $ $ $ $ $ $ $ $ $ [ $ $ $ $ $ $ $ 3.$ $ $ $ $ $ $ $ $ $ $ $ $ $ $ $ $ $ $ $ $ $ $ $ $ $ $ #.#.$ $ $ $ $ $ $ $ $ $ $ $ $ $ $ $ $ $ $ $ ",
"$ $ $ $ $ $ $ $ $ $ $ $ $ $ $ #.$ $ $ $ $ $ $ $ $ $ $ $ $ $ $ $ $ $ $ $ $ $ $ $ $ $ $ $ n.n.n.n.n.n.n.n.n.n.n.n.n.n.n.n.n.n.n.n.n.n.n.n.n.n.n.n.n.n.n.n.n.n.n.n.n.$ $ $ $ $ $ $ $ $ $ $ $ $ $ $ $ $ +.+.n.n.n.n.n.n.n.n.n.n.n.n.n.n.n.n.n.n.n.n.n.n.+.+.$ #.#.$ $ $ $ $ $ $ $ $ $ $ $ $ $ $ $ $ $ $ $ $ $ $ $ $ $ $ $ $ $ #.$ $ $ $ $ $ $ $ $ $ $ $ $ $ $ $ $ $ $ $ $ ",
"$ $ $ $ $ $ $ $ $ $ $ $ $ $ $ n.n.n.{ q 6 7 4 n.n.n.n.2 n.n.n.n.+X8 6 n.n.{ n.n.n.n.n.n.n.n.v , l.# & , n.n.n.n.n.#.#.$ n.n.wXn.n.$.1 n.n.n.q n.n.n.n.n.2 4 o.n.n.n.$.n.n.n.n.n.n.n.n.$ $ [ n.n.( G b X !.S p S B V I n.n.n.n.n.n.n.n.n.n.n.n.q K.t n.n.n.n.q +X7 1 { _ / ~ w e e e e e w u.` w ( 6 [ [ $ 6 e Q b a , p * p , a G q $ $ $ $ [ $ $ [ n.n.n.n.n.n.n.n.n.",
"$ $ $ $ $ $ $ $ $ $ $ $ $ $ $ 2 6 C N.0.U <.0.^.i B./ 1 [ [ $ 5 u O.O.<.j.j.D C 6 2 2 5 Q 3 >.g.0.j.%X: z ; Q 4 [ n.n.n.n.@.T V.w.j.W O.<.0 - n.n.$ [ 2 1 C.B.U . g.U 0 s q $ [ n.n.n.n.$ 2 r S <.y L   p.5.= z z 8.8.J j | [ $ $ $ $ $ $ $ t S % U I.g.^.. j.B { r p i l h.: T.%X:X:Xl y ,X&.l 0 G 2 1 8 X U &.) -X-X) q.. >.y } :., i.2 $ #.n.n.[ [ $ $ $ $ $ $ $ $ ",
"$ [ [ $ $ $ $ [ [ n.n.n.n.n.n.n.n.q b J : t.y.7.* v Y.7 [ [ [ n.n.d 0.&.,.g.G.( 4 [ 5 N - D r.^ 5 8 | j U 8.:.u q $ $ $ 2 n.n.n.Y *.&X  y 0 s E 7 $ $ [ 7 q X 0.q.5.l @ k 5 +.$ $ $ $ $ $ 2 e a m ^.&.  7.j | t | a J . y J v n.n.$ [ n.n.$ n.n., j.y ) t.j.+ v 5 8 Q B 0.&.) ) ^.l.R 3 R o U q.;.k 1 1 5 n.n.<.y &.H 3 < q ^ n.n.%.*.:.u q $ [ #.$ [ +.+.$ $ $ $ $ $ ",
"$ $ $ $ $ $ $ $ $ $ $ $ $ $ $ $ $ $ 7 | * 6.z dXt [ $ [ [ [ $ #.$ $ A - =XG 6 $ 7 4 ].; 3 r $ n.n.n.n.n.Z # } . f 6 n.n.$ [ $ n.n.+ q.U 3 ^ 2 n.n.n.$ $ [ $ n.n.j R V q $ n.n.n.$ n.n.n.n.n.$ $ 6 v J *.; ..n.n.n.n.n.n.0.z i B q [ 2 [ $ $ $ $ 4 Z - z O.^ $ $ $ $ $ $ < 9 ;.6.k [ $ $ $ $ t d V.v 7 7 $ $ $ r o z ; K n.n.n.n.5 A 3 6.6.B t 7 [ $ +.$ $ $ $ $ $ [ n.",
"n.n.n.n.n.n.n.$ [ [ [ [ $ $ #.$ #.$ 2 1 T  .H m ^ 1 [ $ $ $ $ n.n.n.N @ k 1 [ $ 4 v * v.u.1 +.+.3.+.$ 2 4 v 4.y J v 6 [ +.+.[ $ 6 u . @ k $.[ $ #.$ $ $ $ $ 2 4 ].n w [ #.$ $ $ $ $ $ $ $ $ +.+.7 ( B.H m q $ n.n.n.n.6 n.n.*.4.b 5 7 3.[ [ $ $ 1 / + 4.& t $ $ $ $ $ 7 t dXz.4.u.$ $ +.+.$ $ ` F.P 1 2 $ $ $ 8 3 7.m ` 1 $ #.$ $ $ ] R 6.4.p t $ $ [ $ $ $ $ $ $ n.n.",
"n.n.n.n.n.n.n.n.n.n.n.n.n.n.n.n.n.n.n.n.e J ;.4.u 5 +.a.$ $ [ 2 2 Y.v.D ( $ [ $ q + ' G 1 n.n.n.n.n.+.n.n.n.B =.U J / 2 $ 3.[ $ 1 X 7.' C 6 n.n.n.n.n.n.n.n.n.n.0XOXw 7 #.$ $ $ $ $ $ $ $ $ $ [ 7 ..S ;.+ 8 $ [ $ $ [ $ $ C i z > K @.n.n.n.+.+.1 w B.% R t $ [ [ $ #.7 e , 2.Y w $ [ [ $ $ 2 t x. X1 7 [ [ $ 8 m 7.N.u.4 $ $ $ #.#.2 u.m i 7.f 4 2 n.n.n.$ $ $ $ $ $ ",
"$ $ $ $ $ $ $ $ $ $ $ $ $ $ $ $ $ $ $ $ 6 r.-.U @ r $ [ $ $ n.n.6 ` n f 5 $ 2 1 (.Y 3 t [ n.n.n.n.n.n.n.$ 7 ` & U ;.a @.2 [ [ $ 1 a =.; G 6 n.n.n.$ n.n.n.n.2 4 0XOXw 7 #.$ $ $ $ $ $ $ $ $ $ [ 7 ] B.;.3 q $ [ $ $ $ $ $ q d 4.7.3 e $ [ $ $ +.1 w S % > n.n.[ [ $ #.n.n.n.W o ^ $ n.n.$ #.2 5 n.n.n.n.$ $ $ 5 *  .N.~ 1 $ $ $ #.#.2 6 C o : g ^ 1 [ $ $ $ $ [ $ $ $ ",
"$ $ $ $ $ $ $ $ $ $ $ $ $ $ $ $ $ $ $ $ 1 | * 7.7.b 1 7 [ $ $ 7 r a x.e 1 [ 1 t j W , $.$ n.n.n.n.n.n.$ $ 2 q j 4.8.D | 1 2 [ $ 1 a 7.D G 6 2 $ n.n.n.n.n.n.n.1 0XOXw 7 $ $ $ $ $ $ $ $ $ $ $ [ 7 ..B.: R q $ [ $ $ $ $ $ 1 ^ m 6.7.v 7 2 $ $ $ 1 w B.% ; e $ [ [ $ #.1 e , W o w $ [ [ #.#.2 1 @XnX[ n.n.$ $ 6 , X.N.` 4 $ $ $ $ $ [ [ 8 d 6.Q.R.q 2 n.n.n.n.n.n.n.n.",
"n.n.n.n.n.n.n.n.n.n.n.n.n.n.n.n.n.n.n.n.n.6 T 0.:Xn.r 1 [ [ $ 4 k F. X1 2 +.@.G =X@ b 4 $ [ [ n.n.n.n.n.n.2 4 Q @ y O.F 8 7 $ $ 1 a U D G 6 2 $ $ $ $ +.n.n.2 4 0XOXw 2 $ $ $ $ $ $ $ $ $ $ #.[ 7 q , : R q $ [ $ $ $ $ [ 7 6 f H 6.B q 1 +.$ $ 1 w B.-.# t $ [ [ $ n.n.e , W o | $ [ [ #.#.$ n.n.n.n.n.n.$ $ 6 , -.N.I @.3.$ n.n.n.n.$ 7 A 0.i J < 7 $ n.n.$ #.$ $ $ ",
"$ $ $ $ $ $ $ $ $ $ $ $ $ $ $ $ $ $ $ +.2 $ ] # l W N 5 [ [ $ 8 h S o.$ $ $ 8 j ; + < 7 +.$ $ $ +.$ [ n.n.n.7 e g ,.7.S t 2 $ $ 1 a 7.R G 6 2 n.n.n.n.n.n.n.2 4 0XOX| 7 $ $ $ $ $ $ $ $ $ $ n.n.7 q dX6.3 q $ [ $ $ $ $ $ 2 2 ~ 0 E.D < 4 +.$ $ 1 w B.-.& t $ [ $ $ $ 7 e , W J | $ [ [ #.#.$ $ 3.$ [ n.n.$ $ 6 , -.=X` 4 [ $ $ $ [ [ $ 2 | 3 4.=.X 1 $ n.n.$ $ $ $ $ ",
"$ $ $ $ $ $ $ $ $ $ $ $ $ $ $ $ $ $ $ $ $ n.n.u U O & | $ 7 7  Xv.n.n.$ $ $ t + # , ( 7 #.+.n.n.$ $ 3.n.n.[ [ 5 B : 7.@ n.n.$ $ 1 X =.; (.6 2 $ n.n.n.n.n.n.n.n.0XF ( 2 $ $ $ $ $ $ $ $ $ $ n.n.7 q dX;.3 q $ [ $ $ $ $ n.n.$ t 3 7.J V 5 +.$ $ 1 w B.-.# e $ [ $ $ $ 7 e , Y # w [ [ 3.2 2 eXvX7 2 [ $ $ [ $ 6 , 4.=X` 4 [ $ $ $ $ $ $ 2 o.j '.*.S 5 [ 2 $ $ $ n.n.n.",
"n.n.n.n.n.n.n.n.n.n.n.n.n.n.n.n.n.n.n.n.n.$ 7 u.D O H b [ 4 t k x.t 7 $ [ $ w J V.B t 7 $ $ [ $ $ $ [ n.n.n.[ 1 f . =.O.n.n.$ [ 4 a 7.D (.@.2 $ n.n.n.n.n.$ n.n.0XOXw 2 $ $ $ $ $ $ $ $ $ $ n.n.7 Y., ;.3 q $ [ $ $ $ $ $ [ $ 5 d U O.S n.n.$ $ 1 ^ B.O.; t $ [ [ $ $ 7 e , Y o w $ [ [ n.n.n.MX@.n.n.n.n.n.$ $., -.+ ` 4 [ $ $ $ $ $ $ 2 $.b Y 8.g t 2 2 $ $ $ n.n.n.",
"n.n.n.n.n.n.n.n.n.n.n.n.n.n.n.n.n.n.n.n.n.n.n.5 k O.f.p t q b n ( 1 2 $ [ $ I -.O.u t 7 $ $ $ $ $ $ $ $ $ $ $ 2 K i . 7.a 4 [ [ 6 j =.D P 4 2 $ $ $ $ [ n.n.n.n.0Xj u.7 #.$ $ $ $ $ $ $ $ $ n.n.n.Y.dX;.m q $ [ $ $ $ $ $ $ $ 1 2X0.U > ( $ $ [ 1 / =XQ.3 t $ $ $ $ $ 7 t B W W w $ [ $ 2 @.tX0X5 7 $ $ $ $ $ 5 , 2.=X` 4 [ $ $ $ $ $ $ 2 4 ~ L.f.@ E n.n.n.n.$ $ $ $ ",
"$ $ $ $ $ $ $ $ $ $ $ $ $ $ $ $ $ $ $ [ [ [ 2 7 ( R y 2.k Q * N 6 $ [ [ [ $ C 7.4.M t 7 $ $ $ $ 3.$ $ $ $ $ $ [ ` W =.. u 6 [ [ @.u A.D P 4 2 $ $ $ $ [ $ n.n.n. Xn ` 7 $ n.n.n.n.n.n.n.n.$ n.n.7 Y.dX;.m 8 $ [ $ $ $ $ $ #.+.1 Z Q.U o r $ [ [ 1 u.* Q.3 q $ [ $ $ $ 7 t M Y o | n.n.n.n.n.n.0X5 7 $ $ n.n.$ 6 B 2.=X` 4 $ $ $ $ $ $ +.[ 1 ] D &.W P n.n.n.$ $ $ $ $ ",
"$ $ $ $ $ $ $ $ $ $ $ $ $ $ $ $ $ $ $ #.n.n.n.n.n.j 6.: g.3 N.~ 7 $ $ $ 2 2 b w.4.u q 7 $ $ [ [ $ $ $ $ $ $ $ 2 ( 3 D.6., 6 [ 2 6 u H R P 4 2 $ $ $ $ $ $ $ n.n.0Xn ` 7 $ $ $ $ $ $ $ $ $ $ $ [ 7 { dXH m o.$ [ +.$ $ n.n.n.$ 1 n.# U O.^ $ [ $ 1 u.+ 2.m n.n.$ $ #.n.n.t n W /.N u.u.I Z m ' x.6 7 $ $ n.n.$ 6 , -.m ` 4 $ $ $ $ $ $ $ [ 7 { * y 2.v n.n.n.$ n.n.n.n.",
"n.n.n.n.n.n.n.n.n.n.n.n.n.n.n.n.n.n.n.n.n.n.n.$ 7 < Y ;.f.2.f 8 n.n.$ n.n.n.k z i B t 7 $ $ [ $ $ $ $ $ $ $ $ 2 t p 4.>.B 6 $ 2 6 u ;.R Q 4 2 $ n.n.n.n.n.n.n.n.! n ` 7 $ $ $ $ $ $ $ $ $ $ #.[ 7 t h . + o.$ [ +.$ $ $ $ $ $ 1 G ' O <./ $ $ $ 1 ` m Q.3 q $ $ $ $ $ 7 n.n.7.) &.l = s.y p.d.f 6 7 $ $ n.n.$ $.<X4.N.` 4 $ $ $ $ $ $ $ [ 7 q x y W v n.n.n.n.n.n.n.n.",
"n.n.n.n.n.n.n.n.n.n.n.n.n.n.n.n.n.n.n.[ $ $ $ $ 2 q u 4.y 9 i.7 n.n.$ n.n.2 f ;.7.S ( 7 n.n.n.n.n.n.n.n.n.$ $ 2 q d 4.;.d $.[ 2 5 u . R G @.2 $ n.n.n.n.n.n.n.n.].n u.7 $ $ $ $ $ $ $ $ $ $ $ [ 2 ..h =.m q $ [ +.$ $ $ $ $ $ 1 G ; O 4.` $ [ +.1 ` + Y + q $ $ $ $ $ 7 t , X.: * n.n.b.N 3 ' T 6 7 $ $ $ [ $ $.).X.N.` 4 $ $ $ $ $ $ $ [ 7 q + h.W C n.n.n.n.n.n.n.n.",
"n.n.n.n.n.n.n.n.n.n.n.n.n.n.n.n.n.n.n.n.n.n.n.n.2 4 ` R 6.x q [ [ n.n.n.[ 7 F 6.d.+ w n.n.n.n.[ n.n.n.n.n.n.$ [ q B Q.H d 5 [ 2 5 u =.; G 6 2 #.$ $ $ $ $ $ 2 4 ].n u.7 $ $ $ $ $ $ $ $ $ $ $ [ 7 ..h . m q $ [ +.$ $ $ $ $ $ 1 Q & U 0.` $ [ +.1 u.+ W + q $ $ +.$ $ 1 t B 2.W i.$ $ $ $ q n.n.$.7 $ $ $ [ $ 5 S X.N.I 4 $ $ $ $ $ $ $ [ 7 q + 9.2.C n.n.n.n.n.n.n.n.",
"n.n.n.n.n.n.n.n.n.n.n.n.n.n.n.n.n.n.n.n.n.n.n.$ 2 1 _ * d.s 5 $ n.n.n.n.[ [ k 6.} 9 ` 7 $ $ n.n.n.n.n.n.n.n.#.[ q G.Y 7.G.6 [ [ 6 u . R (.6 2 $ $ $ $ $ $ $ n.n.].n u.7 #.$ $ $ $ $ $ $ $ $ $ [ 7 { S ;.3 q $ [ +.$ $ $ $ $ $ 4 b.o U 0 E $ [ $ n.n.* V.* q $ $ +.$ $ n.n.B % :./ $ [ $ 7 6  X0X5 1 [ $ $ [ $ 5 S O N.I @.$ $ n.n.#.$ $ [ 7 ] g y '.G 4 2 $ $ $ $ n.n.",
"n.n.n.n.n.n.n.n.n.n.n.n.n.n.n.n.n.n.n.n.n.n.n.n.n.1 ( B.d.B 6 $ [ +.$ $ [ $ J.7.;.2.A 1 $ $ n.n.n.n.n.$ $ $ $ [ q G.V.4.N 4 $ [ @.u . R (.6 2 n.n.n.n.n.n.n.n.4 ].j E 7 $ $ $ $ +.$ $ $ $ $ $ [ 7 ..x 6.3 q $ [ #.$ $ $ $ $ $ @.N <.O J | $ $ $ n.n.+ V.p q $ $ $ $ $ 7 { R.2.0 E $ $ $ n.n.tX0X5 1 [ $ n.n.$ 5 S X.N.I n.n.n.$ $ #.$ $ 2 4 | ; &.- ` n.n.n.$ $ $ n.n.",
"n.n.n.n.n.n.n.n.n.n.n.n.n.n.n.n.n.n.n.n.n.n.n.n.n.1 ( B.d.B 6 $ [ +.n.n.n.$ I 0.;.z.a 4 $ [ $ $ $ $ n.n.n.$ $ [ t , @ W A 7 $ $ 6 G.z ; (.6 2 $ $ $ $ $ $ $ n.n.].X ^ 7 $ $ $ $ +.$ $ $ $ $ $ [ 7 ..S >.3 q $ [ #.$ $ $ $ [ $ 6 B O 0.R e $ $ $ 1 u.B.V.p q $ $ $ $ $ 7 t M 2.;X^ $ $ $ [ n.n.n.4 n.n.$ n.n.$ 5 S X.m ` 4 $ $ $ $ $ $ $ 2 6 G J 9.; _ n.n.n.n.n.$ $ n.",
"n.n.n.n.n.n.n.n.n.n.n.n.n.n.n.n.n.n.n.n.n.n.n.n.n.1 ( B.d.B 6 $ [ +.$ $ $ $ w @ 7.=.S 5 $ [ $ $ $ $ $ $ $ $ $ 2 e + @ D u.7 $ $ 6 B . L.C 6 2 $ n.n.n.n.n.n.n.n.].X w 7 $ $ $ $ +.$ $ $ $ $ $ [ 7 ..S >.3 q $ [ #.$ $ $ $ [ $ q 3 7.Y B 8 $ $ $ 1 / B.Y * q $ $ $ $ $ 7 t B % ;X^ n.n.+.+.n.n.n.n.n.n.n.n.[ $ 8 S X.=X~ 4 $ $ n.n.n.n.$ 2 5 f % *.+ q [ [ $ $ $ $ $ $ ",
"$ $ $ $ $ $ $ $ $ $ $ $ $ $ $ $ $ $ $ $ $ $ $ n.n.1 ~.B.d.G.6 $ [ +.$ $ $ $ t m O >.R t $ [ $ $ $ $ $ $ $ $ $ $ w & # B t 7 $ $ 6 G.z @ v $.2 $ $ $ $ $ $ $ n.n.`.n.n.7 $ $ $ $ $ $ $ $ $ $ $ [ 7 ..x >.3 q $ n.n.n.n.n.$ 2 [ | - . ' T 6 $ $ $ 1 / B.2.m q $ $ $ $ $ 7 t B 2.Y ^ $ n.n.+.$ $ $ [ [ +.$ [ [ $ 5 S 4.=X/ 4 $ $ $ $ $ $ $ 2 t s 4.P., 6 $ n.n.n.n.n.n.n.",
"n.n.n.n.n.n.n.n.n.n.n.n.n.n.n.n.n.n.n.n.n.n.$ $ n.n.( B.7.G.6 $ n.n.n.n.$ $ 8 j -.s.<.` [ 2 3.$ n.n.$ $ $ $ $ $ Q W ; k 5 2 #.$ 4 j =.J k 8 2 $ $ $ $ $ $ $ 7 q x.n.n.n.n.#.$ $ $ $ $ $ $ $ $ [ 7 ..S H m q $ n.n.n.n.$ n.n.4 A  .6.x ( n.n.n.$ 1 / B.2.m n.n.$ $ $ $ 7 t M W o w $ n.n.n.n.n.n.n.n.$ n.n.n.$ 5 ).% F.E 4 $ #.n.n.n.$ $ 7 Q J 4.4.v 1 $ [ +.$ $ $ $ $ ",
"$ $ $ $ $ $ $ $ $ $ $ $ $ $ $ $ $ $ $ $ $ $ $ $ 2 4 _ + =.B 6 $ [ $ $ $ $ [ @.G # = i k 6 7 $ $ $ $ $ [ $ [ [ 2 b 4.=X| 1 n.n.$ 1 N 7.V.u q 7 $ $ $ $ n.n.n.n.] OXn.n.n.n.n.n.n.n.n.$ $ $ $ $ n.n.n.x ;.m q $ [ $ $ $ $ [ 1 q M d.7.k n.n.n.$ $ 1 / B.'.m n.n.$ $ $ $ 1 t M Y Y w $ [ n.n.n.n.n.n.n.n.nXeX2 $ 5 S 4.=Xu.1 $ $ [ n.n.n.[ 4 j . 4.+ ( 7 $ $ $ $ $ $ $ $ ",
"$ $ $ $ $ $ $ $ $ $ $ $ $ $ $ $ $ $ $ $ $ $ $ $ 2 4 | m . B 5 $ n.n.n.n.n.n.n.{ M . =.x | 4 [ $ $ $ [ [ $ [ 2 6 u D.a 6 2 [ [ $ 1 f 7.% p e 2 $ $ $ $ 3.3.3.4 ` X ].n.n.$ $ $ $ $ $ $ $ $ $ $ 2 1 ] B.;.m q $ [ $ $ $ $ $ 6 *XJ d.J | [ 2 $ $ $ 1 ` =X'.m q $ $ $ $ $ 1 t M Y Y ^ $ n.n.n.n.$ $ [ 1 (  XwX7 $ 8 p 4.+ I n.n.n.$ $ $ 2 2 ( ; 9.J C n.n.n.n.n.n.n.n.n.n.",
"n.n.n.n.n.n.n.n.n.n.n.n.n.n.n.n.n.n.n.$ $ $ $ $ 2 4 E N.. B 5 [ n.n.n.n.n.$ 2 7 G O %.Y f 5 n.n.n.$ [ n.n.n.n.n.F.@ ` 2 $ $ $ $ 2 v 0.4.o < 7 $ [ #.$ +.+.3.5 N v.E 1 n.n.n.$ $ $ $ $ $ $ [ $ 2 1 .X+ 6.3 q $ [ $ $ $ $ n.n.# =.W V 6 $ $ $ $ $ 4 ` * W + q $ $ $ $ $ 1 t n V.Y w $ [ $ $ $ $ $ n.n.n.n.6 1 2 q + D.D K 6 $ n.n.$ $ 2 q N 4.P.u 5 2 2 n.n.n.n.n.n.n.n.",
"n.n.n.n.n.n.n.n.n.n.n.n.n.n.n.n.n.n.$ $ $ $ $ n.n.4 ! m =., 5 $ [ n.n.n.n.n.[ $ t 3 z z o ^ $ [ +.n.n.n.n.2 q F F.n.n.2 $ $ $ $ 2 ^ > X.U N 1 $ [ #.#.+.[ n.n.g h ..2 n.n.n.n.$ $ $ $ #.$ n.n.n.1 _ m 6.; t $ 2 +.$ $ $ 8 j ;. .j q 7 $ $ $ $ $ 4 < + '.m q $ $ $ $ #.7 e , W W ~ $ [ $ $ $ n.n.n.r h `.1 7 2 8 m 7.@ k 6 $ $ [ n.n.4 Z - -.> ^ 2 [ [ [ $ #.$ $ $ [ $ ",
"$ $ $ $ $ $ $ $ $ $ $ $ $ $ $ $ $ $ $ $ $ $ $ n.n.n.Q R ;.p 8 $ $ $ +.+.$ $ $ $ 4 G R 6.c B q 2 +.#.n.n.n.1 A R |.{ 1 [ $ $ $ $ 2 8 j -.: ; E 2 $ $ $ +.$ 6 f % u 6 $ [ +.$ $ $ n.n.n.n.[ [ $ $ 7 ~ ; 8.2.C 7 $ a.#.n.n.d Q.=.p q n.n.$ $ $ $ n.n.n.9  .; n.n.n.3.+.+.$ ` R U U C $ $ $ $ #.$ $ [ b R G [ 2 $ q R A.4.S n.n.n.n.$ 8 k O.z x E 4 [ $ $ $ $ $ $ n.n.n.n.",
"n.n.n.n.n.n.n.n.n.n.n.n.n.n.n.n.n.n.n.+.$ $ [ $ 6 ` + U y 0 V e 6 2 [ +.n.n.n.$ n.n.v -.y i S e $ $ $ $ 5 C + 3 r $ [ [ $ $ $ $ 2 1 | D y 6.& Z q 7 1 8 ` d @ ; G 1 $ $ +.n.n.n.n.n.n.n.n.n.$ 1 | p 7.y.} n.n.4 2 t A m ;.o n.n.n.n.$ $ $ $ [ 1 | + . 9.^.b 5 [ $ 2 7 | * z 9.*.3 n.r q 5 5 q ^ Z # -.Q $ 1 t f 4.9.8.i K 4 1 8 < 3 i 4.m | $ [ 3.$ [ [ $ +.$ [ $ $ $ ",
"$ $ $ $ $ $ $ $ $ $ $ $ $ $ $ $ $ $ $ $ $ $ 1 Q + /.t.1.t.L 1.4.M e 1 [ [ [ [ [ [ $ 6 V :.: c.o 1Xn.b.a # 2.u r 1 $ $ +.+.[ [ $ n.n.1 K 4.: &.9.0.o jXj.T.*.; Q $.7 $ [ $ $ $ n.n.n.$ $ $ 2 n.n.Y 5.&X&Xp.5.T.W Y U ;.O.+ J.4 $ $ n.n.n.[ $ t B 4.S.    y.%.W k $.e B O.y &X&X&X  y.l z U qXg.= 9.: k.< 4 J.W ,.L &X&XL %.O.<.U 7.. ; v o.7 [ [ $ $ $ $ $ $ $ $ $ $ $ ",
"$ $ $ $ $ $ $ $ $ $ $ $ $ $ $ $ $ $ $ $ $ $ 1 Q e.S n.n.u ).3 p F t 7 $ $ $ [ [ [ 3.[ 1 E p g.*.&.&.,.;.Y a n.n.n.n.$ +.$ $ $ $ $ $ $ 6 ` S g.y.    L y i p w 2 $ $ $ $ $ $ [ $ $ $ $ $ $ 2 n.n.S 3 * S * 3 & J # * 2X/ 6 $ $ $ $ $ $ a.$ $ t u m m p ).S 3 & k 5 e u * m m m m 3 R R ; ; R 3 3 p B T t 4 Q S + S ).n.n.3 & # R G.Q 8 $ $ $ $ $ n.n.n.n.n.n.n.n.n.n.n.",
"n.n.n.n.n.n.n.n.n.n.n.n.n.n.n.n.n.n.n.n.n.n.n.n.n.n.n.n.n.n.n.n.n.n.n.n.n.n.n.$ [ [ [ $ $ 6 ( A u u X G o.n.n.n.n.n.n.3.$ $ $ $ $ #.$ $ $ 6 | v N X k I ..2 $ $ n.n.n.$ n.n.n.n.n.n.$ $ $ $ $ $ $ $ $ $ $ $ $ $ $ $ $ $ $ $ $ $ $ $ $ $ $ $ $ $ $ $ $ $ $ $ $ +.3.n.n.n.n.n.n.n.n.n.n.n.n.n.n.n.n.n.n.n.n._.$ $ $ $ $ $ $ $ $ $ $ $ $ $ $ n.n.n.n.n.n.n.n.n.n.n.n.n.n.",
"n.n.n.n.n.n.n.n.n.n.n.n.n.n.n.n.n.n.n.n.n.n.n.n.n.n.n.#.$ #.$ $ $ $ $ $ $ $ $ $ $ $ $ $ $ $ $ $ $ $ $ $ $ $ $ [ [ n.n.n.$ $ $ $ $ $ [ $ $ $ $ $ $ #.n.n.n.n.n.n.n.n.n.n.n.n.n.n.n.n.n.n.n.n.n.n.n.n.n.$ $ n.n.n.n.n.n.n.n.n.n.n.n.n.n.n.n.n.n.n.n.$ $ $ $ $ $ +.+.$ $ $ $ $ $ $ #.#.#.$ $ $ $ $ $ #.$ #.$ #.$ #.#.$ $ $ $ $ $ $ $ $ $ $ $ $ $ $ $ $ $ $ $ $ $ $ $ $ $ ",
"$ $ $ $ $ $ $ $ $ $ $ $ $ $ $ $ $ $ $ $ $ $ $ $ $ $ $ $ $ $ $ $ $ $ $ $ $ $ $ $ $ $ $ $ $ $ $ $ $ $ $ n.n.n.n.n.[ $ $ $ $ $ $ $ $ $ $ $ $ $ #.n.n.n.n.n.n.n.n.n.n.n.n.n.n.n.n.n.+.$ $ [ $ $ $ $ $ $ $ $ $ $ $ #.$ $ $ $ $ $ $ $ $ $ $ $ $ $ $ $ $ $ $ $ $ $ +.$ n.n.n.$ $ $ $ $ $ $ $ $ $ #.#.#.$ $ $ $ $ $ n.n.n.n.n.n.n.n.n.n.n.n.n.n.n.n.n.n.n.n.n.n.n.n.n.n.n.n.n.",
"n.n.n.n.n.n.n.n.n.n.n.n.n.n.n.n.n.n.n.n.n.n.n.n.n.n.n.n.n.n.n.n.n.n.n.n.n.[ [ n.n.n.n.n.n.$ $ n.n.n.n.n.n.$ $ $ $ [ $ $ $ $ $ $ $ $ $ $ $ $ $ #.$ $ $ $ $ $ $ $ $ $ $ $ $ $ $ $ [ $ $ $ $ $ $ $ $ $ $ $ $ $ $ $ $ $ $ $ $ $ $ $ $ $ $ $ $ $ $ $ $ $ $ $ $ $ $ $ $ $ $ $ $ $ $ +.n.n.n.n.[ $ $ $ $ $ $ $ $ $ $ $ $ $ $ $ $ $ $ [ $ $ $ $ $ $ $ $ $ $ $ $ $ $ $ $ $ $ $ "
};
