/* XPM */
static char *_a64bacaa3d84e1cfde973528ca6f778_5[] = {
/* columns rows colors chars-per-pixel */
"178 40 256 2 ",
"   c #FE0009",
".  c #E40B12",
"X  c #991314",
"o  c #CD1213",
"O  c #DD1012",
"+  c #B80509",
"@  c #CA1721",
"#  c #C80B11",
"$  c black",
"%  c #D4131A",
"&  c #C70509",
"*  c #B60B10",
"=  c #ED040A",
"-  c #CD1319",
";  c #C4181A",
":  c #EC0912",
">  c #C51112",
",  c #A90B11",
"<  c #730000",
"1  c #1A0000",
"2  c #0A0000",
"3  c #BD0F12",
"4  c #220000",
"5  c #320000",
"6  c #2A0000",
"7  c #120000",
"8  c #3A0000",
"9  c #C51317",
"0  c #D40B12",
"q  c #430000",
"w  c #630000",
"e  c #530000",
"r  c #5B0000",
"t  c #4B0000",
"y  c #F4080A",
"u  c #A21112",
"i  c #DC100C",
"p  c #B41111",
"a  c #9A0B11",
"s  c #AC1212",
"d  c #AC0A0B",
"f  c #940A0B",
"g  c #BC1318",
"h  c #AC191B",
"j  c #9C090A",
"k  c #8C090A",
"l  c #EE0303",
"z  c #E6040A",
"x  c #B41417",
"c  c #ED0411",
"v  c #830A0A",
"b  c #890C0F",
"n  c #A31A1C",
"m  c #BB0E0B",
"M  c #A41417",
"N  c #97100E",
"B  c #A6100B",
"V  c #940407",
"C  c #7B0909",
"Z  c #8C0307",
"A  c #840307",
"S  c #AF0101",
"D  c #BD1814",
"F  c #921F1F",
"G  c #780B10",
"H  c #E5100B",
"J  c #CC1814",
"K  c #7B0307",
"L  c #FC080C",
"P  c #73090A",
"I  c #730306",
"U  c #DE040F",
"Y  c #D10202",
"T  c #840903",
"R  c #C11E22",
"E  c #670B11",
"W  c #D20411",
"Q  c #740803",
"!  c #6B090A",
"~  c #6B0307",
"^  c #640307",
"/  c #68100E",
"(  c #580B11",
")  c #FC0803",
"_  c #5B0306",
"`  c #6C0501",
"'  c #C61D1B",
"]  c #530307",
"[  c #040000",
"{  c #470B11",
"}  c #E70415",
"|  c #5C0903",
" . c #DE0419",
".. c #4B0406",
"X. c #DC1813",
"o. c #3B090A",
"O. c #D50416",
"+. c #000004",
"@. c #230602",
"#. c #000400",
"$. c #310802",
"%. c #EB080C",
"&. c #F70407",
"*. c #EF080D",
"=. c #E30C0C",
"-. c #D71015",
";. c #E70C0E",
":. c #D31014",
">. c #E7080E",
",. c #F3040D",
"<. c #D71010",
"1. c #FB0406",
"2. c #D31414",
"3. c #040004",
"4. c #D81416",
"5. c #F90400",
"6. c #EB0C0E",
"7. c #E20C08",
"8. c #F00C0E",
"9. c #F2000D",
"0. c #D8140F",
"q. c #F00C08",
"w. c #E50410",
"e. c #AC1319",
"r. c #9C0408",
"t. c #FA0000",
"y. c #F8040C",
"u. c #6B0000",
"i. c #630803",
"p. c #FF0406",
"a. c #000404",
"s. c #EF0808",
"d. c #E41014",
"f. c #F20007",
"g. c #E20808",
"h. c #F30407",
"j. c #DC0309",
"k. c #D40A0B",
"l. c #C80F0A",
"z. c #DC171C",
"x. c #891416",
"c. c #F40804",
"v. c #AA2325",
"b. c None",
"n. c #D3030A",
"m. c #DD0B0C",
"M. c #7B0000",
"N. c #BC191B",
"B. c #B4191A",
"V. c #CD181A",
"C. c #630A0A",
"Z. c #050400",
"A. c #E50B18",
"S. c #F70512",
"D. c #DD1119",
"F. c #B4201F",
"G. c #A4090B",
"H. c #FB0004",
"J. c #7B0804",
"K. c #530909",
"L. c #C51814",
"P. c #EE0A19",
"I. c #E50303",
"U. c #8C0001",
"Y. c #430306",
"T. c #E70808",
"R. c #A31813",
"E. c #E70C08",
"W. c #EB0C08",
"Q. c #D41813",
"!. c #A40408",
"~. c #59100D",
"^. c #E3080C",
"/. c #DD0B11",
"(. c #78100D",
"). c #AC0309",
"_. c #080005",
"`. c #7D1E1E",
"'. c #D4181A",
"]. c #791416",
"[. c #E70D1E",
"{. c #3A0306",
"}. c #4B090A",
"|. c #94191E",
" X c #681516",
".X c #5B090A",
"XX c #E60804",
"oX c #89100E",
"OX c #95282A",
"+X c #320306",
"@X c #360C0F",
"#X c #EF0419",
"$X c #270C0E",
"%X c #EB0808",
"&X c #FF0004",
"*X c #8C0804",
"=X c #B51B22",
"-X c red",
";X c #D3100F",
":X c #ED0804",
">X c #43090A",
",X c #F70005",
"<X c #AC0903",
"1X c #9C0001",
"2X c #9C0803",
"3X c #000008",
"4X c #120504",
"5X c #220405",
"6X c #940101",
"7X c #FF0400",
"8X c #F30D15",
"9X c #551B1F",
"0X c #711B1F",
"qX c #DD0203",
"wX c #2A0406",
"eX c #1A0406",
"rX c #F8000D",
"tX c #591417",
"yX c #A40101",
"uX c #530903",
"iX c #31090A",
"pX c #D3140F",
"aX c #F30300",
"sX c #B41814",
"dX c #AC1813",
"fX c #940903",
"gX c #DD0803",
"hX c #A40904",
"jX c #D30903",
"kX c #471617",
"lX c #430802",
"zX c #381415",
"xX c #D30B19",
"cX c #DD0C19",
"vX c #2A0A0A",
"bX c #4E1F1F",
"nX c #33110E",
"mX c #220908",
"MX c #5A2427",
"NX c #772B2E",
"BX c #47100E",
"VX c #2B1112",
"CX c #1B0A09",
"ZX c #050404",
"AX c #3A0803",
"SX c #1A0803",
"DX c #2A0803",
"FX c #4B0903",
"GX c #0C0709",
"HX c #26100C",
"JX c #11090B",
"KX c #F0100C",
"LX c #412422",
"PX c #000800",
"IX c #000808",
"UX c black",
/* pixels */
"#.$ $ $ $ $ $ $ $ $ $ $ $ $ $ $ $ $ $ $ $ $ $ $ $ $ $ $ $ $ $ $ $ $ $ $ $ #.#.$ $ $ $ $ $ $ $ $ $ $ $ $ [ $ $ $ $ $ $ $ $ $ $ $ $ $ $ $ $ $ $ $ $ $ $ $ $ $ $ $ $ $ $ $ $ $ $ $ $ #.#.$ $ $ $ $ $ $ $ $ $ $ $ $ $ $ $ $ #.$ $ $ $ $ $ $ $ $ $ $ $ $ $ $ $ $ $ $ $ $ $ #.$ $ $ $ $ $ $ $ $ $ $ $ $ $ $ $ $ $ $ $ $ $ $ [ $ $ $ $ $ $ $ $ $ $ $ $ $ $ $ $ $ $ $ $ $ $ ",
"$ $ $ $ $ [ $ +.$ $ $ $ $ $ $ $ $ $ $ +.$ $ $ $ $ $ $ $ $ $ $ $ $ $ $ $ $ $ $ $ [ [ $ $ [ [ $ $ $ $ $ $ $ $ $ $ $ $ $ $ $ $ $ $ $ $ $ $ $ $ $ $ $ $ $ $ $ $ $ $ $ $ $ $ $ $ $ $ $ [ [ $ $ $ $ $ $ $ $ $ [ [ $ $ $ $ $ $ $ $ $ $ $ $ $ $ $ $ $ $ $ $ $ $ $ $ $ $ $ $ $ $ $ $ $ $ $ $ $ $ $ $ $ $ $ $ $ $ $ $ $ $ $ $ $ $ $ $ $ $ $ $ $ $ $ $ $ $ $ $ $ $ $ $ $ $ $ $ ",
"$ $ $ $ $ $ $ $ $ $ $ $ $ $ $ $ $ $ +.$ +.+.+.$ $ $ $ $ $ $ $ $ $ $ $ $ $ $ $ $ $ $ $ $ $ #.$ $ $ $ $ $ $ $ $ $ $ $ $ $ [ $ $ $ $ $ $ $ $ $ $ $ $ $ $ $ $ $ $ #.$ $ $ $ $ $ $ $ $ [ [ [ $ $ $ $ $ $ $ $ $ $ $ $ [ [ $ $ $ $ $ $ $ $ $ $ $ $ $ $ $ $ $ $ $ $ $ [ $ $ #.#.$ $ $ $ $ $ $ $ $ $ $ $ $ $ $ $ $ $ $ $ $ $ #.$ $ $ $ $ $ $ $ $ $ $ $ $ $ $ $ $ $ $ $ $ $ $ ",
"$ $ $ $ $ $ $ $ $ $ $ $ $ $ $ $ $ $ $ $ +.+.+.+.$ $ $ $ #.$ $ $ $ $ $ $ $ $ $ $ $ $ $ $ $ $ 7 5 6 7 $ $ $ $ $ $ $ $ $ $ $ $ $ $ $ $ $ $ $ $ $ $ $ $ $ $ $ $ $ #.#.#.$ $ $ $ $ $ $ $ $ $ [ $ $ $ $ $ $ $ $ $ #.$ $ $ $ $ $ [ $ $ $ $ [ $ $ $ $ $ $ $ $ $ $ $ $ $ $ $ $ #.$ $ $ $ $ $ $ $ $ $ $ $ $ $ $ $ $ #.$ $ $ $ #.$ $ $ $ $ $ $ $ #.$ $ $ $ $ $ $ $ $ $ $ $ $ $ ",
"$ $ $ $ $ [ $ $ $ [ $ $ $ $ $ 8 ! E e t q e ~ E Y.2 [ $ [ $ 6 K.r t q | ~ K.4 2 3.$ $ 4 K * n.. g.W S G 8 $ $ $ $ $ $ 2 4 }.E w ( e ( r | | 8 2 $ $ [ 7 {.| E r e ] ] { 1 [ [ $ $ $ [ $ [ 1 uXQ N B * 3 > @ # R S V | [ $ $ $ $ $ #.$ $ $ 1 ( ` I / ( ( | i.K.wX@...! K v K ` < ` ` Q G M.K v K K.1 2 [ $.E b 1Xp 3 ; # o @ & ).v e 2 $ $ $ $ [ $ $ $ $ $ $ $ $ $ $ ",
"#.#.$ $ $ [ $ $ $ $ $ $ $ [ [ E D 4.w.z I.>.P.4.k 1 2 [ 2 [ ^ ; w.U g.I.=., q 7 [ 7 w , O.%.k.& <.: 9.z R I 7 [ $ $ [ 1 t M z.l T.g.z T.0.' K 1 $ [ 2 @.G ; 6.s.T.g.% B q $ [ [ $ #.$ $ 7 | m 7.L &X7X) q.^.0.gXl &.m.+ K 1 $ [ [ $ $ $ $ 8 j % l aX%X%XT.U B.C.t k # *.L y.y ,X&.&.&.&.y.1.  6.h { 4 2 G -.y   -X-X  :Xj.j.>.*.*.k.u | 1 $ $ $ $ $ $ $ $ $ $ $ $ $ ",
"$ $ $ $ $ $ [ [ $ $ $ $ $ [ 2 6 w G.>.5.  l + b ..2 [ [ [ 3.{.C S U &.O p ` 4 7 7 | m O.u ^ 5 $ 5 ^ B 7.*.J Z 8 $ $ $ 2 @.! u o *.p.&.>.* v q 7 $ $ [ 1 ..X k.c ,.U S Q 6 $ $ $ $ $ $ $ 2 t k , Y : y.i f t 5 q M.+ U &.4.j e 7 $ [ $ $ $ 4 ] Z # c 5.y.O.).C 8 6 t J.+ . y 1.;.> S , B S > ^.;.B.] 4 7 ] f p qXq.%X0.J.6 5 t b J 6.;.Y v 4 $ $ $ $ $ $ $ $ $ $ [ $ ",
"$ $ $ $ $ $ $ $ $ $ $ $ $ $ $ $ $ 5 j % c % ^ $ $ $ $ $ $ +.$ $ 6 S z.k 1 $ $ 1 ^ B N.Z $.$ $ $ $ $ $.a 4.. i v 7 2 [ +.$ $ $ | ; ,.O.a 8 $ $ [ [ $ $ $ $ 1 r j =XM.4 $ $ [ $ $ $ $ $ [ [ $ $ 2 ` 9 9.@ ] $ $ $ $ 1 G o z 6.m e $ 2 +.#.#.$ $ $ w m d.U Q $ $ $ #.#.$ 8 a X.;.B 5 $ $ $ $ 2 Q =Xj ] 1 [ $ $ $ N 2.O.m t $ $ $ $ 8 b :.c O.G.{ $ $ $ $ $ $ $ $ $ $ $ ",
"$ $ $ $ $ $ $ [ $ $ $ +.+.$ $ +.+.1 r =X6.D.T 1 7 $ $ +.$ $ 2 2 ( F.; r $ [ $ q S R v 6 7 $ $ $ $ $ 7 q j O 9.R ^ 6 2 [ 3._.$ 8 p c R / 1 [ +.$ [ $ #.$ $ 2 6 ].OX| 2 #.$ [ $ $ $ #.$ $ $ $ $ 7 ] B.;.3 { $ [ $ $ $ 2 w p c  .u t 1 [ $ $ $ $ 7 t n 4.O.^ $ [ $ $ $ 7 6 T 2.d.f 1 2 [ $ $ [ 8 v x.}.7 $ $ $ 1 b @ V.p q $ $ $ $ $ 1 v o H ;.f 4 2 [ $ $ $ $ $ $ [ $ ",
"$ $ $ $ $ $ $ $ $ $ $ $ $ $ $ $ $ 2 1 k ;.6.x ( 1 +.$ $ $ $ 7 $.`.v.k 6 $ 2 1 (.V.m q $ [ 3.$ $ $ $ 2 $ ..R *.U p t [ $ $ [ $ 5 s 6.g | 4 2 $ $ $ $ $ $ $ 7 6 0XF e 7 #.$ $ $ $ $ $ $ $ $ $ [ 7 ..S ;.3 q $ [ $ $ [ $ $ ^ o . -.r.5 [ [ [ $ +.1 q j '.W w $ [ $ $ $ 2 6 v '.=.b $ [ #.#.$ 7 6 | NX}.1 [ $ $ 1 M.R J d q $ $ $ $ #.[ 6 (.V.8.; P 6 2 $ [ $ $ +.$ $ $ ",
"$ $ $ $ $ $ $ $ $ $ $ $ $ $ $ $ $ [ $ w 0 6.- f 6 $ $ #.$ $ 7 / n F t 1 $ 7 t a ' a 4 $ [ $ $ $ $ $ [ $ 4 N U A.i v 2 $ $ [ [ 5 S ;.m _ 4 2 $ $ $ $ $ $ $ 7 @. XF ( 7 #.$ $ $ $ $ $ $ $ $ $ [ 2 ..B.6.R Y.$ [ $ $ [ $ $ 5 a W z o w [ [ $ $ $ 7 q u -.;X^ $ [ +.$ #.7 6 T 2.7.A [ [ #.#.$ 2 1 >X0X{ 1 [ $ +.1 v ; Y S q $ $ $ $ $ [ $ 5 B 6.4.* ( 7 $ $ $ $ [ $ +.$ ",
"$ $ $ $ $ $ $ $ $ $ $ $ $ $ $ $ $ $ $ 5 u 4.U & ( $ [ $ $ $ 4 a N./ 7 2 [ 6 b F.B.< 1 $ $ $ $ $ $ $ $ $ 7 ^ 3 H S.p 8 2 [ [ [ 5 S ;.+ _ 1 2 $ $ $ $ $ $ $ 7 @.0XF e 7 $ $ $ $ $ $ $ $ $ $ $ [ 7 q dX6.; ..$ [ $ $ $ $ $ 1 t B ;.;.N 5 1 $ $ $ 1 q u 4.<.^ $ [ +.$ #.7 6 x.2.=.A [ [ #.#.#.2 2 eXzX5X2 $ #.$ 7 M.9 Y p q $ $ $ $ $ $ $ [ < W X.O Z 1 $ $ $ $ $ $ $ $ ",
"$ $ $ $ $ $ $ $ $ $ $ $ $ $ $ $ $ $ $ 1 ^ m ;.H b 1 2 +.[ $ ..B.S 8 $ [ $ q p R j t 7 $ $ $ $ $ $ $ $ $ 2 8 X D.5.J ^ 1 2 [ $ 5 S 6.+ ( 1 [ $ $ $ $ $ $ $ 7 4 0XF e 7 $ $ $ $ $ $ $ $ $ $ $ [ 7 8 , ;.; ..$ [ $ $ $ $ $ 2 7 G O = + ^ 4 $ $ +.1 t u 4.<.E $ [ +.$ $ 2 6 T W =.A 2 [ $ #.#.[ $ $ $ $ $ #.#.$ 7 M.; V.p q $ $ $ $ [ [ $ 7 { M O.6.S 8 [ 2 $ $ $ $ $ $ ",
"$ $ $ $ $ $ $ $ $ $ $ $ $ $ $ $ $ $ $ 7 5 f O %.e.t 7 3.2 4 0Xh A 1 #.$ $ w Y @ k 5 7 +.$ $ $ $ $ $ $ $ 2 4 P J &.-.k 5 2 [ $ 5 S : + ( 7 [ $ $ $ $ $ $ $ 7 6 0XF e 7 $ $ $ $ $ $ $ $ $ $ $ [ 7 8 , ;.R ..$ [ $ $ $ $ #.[ $ ( # H @ k 6 $ $ +.1 t M 4.O.E $ [ $ $ $ 2 4 v 2.. A [ [ +.#.#.#.$ $ $ $ $ $ $ $ 1 M.; Y p q $ $ $ $ $ $ $ 2 6 P ' 8.9 | 7 2 $ $ $ $ [ [ ",
"$ $ $ $ $ $ $ $ $ $ $ $ $ $ $ $ $ $ $ 2 $ | J 6.' b 6 [ 1 r F x.q 7 $ [ $ K U V.v 4 7 +.$ $ $ $ $ $ $ $ 2 7 t + 9.O s e 2 $ $ 5 S 6.+ ( 7 [ $ $ $ $ [ $ $ 7 6 0XF t 7 #.$ [ $ $ $ $ $ $ $ $ [ 2 8 B z 3 ..$ [ $ $ [ $ $ [ $ 8 * 7.2., 8 $ $ $ 1 q u 4.<.E $ [ $ $ $ 2 4 v 2.7.A [ [ +.+.[ 7 VX@.2 [ $ $ $ $ 1 M.R Y p q $ $ $ $ #.$ $ 2 7 t * 9.2.C 4 2 $ $ $ $ $ $ ",
"$ $ $ $ $ $ $ $ $ $ $ $ $ $ $ $ $ $ $ [ $ 6 ,  .-.3 e $ 6 k n K.7 2 [ 2 7 k z Y G 1 2 +.$ $ $ $ $ $ $ $ 2 2 8 s = U D w 2 [ [ 8 S 6.+ ( 7 [ $ $ $ $ $ $ $ 7 6 0XF e 7 #.$ [ $ $ $ $ $ $ $ $ [ 2 8 B z 3 ..$ [ $ $ [ $ $ [ $ 4 r.0.i > ( $ $ #.7 t R.4.0 w $ [ [ [ [ 7 @.oX2.7.A $ [ +.[ [ wX0X| 1 [ $ $ [ $ 4 G R Y p q $ $ $ $ $ $ $ [ 2 $.B P.4.a 8 7 $ $ $ $ $ $ ",
"$ $ $ $ $ $ $ $ $ $ $ $ $ $ $ $ $ $ $ $ $ 7 I 9 i U *X1 e B.N 4 $ [ [ 7 6 u : W P 7 2 $ $ $ $ $ $ $ $ $ [ [ 1 N ;.7.- Q 2 [ [ 8 S 6.+ ( 7 [ $ $ $ $ $ $ $ 7 6 `.OX( 2 #.$ $ $ [ $ $ $ $ $ $ [ 2 8 B z 3 Y.$ [ $ $ $ [ [ $ $ 1 b Y U <.~ $ [ #.7 t B 4.Y w $ [ $ $ $ 7 6 x.W =.A $ [ #.[ 2 o.x.E 1 $ #.$ $ $ 1 Q D V.p q $ $ $ $ $ $ $ [ [ 7 f 6.X.B.e 7 $ $ $ $ +.$ ",
"$ $ $ $ $ $ $ $ $ $ $ $ $ $ $ $ $ $ #.$ $ 7 8 X 0.y > w T h ~ 7 $ #.[ 2 8 , 8.2.P 7 2 $ $ $ $ [ $ [ $ +.[ $ $ k . . 0 A 7 [ 2 q S 6.* ( 7 2 $ $ $ $ $ $ $ 7 5 `.|.r 7 #.#.$ $ [ $ $ $ $ $ $ [ 2 8 B ;.3 q $ [ $ $ [ $ $ $ +.1 G > 7.i I $ [ $ 7 t M 4.W w $ [ $ $ $ 2 6 x.-  .v $ $ $ $ 2 C.F | 1 [ $ $ $ $ 1 G D J p q $ [ $ $ $ #.$ [ [ [ k =.X.R ^ 7 $ $ $ $ +.$ ",
"$ $ $ $ $ $ $ $ $ $ $ $ $ $ $ $ $ $ $ $ $ 2 7 E J 1.f.o m T 5 2 $ #.[ 7 q S 9.W P 7 2 +.$ $ $ $ $ $ $ $ $ $ $ K /.7.4.b 7 [ 2 o.S 6.N.( 7 [ $ $ $ $ $ $ $ 7 6 `.OXr 7 #.$ $ $ $ $ $ $ $ $ $ [ 7 q , ;.3 Y.$ [ #.$ $ $ $ $ $ 1 / m 7.=.C $ [ $ 1 t M 4.Y w $ [ $ $ $ 2 6 oX2.%.p M.Q Q Z S D v.| 1 [ $ $ $ $ 1 Q D J p q $ $ $ $ $ $ $ [ [ 2 v 7. .; ` 7 $ $ $ $ [ $ ",
"$ $ $ $ $ $ $ $ $ $ $ $ $ $ $ $ $ $ $ $ $ [ $ 8 S y y 9.+ e 2 2 $ $ [ 7 t B.8.% Q 1 7 +.$ $ $ $ $ $ $ $ $ $ $ I 0.7.-.b 1 $ 2 q p 6.+ ( 7 [ $ $ $ $ $ $ $ 7 6 `.|.r 7 #.$ $ $ $ $ $ $ $ $ $ [ 7 q , ;.3 Y.$ [ #.$ $ $ $ $ $ 1 ^ + U 7.C $ [ $ 1 t B 4.o w $ [ $ $ $ 7 6 k 4.t.&.s.%X%.h.  *.m | 1 $ $ $ $ $ 1 Q D @ p q $ $ $ $ $ $ $ [ [ [ v 7. .; ` 7 $ $ $ $ [ $ ",
"$ $ $ $ $ $ $ $ $ $ $ $ $ $ $ $ $ $ $ $ $ $ $ 7 A i w.6.u 4 $ [ $ $ [ 7 ..B.8.-.v 4 7 +.$ $ $ $ $ $ $ $ $ $ $ ` ;X .-.b 1 [ 2 q + c m ( 7 2 $ $ $ $ $ $ $ 7 6 ].OXr 7 $ $ $ $ $ $ $ $ $ $ $ [ 7 q , z 3 ..$ [ #.$ $ $ $ $ $ 1 w g U 7.v $ [ $ 1 t , -.Y w $ [ [ $ $ 7 6 oX% l R U.v K b S ; v.w 1 $ $ $ $ $ 1 Q D @ p q $ $ $ $ $ $ $ [ [ $ K U  .; ` 7 $ $ $ $ [ $ ",
"$ $ $ $ $ $ $ $ $ $ $ $ $ $ $ $ $ $ $ $ $ $ $ 7 ( + 2.4.A 7 $ [ $ $ [ 7 t * 9.4.k 6 2 +.$ $ $ $ $ $ $ $ $ $ $ u.;X .O.b 1 [ 2 t m 6.m ( 7 2 $ $ $ $ +.$ $ 7 6 ].OX| 2 $ $ $ $ $ $ $ $ $ $ $ [ 7 q , z 3 ..$ [ #.$ $ $ $ $ $ 1 ^ m  .U K $ 2 $ 1 t , -.Y w $ [ $ $ [ 7 6 x.% ;.k $ $ $ $ 2  XOX^ 1 $ $ $ $ $ 1 Q D @ p q $ $ $ $ $ $ $ [ [ $ v 7.O ' ` 7 $ $ $ $ [ $ ",
"$ $ $ $ $ $ $ $ $ $ $ $ $ $ $ $ $ $ $ $ $ $ $ 2 t , # o G 2 $ $ $ $ [ 7 q B.9. .N 8 7 +.$ $ $ $ $ $ $ +.$ $ $ ` -.D.Y A 1 [ 2 t m 6.+ ( 7 2 $ $ $ $ $ $ $ 7 6 ].OX| 2 $ $ $ $ $ $ $ $ $ $ $ [ 7 q , H 3 ..$ [ $ $ $ $ $ $ $ 1 < 9 O i K $ [ $ 1 e h -.W | $ [ $ $ $ 7 6 x.% } k 2 2 [ 2 [ >Xx.^ 1 $ $ $ $ $ 1 Q g J p q $ $ $ $ $ $ $ [ [ [ b .  .; u.7 $ #.$ $ [ $ ",
"$ $ $ $ $ $ $ $ $ $ $ $ $ $ $ $ $ $ $ $ $ $ $ 2 t B ' o Q 2 $ $ $ $ [ 7 8 , c 7.e.t 7 $ $ $ $ $ [ [ [ [ $ $ $ u.O.z.@ < 7 [ 2 Y.m 6.+ ( 7 2 $ $ $ $ $ $ $ 7 6 `.OXr 7 $ $ $ $ $ $ $ $ $ $ $ [ 1 q , z 3 ..$ [ $ $ $ $ $ $ $ 1 A Y U O.I $ [ $ 1 e , 4.Y | $ $ $ $ $ 7 6 x.Y . k [ 2 [ [ $ @Xx.^ 1 $ $ $ $ $ 4 G D @ p q $ $ $ $ $ $ $ [ 2 7 f 6. .+ r 7 #.$ $ $ [ $ ",
"$ $ $ $ $ $ $ $ $ $ $ $ $ $ $ $ $ $ $ $ $ $ $ 2 t B ' o Q 2 $ $ $ $ [ 7 4 u 6.A.D ^ 1 $ [ $ $ $ $ $ $ $ [ $ [ ` W -.; ^ 2 [ 2 q m 6.+ ( 1 2 $ $ $ $ $ $ $ 7 $.0XF r 7 $ $ $ $ $ $ $ $ $ $ $ [ 7 q , z 3 ..$ [ $ $ $ $ $ $ $ 4 N -.i o ^ $ $ $ 1 t , 4.:.| $ [ $ $ $ 7 6 T W . k 7 2 $ [ [ 5X X}.7 $ $ $ $ $ 1 M.R J p q $ $ $ $ $ $ $ [ 7 6 u c 4.M q 2 $ $ $ $ [ $ ",
"$ $ $ $ $ $ $ $ $ $ $ $ $ $ $ $ $ $ $ $ $ $ $ 2 t B ' o Q 2 $ $ $ $ [ 2 1 F z ;.Y v 1 $ [ [ [ [ $ $ $ $ [ $ 2 G 4.V.B t 2 $ $ q m = D i.1 2 $ $ $ $ $ $ $ 7 5 `.F e 7 $ $ $ $ $ $ $ $ $ $ $ [ 7 q , =.3 ..$ [ $ $ $ $ $ [ $ 5 S 7.4.m t $ $ $ 1 t h 4.Y w $ [ $ $ $ 7 4 v 2.d.k 7 2 +.$ [ 2 4X2 [ $ $ $ $ $ 7 M.; V.S q $ $ $ $ $ $ $ [ 7 q S c 2.k 5 2 $ $ $ $ [ $ ",
"$ $ $ $ $ $ $ $ $ $ $ $ $ $ $ $ $ $ $ $ $ $ $ 2 t B # o Q 7 $ $ $ $ $ [ 2 v =.%.i a @.$ [ [ [ [ $ $ $ $ [ $ 2 A D.# oX5 2 [ $ q + s.; E 1 2 $ $ $ $ $ $ $ 7 8 v F t 7 $ $ $ $ $ $ $ $ $ $ $ [ 7 Y., H 3 ..$ [ $ $ $ $ $ [ $ t & ;.2.G.8 [ $ $ 1 e , -.o w $ [ $ $ $ 7 4 C W =.k 1 2 3.$ #.$ $ [ [ [ $ $ $ #.1 M.; V.S q $ $ $ $ $ $ $ 2 1 | D 8.Y Q 4 2 $ $ 3.[ [ $ ",
"$ $ $ $ $ $ $ $ $ $ $ $ $ $ $ $ $ $ $ $ $ $ $ 7 t , @ o G 7 $ $ $ $ $ [ $ E Y ;.>.+ q $ [ $ +.3.$ $ $ $ [ [ 2 N 6.; ^ 4 [ [ [ q * :XL.P 4 [ #.$ $ $ $ $ [ 1 e F x.q 7 $ #.$ $ $ $ $ $ $ $ $ [ 7 { , z 3 ..[ [ $ $ [ $ $ 2 2 ` 0.*.R I 4 $ $ $ 1 e B O.o w $ [ +.$ $ 7 4 C V.. k 7 2 3.$ $ $ $ $ [ [ $ $ $ $ 7 M.9 V.d 8 $ $ $ $ $ $ $ 2 5 k J = g t 7 2 $ [ [ [ [ $ ",
"$ $ $ $ $ $ $ $ $ $ $ $ $ $ $ $ $ $ $ $ $ $ $ 7 t , J o Q 7 $ $ $ $ $ [ $ t * X.%.o ^ [ 2 $ $ +.$ $ $ $ [ 2 6 , 6.x 8 2 [ [ $ 8 p : @ v $.2 $ $ $ $ $ $ [ 4 i.OX].8 7 $ $ $ $ $ $ $ $ $ $ $ 2 7 ..dX;.3 ..$ [ $ $ $ $ $ 7 6 N A.: j 8 7 #.#.$ 1 t , 4.Y w $ [ +.$ $ 7 4 C V.. k 7 2 [ $ $ $ $ #.[ 2 VXvX2 $ 7 M.; V.S 8 $ $ $ $ $ $ $ 7 ( m O.7.a 6 [ [ $ $ [ $ $ $ ",
"$ $ $ $ $ $ $ $ $ $ $ $ $ $ $ $ $ $ $ $ $ $ $ 7 t , V.o Q 2 $ $ $ $ $ $ $ 6 A @ *.7.oX4 7 $ $ +.$ $ [ $ 2 7 ] F.4.b 7 $ [ [ $ 5 S c O.j 8 2 $ $ $ $ $ $ [ 6 v n 0X@.2 $ $ $ $ $ $ $ $ $ $ $ 2 1 ..S ;.; ] $ 2 $ $ [ $ $ 4 I R } i I 7 2 $ $ $ 1 t , 4.Y | $ [ +.$ $ 7 4 C V.. k 7 2 $ $ $ $ [ 2 7 6 MX9X1 $ 1 v ' Y S q $ $ #.$ $ 2 [ 4 Z 7.z.; E 7 $ $ $ $ [ $ $ $ ",
"$ $ $ $ $ $ $ $ $ $ $ $ $ $ $ $ $ $ $ $ $ $ $ 7 e S V.o G 7 $ $ $ $ $ $ $ 1 t s l c x | 1 $ $ a.$ $ $ +.2 5 C F.S e 2 $ $ [ $ 4 u 6.i m e 2 #.$ #.#.a.$ $ 8 j n .X1 7 $ $ $ $ $ $ $ $ $ [ [ 2 1 ..B.6.9 ] [ 2 $ $ [ [ $ q p 4.X.S 8 $ [ $ $ $ 1 t , 4.Y r $ [ +.$ $ 7 4 C Y . k 1 2 3.$ $ $ $ 2 4 ~.`.tX1 $ 1 b J Y p q $ $ #.#.[ 2 2 ] R 9.J v 5 2 $ $ $ $ [ $ $ $ ",
"$ $ $ $ $ $ $ $ $ $ $ $ $ $ $ $ $ $ $ $ $ $ $ 2 e S @ - G 7 $ $ $ $ $ $ $ 2 1 C 7.q.X.G.8 $ [ a.$ $ [ $ 7 | , v.C 6 2 +.+.$ $ 7 b U U 0.v 2 $ [ #.a.3.[ $ | R B Y.2 [ #.#.$ $ $ $ $ $ $ [ $ 2 1 ] B.6.# _ 2 2 $ $ $ $ 4 b /. .S w 1 $ $ $ #.$ 1 t M -.W r $ [ $ $ $ 2 4 `.W A.k 7 2 $ $ #.$ #.2 5 v F }.1 $ 1 b - z.# e $ $ #.$ $ 2 e u 4.} G.8 2 [ $ $ $ $ $ $ [ $ ",
"$ $ $ $ $ $ $ $ $ $ $ $ $ $ $ $ $ $ $ $ [ $ $ $ r m % -.v $ $ $ #.$ $ $ $ [ $ q p 7.*.i K 2 [ $ #.#.[ $ $.u Y oX6 7 [ $ $ $ $ 2 | R U = p q $ $ #.#.+.$ 8 X 2.N 4 $ $ $ $ $ $ $ [ $ [ [ [ $ [ 1 ! R q.Q.C 1 2 $ $ $ q a # . R i.[ 2 $ $ $ $ $ 7 e e. .0.w $ $ $ $ #.[ 5 j 4.;.u 6 $ #.#.#.#.$ $ | B.F 5 7 $ 7 V -.=.0.` $ $ $ $ $ t p 7.2.S e $ [ $ $ $ $ $ $ $ [ $ ",
"$ $ $ $ $ $ $ $ $ $ $ $ $ $ $ $ $ $ $ $ $ $ $ 5 V i } } d t 1 7 $ [ $ $ $ $ $ 4 w p ;.9.R J.1 $ #.#.$ t F D p t $ $ $ $ $ $ $ 2 5 v J h.7.S ` 6 $ $ 4 u.S @ g E 7 $ $ $ $ $ $ $ $ #.$ $ [ $ 2 e , U &.7.x | $ $ 5 ` p %.0.S ^ 7 $ [ [ $ $ $ $ 8 r.i S.: a 8 2 $ [ $ 8 Z o >.*.# b r 8 6 1 4 8 w S 7.X 4 7 7 r 3 c y : G.8 7 $ q b 3 =. .a 8 2 2 $ $ $ $ $ +.+.$ [ $ ",
"$ $ $ $ $ $ $ $ $ $ $ $ $ $ $ $ $ $ $ [ $ 8 a Y :   &Xp.&.U + Q 1 7 [ $ $ $ #.[ $ ( 3 : : w.S M.< G N o % f q 7 +.$ $ $ [ [ $ [ 2 5 a } ,.y.>.o 3 R o w.y 9 G 6 2 $ $ $ $ $ $ +.$ [ [ $ 2 5 v & &.p.&Xp.S.U > R 0.%.z <.N o.$ [ $ $ $ $ [ 5 b ; 6.p.p.  q.<.X Y.q v 3 = &X-X&Xp.&.%Xg.qXj.j.g.%Xy c j 4 ( G.W h.&X&Xp.: Y l.l.0.: 7.* v 8 $ $ $ $ $ $ $ $ $ $ $ +.$ ",
"$ $ $ $ $ $ $ $ $ $ $ $ $ $ $ $ $ $ $ [ [ { B @ ; R m R l.<.D (.1 7 $ $ $ $ [ $ +.[ e a W y t.&.c.,.z & k 5 $ $ $ $ $ $ [ $ $ [ [ $ q a o 9.p.&X&Xp.&.7.m ~ [ $ 3.+.+.+.$ $ $ $ $ $ $ +.7 { X + l.> > > l.Y 0.0.# * v Y.$ $ $ $ +.+.$ $ $ o.u ; J l.R ; W k.M ..t N * ; & > ; > > l.J o o l.o & R p I 1 i.* & R 3 3 ; & O.<.<.; u I 6 $ $ $ $ +.$ [ [ $ $ $ $ $ $ $ ",
"$ $ $ $ $ $ $ $ $ $ $ $ $ $ $ $ $ $ [ [ [ _.eX7 $ $ $ $ $ 2 eX2 [ [ [ $ $ $ $ +.+.3.$ 2 ] b d 3 * , C 8 $ $ $ $ $ $ $ $ $ $ $ $ $ [ $ $ ..C a S S j A ( 7 $ +.+.$ $ $ $ $ $ $ [ [ [ [ $ [ 2 7 7 $ $ $ $ $ 2 1 1 $ $ $ $ $ $ $ $ $ $ +.$ $ 2 1 1 7 #.#.$ $ 7 7 7 7 7 2 $ $ $ $ $ $ $ $ $ $ #.#.#.$ $ $ b.2 eX2 $ $ $ $ $ $ 7 7 $ $ $ $ #.$ $ $ $ $ $ +.+.$ $ $ $ $ $ ",
"$ $ $ $ $ $ $ $ $ $ $ $ $ $ $ $ $ $ $ +.+.+.+.+.$ $ #.$ $ +.$ $ $ $ [ $ $ $ $ $ $ $ $ $ $ $ $ $ $ $ $ $ $ $ [ $ $ $ [ [ $ $ $ $ $ [ $ $ $ $ $ #.#.$ $ $ $ $ $ $ $ $ [ $ $ [ $ $ $ $ $ $ $ $ $ $ $ $ $ $ +.+.+.+.$ $ $ $ $ $ $ $ $ $ $ $ $ $ $ $ $ $ $ $ $ #.$ +.+.+.+.+.+.$ #.$ $ $ +.+.+.+.+.+.$ $ $ [ $ +.+.3X+.$ $ $ $ $ $ #.$ $ $ $ $ $ $ $ $ $ $ $ $ $ $ $ $ $ ",
"$ $ $ $ $ $ $ $ $ $ $ $ $ $ $ $ $ $ $ $ $ $ $ $ $ $ $ $ $ [ $ $ #.$ $ $ $ $ [ [ $ $ [ [ $ $ $ $ $ $ $ [ $ $ $ $ $ $ [ $ $ $ $ $ [ [ $ $ $ $ $ $ $ $ $ $ $ $ $ $ $ $ $ $ $ $ $ $ $ [ $ $ $ $ $ $ $ $ #.#.$ +.+.$ $ $ $ $ $ $ $ $ $ $ [ $ $ $ $ $ $ $ $ $ $ $ $ $ #.$ +.+.+.+.$ $ $ $ $ $ +.$ $ $ $ #.$ $ $ #.$ $ $ $ $ $ $ $ $ $ $ $ $ $ $ $ $ $ $ $ $ $ $ $ $ $ $ $ ",
"$ $ $ $ $ $ $ $ $ $ $ $ $ $ $ $ $ $ $ $ $ $ $ $ $ $ $ $ $ $ $ $ $ $ +.$ $ $ $ $ $ $ $ $ $ $ $ $ $ $ $ $ $ $ $ $ [ $ $ $ $ $ $ $ $ $ $ $ $ $ $ $ $ $ $ $ [ $ $ $ $ $ $ $ $ $ $ [ $ $ $ [ [ $ $ $ $ $ $ $ $ $ #.#.$ $ $ $ $ $ $ $ $ $ $ $ $ $ $ $ $ $ $ $ $ $ $ $ $ $ $ $ $ $ $ $ $ $ [ $ $ $ $ $ $ $ $ $ $ $ $ $ #.$ $ $ #.#.$ $ $ $ $ $ $ $ $ $ $ $ $ $ $ $ $ $ $ $ "
};
