/* XPM */
static char *_a64bacaa3d84e1cfde973528ca6f778_0[] = {
/* columns rows colors chars-per-pixel */
"165 40 256 2 ",
"   c #FE0009",
".  c #E40B12",
"X  c #991314",
"o  c #CD1213",
"O  c #DD1012",
"+  c #B80509",
"@  c #CA1721",
"#  c #C80B11",
"$  c black",
"%  c #D4131A",
"&  c #C70509",
"*  c #B60B10",
"=  c #ED040A",
"-  c #CD1319",
";  c #C4181A",
":  c #EC0912",
">  c #C51112",
",  c #A90B11",
"<  c #730000",
"1  c #1A0000",
"2  c #0A0000",
"3  c #BD0F12",
"4  c #220000",
"5  c #320000",
"6  c #2A0000",
"7  c #120000",
"8  c #3A0000",
"9  c #C51317",
"0  c #D40B12",
"q  c #430000",
"w  c #630000",
"e  c #530000",
"r  c #5B0000",
"t  c #4B0000",
"y  c #F4080A",
"u  c #A21112",
"i  c #DC100C",
"p  c #B41111",
"a  c #9A0B11",
"s  c #AC1212",
"d  c #AC0A0B",
"f  c #940A0B",
"g  c #BC1318",
"h  c #AC191B",
"j  c #9C090A",
"k  c #8C090A",
"l  c #EE0303",
"z  c #E6040A",
"x  c #B41417",
"c  c #ED0411",
"v  c #830A0A",
"b  c #890C0F",
"n  c #A31A1C",
"m  c #BB0E0B",
"M  c #A41417",
"N  c #97100E",
"B  c #A6100B",
"V  c #940407",
"C  c #7B0909",
"Z  c #8C0307",
"A  c #840307",
"S  c #AF0101",
"D  c #BD1814",
"F  c #921F1F",
"G  c #780B10",
"H  c #E5100B",
"J  c #CC1814",
"K  c #7B0307",
"L  c #FC080C",
"P  c #73090A",
"I  c #730306",
"U  c #DE040F",
"Y  c #D10202",
"T  c #840903",
"R  c #C11E22",
"E  c #670B11",
"W  c #D20411",
"Q  c #740803",
"!  c #6B090A",
"~  c #6B0307",
"^  c #640307",
"/  c #68100E",
"(  c #580B11",
")  c #FC0803",
"_  c #5B0306",
"`  c #6C0501",
"'  c #C61D1B",
"]  c #530307",
"[  c #040000",
"{  c #470B11",
"}  c #E70415",
"|  c #5C0903",
" . c #DE0419",
".. c #4B0406",
"X. c #DC1813",
"o. c #3B090A",
"O. c #D50416",
"+. c #000004",
"@. c #230602",
"#. c #000400",
"$. c #310802",
"%. c #EB080C",
"&. c #F70407",
"*. c #EF080D",
"=. c #E30C0C",
"-. c #D71015",
";. c #E70C0E",
":. c #D31014",
">. c #E7080E",
",. c #F3040D",
"<. c #D71010",
"1. c #FB0406",
"2. c #D31414",
"3. c #040004",
"4. c #D81416",
"5. c #F90400",
"6. c #EB0C0E",
"7. c #E20C08",
"8. c #F00C0E",
"9. c #F2000D",
"0. c #D8140F",
"q. c #F00C08",
"w. c #E50410",
"e. c #AC1319",
"r. c #9C0408",
"t. c #FA0000",
"y. c #F8040C",
"u. c #6B0000",
"i. c #630803",
"p. c #FF0406",
"a. c #000404",
"s. c #EF0808",
"d. c #E41014",
"f. c #F20007",
"g. c #E20808",
"h. c #F30407",
"j. c #DC0309",
"k. c #D40A0B",
"l. c #C80F0A",
"z. c #DC171C",
"x. c #891416",
"c. c #F40804",
"v. c #AA2325",
"b. c #840001",
"n. c #D3030A",
"m. c #DD0B0C",
"M. c #7B0000",
"N. c #BC191B",
"B. c #B4191A",
"V. c #CD181A",
"C. c #630A0A",
"Z. c #050400",
"A. c #E50B18",
"S. c #F70512",
"D. c #DD1119",
"F. c #B4201F",
"G. c #A4090B",
"H. c #FB0004",
"J. c #7B0804",
"K. c #530909",
"L. c #C51814",
"P. c #EE0A19",
"I. c #E50303",
"U. c #8C0001",
"Y. c #430306",
"T. c #E70808",
"R. c #A31813",
"E. c #E70C08",
"W. c #EB0C08",
"Q. c #D41813",
"!. c #A40408",
"~. c #59100D",
"^. c #E3080C",
"/. c #DD0B11",
"(. c #78100D",
"). c #AC0309",
"_. c #080005",
"`. c #7D1E1E",
"'. c #D4181A",
"]. c #791416",
"[. c #E70D1E",
"{. c #3A0306",
"}. c #4B090A",
"|. c #94191E",
" X c #681516",
".X c #5B090A",
"XX c #E60804",
"oX c #89100E",
"OX c #95282A",
"+X c #320306",
"@X c #360C0F",
"#X c #EF0419",
"$X c #270C0E",
"%X c #EB0808",
"&X c #FF0004",
"*X c #8C0804",
"=X c #B51B22",
"-X c red",
";X c #D3100F",
":X c #ED0804",
">X c #43090A",
",X c #F70005",
"<X c #AC0903",
"1X c #9C0001",
"2X c #9C0803",
"3X c #000008",
"4X c #120504",
"5X c #220405",
"6X c #940101",
"7X c #FF0400",
"8X c #F30D15",
"9X c #551B1F",
"0X c #711B1F",
"qX c #DD0203",
"wX c #2A0406",
"eX c #1A0406",
"rX c #F8000D",
"tX c #591417",
"yX c #A40101",
"uX c #530903",
"iX c #31090A",
"pX c #D3140F",
"aX c #F30300",
"sX c #B41814",
"dX c #AC1813",
"fX c #940903",
"gX c #DD0803",
"hX c #A40904",
"jX c #D30903",
"kX c #471617",
"lX c #430802",
"zX c #381415",
"xX c #D30B19",
"cX c #DD0C19",
"vX c #2A0A0A",
"bX c #4E1F1F",
"nX c #33110E",
"mX c #220908",
"MX c #5A2427",
"NX c #772B2E",
"BX c #47100E",
"VX c #2B1112",
"CX c #1B0A09",
"ZX c #050404",
"AX c #3A0803",
"SX c #1A0803",
"DX c #2A0803",
"FX c #4B0903",
"GX c #0C0709",
"HX c #26100C",
"JX c #11090B",
"KX c #F0100C",
"LX c #412422",
"PX c #000800",
"IX c #000808",
"UX c black",
/* pixels */
"$ $ $ $ $ $ $ $ $ $ $ $ $ $ $ $ $ $ $ $ $ $ $ $ $ $ $ $ $ $ $ $ $ $ $ $ $ $ $ $ $ $ $ $ $ $ $ $ $ $ $ $ $ $ $ $ $ $ $ $ $ $ $ $ $ $ $ $ $ $ $ $ $ $ $ $ $ #.#.$ $ $ $ $ $ $ $ $ $ $ $ $ $ $ $ $ $ $ $ $ $ $ $ $ $ $ $ $ $ $ $ $ $ $ $ $ $ $ $ $ $ $ $ $ $ $ $ $ $ $ $ $ $ $ $ $ $ $ $ $ $ $ $ $ $ [ [ [ $ $ $ $ $ $ $ $ $ $ $ $ $ $ $ $ $ ",
"$ $ $ $ $ $ $ $ $ $ $ $ $ $ $ $ $ $ $ $ $ $ $ $ $ $ $ $ $ $ $ $ $ $ $ $ $ $ $ $ $ $ $ $ $ $ $ $ $ $ $ $ $ $ $ $ $ $ $ $ $ $ $ $ $ $ $ $ $ $ $ $ $ $ $ $ $ $ $ $ $ $ $ $ $ $ $ $ $ $ $ [ $ [ $ $ $ $ $ $ $ $ $ $ $ $ $ $ $ $ $ $ $ $ $ $ $ $ $ $ $ $ $ $ $ $ $ $ $ $ $ $ $ [ $ $ $ $ $ $ $ $ $ $ $ $ [ $ $ $ $ $ $ $ $ $ $ $ $ $ $ $ $ $ $ ",
"$ $ $ $ $ $ $ $ $ $ $ $ $ $ $ $ $ $ $ $ $ $ $ $ $ $ [ [ $ $ $ $ $ #.#.$ $ #.#.#.#.$ $ $ $ $ $ $ $ $ $ $ $ $ $ $ $ $ $ $ $ $ $ $ $ $ $ $ $ $ $ $ $ $ $ $ $ [ [ $ [ $ $ $ $ $ [ $ $ [ $ $ $ $ $ [ [ $ $ $ $ $ $ $ $ $ $ $ $ $ $ $ #.$ $ $ $ $ $ $ $ $ #.#.#.#.#.#.#.#.#.#.$ $ $ $ $ $ $ [ $ $ $ $ $ $ [ [ $ $ $ $ $ $ $ $ $ $ $ $ $ $ $ $ $ ",
"$ $ $ $ $ $ $ $ $ $ $ $ $ $ $ $ $ $ $ $ $ $ $ $ $ $ $ $ $ [ $ $ $ #.$ $ #.$ $ $ $ $ $ $ $ $ $ $ $ $ $ $ $ $ $ $ $ $ $ $ $ $ $ $ $ $ $ $ $ $ $ $ $ $ $ $ $ [ [ $ $ $ $ $ $ $ $ $ $ #.#.$ $ $ $ [ $ $ $ $ $ $ $ $ $ $ $ $ $ $ $ $ $ #.#.$ $ $ $ $ $ $ $ $ $ $ #.$ $ $ $ $ $ $ $ $ $ $ $ $ $ $ $ $ $ $ $ $ $ $ $ $ $ $ $ $ $ $ $ $ $ $ $ $ $ ",
"$ $ $ [ 7 wX5 7 $ $ $ 4 @.4 2 $ $ #.[ 1 @.7 $ $ 1 @.1 2 [ [ $ $ 1 e b S + * u G o.$ $ $ $ $ $ $ [ 2 4 4 $ +.+.$ $ @.7 $ $ $ $ [ 2 eX@.4 1 1 4 4 2 [ $ $ $ [ [ +.[ [ 1 q i.I v Z r.r.a k K ] 1 $ $ $ $ $ $ $ $ $ $ 7 5 8 6 1 1 1 1 4 7 [ 1 8 { t { 8 5 8 8 8 8 q t t Y.@X7 [ [ $ 4 t ^ < v U.X 1Xr.Z K e $ $ $ $ $ $ $ $ $ $ $ $ $ $ $ $ $ ",
"$ $ [ 7 q u O.k.l.& Y W ; j q [ [ $ 1 Q + > J Y W 3 N q 2 [ $ q j <.7.^.T.q.,.6.> C 6 [ [ [ [ 2 2 C.+ <.J R R > > # N 6 $ 3._.1 ( , O.<.Y J R u q $ [ [ [ [ [ $ 2 r s W %Xf.&.t.t.y = : c w.m v q $ $ $ $ #.+.[ [ ( p o jXk.O.<.O.J k 5 w g <.U g.U j.U g.g.U g.T.g.<.+ e $ 4 | , U y c.t.t.5.f.l *.9.0.+ v 6 $ $ $ $ $ $ $ $ $ $ $ $ $ $ ",
"$ $ [ 2 @.Q 3 U &.t.9.j.d C 5 [ $ $ 7 r j o q.y *.3 C 5 [ 7 u.S R m b ( e ^ V 0 6.% B t $ [ [ 2 [ ] , O.9.&X&X  7.3 v 4 $ $ [ 7 { j U f.y.6.o N 8 $ $ $ $ $ $ $ 2 e u > %X&.H.7.B Q E Q , 0.. >.p / 4 2 $ [ [ [ $ q b m %.) p.1.j.3 C 6 t *Xm E.)   ) T.o l.l.o j.%Xq.0./ $ 4 | R.J %.1.y.i !.< | b.* i S.>.S / 4 $ $ +.$ $ $ $ $ $ 3.$ $ ",
"$ $ $ $ $ $ 6 k O 6.o k 4 $ #.$ $ $ $ $ $ w x R G.t $ $ $ ] m % v 6 $ $ $ $ 2 Q R ;.6.j 8 2 [ $ $ $ $ o.S :X;.<.A 6 $ $ $ $ $ [ [ 6 ^ n J , e 1 $ #.$ $ $ $ $ $ $ $ [ 5 A J *.R q $ $ $ [ ] G.w.z :.V $.$ [ $ $ $ $ $ 8 ,  .} Y | $ $ $ $ $ @.N <.=.i K [ $ $ 7 8 ` 3 @ i.$ 2 $ 7 6 b U z , q $ $ $ $ ^ m . } xXQ 7 [ +.$ $ $ $ $ $ [ $ $ ",
"$ $ [ $ [ [ $ ( @ ;.0 G.5 [ [ [ $ $ $ $ 7 ` + X ..7 $ 7 t |.N.a 5 $ $ $ $ $ 2 7 E o 9.-.a 8 [ $ $ [ $ 2 V 7.W s t $ $ $ $ $ [ $ +.[ [ ! h G [ $ #.$ $ $ $ $ $ [ [ $ $ 7 ( B.=.* o.$ [ $ $ $ 8 V o s.W P 7 2 +.$ $ +.+.1 b # 4.* 8 $ $ $ [ $ 7 < D Q.> e $ $ +.$ $ [ b B.~.$ [ $ [ $ E :.U a 8 7 $ $ $ $ 8 f i c R Q 6 [ [ $ $ $ $ $ $ $ $ ",
"[ [ [ $ [ $ $ 4 j -.. o r $ 2 [ $ #.$ $ 4 N J C 7 [ $ 6 N R |.q 7 +.+.[ [ $ 3.$ 4 V i =.i K 2 $ $ $ $ 2 b i # N 8 7 $ $ $ $ $ $ $ 2 1 C.v.I 7 $ $ $ $ $ $ $ $ $ $ $ [ 7 ..B.z + o.$ [ $ $ $ [ 4 k 7.=.+ E 1 [ $ $ $ +.1 v ; 2.S 8 $ [ +.$ $ 1 I D V.+ t $ [ [ 3.+.2 / j ( $ [ $ 2 $ i.Y 7.a 8 7 $ $ 3.[ $ 6 G.7.cX> w [ $ $ $ +.+.$ $ $ $ ",
"$ $ [ [ [ $ $ 1 w + ;.H T 7 2 [ $ #.2 [ Y.B * e $ [ $ e ; J ` 7 2 $ $ $ 3.3.3.$ 7 r m U = , 5 2 [ $ $ 2 b U J f 8 2 $ $ $ $ $ $ $ 2 7 C.n < 7 $ $ $ $ $ $ $ $ $ $ $ [ 7 ..B.;.m o.$ [ $ $ $ [ $ t m X.4.S 8 $ [ $ $ $ 4 M.R Y S 8 $ [ +.$ $ 1 I N.J + t $ [ [ 3.+.7 t x.}.[ [ $ [ $ | Y 7.N 5 7 $ $ $ $ $ 2 r * X.w.N 4 7 2 $ $ $ $ $ $ $ ",
"$ $ $ $ $ $ $ 7 6 oXU l S t 1 [ $ $ 2 6 0Xn A $.[ 7 1 C W R t $ [ $ $ +.+.[ $ $ 7 6 b 2.y # ` 4 2 $ $ 2 b /.# f 8 2 $ $ $ $ $ $ $ 2 7 C.n < 7 $ $ $ $ $ $ $ $ $ $ $ 2 1 t B.6.3 q $ [ $ $ $ $ $ 4 Q ; 6.0.` [ 2 $ $ $ 1 v ; - d 8 $ $ +.$ $ 1 I N.V.+ t $ [ 3.3.3.2 4 kXvX[ [ $ [ $ _ Y 7.a 8 7 [ $ $ $ $ 2 1 P @ c D i.4 2 $ $ $ $ [ $ $ ",
"$ $ $ $ $ $ $ 2 $ ] > %.o *X8 [ $ $ 7 w j x.q 1 [ 7 q X W d 6 $ $ $ $ $ $ $ $ $ 2 7 ( ; y.U G.q 7 $ $ 7 b i ' f 8 2 $ $ $ $ $ $ [ 2 7 C.j ` 7 $ $ $ $ [ $ $ $ $ $ $ [ 1 ..x 6.3 q $ [ $ $ $ $ $ 7 5 X ;.6.X 6 7 [ $ $ 4 A ; Y d 5 $ $ +.$ $ 1 I D J p { $ [ 3.+.+.[ [ $ $ $ $ [ 2 $ ( J  .j 8 7 [ $ $ $ $ [ [ 8 p %.Y f 8 2 $ $ $ [ [ [ [ ",
"$ $ $ $ $ $ $ [ $ 6 G.U 0.> | $ [ $ 4 f =XE 7 2 [ 1 ` S V.a 1 $ $ $ $ $ $ $ $ $ [ 2 5 , 8.. ; u.2 $ $ 2 b i # N 8 2 $ $ $ $ $ $ [ 2 [ C.X ` 7 $ $ $ $ [ $ $ $ $ $ $ 2 1 t x ;.3 q $ [ $ $ [ $ $ 2 [ Q i 6.* | 4 [ $ $ 4 v R V.S 8 $ $ +.$ $ 1 I N.@ p { $ $ 3.+.+.$ $ #.$ $ $ [ 2 $ _ J  .a 8 7 $ $ $ $ #.$ $ 1 N U 4.R w [ $ $ $ $ [ $ $ ",
"$ $ $ $ $ $ $ $ +.7 ` R i 7.b 2 2 [ q h , 8 $ $ $ 6 k R 9 b 1 $ $ $ $ $ $ +.+.$ [ $ 2 b 7.A.4.b 7 $ $ 2 b i ' f 8 2 $ $ $ $ $ $ $ 2 2 C.n ` 7 #.$ $ $ $ $ $ $ $ $ $ [ 1 t S ;.3 q $ [ $ $ [ $ $ 2 $ e @ ;.# v 6 $ $ $ 1 A ; V.d 8 $ $ +.$ $ 1 < N.V.* t $ $ a.Z.7 CX4X2 [ +.$ [ 2 $ ~.o 7.a 8 7 $ $ $ $ $ $ $ 7 Q o 4.<.K 2 $ $ $ [ [ [ +.",
"$ $ $ $ $ $ [ $ $ 2 8 f W = s o.4 4 ! M G 1 $ $ $ 8 , @ R M.1 $ $ [ $ $ $ +.$ $ [ $ 2 Q Y =.. j 4 $ $ 2 b i ' f 8 7 $ $ $ $ $ $ $ 2 2 C.n < 7 #.$ $ $ $ $ $ $ $ $ $ [ 7 ..x ;.3 q $ [ $ $ [ $ [ [ $ 8 m ;.2.u 8 $ $ $ 4 A ; J G.5 $ $ $ $ #.7 < N.V.* t $ [ +.7 6 9XkX7 2 $ $ $ [ $ | o 7.a 8 7 $ $ [ $ $ $ $ 7 r 3 4.U f 1 $ [ $ $ [ [ $ ",
"$ $ $ $ $ $ [ $ $ 2 2 _ D :X# v t r k `.8 7 $ $ $ t 3 xXD < 1 $ $ [ $ $ $ $ $ $ $ $ 2 r 3 O : S 5 $ [ 2 Z U ' k 5 2 $ $ $ $ $ $ [ 2 2  Xn < 7 #.$ $ $ $ $ $ $ $ $ $ [ 7 ..x ;.m q $ [ $ $ [ [ [ [ $ 6 , U -.m { $ $ $ 4 A ; V.B 5 $ $ [ $ #.2 E B.L.S q $ $ $ 7 8 NXtX1 7 [ $ $ [ $ _ o  .a 5 7 $ $ $ $ $ $ $ 2 t B '.z G.6 $ [ $ $ $ $ [ ",
"$ $ $ $ $ $ $ $ [ 2 [ 6 u XX4.3 v N j }.2 2 [ $ $ ( # O.R Q 1 $ $ $ $ $ $ +.$ $ $ $ [ t p i l + 8 $ [ 1 Z 7.' k 5 2 $ $ $ $ $ $ [ 2 2  XM Q 2 #.$ $ $ $ $ $ $ $ $ $ 2 7 ..x ;.+ o.$ [ $ $ $ [ [ [ $ 4 r.i 0.R e $ $ $ 4 v R - B 5 $ $ $ $ $ 2 u.B.' p 8 $ $ $ $ w F 9X7 2 [ $ $ 2 $ ( J D.X 5 7 $ $ $ $ $ $ $ 2 8 f % c p 5 $ [ $ $ $ $ [ ",
"$ $ $ $ $ $ $ $ $ [ $ 7 ` o 7.: J # f 1 $ [ [ $ $ w W X.R Q 7 $ $ $ $ [ $ $ $ $ $ $ 2 q u % : m q $ 2 1 Z 7.# k 5 2 $ $ $ $ $ $ $ 2 7  XM Q 2 $ $ $ $ $ $ $ $ $ $ $ [ 7 e S . + 8 $ [ $ $ $ $ $ $ $ 1 Z ;Xi @ ( $ [ $ 4 A ; J , 5 $ $ [ $ #.2 ~ g 2.J b E u.I Z R D C.[ 2 $ $ $ 2 $ _ o 7.X 5 7 $ $ $ $ $ $ $ 2 $.v V.l + q [ 2 $ $ $ $ $ ",
"$ $ $ $ $ $ $ $ [ [ $ 7 q u -.f.7.D E 2 $ $ [ $ $ E 0 O R Q 1 $ $ $ $ [ [ $ $ $ $ $ 2 8 N Y c m q $ 2 1 Z 7.@ k 5 2 $ $ $ $ $ $ $ 2 7  Xv.I 7 $ $ $ $ +.$ $ $ $ $ $ [ 7 e S =.+ 8 $ [ #.$ $ $ $ $ $ 1 U.pXi @ | $ [ $ 4 A L.V.B 5 $ $ +.$ $ 7 ~ R >.) c.= = s.&.1.O.~ $ 2 $ $ $ [ $ _ o 7.j 5 7 $ $ [ $ $ $ $ 2 6 C @ = + q [ 2 $ $ $ $ $ ",
"$ $ $ $ $ $ $ $ [ $ $ 2 1 E ; ,.4.N 8 2 $ $ [ [ $ ~ -.U J A 1 $ $ $ $ [ [ $ $ $ $ $ 2 5 b J 6.g q $ [ 1 V 7.@ F 5 7 $ $ $ $ $ $ $ 2 7  Xv.I 7 $ $ $ $ +.$ $ $ $ $ $ [ 1 e S . + 8 $ [ #.$ $ $ $ $ $ 1 b pXi o | $ [ $ 4 b L.J G.5 $ $ [ [ $ 7 ~ R  .^.).U.b b u Y ; C.2 2 $ $ $ [ $ | J 7.X 5 7 $ $ [ $ $ $ $ 2 6 C V.c + q [ 2 $ $ $ $ $ ",
"$ $ $ $ $ $ [ $ +.+.$ [ 7 8 , 6.# P 1 2 $ $ [ [ $ / O.U % Z 1 $ $ $ $ [ [ $ $ $ $ $ [ 6 v # >.m t $ [ 1 V U # f 8 7 $ $ $ $ $ $ $ 2 7  XM Q 2 $ $ $ $ +.$ $ $ $ $ $ [ 1 e S =.p 8 $ [ #.$ $ $ $ $ $ 1 U.W O J | $ [ $ 4 Z # J u 5 $ $ $ $ $ 7 u.m V.m q $ $ $ $ ` OX9X7 2 $ $ $ [ $ ~.o  .X 5 7 $ $ [ $ $ $ $ 2 6 v J l + q [ 2 $ $ $ $ $ ",
"$ $ $ $ $ $ $ $ $ $ $ [ 7 6 u ;.R | 2 2 $ $ $ [ $ w ;X7.4.a 4 $ [ $ $ $ $ $ $ $ $ $ 2 6 C ' 6.* q $ $ 1 Z /.@ f 8 7 $ $ $ $ $ $ $ 2 2  XM Q 7 $ $ $ $ $ $ $ $ $ $ $ [ 7 t S . * 8 $ [ $ $ $ $ $ $ $ 4 N 0.i & r $ [ $ 4 b ' @ u 5 $ $ $ $ $ 7 E * V.3 e $ $ $ 7 t `.9X7 2 $ $ $ 2 $ _ o 7.a 8 7 [ $ $ $ $ $ $ 2 5 k - *.+ q [ [ $ $ $ $ $ ",
"$ $ $ $ $ $ $ $ $ $ $ [ 7 6 u : R ~.2 2 $ $ [ $ $ ( l.=.=.S 5 $ [ $ $ +.$ $ [ [ $ $ [ 6 C L.z S 5 $ $ 7 Z U @ f 8 2 #.$ $ $ $ $ $ 2 7 C.v.I 7 a.$ $ $ $ $ $ $ $ $ $ [ 7 ..S w.p 8 $ [ $ $ $ $ #.$ $ 6 ).7.0.m t $ $ +.4 b L.V.u 5 $ $ $ [ $ 7 w * V.R e $ $ $ 7 8 NX9X7 2 $ $ $ 2 $ ( J 7.j 5 7 [ $ +.$ #.$ #.2 q j O.: S 5 $ [ $ $ $ $ [ ",
"$ $ $ $ $ $ $ $ $ $ $ [ 2 6 u 6.; _ 2 2 $ $ [ $ $ t m 7.6.3 q $ [ $ $ 3.[ [ $ $ $ $ 2 6 T ; U u 4 $ $ 7 V U @ f 8 2 $ $ $ $ $ $ $ 2 7  Xn I 7 $ $ $ $ $ $ $ $ $ $ $ [ 7 ..S . p 8 $ [ $ $ $ $ $ [ $ 5 * =.% S q $ $ $ 4 Z L.V.u 5 $ $ $ $ $ 1 w * V.3 e $ $ $ 2 4 9XzX2 2 $ $ $ [ $ ( J  .X 5 7 $ $ $ $ $ $ $ 7 t p 4.;.u 6 $ [ $ $ $ $ $ ",
"$ $ $ $ $ $ $ $ $ $ $ [ 7 6 u 6.R ( 2 2 $ $ [ $ $ 8 , 0.%.J ( $ [ $ $ +.$ $ $ $ $ $ 2 8 j ' Y b.7 $ $ 1 f U # k 8 2 $ $ $ $ $ $ $ 7 1  Xn ` 7 $ $ $ $ $ $ $ $ $ $ $ [ 7 ..S . p 8 $ [ $ $ $ $ $ [ $ t ; . J f 5 [ $ $ 4 b ; J u 5 $ $ $ $ $ 7 ^ + V.3 e $ [ +.[ 2 2 2 2 [ +.$ $ 2 $ | # D.N 5 7 $ $ $ $ $ [ $ 7 ^ & 0.7.k 7 $ [ $ $ $ $ +.",
"$ $ $ $ $ $ $ $ $ $ $ [ 7 6 u 6.R ( 7 2 $ $ $ $ $ $.f Y = <.P 2 2 +.$ $ $ $ $ $ $ $ 2 q , ' 3 u.7 $ $ 1 V O # N 8 2 $ $ $ $ $ $ $ 2 4 ].j / 7 $ $ $ $ $ $ $ $ $ $ $ [ 7 ..S . p 8 $ [ $ $ $ $ $ 2 [ ~ :.H D I 4 [ $ $ 4 b L.- B 5 $ $ $ $ $ 7 ^ + V.m e [ [ +.+.#.$ $ [ $ +.$ #.2 [ _ @ D.|.5 7 $ #.$ $ $ [ $ 7 v 0 i :.Q 2 $ $ $ $ $ $ +.",
"$ $ $ $ $ $ $ $ $ $ $ [ 7 6 u 6.R _ 7 2 $ $ $ $ [ 4 ` D s.7.f 6 7 $ $ +.$ $ $ $ $ $ 2 ( m R j q 7 #.$ 1 b 0.V.B t 2 $ $ $ $ $ $ $ 7 5 `.a r 7 $ $ $ $ +.$ $ $ $ $ $ [ 7 ] S =.p 8 $ [ $ $ [ $ $ 7 4 k . 6., q 7 [ $ $ 4 A R V.G.5 $ $ $ $ $ 7 ^ + V.3 e $ $ +.$ $ $ $ $ $ $ $ $ 2 $ | # D.N 5 7 [ $ $ #.#.[ $ 6 , %.-., t 7 $ $ $ $ $ $ $ ",
"$ $ $ $ $ $ $ $ $ $ $ [ 7 6 u ;.R _ 7 2 $ $ $ $ $ 1 q B ;.z x e 1 $ $ +.$ $ $ [ [ [ [ ` J N.C 6 2 #.$ 7 v <.% + r 2 $ $ $ $ $ $ $ 1 ] F k t 7 $ $ $ $ +.$ $ $ $ $ $ 2 1 ] S H + 8 $ [ $ $ $ $ [ 1 e S ;.U v 7 2 $ $ $ @.b ; V.G.5 $ $ $ $ #.1 w + V.3 e $ $ $ $ $ $ $ [ 7 vXiX2 7 [ | #  .X 5 7 $ $ $ $ $ 2 2 _ ; 9.J Q 6 2 $ $ $ $ $ $ [ ",
"$ $ $ $ $ $ $ $ $ $ $ [ 7 6 u 6.R _ 7 2 $ $ $ $ $ 2 1 A O 6.J Z 6 $ $ +.$ $ $ $ [ [ 7 k z.h Y.7 [ +.$ 7 K :.-.> u.2 $ $ #.$ [ [ [ 4 i.OXx.8 7 $ #.$ $ $ $ $ $ $ [ $ 2 1 ] B.;.m o.$ [ $ $ [ $ $ 5 a W 7.; e $ [ $ $ $ 4 A R # G.5 $ $ $ $ #.1 ^ x V.3 e $ $ $ $ $ $ $ 2 5 ].tX2 7 2 ^ Y  .j 8 7 $ $ $ $ $ 2 8 k O.*.S q 7 [ $ $ $ $ $ $ $ ",
"$ $ $ $ $ $ $ $ $ $ $ [ 2 5 M ;.R _ 7 2 $ $ $ $ $ [ $ e & ;.. 3 t $ $ a.#.$ $ $ 2 2 8 M -.b 7 [ [ $ $ 2 E > 4.0.A 7 $ [ #.a.+.$ $ 6 T n 0X4 7 $ $ $ $ $ $ $ $ [ [ [ 2 1 ~.+ ;.3 q $ [ $ $ [ [ $ / o U @ b 6 $ $ $ $ $ 4 A D # u 5 $ $ $ $ $ 1 ^ * V.3 e $ $ +.$ $ [ $ 2 r h ` 2 7 2 ~ :.7.u o.7 $ +.+.[ $ 7 M.; 4.0 G 7 [ #.$ $ [ $ $ $ $ ",
"$ $ $ $ $ #.#.#.$ $ $ [ 2 5 B ;.R _ 7 2 $ [ 3.[ $ $ $ 6 N :.%.U v 1 2 #.#.$ $ +.2 6 P h p e [ $ $ $ $ 2 t S 4.%.d 5 $ [ $ 3.3.$ $ e 3 S K.7 2 $ $ [ $ $ $ $ $ $ [ $ 2 1 _ N.6.> t $ 2 $ $ $ 2 t B . 4.f 8 1 +.$ $ $ $ @.v R @ B 5 $ $ $ $ #.1 ` g Y 3 e $ $ $ $ $ $ $ 7 C D E $ 7 7 ` O.z h t 7 $ $ $ [ $ ] m 7.9 V 8 $ $ $ $ [ [ $ $ $ [ ",
"$ $ $ $ $ $ $ #.$ $ #.$ $ 8 e.l # ! $ $ #.$ [ $ $ $ $ 7 t M 7.*.R I 1 #.#.$ $ $ $ < + u | 4 [ $ $ $ $ 2 $.v J f.o C 6 $ #.#.$ $ 4 F 4., 5 $ [ $ $ #.$ [ $ $ $ #.$ $ $ 1 P ; 9.% C 7 $ $ $ $ w m O.i B 8 $ 2 [ $ $ $ $ 1 V @ W S 5 +.+.[ [ $ 7 b J U O.^ $ $ $ $ #.$ $ 8 j R | $ 2 7 v  .8.9 Q 1 +.$ $ 7 ` S 7.U k 6 2 3.[ [ [ 3.3.$ $ $ $ ",
"$ $ $ $ $ $ $ $ $ [ $ 4 e f W &.H + M.t 4 2 [ $ $ $ $ 2 2 _ 3 6.7.J Q $ $ $ $ 4 ! x # ` $ [ +.+.#.$ +._.7 q s q.8./., w 5 6 8 Q p @ ' G 7 $ +.$ $ $ $ +.$ $ $ $ [ [ 4 u.3 =.y.;.g Q 8 $.w V > W.# k q 2 3.[ $ $ [ 2 5 I # 6.l 0.v $.2 $ 7 5 G > 6.9.%.p M./ | ( e | b.d @ R ( [ 5 G g l L } 3 u.5 q / j O.U > V 8 $ $ $ $ [ [ $ +.$ $ $ [ ",
"$ $ $ $ $ $ $ $ $ 7 t X o ,.&.y.t.1.} # b 6 [ [ $ $ #.$ $ 7 E * 7.5.m.+ a U.a & W dXI 6 $ $ +.$ $ $ $ $ [ 2 E ; } 1.1.= U 0.U : y @ C 6 2 +.+.$ $ $ $ +.$ [ [ $ 2 q N :.y.) H.t.&.%X<.<.. %.o B ^ 2 $ [ [ $ $ [ [ | 3 7.&.    t.z J v 4 ^ 3 ;.5.-X  ) 1.,Xf.= %X%X:Xc.9.0.S r q a 7.5.H.    1.%Xj.^.s.. J j ] $ [ [ $ #.$ $ $ $ $ $ $ $ $ ",
"$ $ $ $ $ $ $ $ $ 7 q A u !.1X6Xa B , j I 4 3.[ $ $ $ $ $ [ $ q f W >.5.y.y >.0., e $ $ $ $ 3.$ $ $ $ $ $ $ 7 ] j <.*.&.t.t.f.0.S ^ $ $ 3.+.$ $ $ $ $ [ [ #.[ $ 2 8 v j yX1XN a yXS * p u A t $ $ $ $ $ $ $ #.[ [ e u S ).yXu B + * C 1 | u , B B r.1X1Xu 1Xu !.B B , u oXC.5 Y.v B , 1X1Xu ).+ 3 + B K Y.$ $ $ $ $ $ $ $ $ $ $ $ $ $ $ $ ",
"$ $ $ $ $ $ $ $ $ $ $ $ $ $ $ $ $ $ $ $ $ [ [ $ $ $ [ [ $ $ #.$ $ 8 P V a f G q $ $ $ $ $ $ $ $ $ $ $ $ $ $ $ $ 2 ../ v A C E Y.$ $ $ +.[ [ $ $ $ +.$ [ $ $ $ $ $ $ $ $ $ $ $ $ $ $ $ $ $ $ $ $ $ $ $ $ $ $ $ $ $ $ $ $ $ $ $ $ $ $ $ $ $ $ $ $ $ $ $ $ $ $ $ $ $ $ $ $ $ $ $ $ $ $ $ $ $ $ $ $ $ $ $ $ $ $ [ [ $ $ $ $ $ $ $ $ $ $ $ $ $ ",
"$ $ $ $ $ $ $ $ $ $ $ $ $ $ $ $ $ $ $ $ $ $ $ $ $ $ $ $ $ $ $ $ $ $ $ $ $ $ $ $ +.$ $ $ $ $ $ $ $ $ $ $ $ [ $ $ $ $ $ $ $ $ $ $ $ $ $ $ $ $ $ $ $ [ $ #.$ $ $ $ $ $ $ $ $ $ $ $ $ $ $ $ $ $ $ $ $ $ $ $ $ $ $ $ $ $ $ $ $ $ $ $ $ $ +.$ $ +.#.#.#.$ $ $ $ $ $ $ $ $ $ $ $ $ $ $ $ $ $ $ $ $ $ $ $ $ $ $ $ [ [ $ $ $ $ $ $ $ $ $ $ $ $ $ $ ",
"$ $ $ $ $ $ $ $ $ $ $ [ $ $ $ $ $ $ $ $ $ $ $ $ $ $ $ $ $ #.$ $ $ $ $ $ #.$ $ 3.3.[ $ $ $ $ $ $ $ $ $ $ $ $ $ $ $ $ $ $ $ $ $ $ $ $ $ $ $ $ $ $ $ $ $ $ $ $ $ $ $ $ $ $ $ $ $ $ $ $ $ $ $ $ $ $ $ $ $ $ $ $ $ $ $ $ $ $ $ $ $ $ $ $ $ $ $ +.#.$ $ $ $ $ $ $ $ $ $ $ $ $ $ $ $ $ $ $ $ $ $ $ $ #.$ $ $ $ $ $ $ $ $ $ $ $ $ $ $ $ $ $ $ $ $ ",
"$ $ $ $ $ $ $ $ $ $ $ $ $ $ $ $ $ $ $ $ $ $ $ $ $ $ $ $ $ $ $ $ $ $ $ $ +.[ [ [ $ $ $ $ $ $ $ $ $ $ $ $ $ $ $ $ $ $ $ $ $ $ $ $ $ $ $ $ $ $ $ $ $ $ $ $ $ $ $ $ $ $ $ $ $ $ $ $ $ $ $ $ $ $ $ $ $ $ $ $ $ $ $ $ $ $ $ $ $ $ $ $ $ $ $ $ $ $ $ $ $ $ $ $ $ $ $ $ $ $ $ $ $ $ $ $ $ [ $ $ $ $ $ $ $ $ $ $ $ $ $ $ $ $ $ $ $ $ $ $ $ $ $ $ $ "
};
