/* XPM */
static char *_a64bacaa3d84e1cfde973528ca6f778_22[] = {
/* columns rows colors chars-per-pixel */
"189 41 256 2 ",
"   c #FE0009",
".  c #E40B12",
"X  c #991314",
"o  c #CD1213",
"O  c #DD1012",
"+  c #B80509",
"@  c #CA1721",
"#  c #C80B11",
"$  c black",
"%  c #D4131A",
"&  c #C70509",
"*  c #B60B10",
"=  c #ED040A",
"-  c #CD1319",
";  c #C4181A",
":  c #EC0912",
">  c #C51112",
",  c #A90B11",
"<  c #730000",
"1  c #1A0000",
"2  c #0A0000",
"3  c #BD0F12",
"4  c #220000",
"5  c #320000",
"6  c #2A0000",
"7  c #120000",
"8  c #3A0000",
"9  c #C51317",
"0  c #D40B12",
"q  c #430000",
"w  c #630000",
"e  c #530000",
"r  c #5B0000",
"t  c #4B0000",
"y  c #F4080A",
"u  c #A21112",
"i  c #DC100C",
"p  c #B41111",
"a  c #9A0B11",
"s  c #AC1212",
"d  c #AC0A0B",
"f  c #940A0B",
"g  c #BC1318",
"h  c #AC191B",
"j  c #9C090A",
"k  c #8C090A",
"l  c #EE0303",
"z  c #E6040A",
"x  c #B41417",
"c  c #ED0411",
"v  c #830A0A",
"b  c #890C0F",
"n  c #A31A1C",
"m  c #BB0E0B",
"M  c #A41417",
"N  c #97100E",
"B  c #A6100B",
"V  c #940407",
"C  c #7B0909",
"Z  c #8C0307",
"A  c #840307",
"S  c #AF0101",
"D  c #BD1814",
"F  c #921F1F",
"G  c #780B10",
"H  c #E5100B",
"J  c #CC1814",
"K  c #7B0307",
"L  c #FC080C",
"P  c #73090A",
"I  c #730306",
"U  c #DE040F",
"Y  c #D10202",
"T  c #840903",
"R  c #C11E22",
"E  c #670B11",
"W  c #D20411",
"Q  c #740803",
"!  c #6B090A",
"~  c #6B0307",
"^  c #640307",
"/  c #68100E",
"(  c #580B11",
")  c #FC0803",
"_  c #5B0306",
"`  c #6C0501",
"'  c #C61D1B",
"]  c #530307",
"[  c #040000",
"{  c #470B11",
"}  c #E70415",
"|  c #5C0903",
" . c #DE0419",
".. c #4B0406",
"X. c #DC1813",
"o. c #3B090A",
"O. c #D50416",
"+. c #000004",
"@. c #230602",
"#. c #000400",
"$. c #310802",
"%. c #EB080C",
"&. c #F70407",
"*. c #EF080D",
"=. c #E30C0C",
"-. c #D71015",
";. c #E70C0E",
":. c #D31014",
">. c #E7080E",
",. c #F3040D",
"<. c #D71010",
"1. c #FB0406",
"2. c #D31414",
"3. c #040004",
"4. c #D81416",
"5. c #F90400",
"6. c #EB0C0E",
"7. c #E20C08",
"8. c #F00C0E",
"9. c #F2000D",
"0. c #D8140F",
"q. c #F00C08",
"w. c #E50410",
"e. c #AC1319",
"r. c None",
"t. c #FA0000",
"y. c #F8040C",
"u. c #6B0000",
"i. c #630803",
"p. c #FF0406",
"a. c #000404",
"s. c #EF0808",
"d. c #E41014",
"f. c #F20007",
"g. c #E20808",
"h. c #F30407",
"j. c #DC0309",
"k. c #D40A0B",
"l. c #C80F0A",
"z. c #DC171C",
"x. c #891416",
"c. c #F40804",
"v. c #AA2325",
"b. c #840001",
"n. c #D3030A",
"m. c #DD0B0C",
"M. c #7B0000",
"N. c #BC191B",
"B. c #B4191A",
"V. c #CD181A",
"C. c #630A0A",
"Z. c #050400",
"A. c #E50B18",
"S. c #F70512",
"D. c #DD1119",
"F. c #B4201F",
"G. c #A4090B",
"H. c #FB0004",
"J. c #7B0804",
"K. c #530909",
"L. c #C51814",
"P. c #EE0A19",
"I. c #E50303",
"U. c #8C0001",
"Y. c #430306",
"T. c #E70808",
"R. c #A31813",
"E. c #E70C08",
"W. c #EB0C08",
"Q. c #D41813",
"!. c #A40408",
"~. c #59100D",
"^. c #E3080C",
"/. c #DD0B11",
"(. c #78100D",
"). c #AC0309",
"_. c #080005",
"`. c #7D1E1E",
"'. c #D4181A",
"]. c #791416",
"[. c #E70D1E",
"{. c #3A0306",
"}. c #4B090A",
"|. c #94191E",
" X c #681516",
".X c #5B090A",
"XX c #E60804",
"oX c #89100E",
"OX c #95282A",
"+X c #320306",
"@X c #360C0F",
"#X c #EF0419",
"$X c #270C0E",
"%X c #EB0808",
"&X c #FF0004",
"*X c #8C0804",
"=X c #B51B22",
"-X c red",
";X c #D3100F",
":X c #ED0804",
">X c #43090A",
",X c #F70005",
"<X c #AC0903",
"1X c #9C0001",
"2X c #9C0803",
"3X c #000008",
"4X c #120504",
"5X c #220405",
"6X c #940101",
"7X c #FF0400",
"8X c #F30D15",
"9X c #551B1F",
"0X c #711B1F",
"qX c #DD0203",
"wX c #2A0406",
"eX c #1A0406",
"rX c #F8000D",
"tX c #591417",
"yX c #A40101",
"uX c #530903",
"iX c #31090A",
"pX c #D3140F",
"aX c #F30300",
"sX c #B41814",
"dX c #AC1813",
"fX c #940903",
"gX c #DD0803",
"hX c #A40904",
"jX c #D30903",
"kX c #471617",
"lX c #430802",
"zX c #381415",
"xX c #D30B19",
"cX c #DD0C19",
"vX c #2A0A0A",
"bX c #4E1F1F",
"nX c #33110E",
"mX c #220908",
"MX c #5A2427",
"NX c #772B2E",
"BX c #47100E",
"VX c #2B1112",
"CX c #1B0A09",
"ZX c #050404",
"AX c #3A0803",
"SX c #1A0803",
"DX c #2A0803",
"FX c #4B0903",
"GX c #0C0709",
"HX c #26100C",
"JX c #11090B",
"KX c #F0100C",
"LX c #412422",
"PX c #000800",
"IX c #000808",
"UX c black",
/* pixels */
"$ #.#.[ [ $ $ #.$ $ $ $ $ 3.$ $ $ $ #.#.$ $ $ [ $ [ 3.+.+.+.+.$ $ $ $ $ $ $ $ $ [ [ $ $ $ $ $ $ $ $ $ $ $ $ $ $ $ $ $ $ #.$ $ $ $ $ $ $ $ #.+.$ #.#.$ $ $ $ +.3.3.$ $ $ [ [ [ [ [ #.#.#.#.$ $ $ $ $ $ $ $ $ $ $ $ $ #.#.#.#.$ $ $ #.#.#.#.$ $ $ $ $ [ $ $ #.#.#.$ +.$ $ [ [ #.$ $ $ #.$ $ $ #.#.#.$ $ $ $ $ $ $ $ $ $ #.#.$ #.$ $ #.#.#.#.$ $ $ #.$ $ $ $ +.+.3.+.+.+.$ $ $ $ $ $ $ $ $ $ ",
"$ $ #.$ $ [ [ [ #.$ #.#.#.#.#.#.$ $ #.#.#.$ $ $ #.$ $ $ +.$ +.$ $ #.$ $ 3.[ $ $ $ $ $ $ $ $ $ $ $ $ $ $ $ $ $ #.$ [ $ $ $ $ $ $ $ $ $ $ $ $ 3.3.#.$ $ $ $ $ $ $ $ $ $ $ $ [ $ $ $ $ $ [ [ $ $ $ $ $ $ +.+.$ $ $ $ $ $ $ $ $ $ $ $ [ [ $ #.$ $ +.$ $ #.#.#.#.$ $ +.+.+.+.$ $ $ #.$ $ $ $ $ $ #.#.#.$ $ #.$ $ $ $ #.$ $ $ $ $ $ $ $ #.$ $ $ $ $ $ $ $ +.+.+.$ $ $ $ [ $ $ $ $ $ $ $ $ $ $ $ ",
"$ #.$ $ $ [ [ 2 7 5X$.@.$ $ $ 1 6 $.DX7 [ #.$ $ #.4XwX4 2 $ 1 6 $.@.2 $ $ #.[ $ q C G.3 l.3 S v t 1 $ $ $ [ [ #.#.Z.2 5XwX1 2 #.#.7 4 $.$.1 2 [ Z.Z.[ 2 @.5 6 7 1 4 @.SX2 [ $ $ $ $ [ [ $ [ 2 6 t ` v k f a u !.u u Z E $.$ $ #.$ [ $ $ $ +.$ $ [ eX$.8 $.1 2 1 6 6 @.1 2 1 5 t t { q q q Y.o.o.q t e e ] Y.4 [ [ [ 7 6 ..~ C A V a hX, , j b / 8 $ $ $ [ [ [ [ [ $ $ $ $ $ $ $ $ $ $ $ $ ",
"$ $ [ +.3.3.2 1 o.x.R > 3 3 3 > o & X Y.7 [ [ 2 4 G S 3 m 3 > R B.v 6 2 2 $ 8 C x 7.8.8.q.&.1.6.;XN t 1 2 [ [ [ 2 2 ] u D & & 3 3 & # + j q 7 [ [ 2 1 ..j # @ l.# # m x.8 1 2 [ $ $ $ [ 2 1 ( u # } 8Xt.1.L 5.y 9.y y 7.& N C.1 $ $ [ [ $ +.$ [ 1 ! h 9 o l.> o Y > p A q ^ * 4.0.U j.j.j.j.<.k.<.i U U /.; f { 1 4 | B W P.9.&.5.L L &.y S.y 7.> N C.4 $ $ [ [ [ 3.$ $ $ $ $ $ $ $ $ $ $ ",
"$ $ $ [ [ [ [ 7 6 P + 7.S.  L y g.J X { 7 2 2 2 4 ` x -.,.&.y.=.g v 5 7 1 q F - - m N < ^ r.S <.9. .x ^ 2 $ $ $ [ 2 e M J : 1.7Xr.1.9.J u t 7 [ $ [ 1 t e.g.9.  t.#XW k 8 1 2 [ [ $ #.$ [ 1 ^ x W %.y 1.9.O p U.v a 3 0.= =.J f q $ [ #.$ [ [ 2 4 E S W l &.) ) S.0.g A 8 ( , O.>.) p.  y.l . g.. T.: y &. .S | 4 4 ` x Y T.h.) f.O * 6XU.B ; 0.c  .> fXe 2 2 $ $ $ $ $ $ $ $ $ $ $ $ $ $ ",
"$ #.#.#.+.$ $ [ $ [ 6 C o ;.;.4.v 1 $ $ $ [ [ [ [ $ $ | * J # N 8 2 7 7 t N =Xx I 2 $ $ $ $ 1 K o 7.A.g i.2 2 $ $ [ 2 2 q V W l q.W u e 7 [ [ #.#.#.[ 2 5 ` s z.# N i.4 $ [ $ $ $ #.#.#.[ 2 7 @.q J.; 6.4.u q $ $ $ $ w S Q.6.D.B w 4 [ [ $ $ $ $ $ 7 e u <.: Y a t 4 [ 2 $ $ 5 fX0.;.z > K 8 6 @.q | Z m ; , r 1 [ 2 1 q v # = X.M q $ $ $ $ E p W >.O s ^ 4 $ [ $ $ $ $ $ $ $ $ $ $ $ $ ",
"$ $ $ $ $ $ [ #.[ [ [ 8 u 4.U O.C 7 2 [ 3.[ $ $ $ [ 2 e s F.k q 1 7 7 6 b J v.( 1 2 [ [ 2 [ $ 4 G g ;. .S w 1 [ $ $ $ $ 7 e h -.i u q 7 $ $ $ $ $ $ $ [ $ $ / N.N 6 $ [ a.$ $ $ [ [ [ $ $ $ $ $ 7 q e.d.Y F 5 7 $ $ $ [ 6 b -.;.7.m r 7 2 [ $ $ $ $ 7 4 P # H B.] 2 [ $ $ $ $ $ e * Y 4.u 4 $ $ $ $ $ 7 | OXa r 7 $ $ #.2 q M 7.V.|.8 1 [ [ $ 2 6 b Y 7. .m | 1 2 [ $ $ $ $ $ $ $ $ $ $ $ ",
"$ $ $ [ [ [ $ $ $ [ $ 4 G R O U u q 1 2 [ [ [ [ [ 2 1 ` R v.( 4 7 2 6 / h # K 4 2 [ #.[ [ $ [ 2 4 T O.7.4., q [ [ #.$ +.7 8 N 2.4.N 5 1 3.$ $ #.#.$ $ [ 2 [ ~.=X|.$.2 2 3.$ $ $ $ $ [ $ #.$ $ [ 7 8 n 7.V.x.6 7 [ [ [ $ $ 6 A # } 7.M t 4 2 [ +.$ $ 2 4 P ; 7.B.] 1 2 $ $ $ [ 7 t s # o f 4 [ [ $ [ 2 1 q x.X e 1 [ [ [ 7 o.j X.J k 8 1 2 $ $ [ [ 5 v R  .D.u e 4 [ $ $ $ $ $ $ $ $ $ $ $ ",
"$ $ [ $ $ $ $ [ [ [ $ 1 q j 2.=.N.P 6 2 [ [ [ $ [ 7 $.x.R oX5 7 2 1 e u + B t 7 [ +.$ $ $ $ $ [ [ t * X.w.W C 4 7 [ $ 3.1 8 k - O.oX6 7 3.$ $ $ $ $ $ $ [ [ ( h x.6 2 2 3.$ $ $ [ $ +.$ $ $ [ 2 1 8 M 7.Y T 6 7 +.$ [ [ $ 7 5 b 4.;.@ V 8 2 [ +.+.$ 2 1 ^ D 7.B.] 1 2 $ +.3.[ 7 t s # J k 4 [ [ $ $ [ 7 6 0Xx.t 7 [ $ [ 7 8 j X.@ k 8 1 2 [ 3.$ 3.1 8 b Y U @ N 8 2 [ $ $ $ $ $ $ $ $ $ $ ",
"$ $ [ 3.3.$ $ $ [ [ $ 7 7 ! ' z -.B q [ #.$ $ $ 2 4 C.j h w 1 2 2 4 v 9 h P $.2 [ $ $ $ $ $ $ [ 2 6 J.; z d.dXt 1 3.3.+.1 5 k '.4.k 4 7 3.$ $ $ $ $ $ [ [ 2 K.v.x.6 2 [ [ [ $ $ $ $ $ $ $ $ $ [ 7 5 j O V.x.6 7 $ $ $ $ $ 2 2 t p X.4.; w 2 2 $ $ $ 7 4 i.N.U B.] 7 2 $ $ $ [ 7 t s ' @ k 1 $ $ $ $ [ 7 7 kX0Xo.2 [ [ [ 7 5 X X.# x.5 1 [ [ [ $ [ 2 7 e S D.z.# ` 2 2 $ $ $ $ $ $ $ $ $ $ ",
"$ $ [ [ [ $ #.$ [ [ [ 2 7 q , D.z.- I 1 [ [ $ [ 7 q F n v 8 1 7 7 o.u J n t 1 2 3.3.$ $ $ $ $ $ 2 1 e h d.;.; C 6 [ +.+.1 5 F W 4.oX4 7 [ $ $ $ $ $ $ [ 2 2 ( v.v 4 2 2 [ [ [ $ $ $ #.#.$ $ $ [ 7 6 f X.V.x.6 7 $ $ $ $ $ [ [ @.v @ X.z.f 6 7 [ $ $ 7 4 ^ D U S ] 7 2 $ $ $ [ 2 t s ' - k 4 [ [ [ [ [ [ 2 5XiX1 2 $ $ [ 7 6 N D.Y f 8 1 [ [ $ $ [ [ $ 6 A @ D.z.f 6 7 $ $ $ $ $ [ $ +.$ $ ",
"$ $ $ $ [ $ $ $ $ $ $ [ 2 4 K ' D.. u 8 7 2 [ 2 1 ~ F.F Y.1 7 7 1 E N.-.f 5 7 2 $ $ $ $ $ $ $ $ $ 1 6 b 4.6.-.s q [ [ $ 1 8 N '.% b 4 7 [ $ $ $ $ $ $ [ 2 2 ] B v 4 [ [ $ $ [ $ $ $ $ #.$ [ $ [ 7 6 f z.@ x.5 7 $ $ $ $ $ [ [ 1 e , 4.} B.] 1 2 [ [ 7 1 ^ D U S ] 7 2 [ $ $ [ 2 t , ' J k 4 [ 2 [ $ $ #.#.#.$ $ $ $ $ [ 7 6 f z.V.k 8 1 [ [ [ [ Z.[ [ 1 r , O. .S i.4 2 $ $ $ $ $ $ +.$ $ ",
"$ $ $ [ $ $ $ $ $ $ #.[ [ 7 t u W H g ~ @.2 [ 2 6 x.+ G 1 7 [ 7 5 v ' O.T 4 2 [ $ $ +.+.$ $ $ $ $ 7 7 E # ;.A.J ^ 2 [ $ 7 5 N 2.O.T 4 7 [ $ [ $ $ $ $ [ 2 2 ] M T @.2 [ $ $ [ $ $ $ #.#.[ [ [ [ 7 @.|.4.@ x.5 1 $ $ $ $ #.$ 3.1 5 oXW } R G 6 2 [ [ 7 4 ^ g U B.] 1 2 $ $ [ [ 7 e , ' J b 1 [ [ $ [ [ #.#.#.[ $ $ [ $ [ 7 6 F 4.J k 8 7 [ [ [ [ Z.[ [ 7 5 oXV.z R v 5 2 [ [ $ $ $ $ +.$ $ ",
"$ $ $ $ $ $ $ $ $ $ [ [ $ 2 6 ` R w.J N q 1 7 7 }.OXM e 2 2 [ 1 t a J Y Q 2 2 [ $ $ +.+.+.$ $ $ $ 2 2 t + 7.A.4.v 7 7 [ 7 8 |.Y O.T 4 7 [ $ $ $ $ $ $ [ 2 2 ] B x.4 2 [ [ [ [ $ $ $ $ $ [ [ [ [ 7 4 f 4.@ x.5 7 $ $ $ $ $ $ 3.7 7 C.' z V.u q 2 $ [ 7 4 ^ D U B.] 1 2 $ $ [ [ 7 t , ' J k 4 [ [ $ [ 2 1 5X7 [ [ [ $ $ [ 7 6 f 4.V.F 8 7 [ [ 3.$ $ $ [ 7 7 i.; =.V.u q 2 $ $ $ $ $ $ +.$ $ ",
"#.#.$ $ $ [ [ $ $ $ $ $ $ 2 7 +XR.7.X.; I 4 1 8 `.OX].6 2 2 [ 4 w S V.@ ~ $ [ $ $ $ $ $ [ $ $ $ $ 2 2 5 u -.7.i f 6 7 [ 1 8 |.Y % T 6 7 [ $ $ $ $ $ $ [ 2 2 ] h x.@.2 2 [ [ [ $ $ $ $ $ $ $ $ [ 7 6 N z.V.k 8 1 $ [ +.$ $ $ $ 2 [ t * 7.<.+ e 2 [ [ 2 1 C.m U h ] 7 2 [ $ [ [ 2 t , L.@ b 4 [ [ [ 2 2 }.0X8 2 $ $ $ #.[ 2 6 F z.Y F 8 1 [ $ $ $ $ $ $ [ 2 { S 7.4.+ r [ [ $ $ $ $ $ $ $ [ ",
"$ $ $ #.$ $ $ $ $ $ $ [ [ [ 2 1 G J 4.4.G.8 4 ~ n v q 1 2 [ [ 4 I N.W # ^ 2 2 [ [ $ $ $ [ $ $ $ $ [ [ 6 k V.U 7.u 8 7 [ 1 o.|.2.-.b 4 7 [ $ [ $ $ $ $ [ 2 [ ( v.k @.2 2 [ [ [ $ $ $ $ $ $ $ $ [ 7 @.F z.V.k 5 1 $ $ +.$ $ $ $ 2 2 8 s U O.R w 7 [ [ 7 1 E g U S ..1 2 [ $ [ [ 2 t , ' J b 1 [ [ [ 2 2 .Xx.{ 2 [ [ $ $ [ 7 6 k 4.@ k 8 1 [ $ $ $ [ $ $ 2 2 8 G. .4.9 ~ 7 [ [ $ $ $ $ $ $ $ ",
"$ $ $ $ $ $ [ $ $ $ $ $ $ [ [ 2 t R.V.. > I t N S | 7 2 $ [ $ 4 v ' 2.l.^ [ 2 3.$ $ $ $ $ $ $ $ $ [ [ 4 G ; 7.;.h { 1 [ 1 q a % 4.T 4 1 2 [ [ [ $ $ $ [ 2 [ ] h k 4 2 2 [ [ [ $ $ $ $ $ $ $ $ [ 2 6 k X.J k 8 1 $ $ 3.$ $ $ $ [ [ 6 j X.4.o I 7 [ [ 2 4 / R U e.{ 1 2 [ $ [ [ 7 { , ' - k 4 $ $ $ $ 7  XF t 7 [ [ $ [ [ 7 4 f z.J k 8 7 $ $ #.$ [ $ $ [ 2 6 X i 4.Y C 7 [ [ $ $ $ $ $ $ $ ",
"$ $ $ $ $ $ $ $ $ $ $ $ $ $ $ 2 $.C 9 %.U , b B.j 8 2 [ $ [ $ 4 b J O.l.^ [ 2 [ $ $ $ $ $ $ [ $ +.[ [ 1 ` D 7.;.B.] 1 2 1 q j O.4.A 4 7 2 [ [ [ $ $ $ [ 2 [ ] h F 6 2 2 [ $ $ $ $ $ $ $ $ $ $ [ 7 6 F i J x.5 1 $ $ 3.$ $ $ $ [ [ 6 V O.X.O.C 7 [ [ 2 1 ! D O B q 1 2 $ $ [ [ 7 { , @ 2.V 4 $ $ $ 6 C.F N { 7 [ [ $ [ 2 7 6 k -.' x.8 7 [ $ #.$ [ [ [ [ [ @.Z O.z.-.T 1 2 2 [ $ $ $ $ $ $ ",
"$ #.#.[ [ $ $ $ $ $ [ [ [ $ $ [ 1 t s H q.T.J , | @.2 [ $ [ [ 6 k o 0.o ` [ 2 [ $ $ $ $ $ $ [ $ $ [ [ 4 r S 0.z * ( 1 2 1 q X 2.-.T 4 7 2 [ [ [ $ $ $ [ 2 [ ] h k 6 2 [ $ $ $ $ [ $ $ $ $ $ $ [ 7 6 F 4.# A 5 7 $ $ 3.$ $ $ $ [ [ 4 A W i 0.b 1 2 [ 7 4 ! D O , t 1 [ $ $ [ [ 7 q B W =.0.+ S S p l.i V.u t 1 [ [ $ [ [ 7 6 k -.' x.5 1 2 [ $ $ [ $ $ [ [ 6 b - 4.O.k 4 2 2 [ $ $ $ [ $ $ ",
"$ $ $ $ $ $ $ $ $ $ $ $ $ $ $ [ 2 1 v <.6.= Q.k 8 1 2 [ $ [ [ 6 a % i W I [ 2 [ $ $ $ $ $ $ $ $ $ [ [ 4 ( e.4.;.* ( 4 2 1 q N 2.O.T 1 7 [ [ [ [ $ $ $ [ 2 [ ] h F @.2 [ $ $ $ $ [ $ $ $ $ $ $ [ 7 6 f 4.' v 5 7 $ $ 3.$ $ $ $ [ [ 4 v o X.O k 1 2 [ 2 4 ` ; d., q 7 [ #.#.$ [ 2 q s 4.h.y >.w.w.T.*.y 4.B t 1 [ 3.[ $ [ 7 6 F X.@ oX8 1 2 3.[ $ $ $ $ [ 2 6 v - 4.-.b 4 2 [ $ $ $ $ [ $ $ ",
"$ $ $ $ $ $ $ $ $ $ $ $ $ $ $ [ [ $ ( m 0.H # / 1 7 [ [ [ 2 [ 6 j O.O Q.G 7 2 [ $ $ $ $ $ $ $ $ $ [ [ 1 t B X.;.=X_ 4 2 1 q X W -.T 4 7 [ [ [ [ $ $ $ [ [ 2 ] h F @.2 [ $ $ $ $ [ $ $ $ $ $ $ [ 7 6 f -.@ v 5 7 $ [ +.$ $ $ $ [ [ 1 K o X.O F 1 2 [ 7 1 P R U , t 1 2 $ $ $ [ 7 { , V.i * < r e r Q j F.u e 7 [ [ $ #.[ 2 6 F X.J oX5 1 [ 3.$ $ $ $ $ [ 2 6 v Y 4.4.k 4 2 [ $ $ $ $ [ $ $ ",
"$ $ $ $ $ $ $ $ $ $ $ $ $ $ $ [ [ 2 8 a V.O g ] 2 2 $ $ $ [ [ 6 a <.7.4.v 7 2 [ [ $ $ $ $ $ $ $ $ [ [ 1 q u 0.6.x ( 4 2 1 q j 2.O.T 4 7 2 [ [ [ $ $ $ [ [ [ ~.S k @.2 [ $ $ $ $ [ $ $ $ $ $ $ [ 7 6 f 4.' v 6 7 $ $ +.$ $ $ $ [ [ 1 v Y i 4.k 1 2 [ 7 4 ` R U B q 1 2 $ [ [ [ 2 t , # @ b 2 $ $ $ $ 8 v F q 7 [ [ $ $ [ 7 6 k 4.# T 5 1 2 [ $ $ $ $ $ [ 2 6 b % z.i k 4 2 [ $ $ $ $ [ $ $ ",
"$ $ $ $ $ $ $ $ $ $ [ $ $ $ $ $ [ [ 5 b R 2.s q [ 2 $ $ $ $ [ 6 f W =.D.k 1 2 [ $ $ $ $ $ $ $ $ $ [ [ 1 8 a Q.7.s e 1 2 1 q X W -.v 1 7 [ [ [ $ $ $ $ [ 2 2 ( F.F @.[ [ $ $ $ $ $ $ $ $ $ $ $ [ 7 $.f 4.@ v 6 7 $ [ $ $ $ $ +.[ [ 4 k :.i O.A 1 2 [ 2 1 P ; =., q 7 2 $ $ [ [ 7 t , ' @ k 4 [ [ [ 7 7 0X|.t 7 $ $ $ $ [ 7 6 k 4.# v $.7 [ [ [ $ $ $ $ [ [ 6 k - X.4.b 1 2 [ [ $ $ $ $ $ $ ",
"$ $ $ $ $ $ $ $ $ $ $ $ $ $ $ [ [ [ 5 b D - B q 2 2 $ $ $ [ $ 4 b - 7.7.N 6 7 [ $ $ $ $ $ $ $ $ $ [ [ 1 q N W U u q 1 [ 1 t j W % v 1 7 [ $ $ $ $ $ $ $ 2 2 | B.F 4 $ [ $ $ $ $ $ $ #.#.$ [ $ [ 7 5 f -.' `.6 7 [ [ $ $ $ $ 3.2 [ 6 j i X.% K 7 2 $ 2 1 ` R  ., t 1 2 [ $ [ [ 2 t , # Y k 4 [ [ $ 2 2 C.F ..2 [ $ $ $ [ 7 6 k O.L.v 5 1 [ [ $ [ [ [ [ [ 2 5 X 0 4.Y J.7 [ [ $ $ $ $ $ $ $ ",
"$ $ $ $ $ $ $ $ $ $ $ $ $ $ $ $ [ [ 5 b D - , q [ [ $ $ $ [ $ 1 G ' 7.=., q 7 2 [ [ $ $ $ $ $ $ $ $ [ 1 t u 2.X.X 5 7 [ 1 t j % -.T 4 7 [ $ $ $ $ $ $ $ 2 7 ( B.k @.[ [ $ $ $ $ $ $ #.#.$ [ $ [ 7 6 N 4.' v 6 7 $ $ [ $ $ $ +.[ [ 8 s 7.z.& ~ 2 [ $ 2 1 P R U , q 1 2 [ [ [ [ 7 t , # - k 4 [ [ [ [ 2 kX0X{.2 $ $ $ [ [ 7 6 f 4.@ T 5 1 [ [ $ $ [ [ [ 2 7 8 u 0.-.; ~ 7 [ [ $ $ $ $ $ $ $ ",
"$ $ $ $ $ $ $ $ $ $ $ $ $ $ $ $ [ [ 5 b D Y , q [ 2 $ [ $ [ [ 1 ` m i H m ^ 4 7 [ [ $ $ $ $ [ $ $ [ $ 1 e B W -.b 1 7 [ 1 t B 4.4.b @.7 [ $ $ $ $ $ $ $ 2 7 | =Xk 4 [ [ $ $ $ $ $ $ #.#.$ [ $ [ 7 6 N 4.' `.6 7 $ $ $ [ [ [ $ 2 2 t + A.4.m ( 7 [ [ 7 4 ` R U , q 1 2 [ $ [ [ 7 { , # - k 4 [ [ [ [ 2 1 iX1 [ $ $ $ [ [ 7 6 f z.V.oX8 1 [ $ $ $ [ [ [ 7 1 e p 7.'.+ | 7 [ [ $ $ $ $ $ $ $ ",
"$ $ $ $ $ $ $ $ $ $ $ $ $ $ $ $ [ 2 5 b D Y B 8 [ [ $ $ [ [ [ 1 r x X.6.; G 6 7 [ [ $ $ $ [ [ [ $ [ [ 1 | B.W Y I 1 7 [ 1 e , z.z.k 6 7 [ $ $ $ $ $ $ $ 2 2 C.=Xx.4 [ [ $ $ $ $ $ $ #.$ $ [ $ [ 1 6 N 4.' v 6 7 $ $ [ $ $ $ $ 2 7 i.; w.'.G.q 7 [ [ 7 4 ` R 7., q 1 2 [ $ [ [ 7 t B # W f 4 [ [ $ $ $ $ $ Z.#.+.$ $ $ [ 7 6 k 4.V.oX8 1 [ [ $ $ 3.[ [ 7 1 / R =.Y B t 2 $ $ $ $ $ $ $ $ $ ",
"$ $ $ $ $ $ $ $ $ $ $ $ $ $ $ $ [ [ 6 v m J B 8 [ [ $ #.$ $ [ 1 q N 4.= V.f 8 2 $ $ $ $ $ [ [ $ $ [ $ 1 Q m @ + e [ 2 [ 1 e M -.4.f 5 7 [ [ [ [ #.$ $ [ 7 1 ` =Xv @.2 2 [ [ [ [ $ $ #.$ $ [ $ 2 7 5 j z.@ v 5 7 [ [ $ $ $ [ [ 1 5 oXW g.; G 6 2 [ [ 7 4 ` R 7., t 1 2 [ $ $ [ 2 q B ' Y f 4 [ [ #.$ 3.$ $ $ $ $ $ #.$ [ 7 5 N 4.@ oX5 1 [ [ [ [ [ $ $ 7 6 T @ U R v 5 2 $ $ $ $ $ $ $ $ $ ",
"$ $ $ $ $ $ $ $ $ $ $ $ $ $ $ $ $ [ 5 A N.W B 8 $ [ #.$ [ [ [ 7 6 C - 6.4.p e [ $ [ $ [ [ $ $ $ [ [ [ 4 b ; R j 8 2 [ [ 1 t u -.X.j 8 1 [ $ $ $ $ $ $ [ 7 4 ].F.C 1 2 2 [ [ $ $ $ $ #.#.$ [ $ 2 7 5 j z.@ v 6 7 [ [ $ $ $ [ [ 1 e h 4.} e.e 1 2 [ [ 7 4 ` R U , ..1 2 [ $ $ [ 2 q B ' Y f 4 [ [ $ [ [ $ $ #.[ [ [ [ [ [ 7 5 a D.V.k 8 7 $ [ [ [ [ [ $ 1 e , O.A.B.| 1 2 $ $ $ $ $ $ $ $ $ ",
"$ $ $ $ $ $ $ $ $ $ $ $ $ $ $ $ [ [ 5 T N.- , 8 [ [ $ $ [ [ $ 2 7 ( + =.O o G 1 2 [ $ $ $ $ $ $ $ [ [ 5 u @ h ` @.2 [ [ 1 q X O.U , t 4 [ $ $ $ $ $ [ 2 1 6 T F.Q 7 [ [ [ $ $ $ [ $ #.#.$ [ $ 2 7 5 j z.@ v 6 7 [ [ $ $ $ [ 2 4 A ' X.4.b 1 7 [ $ [ 7 4 ` R U h t 1 2 [ $ $ [ 2 q B ' - k @.2 [ $ $ [ $ $ [ [ 7 9XbX7 [ 7 8 X  .V.oX8 7 #.[ 2 [ [ [ [ 4 v ; 4.4.k 4 7 [ $ $ $ $ $ $ $ $ $ ",
"$ $ $ $ $ $ $ $ $ $ $ $ $ $ $ $ [ [ 5 b N.- s q [ 2 $ $ $ $ $ 2 2 5 j 4.7.7.u 8 7 2 $ $ $ $ $ $ $ 2 2 t g Y X q 1 [ [ [ 7 5 x.-.A.+ / 4 [ [ [ $ $ $ $ 2 1 { F h ^ 1 [ [ $ $ $ $ $ $ $ $ $ [ $ [ 7 5 j z.@ v $.7 [ [ $ $ #.2 [ { S X.% m ( [ [ $ $ [ 7 4 ` R 7.h { 1 2 [ $ $ [ 2 q B ' - k 4 [ [ $ $ $ $ [ 2 [ 5 `.0X4 2 1 8 a  .J k 8 7 $ $ 3.$ #.[ 2 t S 4.O.3 w 2 2 [ $ $ $ $ $ $ [ $ $ ",
"$ #.#.$ $ $ $ $ $ $ [ [ [ [ $ $ [ [ 5 b D Y s q [ [ $ $ #.#.$ [ [ 4 G @ 7.>.R E 6 7 $ $ $ $ $ [ [ 7 1 P ' ; / 1 2 [ $ $ 7 @.v W A.@ k 5 [ $ $ $ $ $ [ 7 6 ^ X a e 7 [ [ [ [ [ $ $ #.#.#.#.$ [ 2 7 5 u  .V.F 8 1 [ [ 3.$ $ 7 6 v - O ; A 5 2 [ $ $ $ 7 4 ` R i , ..1 2 $ $ [ [ 2 q B @ Y V 6 2 2 #.$ $ $ [ 7 1 ( OXP 4 2 1 8 u 7.W k 5 7 $ $ $ $ [ 7 @.C V.7.; b 8 2 [ $ $ $ $ $ $ $ $ $ $ ",
"$ $ $ $ $ $ $ $ $ $ $ $ $ $ $ [ [ 2 8 N ; W , o.[ [ +.$ $ [ [ [ [ 7 q N Q.f.X.s e 1 $ [ $ [ [ [ 2 1 e N D j 5 [ [ [ 3.+.7 7 i.@ [.z.g ( 7 [ $ $ [ [ [ 2 q X v.`.8 7 [ $ $ $ #.$ +.#.#.#.$ $ $ 2 1 8 M 7.% u q 1 [ [ 3.[ $ 6 v R  .O.F 8 1 2 [ $ $ $ 2 4 ` ; . S ..1 2 $ #.[ [ 1 t G.J X.j 5 7 2 $ $ $ [ [ 1 8 `.X E 1 2 1 q M =.% u t 7 [ $ +.[ 2 $.K m 7.4.f 8 4 2 [ $ $ $ $ $ $ $ $ $ $ ",
"$ $ [ [ [ [ [ [ $ $ $ $ #.#.$ [ $ $ 8 j # % s 8 $ $ #.$ #.$ $ $ [ 2 1 e S 6.z 4.f 6 $ [ #.$ [ [ $ q a + X e 4 2 [ [ $ $ 2 2 o.S d.7.z.k 4 $ [ $ $ $ $ 1 T @ h ~.4 2 [ [ $ $ $ $ [ $ +.+.$ $ $ [ 1 t h d.X.+ ^ 1 $ [ $ $ 1 C @ z.-.G.q 2 2 [ [ $ $ $ 2 4 G ' =.S t 7 2 $ [ [ [ $ e S - i G.5 $ $ $ $ $ $ $ 1 E X F e 7 [ 1 t e.d.z.=XE 1 $ $ $ [ 2 Q # z.O.B t 7 2 [ $ $ $ $ $ $ $ $ $ $ $ ",
"$ $ [ [ [ [ [ [ $ $ $ $ $ [ [ [ $ 7 u.; U . o v 5 7 $ $ $ $ $ $ $ [ [ 1 ` ;  .: o k 5 $ $ $ $ $ q oX; S _ 1 7 2 [ [ [ [ 2 [ 4 G # H 9.o f t $ $ $ $ t b ; D.j 5 7 2 [ $ $ +.+.$ $ $ $ $ $ $ $ $ $.J.' :X;.Q.N 6 $ $ $ r u Y =.W F q 1 [ [ [ $ $ [ $ $ r , <.:XJ b 8 $ $ $ $ 2 q j 0.=.;.> K t 6 2 $ $ $ 4 ^ p D F q 1 $ 6 v ; %.;.% a q $ $ $ e j ' d.J k { 1 [ [ [ $ $ $ $ $ $ $ $ $ $ $ ",
"$ $ $ $ $ $ [ $ $ $ $ $ $ [ 7 @XG B Y y ) 7Xy /.3 u / 4 [ $ #.$ [ [ [ 2 6 ` * 6.6.0.S Q q q e b m R S ` 1 [ [ $ #.$ $ [ $ $ 7 5 b Y 9.8.%.Y * B !.).Y d.% S r 7 [ [ $ $ $ +.+.$ $ $ $ $ [ 7 5 ` p 7.f.) ) &.z > p p 3 :.7.:.S G 6 $ [ [ $ [ $ [ 1 _ j o >.&.  &.>.m k r 5 e N & H 5.)   &.%.U Y > & & o 0.w.&. .j { t K * U 9.) t.c.. 3 B S ; O.} 4.p G $.$ [ [ $ $ $ $ $ $ $ $ $ $ $ $ $ ",
"#.#.#.$ $ $ $ $ $ $ $ $ $ 2 1 ] , xX4.<.<.<.j.g.z.R A 8 7 [ $ $ $ $ +.+.$ $ i.s -.P.y : ^.. ^.7.-.j t 7 2 $ #.#.#.$ $ $ $ $ [ 2 5 k J 6.1.p.  1.5.y P.0 N q 1 2 $ $ $ $ $ $ $ $ +.$ $ [ 2 1 t u @  .U 0.U U >.8.8.>.U & G.G 8 $ $ $ $ [ $ $ [ 2 6 v ; z.. 0.O.U z z.' b t G ;  .U U U U U U g.U U g.. . . U j.; v q w R.Y ^.g.U U j.U . ^.}  .& d C q [ #.$ #.#.#.$ $ $ $ $ $ $ $ $ $ $ $ ",
"$ #.[ $ $ $ $ $ $ $ $ $ [ [ 2 wXK.C.e { q q ] _ | K.{.1 [ [ [ $ $ $ $ $ #.#.$ 8 `.S Y U >.g.W , ~ 5 7 [ [ [ $ $ $ $ [ $ $ $ [ [ [ 6 ^ N R o 0.<.Y m f | 4 $ [ $ $ +.+.+.$ $ $ $ [ $ $ [ [ 7 6 }.K._ e { t t r / P ^ | 8 [ $ $ $ $ $ $ $ $ $ [ [ 7 Y.C.` ^ e t e | C..X8 4 @X.X^ r r ( ( ( e e e e t t t ..q t lX1 2 @.{ K.( t q q t e | i.| ( 5 $ $ $ #.#.#.$ +.$ $ $ $ $ $ $ $ $ $ $ $ $ ",
"$ [ [ $ $ $ $ $ $ $ [ [ [ [ $ $ $ #.#.$ $ $ $ $ $ $ #.#.$ $ $ $ $ $ $ $ [ [ [ $ $ 7 o.K._ t $.$ $ $ a.+.3.3.$ $ $ $ $ $ $ [ [ [ [ $ $ $ 7 6 o.q @X1 $ $ $ [ $ +.+.3X+.+.$ $ [ [ [ [ $ $ $ $ $ $ $ $ #.a.#.#.#.#.$ $ +.$ $ a.+.$ [ [ [ [ [ $ $ #.$ $ $ $ a.#.#.#.#.$ #.#.#.$ $ $ #.#.#.#.#.#.#.#.#.#.$ $ #.#.#.$ $ $ $ $ $ #.#.#.#.#.#.#.#.#.#.$ $ $ $ [ [ $ $ $ $ $ $ $ $ $ $ $ $ $ $ $ $ ",
"$ $ $ $ $ $ [ [ [ [ [ [ $ $ $ $ $ $ #.#.$ $ $ $ $ $ $ $ $ $ $ $ $ $ $ $ #.$ $ $ #.#.#.#.$ +.$ $ $ $ $ $ +.$ $ [ $ $ #.#.#.$ $ $ $ [ [ $ $ #.#.#.$ +.$ $ $ $ $ $ #.$ $ $ $ [ [ $ #.#.$ $ $ $ #.#.#.$ $ +.+.+.$ $ $ $ $ [ [ $ [ [ [ [ [ [ [ +.$ $ $ $ [ [ [ [ [ $ $ $ $ $ $ #.$ $ $ $ #.#.$ [ $ $ +.+.3.3.3.+.+.+.$ [ [ $ $ [ [ $ [ $ $ $ $ $ $ $ $ $ #.#.$ $ [ [ $ $ $ $ $ $ $ $ $ $ $ $ $ ",
"$ $ $ $ $ $ $ $ $ $ $ $ $ $ $ $ $ $ $ $ $ $ $ $ $ $ $ $ $ $ $ $ $ $ $ $ $ $ $ $ $ $ $ $ $ $ $ $ $ $ $ $ $ $ $ $ $ $ $ $ $ $ $ $ $ $ $ $ $ $ $ $ $ $ $ $ $ $ $ $ $ $ $ $ $ $ $ $ $ $ $ $ $ $ $ $ $ $ $ $ $ $ $ $ $ $ $ $ $ $ $ $ $ $ $ $ $ $ $ $ $ $ $ $ $ $ $ $ $ $ $ $ $ $ $ $ $ $ $ $ $ $ $ $ $ $ $ $ $ $ $ $ $ $ $ $ $ $ $ $ $ $ $ [ $ $ $ $ $ $ $ $ $ $ $ $ $ $ $ $ $ $ $ $ $ $ $ $ $ "
};
