/* XPM */
static char *_a64bacaa3d84e1cfde973528ca6f778_15[] = {
/* columns rows colors chars-per-pixel */
"177 41 256 2 ",
"   c #FE0009",
".  c #E40B12",
"X  c #991314",
"o  c #CD1213",
"O  c #DD1012",
"+  c #B80509",
"@  c #CA1721",
"#  c #C80B11",
"$  c black",
"%  c #D4131A",
"&  c #C70509",
"*  c #B60B10",
"=  c #ED040A",
"-  c #CD1319",
";  c #C4181A",
":  c #EC0912",
">  c #C51112",
",  c #A90B11",
"<  c #730000",
"1  c #1A0000",
"2  c #0A0000",
"3  c #BD0F12",
"4  c #220000",
"5  c #320000",
"6  c #2A0000",
"7  c #120000",
"8  c #3A0000",
"9  c #C51317",
"0  c #D40B12",
"q  c #430000",
"w  c #630000",
"e  c #530000",
"r  c #5B0000",
"t  c #4B0000",
"y  c #F4080A",
"u  c #A21112",
"i  c #DC100C",
"p  c #B41111",
"a  c #9A0B11",
"s  c #AC1212",
"d  c #AC0A0B",
"f  c #940A0B",
"g  c #BC1318",
"h  c #AC191B",
"j  c #9C090A",
"k  c #8C090A",
"l  c #EE0303",
"z  c #E6040A",
"x  c #B41417",
"c  c #ED0411",
"v  c #830A0A",
"b  c #890C0F",
"n  c #A31A1C",
"m  c #BB0E0B",
"M  c #A41417",
"N  c #97100E",
"B  c #A6100B",
"V  c #940407",
"C  c #7B0909",
"Z  c #8C0307",
"A  c #840307",
"S  c #AF0101",
"D  c #BD1814",
"F  c #921F1F",
"G  c #780B10",
"H  c #E5100B",
"J  c #CC1814",
"K  c #7B0307",
"L  c #FC080C",
"P  c #73090A",
"I  c #730306",
"U  c #DE040F",
"Y  c #D10202",
"T  c #840903",
"R  c #C11E22",
"E  c #670B11",
"W  c #D20411",
"Q  c #740803",
"!  c #6B090A",
"~  c #6B0307",
"^  c #640307",
"/  c #68100E",
"(  c #580B11",
")  c #FC0803",
"_  c #5B0306",
"`  c #6C0501",
"'  c #C61D1B",
"]  c #530307",
"[  c #040000",
"{  c #470B11",
"}  c #E70415",
"|  c #5C0903",
" . c #DE0419",
".. c #4B0406",
"X. c #DC1813",
"o. c #3B090A",
"O. c #D50416",
"+. c #000004",
"@. c #230602",
"#. c #000400",
"$. c #310802",
"%. c #EB080C",
"&. c #F70407",
"*. c #EF080D",
"=. c #E30C0C",
"-. c #D71015",
";. c #E70C0E",
":. c #D31014",
">. c #E7080E",
",. c #F3040D",
"<. c #D71010",
"1. c #FB0406",
"2. c #D31414",
"3. c #040004",
"4. c #D81416",
"5. c #F90400",
"6. c #EB0C0E",
"7. c #E20C08",
"8. c #F00C0E",
"9. c #F2000D",
"0. c #D8140F",
"q. c #F00C08",
"w. c #E50410",
"e. c #AC1319",
"r. c #9C0408",
"t. c #FA0000",
"y. c #F8040C",
"u. c #6B0000",
"i. c #630803",
"p. c #FF0406",
"a. c #000404",
"s. c #EF0808",
"d. c #E41014",
"f. c #F20007",
"g. c #E20808",
"h. c #F30407",
"j. c #DC0309",
"k. c #D40A0B",
"l. c #C80F0A",
"z. c #DC171C",
"x. c #891416",
"c. c #F40804",
"v. c #AA2325",
"b. c #840001",
"n. c #D3030A",
"m. c #DD0B0C",
"M. c #7B0000",
"N. c #BC191B",
"B. c #B4191A",
"V. c #CD181A",
"C. c #630A0A",
"Z. c #050400",
"A. c #E50B18",
"S. c #F70512",
"D. c #DD1119",
"F. c None",
"G. c #A4090B",
"H. c #FB0004",
"J. c #7B0804",
"K. c #530909",
"L. c #C51814",
"P. c #EE0A19",
"I. c #E50303",
"U. c #8C0001",
"Y. c #430306",
"T. c #E70808",
"R. c #A31813",
"E. c #E70C08",
"W. c #EB0C08",
"Q. c #D41813",
"!. c #A40408",
"~. c #59100D",
"^. c #E3080C",
"/. c #DD0B11",
"(. c #78100D",
"). c #AC0309",
"_. c #080005",
"`. c #7D1E1E",
"'. c #D4181A",
"]. c #791416",
"[. c #E70D1E",
"{. c #3A0306",
"}. c #4B090A",
"|. c #94191E",
" X c #681516",
".X c #5B090A",
"XX c #E60804",
"oX c #89100E",
"OX c #95282A",
"+X c #320306",
"@X c #360C0F",
"#X c #EF0419",
"$X c #270C0E",
"%X c #EB0808",
"&X c #FF0004",
"*X c #8C0804",
"=X c #B51B22",
"-X c red",
";X c #D3100F",
":X c #ED0804",
">X c #43090A",
",X c #F70005",
"<X c #AC0903",
"1X c #9C0001",
"2X c #9C0803",
"3X c #000008",
"4X c #120504",
"5X c #220405",
"6X c #940101",
"7X c #FF0400",
"8X c #F30D15",
"9X c #551B1F",
"0X c #711B1F",
"qX c #DD0203",
"wX c #2A0406",
"eX c #1A0406",
"rX c #F8000D",
"tX c #591417",
"yX c #A40101",
"uX c #530903",
"iX c #31090A",
"pX c #D3140F",
"aX c #F30300",
"sX c #B41814",
"dX c #AC1813",
"fX c #940903",
"gX c #DD0803",
"hX c #A40904",
"jX c #D30903",
"kX c #471617",
"lX c #430802",
"zX c #381415",
"xX c #D30B19",
"cX c #DD0C19",
"vX c #2A0A0A",
"bX c #4E1F1F",
"nX c #33110E",
"mX c #220908",
"MX c #5A2427",
"NX c #772B2E",
"BX c #47100E",
"VX c #2B1112",
"CX c #1B0A09",
"ZX c #050404",
"AX c #3A0803",
"SX c #1A0803",
"DX c #2A0803",
"FX c #4B0903",
"GX c #0C0709",
"HX c #26100C",
"JX c #11090B",
"KX c #F0100C",
"LX c #412422",
"PX c #000800",
"IX c #000808",
"UX c black",
/* pixels */
"$ $ $ $ $ $ $ $ $ $ $ $ $ $ $ $ $ $ $ $ $ $ $ $ $ $ [ $ +.$ $ $ $ $ $ $ $ $ $ $ $ $ $ $ $ $ $ +.$ $ $ $ $ #.#.$ +.$ $ $ $ $ $ $ $ #.$ $ $ $ $ $ #.$ $ #.$ $ [ $ $ $ $ $ $ $ $ $ $ $ #.$ $ $ $ #.#.$ $ $ $ $ $ $ $ $ $ $ $ [ [ $ $ $ $ $ $ $ $ $ $ $ $ $ $ $ $ $ $ $ [ $ [ [ $ $ $ $ $ $ $ $ #.$ $ $ $ $ $ #.$ $ $ +.$ $ $ $ [ $ $ $ $ $ [ $ $ $ $ $ $ $ $ $ $ $ $ ",
"$ $ $ [ [ [ $ $ $ $ $ $ $ $ [ [ $ $ $ $ $ $ $ +.$ +.$ $ $ $ [ [ $ [ $ $ #.$ $ $ $ $ $ +.+.+.$ $ $ $ $ $ $ $ $ $ 3.$ $ $ [ +.+.+.$ $ $ +.$ $ $ $ $ $ $ +.+.3.3.3.3.+.$ $ $ +.$ $ $ $ #.$ [ $ $ $ +.$ +.+.$ $ #.$ $ +.+.$ $ $ $ $ $ [ [ $ $ $ $ $ $ $ $ $ $ $ $ $ $ $ $ $ [ $ $ $ $ $ $ [ $ $ $ $ +.$ $ $ $ $ $ $ $ [ [ $ $ $ #.#.#.$ $ +.+.+.+.[ $ $ $ $ $ $ $ $ $ ",
"$ $ $ $ $ $ $ #.$ $ $ $ $ #.#.$ $ $ #.#.$ $ $ $ $ $ $ $ $ $ #.$ $ $ $ #.$ $ [ $ #.$ $ $ 4 8 6 1 $ $ $ $ $ $ $ $ [ $ $ +.+.$ +.$ $ $ $ $ $ $ $ [ [ +.3X+.$ +.a.#.$ $ $ $ $ +.$ $ $ #.#.$ $ #.#.#.#.$ $ $ $ $ #.$ #.$ +.+.+.3.$ +.$ $ $ $ $ $ [ $ $ $ $ $ $ $ +.#.a.+.$ $ $ $ #.$ $ $ $ +.+.+.+.+.+.+.+.$ $ [ $ $ $ $ $ $ $ #.#.$ $ +.$ $ $ +.$ [ $ $ $ $ $ $ [ $ $ ",
"#.$ $ $ $ $ $ $ $ $ 2 8 K...q 5 6 8 ( ( >X6 2 [ $ $ 7 +Xo.o.8 5 8 K.{ 1 $ $ [ [ $ q k m W U <.# j i.4 $ $ $ $ $ [ [ 2 6 ] e q 8 8 8 ..K.>X1 [ [ $ [ [ 6 ..K.q 8 8 {.lX6 2 [ $ [ $ $ $ +.2 1 Y.^ b a , p 3 R ; m S N ` 5 $ +.$ $ $ $ $ $ 3.[ 2 +XK.] q 8 q { ....{.7 4 t ^ E ` E w w w w | ^ ` I I ` ( 6 7 3.2 4 ..I Z j , * 3 R ; m G.v ] 2 $ $ +.+.$ $ [ $ $ $ $ ",
"#.#.$ [ $ +.+.+.[ [ 1 Q D 4.g.<.k.j.w.O.=XE 1 [ [ [ 5 b R /.U j.j.4.R | $ [ $ 6 b.> A.*.g.j.T.&.8.m.d ] $ [ [ $ [ 2 1 v W g.m.j.j.U w.=.B.] [ [ #.[ 7 G - 7.. I.. O.D G 6 [ $ $ $ [ [ $ 7 | *  .t.  p.p.  ,.%XT.y 5.} # f e $ $ $ $ $ #.$ 2 7 G V.z g.qXg.I.w. .S t t s D.} 9.8.l l q.q.h.f.9.q.y c # v 5 7 @.b @ 6.t.    L 5.l %Xl y.y i p I 4 $ [ +.+.$ $ $ $ +.",
"$ $ $ $ $ +.$ $ $ $ 7 8 G 3 8.  &X&.k., A { 7 $ [ [ 4 | a o : t.9.> f q $ 7 8 k W Y a ^ 5 1 r V J y c R G 1 $ $ $ 2 2 C.s O.q.  &X  >.& b 8 $ [ #.$ 2 _ s -.y.1.S.i u e 1 [ $ $ $ $ $ $ 2 e N + m.9.) E.3 G q t M.S i 5.6.# v 6 $ [ $ $ $ [ 2 ..N @ :X  ) 5.0.* A 5 6 ` u W &.  7Xc.U J ; R > o I.f.-.N 8 2 1 Q S W s.t.1.0.j w q r 6X> ;.y.0., ( $ $ [ $ $ $ $ [ ",
"$ $ $ $ $ [ [ [ $ $ $ $ $ q j D.5.4.f 6 $ $ $ [ $ [ $ $ [ e h W * q $ $ $ 8 a N.B E $ $ $ $ $ $ _ R d.P.Y ~ 2 2 $ $ #.$ $ t m : : U b 2 $ $ $ $ $ $ [ $ 7 ^ 3 # j | 1 $ [ [ $ $ $ $ $ #.#.$ $ 4 ` 9 9.2.(.[ $ #.$ $ E 3 d.y.4.v 5 7 $ [ [ [ $ $ $ q 3 : 7.# | $ $ $ $ $ [ ^ 3 7.h.3 r 2 $ $ $ 1 / s + N 8 2 $ $ $ q j X.f.+ { $ $ $ $ 6 k ;X;.8.+ | 2 2 $ [ [ $ $ ",
"$ $ $ $ $ $ $ $ $ $ $ $ 2 2 ] R S.X., t 7 $ $ $ $ $ $ [ @.` v., u.7 $ 2 7 C Y x ] 2 [ $ +.3.$ $ 1 / m c c x | 1 $ $ $ $ $ 4 a z.4.& e $ $ $ $ $ $ $ $ $ $ 6 k n .X$ [ #.$ +.$ $ $ $ $ $ #.+.+.7 t B.c J ^ 2 2 $ #.$ [ q j ;.c W V 6 $ [ $ $ +.[ $ 4 G.D.W S q $ $ $ [ $ 2 5 k Y = B 6 $ $ $ $ $ 7 .XOXk o.7 $ $ [ 4 P ' 6.s 8 2 [ $ $ $ 4 / m 8.7.+ u.1 $ [ $ $ +.",
"[ [ $ $ $ $ $ $ $ [ [ $ [ [ 4 j ;.7.o G 7 $ $ $ +.3.$ $ 8 B N.v 6 7 [ 1 ( , V.Z 1 $ [ $ $ $ $ $ 7 1 G ;X%.4., q [ [ $ [ $ 1 b V.W m t $ $ $ $ $ $ $ +.+.$ $.v OX.X7 2 #.$ +.$ $ $ $ #.$ #.$ [ 7 q x : J | [ 2 #.#.$ $ $ q d 4.6.0 I 7 2 [ +.+.$ $ 4 N -.@ B q 2 [ $ $ $ 7 5 k J z j 1 [ [ $ $ [ 7 {.x.x.8 7 $ $ 2 1 E ' P.S 8 7 2 $ $ [ $ $ u.o 7.. p q $ [ $ $ $ ",
"$ $ $ $ $ $ $ $ $ [ $ $ $ $ $ u.@ U =.u 6 $ [ $ $ [ [ $ r ; + ..$ 2 2 8 X =Xh r 7 $ $ #.$ $ $ $ [ $ 8 , U H 0.Q [ [ $ $ $ 1 A J V.* t $ $ $ $ $ $ $ $ +.$ 6 v OX( 7 2 $ $ +.$ $ $ $ $ [ $ $ [ 7 q S 8.Y i.$ 2 $ $ $ $ $ 7 e , ;.;., t 1 [ $ +.$ $ 4 V O.@ G.o.[ [ $ $ $ 2 5 k @ 7.f 1 2 [ $ $ [ 2 1 0X`.8 7 $ $ 2 1 E ; *.S 8 2 [ $ $ $ $ $ 6 v ' = 4.v 4 7 $ $ $ ",
"$ $ $ $ $ $ $ $ $ $ $ $ $ $ [ 8 u Q.%XL.| [ [ $ $ [ 2 4 `.; V 4 $ [ 2 ^ ; R oX8 2 $ $ $ $ [ $ $ $ $ 1 K J ;.6.M 8 7 [ $ $ 1 b - V.p q $ $ $ $ $ $ $ +.$ $ 6 T OXK.7 2 $ $ +.$ [ $ $ $ $ $ $ [ 7 8 e.*.Y / 2 2 +.$ +.#.#.2 2 Q -.l J k 5 [ [ $ $ $ 4 N -.V.G.q [ [ [ $ $ 2 5 k @ 7.N 1 2 [ $ $ $ [ 2 kXtX4 2 $ $ 2 1 E R : S 5 2 [ $ [ [ $ [ 7 8 u 6.d.* | 1 $ $ $ ",
"$ $ $ $ $ $ $ $ $ $ $ $ $ $ [ 1 E R f.O f 8 7 #.$ [ 1 ] OXB | 7 $ $ 7 k  .N.C.1 2 $ [ [ $ $ [ 3.$ $ 7 t dXA.y ; ~ 4 Z.$ $ 7 b - - p { $ $ $ $ $ $ $ +.$ 3.6 v F K.7 2 $ $ +.$ [ $ $ $ $ $ $ [ 7 8 B c - P 7 2 +.$ [ $ #.[ $ 8 m 6.=.R e $ $ $ $ $ 1 V :.@ G.q 2 [ [ $ $ 2 5 b ' U f 1 [ [ $ $ $ [ 2 2 2 2 [ $ $ 2 4 E R : S 5 2 [ $ [ [ $ $ [ $ ` 4.} 4.N 6 $ $ [ ",
"$ $ $ $ $ [ $ $ $ $ $ $ [ $ [ 2 4 j c >.; ` 1 #.$ [ 5 k n ! 6 2 [ 2 8 s ;.* q 7 [ $ $ $ $ $ [ 3.[ $ 7 @.k D.y.% k 5 [ $ $ 7 b - V.d q [ $ $ $ $ $ $ +.+.3.6 T OXK.7 2 $ $ +.$ [ [ [ $ $ $ $ [ 2 5 R.6.W P 1 2 +.+.3.$ $ $ $ 4 V X.;.U K $ [ $ $ $ 1 V W @ G.q 2 [ [ $ $ 2 5 oX# m.V 1 [ [ $ $ $ #.$ $ $ [ [ $ $ 2 1 ^ ; *.S 5 2 [ $ $ [ $ [ [ $ t m  .;.3 t $ [ [ ",
"$ $ $ $ $ $ $ $ $ $ $ $ [ $ $ [ $ ` -.z 7., 6 $ $ $ r g j 8 2 2 2 1 ( D 6.S 5 2 [ $ $ $ $ $ [ [ [ [ 2 2 i.- y U p e [ [ $ 1 b o V.d q $ $ $ $ $ $ $ $ $ [ 6 v OXK.7 2 $ $ $ $ $ $ $ $ $ $ $ [ 2 $.R.: Y P 1 2 $ $ $ $ $ $ +.7 ` R H 6.f 4 2 [ $ $ 4 V W J u q 2 [ [ $ $ 2 5 oX' m.f 1 [ [ $ $ $ $ $ [ $ [ $ $ $ 2 1 ^ ; 8.S 5 2 2 $ $ $ $ [ $ $ $.N 2.c 4.E $ 2 $ ",
"$ $ $ $ $ $ $ $ $ $ $ $ $ $ $ [ $ q , -.= J e $ 7 2 C ; C 7 [ [ 2 4 P ' ;.G.6 2 [ $ $ $ $ $ $ $ $ [ 2 $ { g l w.o u.[ [ $ 1 b o V.p q $ $ $ $ $ $ $ $ $ $ 6 v X ( 1 2 $ $ [ $ $ $ $ $ $ $ $ [ 2 $.R.c - P 1 2 $ $ $ $ $ $ +.7 q B 7.8., 8 7 [ $ $ 1 V W @ G.q 2 [ $ $ $ 2 5 T ' U f 7 [ $ $ $ [ >X( 1 3.$ $ $ $ 2 1 E ; 8.S 5 2 [ $ $ $ $ $ $ $ 6 I ' 6.7.C 7 2 [ ",
"$ $ $ $ $ $ $ $ $ $ $ $ $ $ $ $ [ 4 / N.l =.k 6 6 Y.F u t 7 $ $ 2 5 oXV.;.j 4 2 [ $ $ $ $ $ $ $ $ $ [ $ 5 , z . 4.J.2 [ $ 1 b o V.S q [ $ $ $ $ $ $ $ $ $ 6 b X .X1 2 $ $ $ $ $ $ $ $ $ $ $ [ 2 5 u 6.Y Q 1 2 $ $ $ $ $ $ +.7 6 f i f.m ( 7 #.#.$ 1 N O.@ u 8 2 [ $ $ $ 2 5 T @ 7.V 7 [ [ $ [ 2 0Xx.5 [ $ [ $ $ 2 1 ^ ; 8.S 5 2 [ $ $ $ $ $ $ $ 4 r * 6.A.F 4 7 $ ",
"$ $ $ $ $ $ $ $ $ $ $ $ $ $ $ $ $ 7 6 |.d.6.D Q r v OXC.4 2 $ $ 7 q j 2.E.X 1 [ [ $ $ $ $ $ $ $ $ $ [ $ 1 V O =.7.k 7 [ $ 1 b Y V.S q [ $ $ $ $ $ $ $ $ $ 5 k j | 1 2 $ $ $ $ $ $ $ $ $ $ $ [ 2 5 u : Y P 1 2 $ $ $ $ [ $ $ 2 7 C -.y ' P 4 [ $ $ 1 a O.J G.8 2 [ [ $ $ 2 $.T @ =.f 1 [ $ [ [ 7 `.|.8 $ $ $ $ $ 2 1 E ; *.S 5 2 [ $ $ $ $ $ $ +.1 q R.;.;.u 5 7 $ ",
"$ $ $ $ $ $ $ $ $ $ $ $ $ $ $ $ $ 2 $ ~ 0 6.0.* 6X=XT 4 2 [ $ $ 7 t , -.T.N 1 [ [ $ $ $ $ $ $ $ $ $ $ $ 1 b.<.=.;.N 1 2 $ 1 U.Y V.S q [ $ $ $ $ $ $ #.$ $ 5 k n | 1 2 $ $ $ $ $ $ $ $ $ $ $ [ 2 6 u 6.Y P 1 2 $ $ $ $ $ $ $ 2 2 ~ W y V.C 4 [ $ $ 4 a 2.@ u 8 2 [ [ $ $ 2 6 oX@ 7.N $ $ $ $ $ K.X N 8 [ $ [ [ $ 2 1 ^ R *.S 5 2 [ $ $ $ $ $ $ +.7 5 X H c e.{ 7 $ ",
"$ $ $ $ $ $ $ $ $ $ $ $ $ $ $ $ $ $ $ 8 p A.l %Xn.' ^ $ $ $ $ $ 7 e p 0.I.N 4 [ [ $ $ $ $ $ $ $ $ $ [ $ 7 Q @ 7.z N 1 2 $ 1 Z W Y p q $ $ $ $ $ $ $ $ $ [ 5 b n .X1 2 $ $ $ $ $ $ $ $ $ [ $ [ 7 5 u 6.J / 7 2 $ $ $ $ $ $ $ 2 $ _ J ,.Y b 6 2 [ $ 4 j -.# j 8 2 [ [ $ $ 2 6 x.V.q.o 1XN r.!.* l.; N 5 #.#.$ $ $ 2 1 E ; *.S 5 2 [ $ $ $ $ $ $ $ 7 6 k 7.: S e 1 $ ",
"$ $ $ $ $ $ $ $ $ $ $ $ $ $ $ $ $ $ $ 4 K @ *.&.D.B q $ $ $ $ $ 2 r g U %.j 4 2 [ $ $ $ $ $ $ $ $ [ [ $ 7 ` > O H X 4 2 $ 1 Z % V.S q $ $ [ $ $ $ $ $ [ [ 5 b j | 1 2 $ $ $ $ $ $ $ $ $ [ $ [ 7 5 u 6.- E 7 2 $ $ $ $ $ $ $ 2 2 ~.@ ,.Y b 6 [ [ $ 4 u 4.@ u q [ [ [ $ #.2 6 oXQ.H.t.c >.= q.y.y 0.u 8 $ $ $ $ $ 2 1 E R 6.S 8 2 2 $ $ $ $ $ $ $ 7 6 f  .6.dXe 1 +.",
"$ $ $ $ $ $ $ $ $ $ $ $ $ $ $ $ $ $ [ 1 8 u H h.L.` 4 [ $ [ $ $ 2 | 3 7.8., 6 2 [ $ $ $ $ $ $ $ $ $ [ $ 7 w 3 i . X 4 2 $ 1 V O.W S t $ $ [ $ $ $ $ $ [ [ $.k n .X1 2 $ $ $ $ $ $ $ $ $ [ $ [ 7 5 u 6.@ ^ 7 2 $ $ $ $ $ $ $ 2 [ _ @ ,.Y k 4 [ [ $ 4 u 4.@ j 8 $ $ $ $ $ 7 6 oXW 9.; M./ u.` U.* R u 8 $ $ $ $ $ 2 1 E R c S 8 2 [ $ $ $ $ $ $ $ 7 @.k U 6.dXe 1 +.",
"$ $ $ $ $ $ $ $ $ $ $ $ $ $ $ $ $ $ $ 2 4 C i :XS { 7 [ $ $ $ $ 2 | g d.y x 5 2 2 $ $ $ $ $ $ $ $ $ $ $ 7 | m 0.. N 4 2 [ 4 N O.W S q [ $ $ $ $ $ $ $ [ [ 5 b j ( 1 2 $ $ $ $ $ $ $ $ $ [ $ [ 7 5 u ;.@ ^ 7 2 $ $ $ $ $ $ $ 2 2 _ @ ,.- b 4 [ [ $ 6 u 4.@ j 8 $ $ $ $ $ 2 6 x.@ z j $ $ $ $ $ {.OXN 8 [ $ $ $ $ 2 1 ^ ; *.S 5 2 [ $ $ $ $ $ $ $ 7 4 k 7.;.S e 1 +.",
"$ $ $ $ $ $ $ $ $ $ $ $ $ $ $ $ $ $ $ 2 2 ` Y 7.u 5 2 [ $ $ $ $ 2 e x  .y + q 7 [ $ $ $ $ $ $ $ $ $ $ $ 7 | * i ;.V 4 2 $ 6 N O.W S q [ $ $ $ $ $ $ $ [ [ 5 b j ~.1 2 $ $ $ $ $ $ $ $ $ [ $ [ 7 5 u ;.@ ^ 7 2 $ $ $ $ $ $ $ 2 2 ^ - y - v @.[ $ $ 6 u 4.@ j 8 $ $ [ [ $ 2 6 T @ z j 4 2 [ [ [ 4 `.|.5 $ $ $ $ $ 2 1 ^ R l S 5 7 [ $ $ $ $ $ $ $ 7 $.X 7.;.S e 1 3.",
"$ $ $ $ $ $ $ $ $ $ $ $ $ $ $ $ $ $ $ 2 [ E o 7.a $.2 [ $ $ $ $ 7 q B 0.y R ( 7 2 $ $ $ $ $ $ $ $ $ #.$ 7 | m X.H *X7 [ $ 4 N O.Y S q [ $ [ $ $ $ $ $ [ [ 5 T X ~.1 2 $ $ $ $ $ $ $ $ $ [ $ [ 7 5 u ;.# E 7 2 $ $ 3.$ $ $ $ 2 7 Q % y # Q 4 [ $ $ 6 u 4.J j 8 $ $ $ $ $ 2 6 v V.6.j 1 [ [ [ [ 2 ].|.8 $ $ $ $ $ 2 1 E ; *.S 5 2 [ $ $ $ $ $ $ $ 1 q u =.;., { 1 3.",
"$ $ $ $ $ $ $ $ $ $ $ $ $ $ $ $ $ $ $ 2 2 / o . j 5 7 [ $ $ $ $ 2 8 f 4.&.J P 4 2 $ $ $ $ $ $ $ $ $ $ $ 7 / R 4.4.G 2 [ $ 4 r.4.2.S q [ $ [ $ $ $ $ $ [ [ 5 b X ( 1 2 $ $ $ $ $ $ $ $ $ [ $ [ 2 5 u ;.# E 7 2 $ $ 3.$ $ $ $ 7 6 oXX.y R i.1 [ $ $ 6 u 4.J j 8 $ $ $ $ $ 2 6 v V.6.j 1 [ [ [ $ [ tX].6 [ [ $ $ $ 2 1 i.; : S 5 [ [ $ $ $ $ $ $ $ 1 e S ;.H j 5 7 +.",
"$ $ $ $ $ $ $ $ $ $ $ $ $ $ $ $ $ $ $ 2 2 / o . j 5 7 $ $ $ $ $ 2 6 v 2.&.O.b 6 2 $ $ $ $ [ $ $ $ [ [ $ 7 Q @ 2.> w 2 [ $ 4 r.4.2.p q $ $ [ $ $ $ $ $ [ 2 5 k n ( 7 2 $ $ $ $ $ $ $ $ $ [ $ [ 7 5 u z # ^ 7 2 $ $ 3.$ $ $ $ 7 q M 7.8.B.q 7 [ [ $ 4 u 4.J j 8 $ $ $ $ $ 2 6 v V.6.j 1 [ [ $ $ $ eX@.2 [ $ $ $ +.2 1 i.R 6.S 8 7 [ $ $ $ $ $ $ $ 4 < ; }  .v 7 7 $ ",
"$ $ $ $ $ $ $ $ $ $ $ $ $ $ $ $ $ $ $ 2 2 / - . j 5 7 $ $ $ $ +.2 4 P o y.i j q 2 $ $ $ $ [ $ $ $ [ [ $ 1 v Y V.S t [ [ $ @.r.z.2.p t $ $ [ $ $ $ $ $ [ [ 8 N n K.7 2 $ $ $ $ $ $ $ $ $ $ $ [ 7 5 R.z # ^ 2 2 $ $ $ $ $ $ #.7 w + =.: u 6 2 [ [ $ 4 u 4.@ j 8 $ $ [ $ $ 2 6 T V.6.j 1 [ [ $ $ $ $ $ [ [ $ $ $ +.2 1 i.R 6.s 8 2 [ $ $ $ $ $ $ $ 6 f - 6.4.~ [ 2 [ ",
"$ $ $ $ $ $ $ $ $ $ $ $ $ $ $ $ $ $ #.2 2 ~ Y =.j 5 7 +.$ $ [ $ 2 7 e g y H R w 7 $ $ $ $ $ $ $ $ 3.3.$ 4 V O ' b 5 [ $ $ 1 V -.-.3 e $ $ $ $ $ $ $ [ $ [ q s v...2 2 $ $ [ $ $ $ $ $ $ $ $ [ 7 8 u z # E 7 2 $ $ $ $ $ [ $ @.Z :.z 7.C $ [ $ $ $ 6 u X.J u 8 $ $ [ $ $ 2 6 T J 6.j 1 [ [ $ $ $ $ $ $ $ $ $ $ $ 2 1 E R : S 8 2 [ $ $ +.$ $ [ $ q + 7.[.; t $ [ $ ",
"$ $ $ $ $ $ $ $ $ $ $ $ $ $ $ $ $ $ $ 2 2 ! W H j 5 2 +.$ $ $ $ 2 7 5 G.6.H 0.b 7 $ [ $ $ $ $ $ $ [ [ $ 6 B 7.* ^ 4 Z.$ $ 1 V -.4.# w $ $ [ $ $ $ $ #.[ $ e + B Y.2 [ $ $ $ $ $ $ $ $ $ $ $ [ 7 8 B ;.@ ^ 7 2 $ $ $ $ $ [ $ 5 p d.O > e $ $ +.[ $ 4 u z.J u 8 $ $ [ $ $ 2 6 v J 6.j 1 [ [ $ $ $ $ [ [ [ 2 eX7 [ 2 1 ! ; = S 8 7 2 $ $ $ $ 3.2 $ / O.} z.j 5 $ $ $ ",
"$ $ $ $ $ $ $ $ $ $ $ $ $ $ $ $ $ $ $ 2 2 ` 2.;.j 5 7 $ $ $ $ $ [ [ 7 b /.%.c S 5 $ [ $ $ $ $ [ [ $ [ $ q + 7.X 5 2 3.$ $ 7 A - O <.< $ [ [ $ $ $ #.#.[ $ | ; M 5 [ [ #.$ $ $ [ $ $ $ $ $ $ 2 7 8 , 6.J / 7 2 $ $ [ $ $ 2 $ i.Y >.- f 5 $ $ $ [ $ 6 u z.J u 8 $ $ $ $ $ 2 6 v J ;.a 1 [ [ $ $ $ $ [ 2 [ {.].{ [ [ 4 ` 9 6.S 8 7 2 $ $ $ $ 3.7 5 j 6.} + r 1 $ $ $ ",
"$ $ $ $ $ $ $ $ $ $ $ $ $ $ $ $ $ $ $ 2 2 P :.;.j 5 2 $ $ $ $ +.$ $ [ r R H y J E 2 2 $ #.$ $ [ $ $ 7 1 ` @ 4.G [ [ #.$ $ 1 G ' U . k 7 2 [ $ $ $ #.+.[ [ P # a 6 $ $ $ $ $ $ $ $ $ $ $ $ $ 2 1 8 , 6.- ` 7 2 $ [ [ $ $ 7 8 j 7.z , t 1 [ $ $ [ $ 6 u z.J u 8 [ $ $ $ $ 2 6 v J ;.N 4 [ [ $ $ $ $ +.2 7 .XOXr 2 2 1 ` ' : S 8 7 [ $ $ $ $ [ 4 ` 9 y  .v 4 7 $ $ $ ",
"$ $ $ $ $ $ $ $ $ $ $ $ $ $ $ $ $ #.#.2 7 Q 0 ;.u 5 7 $ $ $ $ $ $ $ 2 8 *X2.c.7.j q 7 $ $ [ $ #.$ $ 1 t j R d q $ $ +.$ $ 7 | m 7.l , 5 2 [ $ $ $ #.[ 2 6 k # b 1 $ [ $ $ $ $ $ #.#.#.$ [ $ 2 7 q S : W Q 1 2 $ $ [ $ $ 6 b @ z 0 ` 2 2 $ $ $ $ $ 6 u X.J u q 2 [ $ $ $ 2 6 v @ ;.N 4 2 [ $ $ $ $ [ 7 6 `.F t 7 2 4 P J 9.x q 2 [ #.$ [ [ $ e * 4.z + q [ 2 $ $ $ ",
"$ $ $ $ $ $ $ $ $ $ $ $ $ $ $ $ $ $ $ 2 2 (.Q.;.u 8 1 $ $ $ $ $ $ $ 2 1 t s f.l :.Z 4 $ $ $ $ $ [ $ 4 U.R M | 1 +.+.+.$ $ 7 8 j X.y ' ` 4 [ a.#.$ #.$ 1 ` h * ^ 7 $ $ $ $ $ $ #.#.$ $ $ $ $ 2 1 e + 8.0.oX$.7 #.#.#.$ 2 J.;X7.o V 6 $ $ $ $ $ [ $ 6 u z.@ j 8 [ [ $ $ $ 7 5 k Y P.B 6 [ [ $ $ $ $ $ 4 i.F x.q 7 7 6 T W y R ( 7 2 $ +.[ 2 q u z z.p w 7 $ $ $ $ $ ",
"$ $ $ $ $ $ $ $ $ $ $ $ $ $ $ $ $ $ $ $ 1 F 7.,.D | $ $ $ 3.$ $ $ $ [ 2 $ I <.c 8.@ ^ $ $ $ $ $ $ $ | R # E 1 2 +.$ [ [ $ 7 1 E & &.A.m ^ $ #.#.$ $ $ E ; ; f q 7 $ +.+.[ [ $ $ $ $ $ $ $ $ $ 7 ~ 9 y ;.+ | $ $ #.$ 8 k # *.<.v 6 7 $ $ $ $ $ $ $ 6 , 7.O.S q $ $ $ $ $ $ ( p U &.m t $ $ $ $ $ #.$ q G.F.`.5 2 $ q B U y.'.b 6 $ $ $ $ w p X.#X+ r 1 7 $ $ $ $ [ ",
"$ $ $ $ $ $ $ $ $ $ $ $ $ $ $ $ $ 7 8 ~ !.0.y 1.;.3 b i.5 [ $ $ $ $ $ $ $ 6 Z - y 9.& b 5 $ $ $ t V D D b @.$ $ $ $ $ $ $ [ [ 6 j ;.8.9.o a < e e G u o : x ..7 2 $ $ $ $ $ $ 3.$ $ $ $ [ 7 8 v l.W.) 5.6.m Q | ` Z 3 c  .3 v 4 $ [ $ $ #.[ 2 5 w u U t.h.H , I q 7 7 8 G 3 : &.) T.> yXZ K K M.b.N 3 >.# P 6 6 e u 7.&.-X9.O.N w r M.!.;Xy -., ( $ $ $ $ [ [ [ $ ",
"$ $ $ $ $ $ $ $ $ $ $ $ $ $ $ $ $ 8 j % 8.5.,X&.1.y.6.O.C 7 $ [ $ $ $ $ 3.2 1 G Y y y.q.J , <Xm o =.R ` 1 2 $ #.#.$ $ $ $ $ $ 2 t B 4.t.  1.q.T.T.f.y ;.# ` [ $ [ $ $ #.$ $ $ $ $ $ $ $ 7 t u -.&.1.t.t.1.5.*.>.l : 7.Y V q $ $ #.#.$ $ $ 2 1 C Y q.&.t.5.y.*. ., q t , D.9.)     ) ) 5.y 9.9.8.h.y.L 5.@ i.8 K R 6.  ) H.) 1.y . ^.%.: 4.+ I 7 $ $ #.$ $ $ $ $ $ ",
"$ $ $ $ $ $ $ $ $ $ $ $ $ $ $ $ $ $.C N f Z A v Z X N F ] 7 [ $ $ $ $ $ $ [ $ 1 r u O.9.t.  L ,.o X e $ $ $ $ $ $ $ $ $ $ [ #.[ [ 5 v R =.y 5.t.,.7.> k q 7 [ $ $ $ $ $ $ $ $ $ $ $ [ [ 7 8 G k N Z b Z Z a , d u Z i.6 $ $ $ $ $ $ $ $ [ 2 1 ( f u V Z Z Z a u C 5 8 v a N N a a V V V X a N N N N V Z / 6 4 ^ k N N V Z Z N u B G.f K ] 4 $ $ +.$ $ $ $ $ $ $ [ ",
"$ $ $ $ $ $ $ $ $ $ $ $ $ $ $ $ $ $ $ #.#.$ $ $ #.#.a.a.+.$ $ $ $ [ [ [ $ $ $ $ $ 2 t Q k j k I t 2 $ 3.+.$ $ $ [ $ $ $ $ $ $ $ $ $ $ $._ C b A K ] 6 $ $ $ $ $ $ $ $ $ $ $ $ #.$ $ $ $ $ $ $ $ $ #.#.#.+.$ a.$ $ $ $ $ $ $ $ $ $ $ $ $ [ $ $ $ $ $ $ $ $ $ $ #.+.+.$ $ $ $ $ $ $ $ $ $ $ #.#.#.$ $ #.$ $ a.$ #.#.$ #.#.#.#.$ $ $ $ $ $ #.$ $ $ [ [ $ $ $ $ $ $ $ ",
"$ $ $ $ $ $ $ $ $ $ $ $ $ $ $ $ $ $ $ #.#.#.$ $ $ #.#.$ $ $ [ [ [ $ $ $ $ $ [ $ $ #.#.#.$ $ $ $ $ $ a.+.+.$ $ $ $ $ [ [ $ $ $ $ $ $ $ $ $ $ $ $ $ $ $ $ $ $ $ $ $ $ [ [ [ [ $ $ $ +.3.3.+.[ $ $ $ $ $ $ +.+.+.$ +.+.+.+.$ $ $ $ $ $ $ $ $ $ $ $ $ $ +.$ $ $ $ $ $ a.$ $ $ $ $ $ $ +.3.3.+.$ $ $ $ +.$ [ $ +.+.#.$ $ $ #.$ $ $ $ $ $ $ $ $ [ [ [ [ $ $ $ $ $ [ $ $ ",
"$ $ $ $ $ $ $ $ $ $ $ $ $ $ $ $ $ $ $ $ $ $ #.#.$ $ $ $ $ $ $ $ $ $ $ $ [ [ $ $ $ $ #.$ $ $ $ $ $ +.$ $ $ #.$ $ $ $ $ $ $ $ [ [ $ $ $ $ $ $ $ $ $ $ $ $ [ $ $ +.+.$ $ $ $ [ $ $ $ $ $ [ $ $ $ $ $ $ $ $ $ $ $ $ $ [ $ $ $ $ $ $ $ $ $ $ [ $ $ $ $ $ $ $ $ $ $ $ $ $ $ [ [ [ $ $ [ $ 3.$ $ $ $ $ $ +.[ [ [ +.$ $ $ $ $ $ $ $ #.$ #.$ $ $ $ [ $ [ $ $ $ $ $ $ $ $ $ ",
"$ $ $ $ $ $ $ $ $ $ $ $ $ $ $ $ $ $ $ $ $ $ $ $ $ $ $ $ $ $ $ $ $ $ $ $ $ $ $ $ $ $ $ $ $ $ $ $ $ $ $ $ $ $ $ $ $ $ $ $ $ $ $ [ $ $ $ $ $ $ $ $ $ $ $ $ $ $ $ $ $ $ $ $ $ $ $ $ $ $ $ $ $ $ $ $ $ $ $ $ $ $ $ $ $ $ $ $ $ $ $ $ $ $ $ $ $ $ $ $ $ $ $ $ $ $ $ $ $ $ $ $ $ $ $ $ $ $ $ $ $ $ $ $ $ $ $ $ $ $ $ $ $ $ $ $ $ $ $ $ $ $ $ $ $ $ $ $ $ $ $ $ $ $ $ $ $ "
};
