/* XPM */
static char *b78bac80b7124e7df890f750999f3560[] = {
/* columns rows colors chars-per-pixel */
"138 40 250 2 ",
"   c #003D73",
".  c #3D607E",
"X  c #1B4771",
"o  c #024785",
"O  c #195488",
"+  c #0B5D9E",
"@  c #0A5697",
"#  c #155A9A",
"$  c #1A4F83",
"%  c #275D8B",
"&  c #2A5C8B",
"*  c #285A85",
"=  c #30588B",
"-  c #235D94",
";  c #1C6499",
":  c #3A6895",
">  c #2C6292",
",  c #0E5EA0",
"<  c #0C5EA8",
"1  c #105EA0",
"2  c #0D5EB7",
"3  c #2256A1",
"4  c #0C60A0",
"5  c #1966AA",
"6  c #0B6DBE",
"7  c #0A6AB7",
"8  c #146EBE",
"9  c #196EBD",
"0  c #1869B4",
"q  c #1471BE",
"w  c #1B73BD",
"e  c #1C70B6",
"r  c #3775A8",
"t  c #256DB7",
"y  c #2374BC",
"u  c #2973BC",
"i  c #387BBB",
"p  c #2E69AB",
"a  c #577390",
"s  c #467BB3",
"d  c #4B76A5",
"f  c #637AA3",
"g  c #0A6DC2",
"h  c #156EC1",
"j  c #0E72C8",
"k  c #1372C2",
"l  c #1974C7",
"z  c #1C7BC7",
"x  c #1675C9",
"c  c #1B74C8",
"v  c #1479CA",
"b  c #1B7CCB",
"n  c #1C7DD3",
"m  c #187AD4",
"M  c #2276C5",
"N  c #2279C6",
"B  c #2B7BC5",
"V  c #227CCC",
"C  c #2977C8",
"Z  c #347BC8",
"A  c #237ED2",
"S  c #247CDA",
"D  c #287ED1",
"F  c #327ED5",
"G  c #1981BE",
"H  c #5C84AF",
"J  c #4E84BC",
"K  c #5887B4",
"L  c #678CB7",
"P  c #6893B8",
"I  c #7698B8",
"U  c #698AA6",
"Y  c #59899D",
"T  c #1C82D7",
"R  c #1C81C7",
"E  c #2982CB",
"W  c #3785CB",
"Q  c #2581D3",
"!  c #2983D5",
"~  c #2484DB",
"^  c #2B86DB",
"/  c #2D8ADD",
"(  c #208AD8",
")  c #3B84D2",
"_  c #3489D4",
"`  c #348ADC",
"'  c #3A8BDB",
"]  c #3586D8",
"[  c #3C91DE",
"{  c #1F87E2",
"}  c #2485E3",
"|  c #2A86E2",
" . c #2C8AE3",
".. c #298BE9",
"X. c #328CE3",
"o. c #3B8EE3",
"O. c #368EE9",
"+. c #3589E5",
"@. c #2993EA",
"#. c #3A91E5",
"$. c #3592EC",
"%. c #3A93EB",
"&. c #3D9AEE",
"*. c #3794E6",
"=. c #298CF1",
"-. c #2B93F5",
";. c #3392F2",
":. c #3E96F1",
">. c #3D9CF4",
",. c #3C9BFC",
"<. c #3598FA",
"1. c #3F8FF0",
"2. c #3BA1F7",
"3. c #478CCC",
"4. c #438BD6",
"5. c #4894D4",
"6. c #5A96D6",
"7. c #5A98D1",
"8. c #5996D9",
"9. c #5496DC",
"0. c #558CCA",
"q. c #6B98C5",
"w. c #739BC6",
"e. c #7095C2",
"r. c #6499D6",
"t. c #779CD0",
"y. c #5CA0DF",
"u. c #75A5D8",
"i. c #71A3D0",
"p. c #4495EB",
"a. c #4399ED",
"s. c #4C9BED",
"d. c #4797E7",
"f. c #529CEB",
"g. c #579CE4",
"h. c #449CF5",
"j. c #4B9FF5",
"k. c #459EFA",
"l. c #4A9EFC",
"z. c #4494F5",
"x. c #559EF3",
"c. c #4388E3",
"v. c #4DA3EC",
"b. c #54A2EC",
"n. c #59A2EC",
"m. c #5CA1E2",
"M. c #45A1F5",
"N. c #4CA2F5",
"B. c #44A1FD",
"V. c #4CA3FB",
"C. c #4DAAFE",
"Z. c #48AAF8",
"A. c #53A4F6",
"S. c #5BA7F5",
"D. c #5DA9F6",
"F. c #53A4FA",
"G. c #5AA6FA",
"H. c #56A9FA",
"J. c #5CAAFA",
"K. c #57AAF6",
"L. c #5FB3FF",
"P. c #65A5EC",
"I. c #68A8EF",
"U. c #67A6EB",
"Y. c #78B7EE",
"T. c #62A5F2",
"R. c #63AAF6",
"E. c #62AAFA",
"W. c #69A8F5",
"Q. c #73B4F6",
"!. c #6097E7",
"~. c #A7A49F",
"^. c #8696A5",
"/. c #96A9B7",
"(. c #91A6AC",
"). c #ACACAC",
"_. c #ABA9A5",
"`. c #B5B4B5",
"'. c #C3BCB6",
"]. c #8EB0D0",
"[. c #A4B9D7",
"{. c #A3B3CD",
"}. c #82BBF7",
"|. c #8BB8E7",
" X c #A1BFE3",
".X c #B7C9D5",
"XX c #ACC6D6",
"oX c #98C4E8",
"OX c #93C9F8",
"+X c #8BC5F4",
"@X c #A9C8EB",
"#X c #B6CBE9",
"$X c #B8D8EA",
"%X c #ACCBF3",
"&X c #AAD6FC",
"*X c #B6D7FA",
"=X c #B3CDF0",
"-X c #BDE3FB",
";X c #AFE2FF",
":X c #CFCECC",
">X c #D3CECC",
",X c #D8CEC7",
"<X c #D5D1CF",
"1X c #C4CDDC",
"2X c #D5D4D3",
"3X c #DCDCDC",
"4X c #D9D8D8",
"5X c #CDD6DF",
"6X c #E2DEDD",
"7X c #E2D5CD",
"8X c #E4E0DF",
"9X c #CADBEB",
"0X c #DEDFE1",
"qX c #D3DBE4",
"wX c #C7DCF5",
"eX c #D4DFF4",
"rX c #C1CDE3",
"tX c #E1DFE0",
"yX c #CBE4FD",
"uX c #CBEAFE",
"iX c #C6E7FA",
"pX c #D1E1F5",
"aX c #D3ECFF",
"sX c #D8E8F9",
"dX c #DBF7FD",
"fX c #CFE6EE",
"gX c #E4E4E4",
"hX c #E9E6E5",
"jX c #EDEBE7",
"kX c #E6E6E9",
"lX c #EBEBEB",
"zX c #E9E7E8",
"xX c #F2EFED",
"cX c #FDF4ED",
"vX c #FEFCEB",
"bX c #F7F5EA",
"nX c #EEEEF1",
"mX c #E2EBF3",
"MX c #E4FCFE",
"NX c #ECFDFE",
"BX c #ECF2F7",
"VX c #F3F3F4",
"CX c #FBF6F3",
"ZX c #F5FDF4",
"AX c #FEFCF4",
"SX c #F6F6F8",
"DX c #FBF7FC",
"FX c #F4FCFE",
"GX c #FCFCFC",
"HX c #EEF5EE",
/* pixels */
"AXFXU : : * d d : > & % & = & & % % % % % % % % & % & & & & & % & & & & & & & & & = = = & = = & = = & & = = = = % % % % % % % % % % % % % % % % & - - * % - - * . a ^.(._.~._._.).).).).).).).).).).).).).).).)._._.)._.).).).).).).).).).).).).).).).).).).).).).).).).).).).`.`.GX",
"NXX   @ o 5 @ @ 5 , , , , , + + , , , , , + + 1 1 1 1 + + 1 1 1 + + 1 1 1 1 , # , + 4 , 4 4 + + 4 + 4 4 + + 4 4 + + , 1 1 + # + 4 1 , , + , 1 , , < , @ 4 4 , # a ^..X2XhXhXjXjXlXHXlXlXHXlXlXlXlXlXHXlXzXlXHXlXHXHXHXHXHXmXHXlXlXlXlXlXlXHXlXHXlXlXlXHXlXHXlXlXjXlXHXHXlXgX3X3X`.GX",
"& o 7 x 7 7 7 q g 7 7 6 g 6 6 6 6 6 6 6 6 6 6 6 6 6 6 8 6 6 6 6 6 6 6 6 6 6 6 6 6 6 6 6 6 6 6 6 6 6 6 6 6 6 6 6 6 6 6 6 6 6 6 6 6 6 6 6 6 6 6 6 h g g 7 q g k y ^.2XBXbXhXhXhX8XgXtXgXgX0XgXgXgXgXgX0XgX0X0XgXgXgX0X0XgX0XgXgX0X8X0XgXgX0XgXgXgXgX0X0X8XgX0XgXgXgXgX3XgXgXkXHXBXAXGX",
"  t h g q q q 7 8 8 8 h h h 8 h k q k k k k k k h k h k h k h h k k q k h k h k k 6 k k k k q k k q k k q k k k k k k h k k h k k k k k k 8 k k h h 8 0 q 6 8 i `.VXVX8X2X<X<X4X4X4X4X4X4X4X4X4X4X4X4X4X4X4X4X4X4X4X4X4X4X2X4X4X4X4X4X4X4X4X2X4X4X4X4X4X4X4X4X4X3X3X2X2X2X2X4X4XSXFX",
"@ 0 x v z e w k q k w 9 9 q 9 w 9 8 h q 8 8 h 9 8 8 8 h 9 9 8 9 q q 9 8 8 8 q 9 q q q q q k q q 8 q q q 6 q q q h 8 8 9 8 8 q 9 9 8 k 9 q 8 h k l q e e w j e J ,XcX8X<X4X3X4X3X4X4X4X3X4X4X3X4X3X4X3X4X4X4X3X4X4X3X4X4X3X4X3X3X3X4X4X3X4X3X4X3X4X3X4X3X4X3X4X4X4X4X3X3X3X3X3X4X4XGX",
"@ V j j R 7 l x k v v x k j x j l x l l l x x c c l c x l l x x x x x x x x x x l x l l l c c c c c l l l l l l x c l x x l x l l x l l x x l l l k q q k v e J 7XcX2X4X3X4X4X4X3X4X3X4X4X3X4X4X4X3X4X3X4X3X4X3X3X4X4X3X4X3X4X3X4X3X3X4X3X4X4X4X3X4X3X4X4X4X4X3X3X3X3X4X4X4X4X4XtXVX",
", h x x c k x v x x v k j v v x x l l x l l l c c c c c c c l l l l l l x x l x c l c c c c c c c c l l l l c c c x l c l l x l l l l l l l l x c z z q v m e K ,XxX4X0X3X3X4X6X4X3X3X3X3X3X4X3X3X4X4X4X4X3X3X4X3X3X3X3X4X3X3X3X3X3X3X3X4X4X4X4X4X3X4X3X3X3X4X3X3X3X3X3X3X3X3X3X4XVX",
"@ Z M M B y z v M N N M N N N M M N N N N N N z N M M N N N N N z N z z N z z N b R z b z z b z x z z z b z z b N N N z N N N N N c N N N M N N c z E q T b t s <XVXqX0X5XqX4X4X3X3X3X3X3X3X3X0X0X3XtX3X3XtX3X3X3X3X3X3X3X3X3X3X3X3X3X3X3X0X0X0X3X3XtX3X3X3X3X3X3X3X3X3X3X3X3X0X3XVX",
"@ C b n V V N n b V V V V b V N A M N N N V b Q V n z R E b M B N R l V F C V G S c D Z N T b y S S S A M N V c A A b V V V b V V V V b V b V V N V m m B V m H <XxX6X0X3X0X0X0X3X3X3X3X3X0X3X3X3X3X3X3X3X8X3X3X3X3X3X3X3X0X3X3X3XgX3X3X3X3X3X3X3X0X3X3X3X3X3X3X3X3X3X0X3X3X3X3X3XVX",
"1 F A n V C V A A V V A V V A Q A A A N V V l V S S T R R ~ ^ S ~ m ( b c V N E m ^ c N T T T N D n n n z N Q ~ A A V A Q V V V Q V A V V Q V V V A n n B b n H 2XxX6X6X6X0XtX0X3X3XgX3X6X0X3X6X3XgX3X0X3X3X3XgX3X0X3XgX3X6XgX3X3X3X3XgX3X6X0X6X0X0X0X0X8X0X0X8X3X0X3X8X0X8X3X3X3XVX",
"# ! S ~ E E Q ~ Q Q Q Q Q Q Q ! A ! ~ Q ^ ~ A Q S S N B M 2 2 h V A T T m ..S V S D C b ~ { A N ! ! ~ ! D y F S ! S S A Q Q Q Q Q Q Q Q ! Q Q Q D ! A T C ~ T L 2XcX6X6X6X0XtX0X0XgX3X6X0X0X0X6X0X0XgX3X0X3X3X0XgX3XgX3X6X0X0X6XgX3XgX3X0X0X3X6X0X3X3X0X3X3X3X8XgX0X0X3X3XgX3XgX8XSX",
"5 ! ~ ~ ! ! Q ~ ! ! ! ! ! ! ! ! ^ ~ n ~ ! ~ Q V | C ; O = d d : & - e / =.S O.S Z # $ O 1 w S | C ! ^ y - X O 1 ~ D ~ ! ! ! ! ! ! Q ! ! ! ! ! ! E ^ ~ ~ E ^ T H 2XVX6X6XtX0XkX0XgXgXgXgXgX0X0X0X0X3XgXgX8XgX8X0XgX3XgXgX0X6XgX0XgXgX0XgX0XgXgX0X0XgX8XgXgXgXgX3X3XgX8X0X8X3XgX3XtXSX",
"5 ] ~ } ! _ ! ^ ^ ^ ^ ^ ^ ! ^ ^ X.^ | | ~ Q _ _ y ; H XXmXSXDXjXqX/.= - F } T ( W oX9XiX Xs B ;.' S b 3.oX9XwX].! ^ ^ ^ ^ ! ^ ! ! ! ^ ^ ^ ^ ^ ^ ! / ~ } W | ~ L <XVX8X8X0X0XgX3XgXgXgXgXgX0XgX0XgX8X8XgXgXgX0XgXgX3X0XgXgX0XgX6X3XgXgXgXgX0XgX6X0XgXgX3XgXgX3XgX0X8XgX0X0XtX8X8XtXZX",
"5 ` ^ | ^ ` / ^ / ^ ^ / / / ^ ^ ! ^ X...| o.W B : XXNXGXAXGXAXvXvXAXmXL p ` / T W iXAXcXGX{.r S ' X.( 3.yXAXGX.XS ^ ^  .^ | ^ ^ / / ^ / ^ ^ / ^ ` / ^  .]  .{ L <XZX8XgXgXgXmXgXgX3XgXgXgXgXgXgXgXgX0XgX0XgXgXgXgXgXgXgXgXgX0XgXgXgX3XgXgX0XgXgXgXgXgXgXgXgXgXgXgXgXgXgXgXgXgXgXgXSX",
"5 `  ...` ` ` ../ X.X./ X.X.`  .] ` O.^ X.] t W .XFXFXBXFXMXaXMXNXHXAXBXe.u X...! wXvXcXGXBXP w ' ..{ 3.aXGXGX.X| ^ +.X.X.X.X./ / X.X.X.X./ X./ ` X. ...` X.} L 2XbXgXgXgXgXjXgXgXgX3XgXgXgXgXgXgXgXgXgXgXgXgXgXgXgXgXgXgXgXgXgXgXgXgXgXgXgXgXgXgXgXgXgXgXgXgXgXgXgXgXgXgXgXkXgXgXSX",
"t o. .O.X.` X...X.X.X.X.X.X.X.X.' ` *.| X.W 3.}.GXAXDXeX].0.9.5.@XNXCXCXeX0.! -.[ wXGXDXNXGX$Xr ] ;.=.' uXDXFX=X| +. .+.X.X.X.X.X.X.X.X.X.X.X.X.o.X.....' $...L <XZX8XgXgXjXgXgXgXgXgXgXgXgXgXgXgXgXgXgXgXgXgXgXgXgXgXgXgXgXgXgXgXgXgXgXgXgXgXgXgXgXgXgXgXgXgXgXgXgXgXgXgXgXgXgXgXVX",
"t p.$.$.O.o.X.$.O.O.#.X.#.X.O.$.*._ p.$.-.| P MXvXAX;Xs.| @._ X.W Q.NXvXGX[.W ..[ 9XMXAXCXGXAX(.B -.$.4.pXZXDX#XX.+.#.X.X.X.o.O.#.O.O.#.O.O.O.#.o.#.O...p.#.-.L 2XDXtXtXzXzXzXkXkX8XjXgXjXgXgXgXgXjXgXgXgXgX8XkXjXgXkXgXkXgXhXhXgXgXgXgXgXgXkXgXgXgXgXkXjXlXgXgXgXzXgXkXkXkXgXkXgXFX",
"t %.$.;.o.o.%.$.#.%.O.%.O.%.#.%.*.[ 1.$.;.o.].FXcXNXY.c.$.$.[ #.` g.-XvXGXeX0.-.*.fXFXGXVXNXAXfXJ X...p.eXZXGX@XX.O.%.#.#.%.#.$.#.O.O.#.O.%.O.O.#.O.$.;.c.#.<.L >XCXhXgXzXzXkXkX8XkXgXkXgXgXgXjXgXkXkXjXkXjXkXjXkXgXkXkXkXhXkXkXjXgXgXHXjXjXkXjXkXkXgXjXgXgXgXlXzXzXzXzX8XkXgXjXgXZX",
"t p.$.:.p.o.%.:.:.%.%.%.%.:.%.%.$.d.1.*.$.4.$XGXAXyX9.+.,.;.p.%.%.X.oXFXGXGXi.-.%.9XGXSX9X*XGXGX[.i p.:.yXFXAX#XX.%.%.%.%.%.%.%.:.%.%.%.%.%.:.%.*.:.$.:.d.*.<.L >XCXgXgXlXkXkXkXkXkXzXkXkXjXgXkXlXgXkXkXkXjXkXkXzXzXkXkXhXlXzXkXjXkXgXjXkX8XkXkXkXgXkXgXlXgXlXgXkXgXkXkXjXjXkXkXgXFX",
"u a.%.<.p.p.%.:.:.:.&.z.:.:.:.%.&.a.%.a.%.9.dXAXGX*Xc.%.M.;.z.a.M.=.I.NXAXGX].=.k.pXAXGX#XI.NXAXVXP ' >.uXZXCX=X%.%.h.:.%.h.:.:.:.:.:.:.:.:.z.:.p.:.%.<.d.&.<.e.>XDXhXhXlXkXkXzXzXkXzXzXkXlXkXkXgXlXgXjXkXkXkXkXzXzXgXlXkXhXzXzXmXgXjXjXkXkXjXjXlXjXkXlXgXlXgXlXjXkXzXzXkXkXjXgXkXAX",
"B s.:.,.a.a.a.,.h.h.z.h.h.h.h.h.2.&.z.&.&.n.MXcXGX%Xz.,.>.<.z.a.,.<.m.NXCXAX X;.j.pXAXGX%Xd.*XGXAX$Xs *.uXAXAX=X:.h.h.z.z.h.h.:.h.h.h.h.h.h.h.h.a.h.:.,.s.&.,.e.>XCXzXzXlXlXlXlXzXjXlXzXlXlXzXzXHXjXjXmXlXlXzXlXjXlXkXjXlXkXlXlXjXjXlXzXlXlXjXmXlXzXlXzXHXjXkXHXlXzXlXlXzXzXlXlXkXAX",
"Z j.h.k.h.a.h.k.h.h.h.h.h.h.h.h.B.a.h.2.&.R.MXGXGX@Xc.k.,.B.s.h.,.,.r.NXCXGXOX<.p.eXGXcX%X;.I.aXAXFX].i uXZXAX%X:.h.k.h.h.k.h.h.h.h.h.h.h.h.h.h.a.k.>.,.s.h.,.w.>XCXzXlXlXlXlXlXlXkXlXkXlXlXlXzXmXjXlXjXlXlXlXlXlXlXlXlXlXlXlXlXHXkXzXlXlXlXlXlXlXlXlXlXmXjXlXzXlXlXlXlXlXlXlXlXlXGX",
"Z V.M.B.j.s.h.B.N.h.h.B.k.k.h.j.N.j.h.2.>.D.dXAXGX#X' k.B.M.f.k.B.:.u.SXGXGX X<.s.yXFXvX$X,.>.OXNXGXgXH pXZXAX%Xz.k.k.k.k.l.k.k.h.k.h.j.h.k.M.h.j.k.2.k.j.h.,.w.>XDXlXlXlXnXlXnXkXlXlXlXlXlXlXlXlXzXlXlXlXlXlXlXlXlXlXlXlXlXlXlXgXjXjXlXlXlXlXlXlXlXlXlXlXlXlXlXlXlXlXlXlXlXlXlXkXFX",
"Z F.,.B.j.j.l.B.k.k.j.M.N.h.l.l.h.N.k.Z.<.N.iXAXAXqX3.l.C.a.b.k.Z.o.].AXGXFX|.k.s.wXNXvX$X2.<.K.uXZXcX#XqXZXGX%Xh.k.l.k.k.k.l.l.l.M.B.k.N.k.k.N.j.V.B.B.f.M.,.w.>XDXlXlXnXlXlXnXlXlXlXlXlXlXlXzXlXlXHXlXlXlXlXlXHXlXlXlXlXlXlXlXHXmXHXlXlXlXlXlXlXlXlXlXHXlXlXlXlXxXlXlXlXlXlXlXlXAX",
"Z F.j.l.l.k.N.V.j.j.j.j.j.j.j.j.B.s.s.l.B.N.+XMXAXBXI i l.V.C.N.[ r 9XAXAXdXf.2.v.wXDXGX%XN.M.p.Q.MXAXvXZXNXFXrXh.h.B.N.B.k.j.l.j.j.j.j.l.j.j.j.j.v.k.l.f.B.V.q.>XCXlXlXlXnXnXlXnXnXnXnXnXnXnXnXHXlXlXnXlXnXnXlXnXnXlXlXnXnXnXnXnXnXnXnXlXnXnXnXHXHXlXnXlXnXnXlXlXnXnXlXnXnXnXnXnXGX",
"F A.j.j.l.N.j.N.j.V.F.l.F.V.V.j.B.N.x.F.B.s.Y.dXAXGXsXd 3 ) u 5 >  XFXcXGX*Xs.,.s.iXCXAX=Xs.C.N.f.&XFXAXbXZXFX1Xh.M.M.V.N.V.l.j.V.V.V.V.F.j.V.j.F.j.B.x.f.k.l.q.>XDXlXlXnXlXnXnXnXnXnXnXnXnXnXnXnXnXnXnXnXnXnXnXnXnXnXnXnXnXnXnXnXnXnXnXnXnXnXnXnXlXVXlXnXnXnXnXnXnXnXnXnXnXnXnXnXGX",
"Z G.j.V.V.V.V.A.N.V.V.N.j.V.j.V.B.N.A.F.V.h.n.OXAXAXAXmX].f f U 1XAXAXGXdXu.s.V.f.iXvXvX$Xj.N.M.d.Y.uXGXbXAXGXrXM.M.V.V.V.V.F.V.V.j.A.j.j.V.N.V.A.N.V.x.b.C.C.q.:XGXxXlXHXnXnXnXnXnXnXnXnXnXnXnXnXBXnXnXnXnXnXnXnXnXnXnXnXnXnXnXnXnXnXnXnXnXnXnXnXnXnXnXnXnXnXnXnXnXnXnXnXnXnXnXnXGX",
") J.A.F.V.V.N.A.F.A.A.V.F.F.F.A.C.A.f.x.C.k.v.P.wXFXZXvXcXHXGXFXAXGXFXaX|.g.x.k.x.uXvXvX=Xf.N.A.C.f.+XMXAXAXGXrXN.N.V.C.V.V.j.F.A.F.A.F.A.F.A.A.A.V.V.V.f.C.V.w.>XAXxXnXVXBXnXnXnXVXnXnXVXnXVXnXnXHXVXnXnXVXnXVXnXVXnXVXnXnXVXnXnXnXnXVXnXnXVXnXnXnXBXVXnXBXnXVXVXnXVXnXnXnXVXnXVXGX",
") S.A.A.V.V.A.A.A.F.A.A.N.A.F.A.C.A.f.A.H.C.M.s.6.&XdXMXAXAXGXAXGXFXuX}.b.C.C.M.E.uXFXFX&XH.V.G.C.a.S.-XGXGXNX*XN.N.A.V.F.j.A.A.A.A.A.F.A.N.A.F.A.A.V.l.x.F.C.w.:XAXxXVXVXVXHXVXVXVXBXVXnXVXVXnXnXVXnXVXVXVXnXVXBXnXVXnXVXnXVXVXVXnXVXnXVXnXVXnXnXVXVXVXVXVXnXVXBXnXVXnXnXVXVXVXVXGX",
") D.A.A.A.A.A.v.A.A.A.A.A.A.A.A.Z.A.S.A.A.V.F.V.C.v.Y.&XiXaXyXdXwXOXU.d.F.B.M.C.S.OX*X&X+XH.N.j.M.A.v.}.&X%X&XOXV.F.F.A.A.A.F.F.A.A.A.A.A.A.A.A.A.b.V.F.x.C.H.w.:XGXHXVXVXVXVXVXVXVXVXVXVXVXVXVXVXVXVXVXVXVXVXVXVXVXVXVXVXVXVXVXVXVXVXVXVXVXVXVXVXVXVXVXVXVXVXVXVXVXVXVXVXVXVXVXVXGX",
") R.A.A.V.H.A.b.A.A.A.A.H.A.A.K.A.G.G.A.A.b.G.G.C.F.b.g.g.T.Q.r.m.n.A.G.H.F.K.b.v.g.g.!.b.N.x.G.J.J.b.f.n.g.g.9.H.A.S.F.A.S.A.G.F.A.A.A.H.A.K.A.A.A.F.F.n.C.F.w.:XGXVXVXVXVXVXVXVXVXVXVXVXVXVXSXVXVXVXVXVXVXVXVXVXVXVXVXVXVXVXVXVXVXVXVXVXVXVXVXVXVXVXVXVXVXVXVXVXVXVXVXVXVXVXVXVXGX",
"4.R.A.A.K.K.K.A.J.H.J.H.H.G.H.K.S.G.G.A.A.S.G.E.x.S.K.H.F.B.C.C.A.M.F.G.J.J.S.P.H.H.G.G.C.F.G.E.A.A.J.F.C.C.V.H.H.H.G.F.S.F.S.S.H.G.J.H.H.G.H.H.A.A.F.G.n.F.F.w.:XGXVXCXVXVXVXSXVXVXVXVXVXVXVXVXSXVXSXVXSXVXSXVXSXVXSXVXSXVXVXVXSXVXSXVXVXSXSXVXVXSXVXSXVXSXVXVXSXVXSXVXSXVXSXVXSXGX",
"4.D.F.L.S.x.J.F.D.S.S.S.S.S.S.S.S.S.S.S.n.D.S.S.S.S.S.n.S.S.S.S.S.n.D.D.S.S.n.S.S.S.S.S.G.S.G.S.S.J.G.G.G.G.D.S.S.S.S.S.S.S.S.S.S.S.S.S.S.S.S.S.K.J.D.b.S.S.U.q.>XGXSXSXnXFXGXnXSXVXVXSXVXSXSXSXVXSXVXSXVXSXVXVXVXSXVXVXSXVXVXVXSXVXVXSXVXVXSXVXVXSXVXVXSXVXVXSXSXSXSXSXSXSXSXSXVXGX",
"3.D.A.J.T.P.R.H.D.D.D.D.D.D.D.D.D.J.D.D.D.D.D.D.D.D.D.D.D.D.D.D.S.S.S.S.S.S.D.D.J.J.J.J.J.S.J.E.D.D.S.S.J.E.D.D.D.D.D.D.J.D.D.D.D.D.D.J.T.D.D.J.K.J.D.D.S.G.U.i.<XAXVXVXVXVXSXVXSXSXSXSXSXSXVXVXSXSXSXSXSXSXSXSXSXSXSXSXSXSXSXSXSXSXSXSXSXSXSXSXSXSXSXSXSXSXSXSXSXSXVXSXSXVXSXVXSXGX",
"5.R.J.G.T.I.I.S.D.S.G.D.S.S.S.S.S.S.G.S.S.S.G.D.G.S.J.S.S.G.D.S.J.J.D.D.J.J.J.J.S.G.G.S.G.S.G.G.S.S.S.S.S.S.S.D.S.S.S.S.D.S.G.S.S.S.S.S.S.D.S.S.K.G.J.S.H.F.P.r.,XAXCXVXDXSXFXFXSXDXGXSXSXGXSXDXDXSXGXSXGXSXGXDXDXSXDXFXGXDXSXGXSXGXDXSXDXFXSXGXDXDXDXGXDXGXDXSXDXSXFXGXDXGXDXGXSXGX",
"0.J.J.G.E.I.R.R.J.J.J.J.J.J.J.J.J.J.J.J.J.J.J.J.J.J.J.J.J.J.J.J.J.J.J.J.J.J.J.J.J.J.J.J.J.J.J.J.D.D.R.J.D.D.R.D.J.J.J.J.J.J.J.J.J.J.J.J.J.J.J.J.J.J.J.J.J.J.E.u.'.AXAXcXCXSXSXFXSXSXSXSXSXSXFXSXSXSXSXSXSXSXSXSXSXSXSXSXSXSXSXSXSXSXSXSXSXSXSXSXSXSXVXSXSXSXSXSXSXDXSXSXSXSXSXSXAXGX",
"3.n.L.J.J.E.S.J.R.R.R.R.R.R.R.J.R.R.R.R.R.R.R.E.R.R.R.R.R.E.R.E.R.T.R.R.J.R.R.R.R.D.R.R.T.R.R.R.E.E.E.E.E.E.E.E.R.J.R.R.R.R.T.E.R.R.R.R.R.R.E.R.D.R.E.R.L.J.R.u.).SXAXAXCXAXGXGXGXGXGXGXGXGXGXGXGXGXGXGXGXFXDXGXGXGXGXGXGXGXGXGXGXGXGXGXGXGXGXGXGXGXGXGXGXFXGXGXGXGXGXGXGXGXGXGXDXSX",
"q.0.E.J.E.E.R.E.R.R.R.R.R.R.R.R.W.R.R.R.R.R.R.R.R.R.R.R.R.R.R.R.R.R.R.W.W.R.R.R.R.I.R.R.R.R.R.R.E.E.T.E.E.R.E.R.R.R.R.R.R.R.R.R.R.R.R.R.R.R.R.R.I.R.W.R.E.E.W.u./.qXVXGXGXAXGXFXGXGXGXGXGXGXGXGXGXGXGXGXGXGXGXGXGXGXGXGXGXGXGXGXGXGXGXGXGXGXGXGXGXGXGXGXGXGXGXGXGXGXGXGXGXGXGXGXGXGX",
"[.P 8.g.R.I.I.W.I.I.I.I.I.I.I.I.T.I.I.I.I.I.P.I.I.I.I.I.I.I.I.P.I.I.P.I.I.I.I.I.I.I.I.I.I.I.I.I.I.P.I.I.I.I.I.R.I.I.I.I.I.I.I.I.I.I.I.P.P.I.I.I.U.I.I.I.T.E.I.u.I /..XCXAXCXSXDXSXGXSXSXDXDXDXGXSXFXGXDXDXGXDXSXGXDXDXGXSXFXGXDXFXGXDXGXSXGXGXGXSXFXGXDXDXGXFXDXDXSXSXDXSXSXDXSXGXGX",
"FX{.t.r.r.r.r.6.8.8.8.8.8.8.8.8.8.8.8.8.8.8.8.8.8.8.8.8.6.8.8.8.8.8.8.8.8.8.8.8.6.7.6.6.6.6.6.7.7.7.7.7.7.7.7.7.8.8.8.8.8.8.8.8.8.8.8.8.8.8.8.8.r.8.r.8.g.g.r.q.I U /.SXGXAXAXGXGXGXGXGXGXGXGXGXGXGXGXGXGXGXGXGXGXGXGXGXGXGXGXGXGXGXGXGXGXGXGXGXGXGXGXGXGXGXGXGXGXGXGXGXGXGXGXGXGXGX"
};
